<svg width="10" height="10" viewBox="0 0 10 10" fill="none" xmlns="http://www.w3.org/2000/svg">
<g id="Iconly/Light-Outline/Add-User">
<g id="Add-User">
<path id="Combined-Shape" fill-rule="evenodd" clip-rule="evenodd" d="M4.27582 6.21359L4.33049 6.2136L4.45166 6.21393C5.48074 6.21943 7.89148 6.31298 7.89148 7.90322C7.89148 9.37762 5.91157 9.57465 4.37148 9.58207L4.09998 9.58196C3.0709 9.57646 0.660156 9.48294 0.660156 7.89312C0.660156 6.38755 2.72343 6.21359 4.27582 6.21359ZM4.27582 6.90211C2.33373 6.90211 1.34868 7.23581 1.34868 7.89312C1.34868 8.55686 2.33373 8.89378 4.27582 8.89378C6.21791 8.89378 7.20296 8.56007 7.20296 7.90322C7.20296 7.23857 6.21791 6.90211 4.27582 6.90211ZM8.5571 3.21287C8.74713 3.21287 8.90136 3.3671 8.90136 3.55713L8.90132 4.13287L9.4962 4.13324C9.68623 4.13324 9.84046 4.28747 9.84046 4.4775C9.84046 4.66753 9.68623 4.82176 9.4962 4.82176L8.90132 4.82139L8.90136 5.39824C8.90136 5.58827 8.74713 5.7425 8.5571 5.7425C8.36707 5.7425 8.21284 5.58827 8.21284 5.39824L8.21279 4.82139L7.61883 4.82176C7.4288 4.82176 7.27457 4.66753 7.27457 4.4775C7.27457 4.28747 7.4288 4.13324 7.61883 4.13324L8.21279 4.13287L8.21284 3.55713C8.21284 3.3671 8.36707 3.21287 8.5571 3.21287ZM4.27582 0.496094C5.62211 0.496094 6.71686 1.5913 6.71686 2.93714C6.71686 4.28297 5.62211 5.37818 4.27582 5.37818H4.26159C3.61025 5.37588 2.99976 5.12021 2.54212 4.65936C2.08402 4.19805 1.83294 3.58573 1.83522 2.93576C1.83522 1.5913 2.92999 0.496094 4.27582 0.496094ZM4.27582 1.18462C3.31005 1.18462 2.52374 1.97091 2.52374 2.93714C2.52192 3.40487 2.70186 3.84323 3.03005 4.17418C3.35871 4.50467 3.79661 4.68782 4.26297 4.68966L4.27582 5.02979V4.68966C5.24205 4.68966 6.02834 3.90336 6.02834 2.93714C6.02834 1.97091 5.24205 1.18462 4.27582 1.18462Z" fill="black"/>
</g>
</g>
</svg>
