<svg width="40" height="40" viewBox="0 0 40 40" fill="none" xmlns="http://www.w3.org/2000/svg">
<g id="Iconly/Light-Outline/Arrow---Left-Circle">
<g id="Arrow---Left-Circle">
<path id="Combined-Shape" fill-rule="evenodd" clip-rule="evenodd" d="M20 0C31.028 0 40 8.972 40 20C40 31.028 31.028 40 20 40C8.972 40 0 31.028 0 20C0 8.972 8.972 0 20 0ZM20 3C10.626 3 3 10.626 3 20C3 29.374 10.626 37 20 37C29.374 37 37 29.374 37 20C37 10.626 29.374 3 20 3ZM23.9468 11.9994C24.5328 12.5874 24.5288 13.5374 23.9428 14.1214L18.0388 19.9994L23.9428 25.8794C24.5288 26.4634 24.5328 27.4114 23.9468 27.9994C23.6548 28.2954 23.2688 28.4414 22.8848 28.4414C22.5028 28.4414 22.1188 28.2954 21.8268 28.0034L14.8528 21.0634C14.5708 20.7814 14.4128 20.3994 14.4128 19.9994C14.4128 19.6014 14.5708 19.2194 14.8528 18.9374L21.8268 11.9954C22.4128 11.4114 23.3608 11.4114 23.9468 11.9994Z" fill="black"/>
</g>
</g>
</svg>
