<svg width="40" height="40" viewBox="0 0 40 40" fill="none" xmlns="http://www.w3.org/2000/svg">
<g id="Iconly/Light-Outline/Arrow---Left-Circle">
<g id="Arrow---Left-Circle">
<path id="Combined-Shape" fill-rule="evenodd" clip-rule="evenodd" d="M20 40C8.972 40 0 31.028 0 20C0 8.972 8.972 0 20 0C31.028 0 40 8.972 40 20C40 31.028 31.028 40 20 40ZM20 37C29.374 37 37 29.374 37 20C37 10.626 29.374 3 20 3C10.626 3 3 10.626 3 20C3 29.374 10.626 37 20 37ZM16.0532 28.0006C15.4672 27.4126 15.4712 26.4626 16.0572 25.8786L21.9612 20.0006L16.0572 14.1206C15.4712 13.5366 15.4672 12.5886 16.0532 12.0006C16.3452 11.7046 16.7312 11.5586 17.1152 11.5586C17.4972 11.5586 17.8812 11.7046 18.1732 11.9966L25.1472 18.9366C25.4292 19.2186 25.5872 19.6006 25.5872 20.0006C25.5872 20.3986 25.4292 20.7806 25.1472 21.0626L18.1732 28.0046C17.5872 28.5886 16.6392 28.5886 16.0532 28.0006Z" fill="#FD5901"/>
</g>
</g>
</svg>
