<svg width="23" height="25" viewBox="0 0 23 25" fill="none" xmlns="http://www.w3.org/2000/svg">
<path fill-rule="evenodd" clip-rule="evenodd" d="M16.1363 0C20.0663 0 22.7062 2.69125 22.7062 6.69625V18.1913C22.7062 22.2313 20.1475 24.8587 16.1875 24.8837L6.57125 24.8875C2.64125 24.8875 0 22.1963 0 18.1913V6.69625C0 2.655 2.55875 0.02875 6.51875 0.005L16.135 0H16.1363ZM16.1363 1.875L6.525 1.88C3.615 1.8975 1.875 3.6975 1.875 6.69625V18.1913C1.875 21.21 3.63125 23.0125 6.57 23.0125L16.1813 23.0087C19.0913 22.9912 20.8312 21.1888 20.8312 18.1913V6.69625C20.8312 3.6775 19.0763 1.875 16.1363 1.875ZM15.8951 16.8421C16.4126 16.8421 16.8326 17.2621 16.8326 17.7796C16.8326 18.2971 16.4126 18.7171 15.8951 18.7171H6.87012C6.35262 18.7171 5.93262 18.2971 5.93262 17.7796C5.93262 17.2621 6.35262 16.8421 6.87012 16.8421H15.8951ZM15.8951 11.609C16.4126 11.609 16.8326 12.029 16.8326 12.5465C16.8326 13.064 16.4126 13.484 15.8951 13.484H6.87012C6.35262 13.484 5.93262 13.064 5.93262 12.5465C5.93262 12.029 6.35262 11.609 6.87012 11.609H15.8951ZM10.3135 6.388C10.831 6.388 11.251 6.808 11.251 7.3255C11.251 7.843 10.831 8.263 10.3135 8.263H6.86975C6.35225 8.263 5.93225 7.843 5.93225 7.3255C5.93225 6.808 6.35225 6.388 6.86975 6.388H10.3135Z" fill="black" fill-opacity="0.62"/>
</svg>
