<svg width="13" height="13" viewBox="0 0 13 13" fill="none" xmlns="http://www.w3.org/2000/svg">
<path d="M10.7667 1.26667H9.5V0.633333C9.5 0.465363 9.43327 0.304272 9.3145 0.185499C9.19573 0.066726 9.03464 0 8.86666 0C8.69869 0 8.5376 0.066726 8.41883 0.185499C8.30006 0.304272 8.23333 0.465363 8.23333 0.633333V1.26667H4.43333V0.633333C4.43333 0.465363 4.36661 0.304272 4.24783 0.185499C4.12906 0.066726 3.96797 0 3.8 0C3.63203 0 3.47094 0.066726 3.35217 0.185499C3.23339 0.304272 3.16667 0.465363 3.16667 0.633333V1.26667H1.9C1.39609 1.26667 0.912816 1.46684 0.556497 1.82316C0.200178 2.17948 0 2.66275 0 3.16667V10.7667C0 11.2706 0.200178 11.7538 0.556497 12.1102C0.912816 12.4665 1.39609 12.6667 1.9 12.6667H10.7667C11.2706 12.6667 11.7538 12.4665 12.1102 12.1102C12.4665 11.7538 12.6667 11.2706 12.6667 10.7667V3.16667C12.6667 2.66275 12.4665 2.17948 12.1102 1.82316C11.7538 1.46684 11.2706 1.26667 10.7667 1.26667ZM11.4 10.7667C11.4 10.9346 11.3333 11.0957 11.2145 11.2145C11.0957 11.3333 10.9346 11.4 10.7667 11.4H1.9C1.73203 11.4 1.57094 11.3333 1.45217 11.2145C1.33339 11.0957 1.26667 10.9346 1.26667 10.7667V6.33333H11.4V10.7667ZM11.4 5.06667H1.26667V3.16667C1.26667 2.9987 1.33339 2.8376 1.45217 2.71883C1.57094 2.60006 1.73203 2.53333 1.9 2.53333H3.16667V3.16667C3.16667 3.33464 3.23339 3.49573 3.35217 3.6145C3.47094 3.73327 3.63203 3.8 3.8 3.8C3.96797 3.8 4.12906 3.73327 4.24783 3.6145C4.36661 3.49573 4.43333 3.33464 4.43333 3.16667V2.53333H8.23333V3.16667C8.23333 3.33464 8.30006 3.49573 8.41883 3.6145C8.5376 3.73327 8.69869 3.8 8.86666 3.8C9.03464 3.8 9.19573 3.73327 9.3145 3.6145C9.43327 3.49573 9.5 3.33464 9.5 3.16667V2.53333H10.7667C10.9346 2.53333 11.0957 2.60006 11.2145 2.71883C11.3333 2.8376 11.4 2.9987 11.4 3.16667V5.06667Z" fill="#898989"/>
</svg>
