<svg width="80" height="80" viewBox="0 0 80 80" fill="none" xmlns="http://www.w3.org/2000/svg">
<g id="Iconly/Light-Outline/Call">
<g id="Call">
<g id="Group 14734">
<circle id="Ellipse 40" cx="40" cy="40" r="40" fill="white"/>
<path id="Fill-1" fill-rule="evenodd" clip-rule="evenodd" d="M23.7183 25.1226C23.7223 25.1226 23.6223 25.2266 23.4963 25.3506C23.0123 25.8206 22.0103 26.7986 22.0002 28.8446C21.9843 31.7066 23.8663 37.0206 32.9283 46.0806C41.9483 55.0966 47.2543 57.0006 50.1223 57.0006H50.1643C52.2103 56.9906 53.1863 55.9866 53.6583 55.5046C53.8023 55.3566 53.9183 55.2486 54.0003 55.1806C55.9923 53.1766 57.0123 51.6846 57.0024 50.7286C56.9883 49.7526 55.7743 48.5986 54.0963 47.0026C53.5623 46.4946 52.9823 45.9426 52.3703 45.3306C50.7843 43.7486 49.9983 44.0186 48.2703 44.6266C45.8803 45.4646 42.6003 46.6046 37.5043 41.5066C32.4003 36.4066 33.5423 33.1306 34.3783 30.7406C34.9823 29.0126 35.2583 28.2246 33.6703 26.6366C33.0483 26.0166 32.4903 25.4286 31.9763 24.8886C30.3903 23.2206 29.2463 22.0146 28.2763 22.0006H28.2603C27.3023 22.0006 25.8143 23.0246 23.7083 25.1306C23.7143 25.1246 23.7183 25.1226 23.7183 25.1226ZM50.1243 60.0006C45.1403 60.0006 38.6423 56.0326 30.8083 48.2026C22.9443 40.3406 18.9703 33.8226 19.0002 28.8286C19.0183 25.5286 20.7483 23.8386 21.3983 23.2046C21.4323 23.1626 21.5483 23.0486 21.5883 23.0086C24.4563 20.1386 26.3903 18.9786 28.3143 19.0003C30.5483 19.0306 32.1383 20.7026 34.1503 22.8206C34.6483 23.3446 35.1883 23.9146 35.7903 24.5146C38.7103 27.4346 37.8783 29.8166 37.2103 31.7286C36.4823 33.8146 35.8523 35.6146 39.6243 39.3866C43.4003 43.1586 45.2003 42.5286 47.2783 41.7946C49.1923 41.1266 51.5683 40.2906 54.4923 43.2106C55.0843 43.8026 55.6463 44.3366 56.1643 44.8306C58.2923 46.8526 59.9723 48.4506 60.0007 50.6906C60.0243 52.6006 58.8643 54.5466 56.0003 57.4126L54.7323 56.5526L55.8043 57.6006C55.1703 58.2506 53.4823 59.9826 50.1803 60.0006H50.1243Z" fill="black"/>
</g>
</g>
</g>
</svg>
