<svg width="69" height="69" viewBox="0 0 69 69" fill="none" xmlns="http://www.w3.org/2000/svg">
<g id="Group 15137">
<circle id="Ellipse 296" cx="34.507" cy="34.0568" r="34.0568" fill="white"/>
<g id="Iconly/Light-Outline/Camera">
<g id="Camera">
<path id="Combined-Shape" d="M38.6916 23.1524C39.4277 23.4455 39.9483 23.9736 40.4149 24.7479L40.5687 25.0152L41.1391 26.109L41.1579 26.1395L41.1749 26.1661L41.2234 26.2323C41.4833 26.5155 41.9182 26.6866 42.2053 26.6866C44.8349 26.6866 46.9827 28.7517 47.1144 31.348L47.1208 31.6008V38.9104C47.1208 42.2808 44.4591 45.0312 41.1237 45.1736L40.8518 45.1794H28.1625C24.7913 45.1794 22.0417 42.5181 21.8993 39.1823L21.8936 38.9104V31.6008C21.8936 28.8871 24.0946 26.6866 26.8091 26.6866C27.0951 26.6866 27.5307 26.5152 27.791 26.2323L27.7999 26.2217L27.8112 26.207L27.876 26.1075L28.4448 25.0155C28.9518 24.0941 29.5034 23.4781 30.3218 23.1523C31.8216 22.556 37.193 22.556 38.6916 23.1524ZM31.0212 24.9104C30.742 25.0215 30.4891 25.2788 30.2193 25.7248L30.1025 25.9276L29.6171 26.8662L29.4976 27.0824C29.3978 27.2483 29.2981 27.3884 29.1842 27.5125C28.6034 28.1438 27.7696 28.5084 27.0283 28.5694L26.8091 28.5786L26.6021 28.5856C25.0974 28.6873 23.8943 29.8901 23.7926 31.394L23.7856 31.6008V38.9104C23.7856 41.2468 25.6168 43.1562 27.9224 43.2809L28.1625 43.2873H40.8518C43.1878 43.2873 45.0975 41.4554 45.2223 39.1505L45.2287 38.9104V31.6008C45.2287 30.0017 43.9854 28.692 42.4122 28.5856L42.2053 28.5786L41.9856 28.5694C41.2433 28.5083 40.4094 28.1436 39.8294 27.5117C39.717 27.3892 39.6178 27.2501 39.5186 27.0856L39.4948 27.0448L39.4664 26.9942L39.32 26.7195L38.9114 25.928C38.6355 25.4271 38.3829 25.1209 38.1101 24.9671L37.9919 24.9104L37.8413 24.8603C36.5432 24.4934 32.0279 24.5101 31.0212 24.9104ZM34.5068 30.5245C37.2442 30.5245 39.4627 32.743 39.4627 35.4804C39.4627 38.2178 37.2442 40.4363 34.5068 40.4363C31.7694 40.4363 29.5509 38.2178 29.5509 35.4804C29.5509 32.743 31.7694 30.5245 34.5068 30.5245ZM34.5068 32.4166C32.8143 32.4166 31.4429 33.7879 31.4429 35.4804C31.4429 37.1729 32.8143 38.5442 34.5068 38.5442C36.1993 38.5442 37.5706 37.1729 37.5706 35.4804C37.5706 33.7879 36.1993 32.4166 34.5068 32.4166ZM41.4501 29.6428C42.1467 29.6428 42.7114 30.2075 42.7114 30.9042C42.7114 31.5511 42.2245 32.0842 41.5972 32.1571L41.4501 32.1655C40.7421 32.1655 40.1774 31.6008 40.1774 30.9042C40.1774 30.2573 40.6643 29.7242 41.2916 29.6513L41.4501 29.6428Z" fill="black"/>
</g>
</g>
</g>
</svg>
