<svg width="16" height="15" viewBox="0 0 16 15" fill="none" xmlns="http://www.w3.org/2000/svg">
<g id="Iconly/Light-Outline/Chat">
<g id="Chat">
<path id="Combined-Shape" fill-rule="evenodd" clip-rule="evenodd" d="M8.2788 0C10.2792 0 12.1591 0.77952 13.5712 2.1955C16.49 5.12096 16.49 9.88043 13.5712 12.8059C12.1403 14.2407 10.2137 15 8.26209 15C7.19818 15 6.12731 14.7746 5.12537 14.3098C4.83014 14.1912 4.55372 14.0795 4.35528 14.0795C4.12691 14.0809 3.81985 14.187 3.52323 14.2896C2.91469 14.4989 2.15714 14.7599 1.59664 14.2002C1.03823 13.6399 1.29585 12.8827 1.50334 12.2734C1.60569 11.9733 1.71083 11.6635 1.71083 11.429C1.71083 11.2364 1.61822 10.9907 1.47618 10.6369C0.172059 7.81404 0.775034 4.41193 2.9871 2.19619C4.39915 0.780218 6.2784 0 8.2788 0ZM8.27949 1.0468C6.5576 1.0468 4.94016 1.71815 3.72515 2.93663C1.82154 4.84321 1.30351 7.77077 2.43496 10.2224C2.59788 10.6265 2.75524 11.0201 2.75524 11.429C2.75524 11.8373 2.61529 12.2483 2.49205 12.6112C2.39039 12.9099 2.23652 13.3607 2.33539 13.4598C2.43217 13.5603 2.88475 13.4019 3.18345 13.2993C3.54203 13.1765 3.94866 13.0355 4.3518 13.0327C4.75564 13.0327 5.13651 13.1862 5.53965 13.3488C8.00934 14.4933 10.9302 13.9727 12.8331 12.0662C15.3439 9.54825 15.3439 5.45245 12.8331 2.93594C11.6174 1.71746 10.0007 1.0468 8.27949 1.0468ZM11.0276 7.09223C11.412 7.09223 11.7239 7.40418 11.7239 7.7901C11.7239 8.17603 11.412 8.48797 11.0276 8.48797C10.6433 8.48797 10.3286 8.17603 10.3286 7.7901C10.3286 7.40418 10.637 7.09223 11.0214 7.09223H11.0276ZM8.23639 7.09223C8.62074 7.09223 8.93267 7.40418 8.93267 7.7901C8.93267 8.17603 8.62074 8.48797 8.23639 8.48797C7.85205 8.48797 7.53733 8.17603 7.53733 7.7901C7.53733 7.40418 7.84509 7.09223 8.23013 7.09223H8.23639ZM5.44489 7.09223C5.82923 7.09223 6.14116 7.40418 6.14116 7.7901C6.14116 8.17603 5.82923 8.48797 5.44489 8.48797C5.06054 8.48797 4.74583 8.17603 4.74583 7.7901C4.74583 7.40418 5.05428 7.09223 5.43862 7.09223H5.44489Z" fill="#757575"/>
</g>
</g>
</svg>
