<svg width="14" height="14" viewBox="0 0 14 14" fill="none" xmlns="http://www.w3.org/2000/svg">
<path id="Combined-Shape" fill-rule="evenodd" clip-rule="evenodd" d="M6.50205 0C10.0872 0 13.0034 2.91621 13.0034 6.50139C13.0034 8.19286 12.3543 9.73557 11.2921 10.8934L13.3823 12.9792C13.5779 13.1748 13.5785 13.4913 13.3829 13.6869C13.2854 13.7857 13.1566 13.8344 13.0284 13.8344C12.9009 13.8344 12.7727 13.7857 12.6746 13.6882L10.5592 11.5787C9.44635 12.4699 8.03539 13.0034 6.50205 13.0034C2.91688 13.0034 0 10.0866 0 6.50139C0 2.91621 2.91688 0 6.50205 0ZM6.50205 1.00145C3.46901 1.00145 1.00145 3.46834 1.00145 6.50139C1.00145 9.53443 3.46901 12.002 6.50205 12.002C9.53443 12.002 12.002 9.53443 12.002 6.50139C12.002 3.46834 9.53443 1.00145 6.50205 1.00145Z" fill="#454545"/>
</svg>
