<svg width="18" height="18" viewBox="0 0 18 18" fill="none" xmlns="http://www.w3.org/2000/svg">
<path fill-rule="evenodd" clip-rule="evenodd" d="M7.14935 11.1432L7.25326 11.1432L7.48355 11.1438C9.43945 11.1543 14.0214 11.3321 14.0214 14.3545C14.0214 17.1568 10.2583 17.5312 7.33116 17.5454L6.81515 17.5451C4.85925 17.5347 0.277344 17.3569 0.277344 14.3353C0.277344 11.4738 4.19884 11.1432 7.14935 11.1432ZM7.14935 12.4518C3.45816 12.4518 1.58596 13.086 1.58596 14.3353C1.58596 15.5968 3.45816 16.2372 7.14935 16.2372C10.8405 16.2372 12.7127 15.6029 12.7127 14.3545C12.7127 13.0913 10.8405 12.4518 7.14935 12.4518ZM15.2864 5.43992C15.6476 5.43992 15.9407 5.73305 15.9407 6.09423L15.9407 7.1885L17.0713 7.1892C17.4325 7.1892 17.7256 7.48233 17.7256 7.84351C17.7256 8.20469 17.4325 8.49782 17.0713 8.49782L15.9407 8.49712L15.9407 9.59348C15.9407 9.95466 15.6476 10.2478 15.2864 10.2478C14.9253 10.2478 14.6321 9.95466 14.6321 9.59348L14.632 8.49712L13.5031 8.49782C13.142 8.49782 12.8488 8.20469 12.8488 7.84351C12.8488 7.48233 13.142 7.1892 13.5031 7.1892L14.632 7.1885L14.6321 6.09423C14.6321 5.73305 14.9253 5.43992 15.2864 5.43992ZM7.14935 0.276367C9.70814 0.276367 11.7888 2.35795 11.7888 4.91586C11.7888 7.47378 9.70814 9.55536 7.14935 9.55536H7.1223C5.88435 9.551 4.72404 9.06506 3.85424 8.18916C2.98357 7.31238 2.50636 6.14858 2.51069 4.91325C2.51069 2.35795 4.59143 0.276367 7.14935 0.276367ZM7.14935 1.58499C5.31379 1.58499 3.81932 3.07943 3.81932 4.91586C3.81585 5.80485 4.15784 6.63801 4.78162 7.26702C5.40626 7.89516 6.23855 8.24325 7.12492 8.24674L7.14935 8.8932V8.24674C8.98578 8.24674 10.4802 6.7523 10.4802 4.91586C10.4802 3.07943 8.98578 1.58499 7.14935 1.58499Z" fill="black"/>
</svg>
