<svg width="50" height="50" viewBox="0 0 50 50" fill="none" xmlns="http://www.w3.org/2000/svg">
<g id="Group 15458">
<circle id="Ellipse 65" cx="11.1111" cy="38.8885" r="10.8333" stroke="#FF2D20" stroke-width="0.555556"/>
<circle id="Ellipse 66" cx="36.1111" cy="11.1111" r="10.8333" stroke="#0000FF" stroke-width="0.555556"/>
<circle id="Ellipse 67" cx="22.2223" cy="25.0001" r="19.4444" fill="#FD5901"/>
<circle id="Ellipse 68" cx="2.77778" cy="5.55512" r="2.77778" fill="#FD5901" fill-opacity="0.4"/>
<circle id="Ellipse 69" cx="46.6667" cy="38.8891" r="2.77778" fill="#FD5901" fill-opacity="0.4"/>
<path id="Vector" d="M21.815 23.8707C21.715 23.8607 21.595 23.8607 21.485 23.8707C20.3372 23.8318 19.2496 23.3476 18.4526 22.5207C17.6556 21.6938 17.2117 20.5892 17.215 19.4407C17.215 16.9907 19.195 15.0007 21.655 15.0007C22.2374 14.9902 22.8162 15.0945 23.3583 15.3077C23.9004 15.5209 24.3952 15.8387 24.8144 16.2431C25.2337 16.6475 25.5692 17.1306 25.8018 17.6646C26.0344 18.1987 26.1595 18.7733 26.17 19.3557C26.1805 19.9381 26.0762 20.5169 25.863 21.059C25.6498 21.6011 25.332 22.0959 24.9276 22.5152C24.5232 22.9344 24.0402 23.2699 23.5061 23.5025C22.9721 23.7351 22.3974 23.8602 21.815 23.8707ZM16.815 27.5607C14.395 29.1807 14.395 31.8207 16.815 33.4307C19.565 35.2707 24.075 35.2707 26.825 33.4307C29.245 31.8107 29.245 29.1707 26.825 27.5607C24.085 25.7307 19.575 25.7307 16.815 27.5607Z" stroke="white" stroke-width="1.5" stroke-linecap="round" stroke-linejoin="round"/>
</g>
</svg>
