<svg width="24" height="24" viewBox="0 0 24 24" fill="none" xmlns="http://www.w3.org/2000/svg">
<path id="Vector" d="M7.57333 17.75L11.8333 13.49L16.0933 17.75L17.75 16.0933L13.49 11.8333L17.75 7.57333L16.0933 5.91667L11.8333 10.1767L7.57333 5.91667L5.91667 7.57333L10.1767 11.8333L5.91667 16.0933L7.57333 17.75ZM11.8333 23.6667C10.1964 23.6667 8.65806 23.3558 7.21833 22.7342C5.77861 22.1126 4.52625 21.2696 3.46125 20.2054C2.39625 19.1404 1.55332 17.8881 0.932467 16.4483C0.311611 15.0086 0.000788889 13.4703 0 11.8333C0 10.1964 0.310822 8.65806 0.932467 7.21833C1.55411 5.77861 2.39704 4.52625 3.46125 3.46125C4.52625 2.39625 5.77861 1.55332 7.21833 0.932467C8.65806 0.311611 10.1964 0.000788889 11.8333 0C13.4703 0 15.0086 0.310822 16.4483 0.932467C17.8881 1.55411 19.1404 2.39704 20.2054 3.46125C21.2704 4.52625 22.1137 5.77861 22.7354 7.21833C23.357 8.65806 23.6675 10.1964 23.6667 11.8333C23.6667 13.4703 23.3558 15.0086 22.7342 16.4483C22.1126 17.8881 21.2696 19.1404 20.2054 20.2054C19.1404 21.2704 17.8881 22.1137 16.4483 22.7354C15.0086 23.357 13.4703 23.6675 11.8333 23.6667ZM11.8333 21.3C14.4761 21.3 16.7146 20.3829 18.5487 18.5487C20.3829 16.7146 21.3 14.4761 21.3 11.8333C21.3 9.19056 20.3829 6.95208 18.5487 5.11792C16.7146 3.28375 14.4761 2.36667 11.8333 2.36667C9.19056 2.36667 6.95208 3.28375 5.11792 5.11792C3.28375 6.95208 2.36667 9.19056 2.36667 11.8333C2.36667 14.4761 3.28375 16.7146 5.11792 18.5487C6.95208 20.3829 9.19056 21.3 11.8333 21.3Z" fill="#545454"/>
</svg>
