<svg width="69" height="69" viewBox="0 0 69 69" fill="none" xmlns="http://www.w3.org/2000/svg">
<path d="M24.9333 3H43.7333C59.4 3 65.6666 9.26666 65.6666 24.9333V43.7333C65.6666 59.4 59.4 65.6666 43.7333 65.6666H24.9333C9.26666 65.6666 3 59.4 3 43.7333V24.9333C3 9.26666 9.26666 3 24.9333 3Z" stroke="#6BC7AD" stroke-width="4.7" stroke-linecap="round" stroke-linejoin="round"/>
<path d="M23.5862 44.5793L44.078 24.0873" stroke="#6BC7AD" stroke-width="4.7" stroke-linecap="round" stroke-linejoin="round"/>
<path d="M24.8706 29.2257C26.9991 29.2257 28.7245 27.5002 28.7245 25.3717C28.7245 23.2432 26.9991 21.5177 24.8706 21.5177C22.7421 21.5177 21.0165 23.2432 21.0165 25.3717C21.0165 27.5002 22.7421 29.2257 24.8706 29.2257Z" stroke="#6BC7AD" stroke-width="4.7" stroke-linecap="round" stroke-linejoin="round"/>
<path d="M45.3626 47.1483C47.4911 47.1483 49.2166 45.4228 49.2166 43.2943C49.2166 41.1658 47.4911 39.4403 45.3626 39.4403C43.2341 39.4403 41.5086 41.1658 41.5086 43.2943C41.5086 45.4228 43.2341 47.1483 45.3626 47.1483Z" stroke="#6BC7AD" stroke-width="4.7" stroke-linecap="round" stroke-linejoin="round"/>
</svg>
