<svg width="59" height="26" viewBox="0 0 59 26" fill="none" xmlns="http://www.w3.org/2000/svg">
<g id="Group 15174">
<rect id="Rectangle 1861" width="29.5" height="25.3596" fill="#FD5901"/>
<rect id="Rectangle 1862" x="29.5" width="29.5" height="25.3596" fill="#EAEEF2"/>
<path id="Vector" d="M10.3516 7.33099H13.232C14.5211 7.33099 15.4721 7.93856 15.6887 9.15266H10.3516V10.2632H15.6887C15.4816 11.4953 14.5782 12.0838 13.2975 12.0838H10.3516V13.4754L15.0399 18.8908H17.2695L12.5652 13.4849H13.4687C15.9159 13.4659 17.13 11.9253 17.3656 10.2632H18.8048V9.15266H17.3836C17.299 8.33058 17.0064 7.74203 16.5457 7.32254H18.8048V6.21094H10.3516V7.33099Z" fill="white"/>
<path id="Vector_2" d="M40.3672 15.0091H41.9198C41.9198 15.8476 42.9834 16.5618 44.2488 16.5618C45.5142 16.5618 46.5777 15.8476 46.5777 15.0091C46.5777 14.1552 45.7703 13.8447 44.0625 13.4332C42.4167 13.0218 40.3672 12.5094 40.3672 10.3513C40.3672 8.96165 41.5084 7.78165 43.0843 7.38573V5.69336H45.4132V7.38573C46.9892 7.78165 48.1303 8.96165 48.1303 10.3513H46.5777C46.5777 9.51283 45.5142 8.79862 44.2488 8.79862C42.9834 8.79862 41.9198 9.51283 41.9198 10.3513C41.9198 11.2052 42.7272 11.5157 44.4351 11.9272C46.0809 12.3386 48.1303 12.851 48.1303 15.0091C48.1303 16.3988 46.9892 17.5788 45.4132 17.9747V19.667H43.0843V17.9747C41.5084 17.5788 40.3672 16.3988 40.3672 15.0091Z" fill="#FD5901"/>
</g>
</svg>
