<svg width="24" height="24" viewBox="0 0 24 24" fill="none" xmlns="http://www.w3.org/2000/svg">
<path id="Vector" d="M5 2C4.20435 2 3.44129 2.31607 2.87868 2.87868C2.31607 3.44129 2 4.20435 2 5V19C2 19.7956 2.31607 20.5587 2.87868 21.1213C3.44129 21.6839 4.20435 22 5 22H19C19.7956 22 20.5587 21.6839 21.1213 21.1213C21.6839 20.5587 22 19.7956 22 19V14.54C22 14.2748 22.1054 14.0204 22.2929 13.8329C22.4804 13.6454 22.7348 13.54 23 13.54C23.2652 13.54 23.5196 13.6454 23.7071 13.8329C23.8946 14.0204 24 14.2748 24 14.54V19C24 20.3261 23.4732 21.5979 22.5355 22.5355C21.5979 23.4732 20.3261 24 19 24H5C3.67392 24 2.40215 23.4732 1.46447 22.5355C0.526784 21.5979 0 20.3261 0 19V5C0 3.67392 0.526784 2.40215 1.46447 1.46447C2.40215 0.526784 3.67392 0 5 0H9.46C9.72522 0 9.97957 0.105357 10.1671 0.292893C10.3546 0.48043 10.46 0.734784 10.46 1C10.46 1.26522 10.3546 1.51957 10.1671 1.70711C9.97957 1.89464 9.72522 2 9.46 2H5ZM13.54 1C13.54 0.734784 13.6454 0.48043 13.8329 0.292893C14.0204 0.105357 14.2748 0 14.54 0H23C23.2652 0 23.5196 0.105357 23.7071 0.292893C23.8946 0.48043 24 0.734784 24 1V9.46C24 9.72522 23.8946 9.97957 23.7071 10.1671C23.5196 10.3546 23.2652 10.46 23 10.46C22.7348 10.46 22.4804 10.3546 22.2929 10.1671C22.1054 9.97957 22 9.72522 22 9.46V3.416L15.246 10.168C15.1538 10.2635 15.0434 10.3397 14.9214 10.3921C14.7994 10.4445 14.6682 10.4721 14.5354 10.4733C14.4026 10.4744 14.2709 10.4491 14.148 10.3988C14.0252 10.3485 13.9135 10.2743 13.8196 10.1804C13.7257 10.0865 13.6515 9.97485 13.6012 9.85195C13.5509 9.72906 13.5256 9.59738 13.5267 9.4646C13.5279 9.33182 13.5555 9.2006 13.6079 9.0786C13.6603 8.95659 13.7365 8.84625 13.832 8.754L20.586 2H14.538C14.2728 2 14.0184 1.89464 13.8309 1.70711C13.6434 1.51957 13.538 1.26522 13.538 1H13.54Z" fill="#545454"/>
</svg>
