<svg width="34" height="34" viewBox="0 0 34 34" fill="none" xmlns="http://www.w3.org/2000/svg">
<path d="M12.5029 9.5C12.5209 6.2375 12.6664 4.4705 13.8184 3.3185C15.1369 2 17.2579 2 21.4999 2H22.9999C27.2434 2 29.3644 2 30.6829 3.3185C31.9999 4.6355 31.9999 6.758 31.9999 11V23C31.9999 27.242 31.9999 29.3645 30.6829 30.6815C29.3629 32 27.2434 32 22.9999 32H21.4999C17.2579 32 15.1369 32 13.8184 30.6815C12.6664 29.5295 12.5209 27.7625 12.5029 24.5" stroke="black" stroke-opacity="0.6" stroke-width="3.125" stroke-linecap="round"/>
<path d="M21.5 17H2M2 17L7.25 12.5M2 17L7.25 21.5" stroke="black" stroke-opacity="0.6" stroke-width="3.125" stroke-linecap="round" stroke-linejoin="round"/>
</svg>
