<svg width="30" height="31" viewBox="0 0 30 31" fill="none" xmlns="http://www.w3.org/2000/svg">
<path id="Vector" d="M6.75 23.5L18 18.25L23.25 7L12 12.25L6.75 23.5ZM15 16.75C14.575 16.75 14.2185 16.606 13.9305 16.318C13.6425 16.03 13.499 15.674 13.5 15.25C13.5 14.825 13.644 14.4685 13.932 14.1805C14.22 13.8925 14.576 13.749 15 13.75C15.425 13.75 15.7815 13.894 16.0695 14.182C16.3575 14.47 16.501 14.826 16.5 15.25C16.5 15.675 16.356 16.0315 16.068 16.3195C15.78 16.6075 15.424 16.751 15 16.75ZM15 30.25C12.925 30.25 10.975 29.856 9.15 29.068C7.325 28.28 5.7375 27.2115 4.3875 25.8625C3.0375 24.5125 1.969 22.925 1.182 21.1C0.395 19.275 0.001 17.325 0 15.25C0 13.175 0.394 11.225 1.182 9.4C1.97 7.575 3.0385 5.9875 4.3875 4.6375C5.7375 3.2875 7.325 2.219 9.15 1.432C10.975 0.645 12.925 0.251 15 0.25C17.075 0.25 19.025 0.644 20.85 1.432C22.675 2.22 24.2625 3.2885 25.6125 4.6375C26.9625 5.9875 28.0315 7.575 28.8195 9.4C29.6075 11.225 30.001 13.175 30 15.25C30 17.325 29.606 19.275 28.818 21.1C28.03 22.925 26.9615 24.5125 25.6125 25.8625C24.2625 27.2125 22.675 28.2815 20.85 29.0695C19.025 29.8575 17.075 30.251 15 30.25ZM15 27.25C18.35 27.25 21.1875 26.0875 23.5125 23.7625C25.8375 21.4375 27 18.6 27 15.25C27 11.9 25.8375 9.0625 23.5125 6.7375C21.1875 4.4125 18.35 3.25 15 3.25C11.65 3.25 8.8125 4.4125 6.4875 6.7375C4.1625 9.0625 3 11.9 3 15.25C3 18.6 4.1625 21.4375 6.4875 23.7625C8.8125 26.0875 11.65 27.25 15 27.25Z" fill="#545454"/>
</svg>
