<svg width="16" height="16" viewBox="0 0 16 16" fill="none" xmlns="http://www.w3.org/2000/svg">
<g id="Facebook svg" clip-path="url(#clip0_2193_2053)">
<g id="g10">
<g id="g12">
<path id="path14" d="M16 7.99953C16 3.58125 12.4183 -0.000471115 8 -0.000471115C3.58172 -0.000471115 0 3.58125 0 7.99953C0 11.9926 2.92548 15.3022 6.75 15.9023V10.312H4.71875V7.99953H6.75V6.23703C6.75 4.23203 7.94434 3.12453 9.77172 3.12453C10.647 3.12453 11.5625 3.28078 11.5625 3.28078V5.24953H10.5537C9.55992 5.24953 9.25 5.8662 9.25 6.49886V7.99953H11.4688L11.1141 10.312H9.25V15.9023C13.0745 15.3022 16 11.9926 16 7.99953Z" fill="#1877F2"/>
<path id="path16" d="M11.1141 10.3125L11.4688 8H9.25V6.49933C9.25 5.86667 9.55992 5.25 10.5537 5.25H11.5625V3.28125C11.5625 3.28125 10.647 3.125 9.77172 3.125C7.94434 3.125 6.75 4.2325 6.75 6.2375V8H4.71875V10.3125H6.75V15.9028C7.1573 15.9667 7.57475 16 8 16C8.42525 16 8.8427 15.9667 9.25 15.9028V10.3125H11.1141Z" fill="white"/>
</g>
</g>
</g>
<defs>
<clipPath id="clip0_2193_2053">
<rect width="16" height="16" fill="white"/>
</clipPath>
</defs>
</svg>
