<svg width="16" height="16" viewBox="0 0 16 16" fill="none" xmlns="http://www.w3.org/2000/svg">
<g clip-path="url(#clip0_2919_3868)">
<path d="M16 8.00002C16 3.58174 12.4183 1.71661e-05 8 1.71661e-05C3.58172 1.71661e-05 0 3.58174 0 8.00002C0 11.993 2.92548 15.3027 6.75 15.9028V10.3125H4.71875V8.00002H6.75V6.23752C6.75 4.23252 7.94434 3.12502 9.77172 3.12502C10.647 3.12502 11.5625 3.28127 11.5625 3.28127V5.25002H10.5537C9.55992 5.25002 9.25 5.86669 9.25 6.49935V8.00002H11.4688L11.1141 10.3125H9.25V15.9028C13.0745 15.3027 16 11.993 16 8.00002Z" fill="#1877F2"/>
<path d="M11.1141 10.3125L11.4688 8H9.25V6.49933C9.25 5.86667 9.55992 5.25 10.5537 5.25H11.5625V3.28125C11.5625 3.28125 10.647 3.125 9.77172 3.125C7.94434 3.125 6.75 4.2325 6.75 6.2375V8H4.71875V10.3125H6.75V15.9028C7.1573 15.9667 7.57475 16 8 16C8.42525 16 8.8427 15.9667 9.25 15.9028V10.3125H11.1141Z" fill="white"/>
</g>
<defs>
<clipPath id="clip0_2919_3868">
<rect width="16" height="16" fill="white"/>
</clipPath>
</defs>
</svg>
