<svg width="30" height="30" viewBox="0 0 30 30" fill="none" xmlns="http://www.w3.org/2000/svg">
<path id="Combined-Shape" fill-rule="evenodd" clip-rule="evenodd" d="M21.3196 0C26.512 0 30 3.2441 30 8.07182V21.9282C30 26.7981 26.6193 29.9653 21.3873 29.9955L8.68208 30C3.48968 30 0 26.7559 0 21.9282V8.07182C0 3.2004 3.38068 0.034656 8.61272 0.00602712L21.3179 0H21.3196ZM21.3196 2.26017L8.62097 2.2662C4.77622 2.28729 2.47729 4.45706 2.47729 8.07182V21.9282C2.47729 25.5671 4.79769 27.7398 8.68043 27.7398L21.379 27.7353C25.2238 27.7142 27.5227 25.5414 27.5227 21.9282V8.07182C27.5227 4.43295 25.204 2.26017 21.3196 2.26017ZM21.001 20.3019C21.6847 20.3019 22.2396 20.8082 22.2396 21.432C22.2396 22.0558 21.6847 22.5621 21.001 22.5621H9.07696C8.39323 22.5621 7.83832 22.0558 7.83832 21.432C7.83832 20.8082 8.39323 20.3019 9.07696 20.3019H21.001ZM21.001 13.9938C21.6847 13.9938 22.2396 14.5001 22.2396 15.1239C22.2396 15.7477 21.6847 16.2539 21.001 16.2539H9.07696C8.39323 16.2539 7.83832 15.7477 7.83832 15.1239C7.83832 14.5001 8.39323 13.9938 9.07696 13.9938H21.001ZM13.6264 7.70025C14.3102 7.70025 14.8651 8.20653 14.8651 8.83034C14.8651 9.45414 14.3102 9.96042 13.6264 9.96042H9.07647C8.39273 9.96042 7.83782 9.45414 7.83782 8.83034C7.83782 8.20653 8.39273 7.70025 9.07647 7.70025H13.6264Z" fill="#FD5901"/>
</svg>
