<svg width="24" height="24" viewBox="0 0 24 24" fill="none" xmlns="http://www.w3.org/2000/svg">
<g id="Iconly/Light-Outline/Folder">
<g id="Folder">
<path id="Combined-Shape" fill-rule="evenodd" clip-rule="evenodd" d="M8.86273 0C9.9655 0.00116116 11.0161 0.528327 11.6747 1.40965L12.7311 2.81697C13.0662 3.26286 13.5985 3.52876 14.1551 3.52992H17.4356C21.9139 3.52992 24 5.82786 24 10.7616L23.9675 16.5291C23.9664 21.1366 21.1068 24 16.5033 24H7.47935C2.8665 24 0 21.1354 0 16.5256V7.46974C0 2.51275 2.20206 0 6.54356 0H8.86273ZM8.86157 1.74174H6.54356C3.17611 1.74174 1.73938 3.45561 1.73938 7.46974V16.5256C1.73938 20.2227 3.77794 22.2583 7.47935 22.2583H16.5033C20.1954 22.2583 22.2281 20.2227 22.2281 16.5256V16.5221L22.2606 10.757C22.2606 6.8102 20.9085 5.27166 17.4356 5.27166H14.1539C13.0535 5.2705 12.0029 4.7445 11.3419 3.86434L10.2832 2.45469C9.95043 2.00764 9.41818 1.7429 8.86157 1.74174ZM17.0647 14.181C17.5448 14.181 17.9344 14.5712 17.9344 15.0519C17.9344 15.5326 17.5448 15.9227 17.0647 15.9227H6.93573C6.45566 15.9227 6.06604 15.5326 6.06604 15.0519C6.06604 14.5712 6.45566 14.181 6.93573 14.181H17.0647Z" fill="white"/>
</g>
</g>
</svg>
