<svg width="25" height="24" viewBox="0 0 25 24" fill="none" xmlns="http://www.w3.org/2000/svg">
<path d="M0.478081 20.261C-0.146938 20.8606 -0.176701 21.9314 0.492963 22.5596C1.14774 23.1878 2.26385 23.1735 2.88887 22.5738L11.9963 13.822L21.1186 22.5738C21.7585 23.1878 22.8597 23.1878 23.5145 22.5596C24.1544 21.9171 24.1693 20.8749 23.5145 20.261L14.4071 11.5091L23.5145 2.77155C24.1693 2.15764 24.1693 1.10113 23.5145 0.472943C22.8448 -0.140971 21.7585 -0.155248 21.1186 0.458666L11.9963 9.21051L2.88887 0.458666C2.26385 -0.140971 1.13286 -0.169525 0.492963 0.472943C-0.161819 1.10113 -0.146938 2.17191 0.478081 2.77155L9.60039 11.5091L0.478081 20.261Z" fill="#20315F"/>
</svg>