<svg width="69" height="69" viewBox="0 0 69 69" fill="none" xmlns="http://www.w3.org/2000/svg">
<g id="Group 15136">
<circle id="Ellipse 295" cx="34.0568" cy="34.0568" r="34.0568" fill="white"/>
<g id="Iconly/Light-Outline/Image-2">
<g id="Image-2">
<path id="Combined-Shape" fill-rule="evenodd" clip-rule="evenodd" d="M39.4834 21.4434C41.5116 21.4434 43.2611 22.1207 44.5414 23.4035C45.8797 24.7431 46.6138 26.6919 46.6113 28.8917L46.6132 37.7167C46.6154 37.7506 46.6158 37.7847 46.6143 37.8187L46.6113 39.1655C46.6113 43.6194 43.7442 46.6126 39.477 46.6126H28.5713C24.3079 46.6126 21.4434 43.6194 21.4434 39.1655V28.8904C21.4434 24.4366 24.3079 21.4434 28.5713 21.4434H39.4834ZM39.8322 35.1068C39.0906 35.1068 38.2202 36.3341 37.4495 37.4176C36.3925 38.906 35.2989 40.4461 33.6516 40.4461C32.5378 40.4461 31.5174 40.0173 30.618 39.6376C29.1876 39.0347 28.5393 38.8417 27.9048 39.3639C26.6347 40.4105 25.3798 42.3163 24.8032 43.2541C25.7133 44.1925 27.0062 44.7205 28.5713 44.7205H39.477C42.662 44.7205 44.7193 42.5409 44.7193 39.1655L44.7193 38.1577L44.6902 38.127C43.586 36.9894 41.6792 35.1068 39.8322 35.1068ZM39.4834 23.3354H28.5713C25.3914 23.3354 23.3354 25.5163 23.3354 28.8904V39.1655C23.3354 40.0088 23.4637 40.7775 23.7059 41.4562C24.4358 40.3541 25.5382 38.862 26.7027 37.9032C28.282 36.604 29.9823 37.318 31.3521 37.8944C32.1581 38.2337 32.92 38.5541 33.6516 38.5541C34.3226 38.5541 35.1639 37.3684 35.9082 36.3228C36.9412 34.8646 38.1143 33.2148 39.8322 33.2148C41.7176 33.2148 43.4253 34.3734 44.7206 35.5232L44.7193 28.8904C44.7218 27.1712 44.1971 25.7358 43.2031 24.7406C42.2848 23.821 40.9995 23.3354 39.4834 23.3354ZM30.0925 26.7278C31.8975 26.7291 33.3657 28.1973 33.367 30.0011C33.367 31.8061 31.8988 33.2756 30.0925 33.2756C28.2862 33.2756 26.818 31.8073 26.818 30.0023C26.818 28.1961 28.2862 26.7278 30.0925 26.7278ZM30.0913 28.6199C29.3294 28.6199 28.7101 29.2392 28.7101 30.0023C28.7101 30.7642 29.3294 31.3835 30.0925 31.3835C30.8544 31.3835 31.475 30.7642 31.475 30.0036C31.4737 29.2405 30.8531 28.6211 30.0913 28.6199Z" fill="black"/>
</g>
</g>
</g>
</svg>
