<svg width="16" height="16" viewBox="0 0 16 16" fill="none" xmlns="http://www.w3.org/2000/svg">
<g id="Google svg" clip-path="url(#clip0_2193_2042)">
<path id="Vector" d="M15.04 8.16699C15.04 7.64699 14.9933 7.14699 14.9067 6.66699H8V9.50366H11.9467C11.7767 10.4203 11.26 11.197 10.4833 11.717V13.557H12.8533C14.24 12.2803 15.04 10.4003 15.04 8.16699Z" fill="#4285F4"/>
<path id="Vector_2" d="M8.0006 15.3336C9.9806 15.3336 11.6406 14.6769 12.8539 13.5569L10.4839 11.7169C9.82727 12.1569 8.98727 12.4169 8.0006 12.4169C6.0906 12.4169 4.47393 11.1269 3.89727 9.39355H1.44727V11.2936C2.65393 13.6902 5.13393 15.3336 8.0006 15.3336Z" fill="#34A853"/>
<path id="Vector_3" d="M3.89602 9.3937C3.74935 8.9537 3.66602 8.4837 3.66602 8.00036C3.66602 7.51703 3.74935 7.04703 3.89602 6.60703V4.70703H1.44602C0.932682 5.72894 0.665563 6.85677 0.666016 8.00036C0.666016 9.1837 0.94935 10.3037 1.44602 11.2937L3.89602 9.3937Z" fill="#FBBC05"/>
<path id="Vector_4" d="M8.0006 3.58366C9.07727 3.58366 10.0439 3.95366 10.8039 4.68033L12.9073 2.57699C11.6373 1.39366 9.97727 0.666992 8.0006 0.666992C5.13393 0.666992 2.65393 2.31033 1.44727 4.70699L3.89727 6.60699C4.47393 4.87366 6.0906 3.58366 8.0006 3.58366Z" fill="#EA4335"/>
</g>
<defs>
<clipPath id="clip0_2193_2042">
<rect width="16" height="16" fill="white"/>
</clipPath>
</defs>
</svg>
