<svg width="16" height="16" viewBox="0 0 16 16" fill="none" xmlns="http://www.w3.org/2000/svg">
<g clip-path="url(#clip0_2919_3857)">
<path d="M15.04 8.16675C15.04 7.64675 14.9933 7.14675 14.9067 6.66675H8V9.50341H11.9467C11.7767 10.4201 11.26 11.1967 10.4833 11.7167V13.5567H12.8533C14.24 12.2801 15.04 10.4001 15.04 8.16675Z" fill="#4285F4"/>
<path d="M8.0006 15.3333C9.9806 15.3333 11.6406 14.6766 12.8539 13.5566L10.4839 11.7166C9.82727 12.1566 8.98727 12.4166 8.0006 12.4166C6.0906 12.4166 4.47393 11.1266 3.89727 9.39331H1.44727V11.2933C2.65393 13.69 5.13393 15.3333 8.0006 15.3333Z" fill="#34A853"/>
<path d="M3.89602 9.39321C3.74935 8.95321 3.66602 8.48321 3.66602 7.99988C3.66602 7.51654 3.74935 7.04654 3.89602 6.60654V4.70654H1.44602C0.932682 5.72845 0.665563 6.85628 0.666016 7.99988C0.666016 9.18321 0.94935 10.3032 1.44602 11.2932L3.89602 9.39321Z" fill="#FBBC05"/>
<path d="M8.0006 3.58341C9.07727 3.58341 10.0439 3.95341 10.8039 4.68008L12.9073 2.57675C11.6373 1.39341 9.97727 0.666748 8.0006 0.666748C5.13393 0.666748 2.65393 2.31008 1.44727 4.70675L3.89727 6.60675C4.47393 4.87341 6.0906 3.58341 8.0006 3.58341Z" fill="#EA4335"/>
</g>
<defs>
<clipPath id="clip0_2919_3857">
<rect width="16" height="16" fill="white"/>
</clipPath>
</defs>
</svg>
