<svg xmlns="http://www.w3.org/2000/svg" viewBox="0 0 400 300" data-imageid="logistics-0" imageName="Report presentation" class="illustrations_image" style="width: 269px;"><g id="_114_report_presentation_flatline" data-name="#114_report_presentation_flatline"><path d="M361.55,237.88H39.92a.5.5,0,0,1,0-1H361.55a.5.5,0,1,1,0,1Z" fill="#d1d3d4"/><rect x="164.82" y="32.37" width="150.32" height="214.59" transform="translate(379.65 -100.31) rotate(90)" fill="#fff"/><path d="M347.27,215.33H132.69a.5.5,0,0,1-.5-.5V64.5a.5.5,0,0,1,.5-.5H347.27a.5.5,0,0,1,.5.5V214.83A.5.5,0,0,1,347.27,215.33Zm-214.08-1H346.77V65H133.19Z" fill="#231f20"/><rect x="233.22" y="-49.55" width="13.51" height="214.59" transform="translate(182.23 297.73) rotate(-90)" fill="#fff"/><path d="M347.27,65H132.69a.5.5,0,0,1-.5-.5V51a.5.5,0,0,1,.5-.5H347.27a.5.5,0,0,1,.5.5V64.5A.5.5,0,0,1,347.27,65ZM133.19,64H346.77V51.49H133.19Z" fill="#231f20"/><path d="M325,195.39H161.12a.5.5,0,0,1-.5-.5V88.13a.5.5,0,0,1,1,0V194.39H325a.51.51,0,0,1,.5.5A.5.5,0,0,1,325,195.39Z" fill="#d1d3d4"/><path d="M193.36,195.39h-14a.5.5,0,0,1-.5-.5V136a.5.5,0,0,1,.5-.5h14a.51.51,0,0,1,.5.5v58.94A.5.5,0,0,1,193.36,195.39Zm-13.5-1h13V136.45h-13Z" fill="#d1d3d4"/><path d="M223.47,195.39h-14a.5.5,0,0,1-.5-.5V131.4a.5.5,0,0,1,.5-.5h14a.5.5,0,0,1,.5.5v63.49A.5.5,0,0,1,223.47,195.39Zm-13.49-1h13V131.9H210Z" fill="#d1d3d4"/><path d="M253.59,195.39h-14a.5.5,0,0,1-.5-.5v-38.1a.5.5,0,0,1,.5-.5h14a.5.5,0,0,1,.5.5v38.1A.5.5,0,0,1,253.59,195.39Zm-13.5-1h13v-37.1h-13Z" fill="#d1d3d4"/><path d="M283.71,195.39h-14a.5.5,0,0,1-.5-.5V122.81a.5.5,0,0,1,.5-.5h14a.5.5,0,0,1,.5.5v72.08A.5.5,0,0,1,283.71,195.39Zm-13.5-1h13V123.31h-13Z" fill="#d1d3d4"/><path d="M313.82,195.39h-14a.5.5,0,0,1-.5-.5V103.81a.5.5,0,0,1,.5-.5h14a.5.5,0,0,1,.5.5v91.08A.5.5,0,0,1,313.82,195.39Zm-13.5-1h13V104.31h-13Z" fill="#d1d3d4"/><path d="M246.59,127.53a2.46,2.46,0,0,1-1.67-.64l-28.6-25.82-32,23.75a2.5,2.5,0,1,1-3-4l33.67-25a2.49,2.49,0,0,1,3.16.15l28.58,25.81,58.59-44.15a2.5,2.5,0,0,1,3,4L248.1,127A2.49,2.49,0,0,1,246.59,127.53Z" fill="#d1d3d4"/><polygon points="305.87 88.66 297.92 77.74 309.79 77.74 305.87 88.66" fill="#d1d3d4"/><path d="M305.87,89.16a.51.51,0,0,1-.41-.2L297.51,78a.49.49,0,0,1,0-.52.51.51,0,0,1,.45-.27h11.87a.5.5,0,0,1,.47.67l-3.92,10.92a.5.5,0,0,1-.4.33Zm-7-10.92,6.82,9.36,3.36-9.36Z" fill="#d1d3d4"/><path d="M219.45,85h-19.2a.5.5,0,0,1-.5-.5.5.5,0,0,1,.5-.5h19.2a.5.5,0,0,1,.5.5A.5.5,0,0,1,219.45,85Z" fill="#d1d3d4"/><path d="M209.85,89.16h-9.6a.5.5,0,0,1-.5-.5.5.5,0,0,1,.5-.5h9.6a.51.51,0,0,1,.5.5A.5.5,0,0,1,209.85,89.16Z" fill="#d1d3d4"/><path d="M283.71,87.07H264.5a.51.51,0,0,1-.5-.5.5.5,0,0,1,.5-.5h19.21a.5.5,0,0,1,.5.5A.51.51,0,0,1,283.71,87.07Z" fill="#d1d3d4"/><path d="M274.1,91.26h-9.6a.5.5,0,0,1,0-1h9.6a.5.5,0,0,1,0,1Z" fill="#d1d3d4"/><path d="M282,203.19h-9.54a.5.5,0,0,1-.5-.5.5.5,0,0,1,.5-.5H282a.5.5,0,0,1,.5.5A.5.5,0,0,1,282,203.19Z" fill="#d1d3d4"/><path d="M251.36,203.19h-9.54a.5.5,0,0,1-.5-.5.5.5,0,0,1,.5-.5h9.54a.5.5,0,0,1,.5.5A.5.5,0,0,1,251.36,203.19Z" fill="#d1d3d4"/><path d="M221.25,203.19H211.7a.5.5,0,0,1-.5-.5.51.51,0,0,1,.5-.5h9.55a.51.51,0,0,1,.5.5A.5.5,0,0,1,221.25,203.19Z" fill="#d1d3d4"/><path d="M193.36,203.19h-9.55a.5.5,0,0,1-.5-.5.51.51,0,0,1,.5-.5h9.55a.51.51,0,0,1,.5.5A.5.5,0,0,1,193.36,203.19Z" fill="#d1d3d4"/><path d="M311.59,203.19h-9.54a.5.5,0,0,1-.5-.5.5.5,0,0,1,.5-.5h9.54a.5.5,0,0,1,.5.5A.5.5,0,0,1,311.59,203.19Z" fill="#d1d3d4"/><path d="M79.63,87.58a5.53,5.53,0,0,1,.81-7.09,9.12,9.12,0,0,1,1.83,5.32c1.21-3.51,5.3-5.1,9-5.46s7.55.08,11-1.28,6.23-5.51,4.43-8.75a12.47,12.47,0,0,1,3.61,9.8,14,14,0,0,0,5.11-8c-.1.44,5.08,3.58,5.08,14.13a18,18,0,0,1-5.13,13.4,46.48,46.48,0,0,1-6.55,5.49l-4.86,3.6c-5,3.68-12,7.33-18.46,5.44-8.34-2.44-11.5-17.83-6.18-23.77a14.48,14.48,0,0,0-6.53,2.36A6.67,6.67,0,0,1,79.63,87.58Z" fill="#fff"/><path d="M89.17,115.17a13.65,13.65,0,0,1-3.84-.54c-3.73-1.09-6.84-4.84-8.32-10s-1-10.32,1.14-13.56A13.82,13.82,0,0,0,73,93.16a.52.52,0,0,1-.56,0,.49.49,0,0,1-.21-.51,7.24,7.24,0,0,1,6.48-5.58,6.1,6.1,0,0,1,1.36-7,.5.5,0,0,1,.38-.12.49.49,0,0,1,.35.2,9.8,9.8,0,0,1,1.75,3.89c1.57-2.31,4.65-3.85,8.62-4.22,1.13-.11,2.29-.15,3.42-.18a21.85,21.85,0,0,0,7.43-1.07,7.84,7.84,0,0,0,4.37-4.42,4.28,4.28,0,0,0-.2-3.62.5.5,0,0,1,.14-.64.49.49,0,0,1,.65,0,12.92,12.92,0,0,1,3.8,9,13.57,13.57,0,0,0,4.08-7h0a.5.5,0,0,1,.6-.38.53.53,0,0,1,.38.37,3.43,3.43,0,0,0,.3.33c1.18,1.27,4.79,5.12,4.79,13.92A18.53,18.53,0,0,1,115.71,100a48.93,48.93,0,0,1-6.62,5.55l-4.86,3.59C100.26,112.05,94.74,115.17,89.17,115.17ZM79.29,89.88a.51.51,0,0,1,.45.28.52.52,0,0,1-.07.56C77.14,93.54,76.46,99,78,104.34c1.39,4.85,4.24,8.33,7.64,9.33,6.39,1.87,13.32-1.88,18-5.36l4.86-3.6A47.29,47.29,0,0,0,115,99.28c3.54-3.78,5-7.57,5-13.06,0-8-3-11.59-4.35-13a14.58,14.58,0,0,1-5,7.33.49.49,0,0,1-.54,0,.5.5,0,0,1-.26-.49,11.85,11.85,0,0,0-2-7.69,5.9,5.9,0,0,1-.37,2.15,8.88,8.88,0,0,1-4.94,5,22.85,22.85,0,0,1-7.77,1.14c-1.11,0-2.25.07-3.36.17-1.65.16-7.13,1-8.55,5.12a.5.5,0,0,1-.55.33.51.51,0,0,1-.43-.49,8.6,8.6,0,0,0-1.4-4.55,5,5,0,0,0-.33,6,.49.49,0,0,1,0,.53.46.46,0,0,1-.48.25,6.21,6.21,0,0,0-5.93,3.55,14.75,14.75,0,0,1,5.59-1.73ZM115.88,72.2Z" fill="#231f20"/><path d="M65.35,178.45l-16.94-4.29c.64-1.22,10.94-32.11,20.38-38.11,8.1-6.74,24.38-7.41,42.81-8.12a56.69,56.69,0,0,1,17.54,1.72c21.51,5.94,43.24,29.54,43.24,29.54l-27,18.66s2.59,23.91,5.54,62.3c0,0-33.75,7.59-86.48,4.64C64.41,244.79,65.85,183.91,65.35,178.45Z" fill="#d3f36b" class="target-color"/><polygon points="116.46 138.3 116.05 179.93 115.82 202.5 107.36 179.53 91.89 137.51 116.46 138.3" fill="#231f20"/><path d="M91.89,137.51l24.57.79-.41,41.63-.23,22.57-8.46-23-15.47-42m0-1a1,1,0,0,0-.81.41,1,1,0,0,0-.13.93l15.47,42,8.47,23a1,1,0,0,0,.93.65l.17,0a1,1,0,0,0,.82-1l.23-22.57.42-41.63a1,1,0,0,0-1-1l-24.58-.79Z" fill="#231f20"/><polygon points="116.05 179.93 115.82 202.5 107.36 179.53 107.32 153.15 104.75 149.93 107.99 144.98 112.5 149.59 109.52 153.01 116.05 179.93" fill="#fff"/><path d="M114.56,123.26l1.91,15s-1.45,8-10.78,7.27a18.62,18.62,0,0,1-13.8-8.06l-4-25.33s6.08-4.63,1.77-18.76a45,45,0,0,0,23.84-.55s6.62,15,6.67,22.13S114.56,123.26,114.56,123.26Z" fill="#fff"/><path d="M106.83,146.12c-.37,0-.77,0-1.18-.05a18.94,18.94,0,0,1-14.19-8.3.67.67,0,0,1-.07-.18l-4-25.33a.5.5,0,0,1,.19-.48c.05,0,5.73-4.64,1.59-18.21a.51.51,0,0,1,.13-.5.49.49,0,0,1,.5-.12,45,45,0,0,0,23.55-.56.5.5,0,0,1,.6.28c.27.62,6.66,15.18,6.71,22.33,0,6.23-4.14,8.15-5.54,8.62L117,138.24a.38.38,0,0,1,0,.15A9.92,9.92,0,0,1,106.83,146.12Zm-14.46-8.79a18.26,18.26,0,0,0,13.36,7.74c8.43.65,10.06-6,10.23-6.78l-1.9-15a.52.52,0,0,1,.4-.56c.21,0,5.23-1.16,5.19-7.77-.05-6.29-5.41-19.1-6.45-21.52a46.93,46.93,0,0,1-22.83.65c3.47,12.25-.86,17.22-2,18.25Z" fill="#231f20"/><path d="M93.06,110.88a6,6,0,0,0-2.5-2.81,10.55,10.55,0,0,0-3.4-1.07,4.43,4.43,0,0,0-2,0,3.84,3.84,0,0,0-1.2.67,4.58,4.58,0,0,0-1.79,2.62,5.48,5.48,0,0,0,.3,2.59,10.66,10.66,0,0,0,1.14,2.61,7.2,7.2,0,0,0,10,2.18" fill="#fff"/><path d="M89.72,119.3a7.37,7.37,0,0,1-1.62-.17,7.73,7.73,0,0,1-4.87-3.4A11.23,11.23,0,0,1,82,113a5.88,5.88,0,0,1-.31-2.82,5,5,0,0,1,2-2.92,4,4,0,0,1,1.38-.76,4.82,4.82,0,0,1,2.17,0,10.9,10.9,0,0,1,3.56,1.13,6.43,6.43,0,0,1,2.71,3,.5.5,0,0,1-.26.65.5.5,0,0,1-.66-.26,5.4,5.4,0,0,0-2.29-2.57,9.89,9.89,0,0,0-3.24-1,3.88,3.88,0,0,0-1.72,0,3,3,0,0,0-1,.59,4.12,4.12,0,0,0-1.61,2.32A5,5,0,0,0,83,112.7a9.75,9.75,0,0,0,1.08,2.49,6.79,6.79,0,0,0,4.23,3,6.87,6.87,0,0,0,5.08-.93.5.5,0,0,1,.69.14.49.49,0,0,1-.14.69A7.74,7.74,0,0,1,89.72,119.3Z" fill="#231f20"/><path d="M115.82,131.83a18.76,18.76,0,0,1-9.63-3.18c-4.57-3.17-4.59-5.43-4.59-5.43s6.94,2.46,12.63.32Z" fill="#231f20"/><path d="M115.82,132.33h0a19.08,19.08,0,0,1-9.91-3.27c-4.66-3.22-4.81-5.58-4.81-5.84a.52.52,0,0,1,.21-.41.53.53,0,0,1,.46-.06c.06,0,6.84,2.37,12.28.32a.48.48,0,0,1,.42,0,.49.49,0,0,1,.25.34l1.59,8.29a.5.5,0,0,1-.11.41A.46.46,0,0,1,115.82,132.33ZM102.33,124c.39.86,1.43,2.39,4.14,4.27a18.55,18.55,0,0,0,8.74,3.06l-1.36-7.1C109.35,125.65,104.35,124.54,102.33,124Z" fill="#231f20"/><path d="M104.69,103.34s6,6,5.19,7.47-4.14,1.25-4.14,1.25" fill="#fff"/><path d="M106.15,112.57h-.44a.5.5,0,0,1-.47-.52.51.51,0,0,1,.53-.47c.77,0,3.1-.06,3.68-1,.35-.58-2.09-3.85-5.12-6.87a.5.5,0,0,1,0-.7.5.5,0,0,1,.71,0c1.9,1.9,6.23,6.49,5.26,8.08C109.49,112.42,107.16,112.57,106.15,112.57Z" fill="#231f20"/><ellipse cx="98.96" cy="103.97" rx="1.18" ry="1.66" transform="translate(-10.96 11.67) rotate(-6.39)" fill="#231f20"/><ellipse cx="109.9" cy="101.85" rx="1.18" ry="1.66" transform="translate(-31.52 52.33) rotate(-23.53)" fill="#231f20"/><path d="M109.6,121.59l-.63,0a13,13,0,0,1-10.58-5.8.51.51,0,0,1,0-.48.52.52,0,0,1,.41-.26l17-.87a.5.5,0,0,1,.52.47,7.27,7.27,0,0,1-1.83,5.18A6.56,6.56,0,0,1,109.6,121.59ZM99.76,116a12.45,12.45,0,0,0,9.27,4.59,5.94,5.94,0,0,0,4.74-1.46,6.1,6.1,0,0,0,1.54-3.92Z" fill="#231f20"/><path d="M113.89,109.27a8.67,8.67,0,1,1,8.67-8.67A8.68,8.68,0,0,1,113.89,109.27Zm0-16.33a7.67,7.67,0,1,0,7.67,7.66A7.68,7.68,0,0,0,113.89,92.94Z" fill="#231f20"/><path d="M96.91,111.56a8.67,8.67,0,1,1,8.66-8.66A8.67,8.67,0,0,1,96.91,111.56Zm0-16.33a7.67,7.67,0,1,0,7.66,7.67A7.68,7.68,0,0,0,96.91,95.23Z" fill="#231f20"/><path d="M107.32,194.15A.5.5,0,0,1,107,194L85.69,174.1a.5.5,0,0,1-.08-.63L93,162l-11.12-8a.5.5,0,0,1-.17-.6L87.41,140a.51.51,0,0,1,.66-.26.5.5,0,0,1,.26.65l-5.55,13,11.18,8a.49.49,0,0,1,.12.67l-7.4,11.55,21,19.63a.5.5,0,0,1,0,.71A.51.51,0,0,1,107.32,194.15Z" fill="#231f20"/><path d="M122.06,191.18a.51.51,0,0,1-.17,0,.5.5,0,0,1-.3-.64L131.23,163l-6-3.24a.5.5,0,0,1-.26-.41.51.51,0,0,1,.21-.44l6-4.23-11.43-16.93a.5.5,0,0,1,.83-.56l11.7,17.34a.49.49,0,0,1-.13.68l-5.77,4.05,5.72,3.06a.5.5,0,0,1,.23.6l-9.78,27.88A.51.51,0,0,1,122.06,191.18Z" fill="#231f20"/><path d="M148.07,174.68s23.43,28,35.31,28c7.83,0,31-24.18,34.71-27.88a54.12,54.12,0,0,1,4.8-4.78c2.6-2,5.87-3.28,8.71-4.91a22.59,22.59,0,0,0,7.91-6.82,6.6,6.6,0,0,0,1.28-3.91c-.21-3.52-6.49-6.26-9.51-6.16-3.43.11-17.45,8.47-20.91,8.78,0,0-14.18,11.75-25.32,18.45-8-7.64-15.18-15.6-15.18-15.6" fill="#fff"/><path d="M183.38,203.19c-12,0-34.73-27-35.7-28.19a.52.52,0,0,1,.07-.71.49.49,0,0,1,.7.06c.23.28,23.42,27.84,34.93,27.84,4.66,0,15.82-8.93,33.17-26.54l1.19-1.2c.5-.5,1-1,1.5-1.58a29.18,29.18,0,0,1,3.34-3.24,33.6,33.6,0,0,1,5.68-3.32c1-.52,2.1-1.06,3.09-1.63,2.34-1.34,5.68-3.5,7.74-6.66a5.91,5.91,0,0,0,1.2-3.6c-.18-3.09-6-5.69-8.85-5.69h-.14c-1.67.05-6.44,2.4-10.66,4.47s-8.22,4-10.07,4.29c-1.37,1.14-14.74,12.07-25.26,18.4a.51.51,0,0,1-.61-.07c-7.92-7.57-15.13-15.54-15.2-15.62a.5.5,0,0,1,0-.71.5.5,0,0,1,.71,0c.07.07,7.08,7.84,14.87,15.3,10.93-6.63,24.79-18.08,24.93-18.2a.46.46,0,0,1,.27-.11c1.59-.15,5.8-2.22,9.88-4.22,4.72-2.32,9.19-4.51,11.07-4.57h.17c3.26,0,9.62,2.76,9.85,6.63a7,7,0,0,1-1.36,4.21c-2.18,3.34-5.66,5.58-8.08,7-1,.58-2.09,1.13-3.14,1.65a33.39,33.39,0,0,0-5.51,3.22,28,28,0,0,0-3.23,3.13c-.51.55-1,1.1-1.53,1.61l-1.17,1.19C199.47,194.41,188.39,203.19,183.38,203.19Z" fill="#231f20"/><polygon points="133.7 190.68 116.05 246.25 162.7 249.01 182.59 196.44 133.7 190.68" fill="#231f20"/><path d="M162.7,249.51h0L116,246.75a.49.49,0,0,1-.38-.21.53.53,0,0,1-.07-.44l17.65-55.57a.51.51,0,0,1,.54-.35l48.89,5.76a.5.5,0,0,1,.37.24.49.49,0,0,1,0,.44l-19.89,52.57A.51.51,0,0,1,162.7,249.51Zm-46-3.72,45.66,2.7,19.53-51.63-47.85-5.64Z" fill="#231f20"/><path d="M48.41,174.16s-15.72,45.37-7.66,55.13,79.4.21,79.4.21,15.87,1.7,18.71-1.7,8.13-20.36,4.43-20.36-15.21,4.24-15.21,4.24.06-7.88,0-7.68-7.93,6.84-7.93,6.84l-55-1.63,7.61-31" fill="#fff"/><path d="M65.7,234.18c-12.25,0-22.49-1.13-25.33-4.57-8.15-9.86,6.92-53.75,7.57-55.61a.49.49,0,0,1,.63-.31.5.5,0,0,1,.31.63c-.16.45-15.53,45.22-7.74,54.65,2.22,2.69,11.37,5.5,42.3,3.58C102,231.4,119.9,229,120.08,229h.12c4.34.46,16.09,1.1,18.28-1.52,2.4-2.87,6.73-16.11,5.32-19.14-.16-.35-.35-.4-.51-.4-3.57,0-14.93,4.17-15,4.21a.48.48,0,0,1-.46-.06.46.46,0,0,1-.21-.41c0-2,0-5,0-6.56-1,.87-3,2.59-7.13,6.1a.45.45,0,0,1-.34.12l-55-1.63a.47.47,0,0,1-.38-.19.54.54,0,0,1-.09-.43l7.61-31a.5.5,0,0,1,.61-.37.49.49,0,0,1,.36.6l-7.46,30.44,54.19,1.6c2.84-2.4,7.29-6.19,7.7-6.62a.5.5,0,0,1,.49-.21c.2,0,.31.05.38.64h0v0c.08.81.07,2.62,0,6.79,2.55-.92,11.44-4,14.71-4a1.55,1.55,0,0,1,1.42,1c1.68,3.6-3,17.31-5.47,20.2-2.9,3.46-17.17,2.08-19.09,1.88C117.76,230.32,88.31,234.18,65.7,234.18Z" fill="#231f20"/><line x1="138.21" y1="144.98" x2="146.25" y2="186.65" fill="#231f20"/><path d="M146.25,187.15a.5.5,0,0,1-.49-.4l-8-41.68a.49.49,0,0,1,.39-.58.5.5,0,0,1,.58.4l8.05,41.67a.5.5,0,0,1-.4.58Z" fill="#231f20"/><path d="M74.58,174.24l-.15,0a.49.49,0,0,1-.32-.62l4.45-13.94a.5.5,0,0,1,1,.3l-4.45,13.94A.51.51,0,0,1,74.58,174.24Z" fill="#231f20"/><polygon points="213.92 168.44 274.93 101.69 275.88 102.33 216.47 170.16 213.92 168.44" fill="#231f20"/><path d="M216.47,170.66a.46.46,0,0,1-.27-.09l-2.56-1.71a.51.51,0,0,1-.22-.36.5.5,0,0,1,.13-.4l61-66.75a.5.5,0,0,1,.65-.07l1,.63a.51.51,0,0,1,.22.35.53.53,0,0,1-.12.4l-59.41,67.83A.52.52,0,0,1,216.47,170.66Zm-1.79-2.31,1.71,1.15,58.74-67.07-.12-.08Z" fill="#231f20"/><path d="M209.19,157.92c4-3.54,8.27-9.14,10.27-11.28a4.79,4.79,0,0,1,1.37-1.13,4.53,4.53,0,0,1,2.1-.29,44.34,44.34,0,0,1,12.76,2.31,6.56,6.56,0,0,1,3.38,2.08,1.68,1.68,0,0,1,.36,1.09c-.06.71-.76,1.16-1.42,1.43a17.43,17.43,0,0,1-6.63,1c-3.22,0-4.27-.78-7.47-1.12.4,0,.9,3.45-.1,5.52a16.15,16.15,0,0,1-4.38,5" fill="#fff"/><path d="M219.43,163a.52.52,0,0,1-.38-.17.51.51,0,0,1,0-.71l.13-.11a15.28,15.28,0,0,0,4.13-4.75,7.85,7.85,0,0,0,.27-4.88.5.5,0,0,1,.34-.91,25.47,25.47,0,0,1,3.27.58,16.24,16.24,0,0,0,4.14.53,17,17,0,0,0,6.44-1c.4-.16,1.07-.51,1.12-1a1.28,1.28,0,0,0-.28-.75,6,6,0,0,0-3.13-1.89,43.38,43.38,0,0,0-12.62-2.29,4,4,0,0,0-1.86.24,4.37,4.37,0,0,0-1.22,1c-.62.66-1.47,1.66-2.45,2.82a89,89,0,0,1-7.86,8.49.5.5,0,0,1-.71,0,.51.51,0,0,1,0-.71,88.4,88.4,0,0,0,7.77-8.38c1-1.18,1.84-2.19,2.48-2.86a4.05,4.05,0,0,1,3.85-1.58,44.7,44.7,0,0,1,12.9,2.34,7,7,0,0,1,3.63,2.26,2.18,2.18,0,0,1,.45,1.43c-.05.53-.39,1.29-1.72,1.84a18.08,18.08,0,0,1-6.83,1,17.08,17.08,0,0,1-4.36-.56c-.7-.16-1.41-.32-2.3-.45a9,9,0,0,1-.46,5.13,16.42,16.42,0,0,1-4.37,5.06l-.13.11A.51.51,0,0,1,219.43,163Z" fill="#231f20"/></g></svg>