<svg width="89" height="90" viewBox="0 0 89 90" fill="none" xmlns="http://www.w3.org/2000/svg">
<circle cx="20" cy="70" r="19.5" stroke="#FF2D20"/>
<circle cx="65" cy="20" r="19.5" stroke="#0000FF"/>
<circle cx="40" cy="45" r="35" fill="#5228B6"/>
<circle cx="5" cy="10" r="5" fill="#FD5901" fill-opacity="0.4"/>
<circle cx="84" cy="70" r="5" fill="#FD5901" fill-opacity="0.4"/>
<path d="M51.3734 46.8804L40.2883 40.4808L29.2734 46.8415L40.3585 53.2411L51.3734 46.8804Z" stroke="white" stroke-width="1.01292" stroke-linecap="round" stroke-linejoin="round"/>
<path d="M29.2734 46.8414V59.6004L40.3585 66L51.3734 59.6406V46.8804" stroke="white" stroke-width="1.01292" stroke-linecap="round" stroke-linejoin="round"/>
<path d="M15 38.6003V51.3593L26.085 57.7589L29.2731 55.9188" stroke="white" stroke-width="1.01292" stroke-linecap="round" stroke-linejoin="round"/>
<path d="M51.373 55.8785L54.6313 57.7589L65.6462 51.3996V38.6406" stroke="white" stroke-width="1.01292" stroke-linecap="round" stroke-linejoin="round"/>
<path d="M65.6468 38.6407L54.5618 32.2411L43.5469 38.6004L54.6319 45L65.6468 38.6407Z" stroke="white" stroke-width="1.01292" stroke-linecap="round" stroke-linejoin="round"/>
<path d="M37.0999 38.6407L26.0149 32.2411L15 38.6004L26.085 45L37.0999 38.6407Z" stroke="white" stroke-width="1.01292" stroke-linecap="round" stroke-linejoin="round"/>
<path d="M51.3734 30.3996L40.2883 24L29.2734 30.3593L40.3585 36.759L51.3734 30.3996Z" stroke="white" stroke-width="1.01292" stroke-linecap="round" stroke-linejoin="round"/>
<path d="M51.373 30.3998V34.0814" stroke="white" stroke-width="1.01292" stroke-linecap="round" stroke-linejoin="round"/>
<path d="M29.2734 30.3597V34.0813" stroke="white" stroke-width="1.01292" stroke-linecap="round" stroke-linejoin="round"/>
<path d="M43.5469 38.6002V42.3618" stroke="white" stroke-width="1.01292" stroke-linecap="round" stroke-linejoin="round"/>
<path d="M37.0996 38.6403V42.3618" stroke="white" stroke-width="1.01292" stroke-linecap="round" stroke-linejoin="round"/>
</svg>
