<svg width="89" height="90" viewBox="0 0 89 90" fill="none" xmlns="http://www.w3.org/2000/svg">
<circle cx="20" cy="70" r="19.5" stroke="#FF2D20"/>
<circle cx="65" cy="20" r="19.5" stroke="#0000FF"/>
<circle cx="40" cy="45" r="35" fill="#FD5901"/>
<circle cx="5" cy="10" r="5" fill="#FD5901" fill-opacity="0.4"/>
<circle cx="84" cy="70" r="5" fill="#FD5901" fill-opacity="0.4"/>
<path d="M30 36C35.5228 36 40 33.7614 40 31C40 28.2386 35.5228 26 30 26C24.4772 26 20 28.2386 20 31C20 33.7614 24.4772 36 30 36Z" stroke="#EEEEEE" stroke-width="2" stroke-linecap="round" stroke-linejoin="round"/>
<path d="M20 31V38C20 40.761 24.477 43 30 43C35.523 43 40 40.761 40 38V31" stroke="#EEEEEE" stroke-width="2" stroke-linecap="round" stroke-linejoin="round"/>
<path d="M20 38V45C20 47.761 24.477 50 30 50C35.523 50 40 47.761 40 45V38" stroke="#EEEEEE" stroke-width="2" stroke-linecap="round" stroke-linejoin="round"/>
<path d="M20 45V52C20 54.761 24.477 57 30 57C35.523 57 40 54.761 40 52V45" stroke="#EEEEEE" stroke-width="2" stroke-linecap="round" stroke-linejoin="round"/>
<path d="M20 52V59C20 61.761 24.477 64 30 64C35.523 64 40 61.761 40 59V52" stroke="#EEEEEE" stroke-width="2" stroke-linecap="round" stroke-linejoin="round"/>
<path d="M50 50C55.5228 50 60 47.7614 60 45C60 42.2386 55.5228 40 50 40C44.4772 40 40 42.2386 40 45C40 47.7614 44.4772 50 50 50Z" stroke="#EEEEEE" stroke-width="2" stroke-linecap="round" stroke-linejoin="round"/>
<path d="M40 45V52C40 54.761 44.477 57 50 57C55.523 57 60 54.761 60 52V45" stroke="#EEEEEE" stroke-width="2" stroke-linecap="round" stroke-linejoin="round"/>
<path d="M40 52V59C40 61.761 44.477 64 50 64C55.523 64 60 61.761 60 59V52" stroke="#EEEEEE" stroke-width="2" stroke-linecap="round" stroke-linejoin="round"/>
</svg>
