<svg width="89" height="90" viewBox="0 0 89 90" fill="none" xmlns="http://www.w3.org/2000/svg">
<circle cx="20" cy="70" r="19.5" stroke="#FF2D20"/>
<circle cx="65" cy="20" r="19.5" stroke="#0000FF"/>
<circle cx="40" cy="45" r="35" fill="#5228B6"/>
<circle cx="5" cy="10" r="5" fill="#FD5901" fill-opacity="0.4"/>
<circle cx="84" cy="70" r="5" fill="#FD5901" fill-opacity="0.4"/>
<path fill-rule="evenodd" clip-rule="evenodd" d="M56.68 57.3858C56.68 63.9778 47.64 64.7398 40.842 64.7398L40.3555 64.7394C36.0244 64.7289 25 64.4554 25 57.3458C25 50.8884 33.6767 50.0254 40.423 49.9928L41.3285 49.9922C45.6593 50.0028 56.68 50.2762 56.68 57.3858ZM40.842 52.9918C32.32 52.9918 28 54.4558 28 57.3458C28 60.2618 32.32 61.7398 40.842 61.7398C49.362 61.7398 53.68 60.2758 53.68 57.3858C53.68 54.4698 49.362 52.9918 40.842 52.9918ZM40.842 24.999C46.698 24.999 51.46 29.763 51.46 35.619C51.46 41.475 46.698 46.237 40.842 46.237H40.778C34.934 46.219 30.2 41.453 30.2199 35.613C30.2199 29.763 34.984 24.999 40.842 24.999ZM40.842 27.855C36.56 27.855 33.076 31.337 33.076 35.619C33.062 39.887 36.52 43.367 40.784 43.383L40.842 44.811V43.383C45.122 43.383 48.604 39.899 48.604 35.619C48.604 31.337 45.122 27.855 40.842 27.855Z" fill="white"/>
</svg>
