<svg width="69" height="69" viewBox="0 0 69 69" fill="none" xmlns="http://www.w3.org/2000/svg">
<circle cx="34.0568" cy="34.0568" r="34.0568" fill="white"/>
<path fill-rule="evenodd" clip-rule="evenodd" d="M39.4832 21.4434C41.5115 21.4434 43.261 22.1207 44.5413 23.4035C45.8796 24.7431 46.6137 26.6919 46.6112 28.8917L46.613 37.7167C46.6152 37.7506 46.6156 37.7847 46.6142 37.8187L46.6112 39.1655C46.6112 43.6194 43.7441 46.6126 39.4769 46.6126H28.5712C24.3078 46.6126 21.4432 43.6194 21.4432 39.1655V28.8904C21.4432 24.4366 24.3078 21.4434 28.5712 21.4434H39.4832ZM39.8321 35.1068C39.0904 35.1068 38.2201 36.3341 37.4494 37.4176C36.3924 38.906 35.2988 40.4462 33.6515 40.4462C32.5377 40.4462 31.5172 40.0173 30.6179 39.6376C29.1875 39.0347 28.5392 38.8417 27.9047 39.3639C26.6346 40.4105 25.3797 42.3163 24.803 43.2541C25.7132 44.1925 27.006 44.7205 28.5712 44.7205H39.4769C42.6619 44.7205 44.7192 42.5409 44.7192 39.1655L44.7191 38.1577L44.6901 38.127C43.5858 36.9894 41.6791 35.1068 39.8321 35.1068ZM39.4832 23.3354H28.5712C25.3913 23.3354 23.3353 25.5163 23.3353 28.8904V39.1655C23.3353 40.0088 23.4636 40.7775 23.7058 41.4562C24.4357 40.3541 25.5381 38.862 26.7026 37.9032C28.2818 36.604 29.9822 37.318 31.352 37.8944C32.158 38.2337 32.9199 38.5541 33.6515 38.5541C34.3225 38.5541 35.1638 37.3684 35.908 36.3228C36.9411 34.8646 38.1142 33.2148 39.8321 33.2148C41.7175 33.2148 43.4252 34.3734 44.7205 35.5232L44.7192 28.8904C44.7217 27.1712 44.1969 25.7358 43.203 24.7406C42.2847 23.821 40.9994 23.3354 39.4832 23.3354ZM30.0924 26.7278C31.8974 26.7291 33.3656 28.1973 33.3669 30.0011C33.3669 31.8061 31.8987 33.2756 30.0924 33.2756C28.2861 33.2756 26.8179 31.8073 26.8179 30.0023C26.8179 28.1961 28.2861 26.7278 30.0924 26.7278ZM30.0911 28.6199C29.3293 28.6199 28.7099 29.2392 28.7099 30.0023C28.7099 30.7642 29.3293 31.3835 30.0924 31.3835C30.8543 31.3835 31.4748 30.7642 31.4748 30.0036C31.4736 29.2405 30.853 28.6211 30.0911 28.6199Z" fill="black"/>
</svg>
