<svg width="40" height="40" viewBox="0 0 40 40" fill="none" xmlns="http://www.w3.org/2000/svg">
<g id="Group 15186">
<circle id="Ellipse 305" cx="20" cy="20" r="20" fill="#FD5901" fill-opacity="0.5"/>
<path id="Vector" d="M14.1958 18.375C13.8375 17.3 12.8521 16.5833 11.6875 16.5833C10.1646 16.5833 9 17.7479 9 19.2708C9 20.7937 10.1646 21.9583 11.6875 21.9583C12.8521 21.9583 13.8375 21.2417 14.1958 20.1667H15.2708V21.9583H17.0625V20.1667H18.8542V18.375H14.1958ZM11.6875 20.1667C11.15 20.1667 10.7917 19.8083 10.7917 19.2708C10.7917 18.7333 11.15 18.375 11.6875 18.375C12.225 18.375 12.5833 18.7333 12.5833 19.2708C12.5833 19.8083 12.225 20.1667 11.6875 20.1667ZM23.3333 13C21.3625 13 19.75 14.6125 19.75 16.5833C19.75 18.5542 21.3625 20.1667 23.3333 20.1667C25.3042 20.1667 26.9167 18.5542 26.9167 16.5833C26.9167 14.6125 25.3042 13 23.3333 13ZM23.3333 18.4646C22.2583 18.4646 21.4521 17.6583 21.4521 16.5833C21.4521 15.5083 22.2583 14.7021 23.3333 14.7021C24.4083 14.7021 25.2146 15.5083 25.2146 16.5833C25.2146 17.6583 24.4083 18.4646 23.3333 18.4646ZM23.3333 21.0625C20.9146 21.0625 16.1667 22.2271 16.1667 24.6458V27.3333H30.5V24.6458C30.5 22.2271 25.7521 21.0625 23.3333 21.0625ZM28.7979 25.6312H17.8687V24.6458C17.8687 24.1083 20.6458 22.7646 23.3333 22.7646C26.0208 22.7646 28.7979 24.1083 28.7979 24.6458V25.6312Z" fill="white"/>
</g>
</svg>
