<svg width="9" height="11" viewBox="0 0 9 11" fill="none" xmlns="http://www.w3.org/2000/svg">
<path d="M4.48568 5.58278C5.23719 5.58278 5.84641 4.97357 5.84641 4.22206C5.84641 3.47055 5.23719 2.86133 4.48568 2.86133C3.73417 2.86133 3.12495 3.47055 3.12495 4.22206C3.12495 4.97357 3.73417 5.58278 4.48568 5.58278Z" stroke="#383838" stroke-width="0.907152" stroke-linecap="round" stroke-linejoin="round"/>
<path d="M4.48579 0.59375C3.52342 0.59375 2.60047 0.976049 1.91997 1.65654C1.23948 2.33704 0.857178 3.25999 0.857178 4.22236C0.857178 5.08052 1.03952 5.64205 1.53754 6.26345L4.48579 9.66527L7.43403 6.26345C7.93206 5.64205 8.11439 5.08052 8.11439 4.22236C8.11439 3.25999 7.7321 2.33704 7.0516 1.65654C6.3711 0.976049 5.44815 0.59375 4.48579 0.59375Z" stroke="#383838" stroke-width="0.907152" stroke-linecap="round" stroke-linejoin="round"/>
</svg>
