<svg width="89" height="90" viewBox="0 0 89 90" fill="none" xmlns="http://www.w3.org/2000/svg">
<circle cx="20" cy="70" r="19.5" stroke="#FF2D20"/>
<circle cx="65" cy="20" r="19.5" stroke="#0000FF"/>
<circle cx="40" cy="45" r="35" fill="#463F55"/>
<circle cx="5" cy="10" r="5" fill="#FD5901" fill-opacity="0.4"/>
<circle cx="84" cy="70" r="5" fill="#FD5901" fill-opacity="0.4"/>
<path d="M19 29.1667C19 28.0616 19.439 27.0018 20.2204 26.2204C21.0018 25.439 22.0616 25 23.1667 25H56.5C57.6051 25 58.6649 25.439 59.4463 26.2204C60.2277 27.0018 60.6667 28.0616 60.6667 29.1667V52.0833C60.6667 53.1884 60.2277 54.2482 59.4463 55.0296C58.6649 55.811 57.6051 56.25 56.5 56.25H41.9167V60.4167H48.1667C48.7192 60.4167 49.2491 60.6362 49.6398 61.0269C50.0305 61.4176 50.25 61.9475 50.25 62.5C50.25 63.0525 50.0305 63.5824 49.6398 63.9731C49.2491 64.3638 48.7192 64.5833 48.1667 64.5833H31.5C30.9475 64.5833 30.4176 64.3638 30.0269 63.9731C29.6362 63.5824 29.4167 63.0525 29.4167 62.5C29.4167 61.9475 29.6362 61.4176 30.0269 61.0269C30.4176 60.6362 30.9475 60.4167 31.5 60.4167H37.75V56.25H23.1667C22.0616 56.25 21.0018 55.811 20.2204 55.0296C19.439 54.2482 19 53.1884 19 52.0833V29.1667ZM56.5 52.0833V29.1667H23.1667V52.0833H56.5Z" fill="white"/>
</svg>
