<svg width="89" height="90" viewBox="0 0 89 90" fill="none" xmlns="http://www.w3.org/2000/svg">
<circle cx="20" cy="70" r="19.5" stroke="#FF2D20"/>
<circle cx="65" cy="20" r="19.5" stroke="#0000FF"/>
<circle cx="40" cy="45" r="35" fill="#FD5901"/>
<circle cx="5" cy="10" r="5" fill="#FD5901" fill-opacity="0.4"/>
<circle cx="84" cy="70" r="5" fill="#FD5901" fill-opacity="0.4"/>
<g clip-path="url(#clip0_23_97)">
<path d="M41.5 43.5C40.5 43.25 39.5 42.75 38.75 42C38 41.75 37.75 41 37.75 40.5C37.75 40 38 39.25 38.5 39C39.25 38.5 40 38 40.75 38.25C42.25 38.25 43.5 39 44.25 40L46.5 37C45.75 36.25 45 35.75 44.25 35.25C43.5 34.75 42.5 34.5 41.5 34.5V31H38.5V34.5C37.25 34.75 36 35.5 35 36.5C34 37.75 33.25 39.25 33.5 40.75C33.5 42.25 34 43.75 35 44.75C36.25 46 38 46.75 39.5 47.5C40.25 47.75 41.25 48.25 42 48.75C42.5 49.25 42.75 50 42.75 50.75C42.75 51.5 42.5 52.25 42 53C41.25 53.75 40.25 54 39.5 54C38.5 54 37.25 53.75 36.5 53C35.75 52.5 35 51.75 34.5 51L32 53.75C32.75 54.75 33.5 55.5 34.5 56.25C35.75 57 37.25 57.75 38.75 57.75V61H41.5V57.25C43 57 44.25 56.25 45.25 55.25C46.5 54 47.25 52 47.25 50.25C47.25 48.75 46.75 47 45.5 46C44.25 44.75 43 44 41.5 43.5ZM40 26C29 26 20 35 20 46C20 57 29 66 40 66C51 66 60 57 60 46C60 35 51 26 40 26ZM40 63.25C30.5 63.25 22.75 55.5 22.75 46C22.75 36.5 30.5 28.75 40 28.75C49.5 28.75 57.25 36.5 57.25 46C57.25 55.5 49.5 63.25 40 63.25Z" fill="white"/>
</g>
<defs>
<clipPath id="clip0_23_97">
<rect width="50" height="50" fill="white" transform="translate(15 21)"/>
</clipPath>
</defs>
</svg>
