<svg width="69" height="69" viewBox="0 0 69 69" fill="none" xmlns="http://www.w3.org/2000/svg">
<circle cx="34.0568" cy="34.0568" r="34.0568" fill="white"/>
<path d="M30.4504 34.0376C30.8425 34.0376 31.2185 33.8819 31.4957 33.6047C31.7729 33.3275 31.9286 32.9515 31.9286 32.5595C31.9286 32.1674 31.7729 31.7915 31.4957 31.5143C31.2185 31.237 30.8425 31.0813 30.4504 31.0813C30.0584 31.0813 29.6824 31.237 29.4052 31.5143C29.128 31.7915 28.9723 32.1674 28.9723 32.5595C28.9723 32.9515 29.128 33.3275 29.4052 33.6047C29.6824 33.8819 30.0584 34.0376 30.4504 34.0376ZM30.2258 37.8158C30.1398 37.718 30.0354 37.6382 29.9184 37.581C29.8015 37.5238 29.6744 37.4904 29.5444 37.4826C29.4145 37.4748 29.2843 37.4929 29.1614 37.5357C29.0384 37.5785 28.9252 37.6453 28.8282 37.7321C28.7312 37.8189 28.6524 37.9241 28.5963 38.0416C28.5402 38.1591 28.5079 38.2865 28.5013 38.4165C28.4948 38.5465 28.514 38.6765 28.558 38.7991C28.6019 38.9216 28.6697 39.0342 28.7575 39.1304C29.4041 39.8543 30.1965 40.4332 31.0827 40.8293C31.9689 41.2253 32.9288 41.4295 33.8995 41.4284C34.8701 41.4295 35.8301 41.2253 36.7163 40.8293C37.6024 40.4332 38.3949 39.8543 39.0415 39.1304C39.213 38.9352 39.3005 38.6803 39.2849 38.421C39.2694 38.1617 39.1521 37.919 38.9586 37.7457C38.765 37.5724 38.5109 37.4826 38.2515 37.4957C37.992 37.5088 37.7483 37.6239 37.5732 37.8158C37.1115 38.3333 36.5454 38.7472 35.9122 39.0302C35.279 39.3131 34.593 39.4588 33.8995 39.4575C32.441 39.4575 31.1304 38.8249 30.2258 37.8158ZM38.8267 32.5595C38.8267 32.9515 38.6709 33.3275 38.3937 33.6047C38.1165 33.8819 37.7406 34.0376 37.3485 34.0376C36.9565 34.0376 36.5805 33.8819 36.3033 33.6047C36.0261 33.3275 35.8704 32.9515 35.8704 32.5595C35.8704 32.1674 36.0261 31.7915 36.3033 31.5143C36.5805 31.237 36.9565 31.0813 37.3485 31.0813C37.7406 31.0813 38.1165 31.237 38.3937 31.5143C38.6709 31.7915 38.8267 32.1674 38.8267 32.5595ZM45.7248 34.5303C45.7248 32.9774 45.4189 31.4397 44.8246 30.005C44.2303 28.5703 43.3593 27.2667 42.2612 26.1686C41.1631 25.0705 39.8595 24.1995 38.4248 23.6052C36.9901 23.0109 35.4524 22.7051 33.8995 22.7051C32.3466 22.7051 30.8089 23.0109 29.3742 23.6052C27.9394 24.1995 26.6358 25.0705 25.5378 26.1686C24.4397 27.2667 23.5686 28.5703 22.9744 30.005C22.3801 31.4397 22.0742 32.9774 22.0742 34.5303C22.0742 37.6666 23.3201 40.6744 25.5378 42.8921C27.7554 45.1097 30.7632 46.3556 33.8995 46.3556C37.0357 46.3556 40.0435 45.1097 42.2612 42.8921C44.4789 40.6744 45.7248 37.6666 45.7248 34.5303ZM24.0451 34.5303C24.0451 31.9168 25.0833 29.4103 26.9314 27.5622C28.7794 25.7142 31.2859 24.676 33.8995 24.676C36.513 24.676 39.0195 25.7142 40.8676 27.5622C42.7156 29.4103 43.7539 31.9168 43.7539 34.5303C43.7539 37.1439 42.7156 39.6504 40.8676 41.4984C39.0195 43.3465 36.513 44.3847 33.8995 44.3847C31.2859 44.3847 28.7794 43.3465 26.9314 41.4984C25.0833 39.6504 24.0451 37.1439 24.0451 34.5303Z" fill="black"/>
</svg>
