<svg width="89" height="90" viewBox="0 0 89 90" fill="none" xmlns="http://www.w3.org/2000/svg">
<circle cx="20" cy="70" r="19.5" stroke="#FF2D20"/>
<circle cx="65" cy="20" r="19.5" stroke="#0000FF"/>
<circle cx="40" cy="45" r="35" fill="#5228B6"/>
<circle cx="5" cy="10" r="5" fill="#FD5901" fill-opacity="0.4"/>
<circle cx="84" cy="70" r="5" fill="#FD5901" fill-opacity="0.4"/>
<path d="M41.8633 56.3984C42.1561 56.6914 42.3206 57.0886 42.3206 57.5029C42.3206 57.9171 42.1561 58.3144 41.8633 58.6074L39.9219 60.5605C37.8688 62.6123 35.0847 63.7645 32.1821 63.7635C29.2795 63.7626 26.4961 62.6087 24.4443 60.5556C22.3925 58.5025 21.2404 55.7184 21.2413 52.8158C21.2422 49.9132 22.3961 47.1299 24.4492 45.0781L29.1602 40.3671C31.1322 38.3935 33.7839 37.2481 36.5727 37.1653C39.3615 37.0826 42.0765 38.0686 44.1621 39.9218C44.316 40.0583 44.4415 40.2237 44.5315 40.4087C44.6214 40.5936 44.6741 40.7945 44.6864 40.9998C44.6987 41.2051 44.6705 41.4108 44.6033 41.6052C44.5362 41.7996 44.4314 41.9789 44.2949 42.1328C44.1585 42.2866 43.993 42.4122 43.8081 42.5021C43.6231 42.5921 43.4223 42.6447 43.217 42.6571C43.0117 42.6694 42.8059 42.6412 42.6115 42.574C42.4171 42.5068 42.2379 42.402 42.084 42.2656C40.5944 40.9427 38.6557 40.2389 36.6643 40.2981C34.673 40.3573 32.7795 41.175 31.3711 42.5839L26.6602 47.289C25.1947 48.7544 24.3715 50.742 24.3715 52.8144C24.3715 54.8868 25.1947 56.8744 26.6602 58.3398C28.1256 59.8052 30.1131 60.6285 32.1855 60.6285C34.258 60.6285 36.2455 59.8052 37.7109 58.3398L39.6523 56.3984C39.7975 56.2531 39.9698 56.1379 40.1595 56.0592C40.3492 55.9806 40.5525 55.9401 40.7578 55.9401C40.9631 55.9401 41.1665 55.9806 41.3562 56.0592C41.5458 56.1379 41.7182 56.2531 41.8633 56.3984ZM55.5508 29.4453C53.4974 27.3965 50.7151 26.2458 47.8145 26.2458C44.9138 26.2458 42.1315 27.3965 40.0781 29.4453L38.1367 31.3886C37.8438 31.6818 37.6793 32.0793 37.6795 32.4938C37.6797 32.9082 37.8445 33.3056 38.1377 33.5986C38.4309 33.8915 38.8284 34.056 39.2429 34.0558C39.6573 34.0556 40.0547 33.8908 40.3477 33.5976L42.2891 31.6562C43.7545 30.1908 45.742 29.3675 47.8145 29.3675C49.8869 29.3675 51.8744 30.1908 53.3398 31.6562C54.8053 33.1216 55.6285 35.1092 55.6285 37.1816C55.6285 39.254 54.8053 41.2415 53.3398 42.707L48.6289 47.4218C47.2197 48.83 45.3258 49.6466 43.3345 49.7047C41.3432 49.7627 39.4049 49.0579 37.916 47.7343C37.6052 47.4587 37.1977 47.3179 36.783 47.3428C36.3684 47.3677 35.9807 47.5563 35.7051 47.8671C35.4295 48.1779 35.2887 48.5855 35.3136 49.0001C35.3385 49.4147 35.5271 49.8025 35.8379 50.0781C37.923 51.9317 40.6377 52.9185 43.4265 52.8365C46.2153 52.7544 48.8673 51.6097 50.8398 49.6367L55.5508 44.9257C57.6008 42.8722 58.7521 40.0891 58.7521 37.1874C58.7521 34.2858 57.6008 31.5027 55.5508 29.4492V29.4453Z" fill="white"/>
</svg>
