<svg width="89" height="90" viewBox="0 0 89 90" fill="none" xmlns="http://www.w3.org/2000/svg">
<circle cx="20" cy="70" r="19.5" stroke="#FF2D20"/>
<circle cx="65" cy="20" r="19.5" stroke="#0000FF"/>
<circle cx="40" cy="45" r="35" fill="#463F55"/>
<circle cx="5" cy="10" r="5" fill="#FD5901" fill-opacity="0.4"/>
<circle cx="84" cy="70" r="5" fill="#FD5901" fill-opacity="0.4"/>
<path d="M48.72 49C48.88 47.68 49 46.36 49 45C49 43.64 48.88 42.32 48.72 41H55.48C55.8 42.28 56 43.62 56 45C56 46.38 55.8 47.72 55.48 49M45.18 60.12C46.38 57.9 47.3 55.5 47.94 53H53.84C51.9023 56.3366 48.8282 58.864 45.18 60.12ZM44.68 49H35.32C35.12 47.68 35 46.36 35 45C35 43.64 35.12 42.3 35.32 41H44.68C44.86 42.3 45 43.64 45 45C45 46.36 44.86 47.68 44.68 49ZM40 60.92C38.34 58.52 37 55.86 36.18 53H43.82C43 55.86 41.66 58.52 40 60.92ZM32 37H26.16C28.0777 33.6544 31.1496 31.123 34.8 29.88C33.6 32.1 32.7 34.5 32 37ZM26.16 53H32C32.7 55.5 33.6 57.9 34.8 60.12C31.1572 58.8633 28.0897 56.3354 26.16 53ZM24.52 49C24.2 47.72 24 46.38 24 45C24 43.62 24.2 42.28 24.52 41H31.28C31.12 42.32 31 43.64 31 45C31 46.36 31.12 47.68 31.28 49M40 29.06C41.66 31.46 43 34.14 43.82 37H36.18C37 34.14 38.34 31.46 40 29.06ZM53.84 37H47.94C47.314 34.5229 46.3871 32.1318 45.18 29.88C48.86 31.14 51.92 33.68 53.84 37ZM40 25C28.94 25 20 34 20 45C20 50.3043 22.1071 55.3914 25.8579 59.1421C27.715 60.9993 29.9198 62.4725 32.3463 63.4776C34.7728 64.4827 37.3736 65 40 65C45.3043 65 50.3914 62.8929 54.1421 59.1421C57.8929 55.3914 60 50.3043 60 45C60 42.3736 59.4827 39.7728 58.4776 37.3463C57.4725 34.9198 55.9993 32.715 54.1421 30.8579C52.285 29.0007 50.0802 27.5275 47.6537 26.5224C45.2272 25.5173 42.6264 25 40 25Z" fill="white"/>
</svg>
