<svg width="89" height="90" viewBox="0 0 89 90" fill="none" xmlns="http://www.w3.org/2000/svg">
<circle cx="20" cy="70" r="19.5" stroke="#FF2D20"/>
<circle cx="65" cy="20" r="19.5" stroke="#0000FF"/>
<circle cx="40" cy="45" r="35" fill="#5228B6"/>
<circle cx="5" cy="10" r="5" fill="#FD5901" fill-opacity="0.4"/>
<circle cx="84" cy="70" r="5" fill="#FD5901" fill-opacity="0.4"/>
<path d="M43.1729 57.8161C42.2601 56.8625 41.0302 56.3371 39.7096 56.3371C38.3891 56.3371 37.1591 56.8624 36.2466 57.8162C35.6223 58.4685 35.0928 59.2031 34.6725 59.9995C34.4341 60.4512 34.6073 61.0105 35.0589 61.2488C35.5107 61.4868 36.0699 61.3141 36.3082 60.8625C36.6482 60.2178 37.0769 59.6231 37.5825 59.0948C38.143 58.509 38.8984 58.1864 39.7095 58.1864C40.5206 58.1864 41.276 58.509 41.8366 59.0948C43.2387 60.5601 44.011 62.4842 44.011 64.513C44.011 67.5167 42.2631 71.6199 39.7094 73.0471C37.1558 71.6199 35.4079 67.5166 35.4079 64.513C35.4079 64.0023 34.9938 63.5883 34.4832 63.5883C33.9727 63.5883 33.5586 64.0024 33.5586 64.513C33.5586 66.4415 34.1283 68.644 35.1216 70.5557C36.2124 72.655 37.709 74.2069 39.3358 74.9256C39.4549 74.9781 39.5821 75.0045 39.7095 75.0045C39.8368 75.0045 39.9642 74.9782 40.0831 74.9256C41.71 74.2068 43.2066 72.655 44.2973 70.5557C45.2907 68.644 45.8604 66.4415 45.8604 64.513C45.8605 62.0055 44.906 59.6272 43.1729 57.8161Z" fill="white"/>
<path d="M55.1418 42.9695C53.772 40.557 52.1731 38.9801 51.4816 38.3598C51.4315 36.0445 50.98 33.5216 50.1676 31.0331C50.0091 30.5476 49.4869 30.2825 49.0017 30.441C48.5162 30.5995 48.2513 31.1216 48.4096 31.6069C49.2128 34.0669 49.6373 36.5504 49.6373 38.7885C49.6373 43.2583 47.9358 47.4981 44.8464 50.7266C43.4929 52.141 41.6691 52.9199 39.7109 52.9199C37.7527 52.9199 35.9288 52.1411 34.5754 50.7266C31.4859 47.4981 29.7844 43.2584 29.7844 38.7885C29.7844 35.2259 30.8504 31.1308 32.7093 27.5533C34.5889 23.936 37.063 21.252 39.711 19.9452C42.3934 21.2686 44.8911 23.9981 46.7786 27.6818C47.0117 28.1363 47.5688 28.3159 48.0233 28.0829C48.4779 27.85 48.6573 27.2928 48.4244 26.8383C46.2565 22.6078 43.2947 19.4971 40.0844 18.0789C39.8464 17.9737 39.5752 17.9737 39.337 18.0789C36.1655 19.48 33.2289 22.5419 31.0681 26.7006C29.1505 30.3908 28.0238 34.6117 27.9428 38.3569C27.2528 38.9755 25.6514 40.5536 24.2797 42.9691C22.6434 45.851 21.041 50.5156 22.6991 56.3735C22.7896 56.6935 23.0449 56.9401 23.3677 57.0196C23.441 57.0376 23.5151 57.0463 23.5886 57.0463C23.8392 57.0463 24.083 56.9442 24.2598 56.7576C24.3081 56.7067 29.1404 51.6892 34.4705 53.0777C35.9838 54.1757 37.7955 54.7692 39.7107 54.7692C41.6258 54.7692 43.4374 54.1756 44.9507 53.0777C50.261 51.6948 55.1136 56.7076 55.1614 56.7576C55.3382 56.9443 55.5819 57.0463 55.8325 57.0463C55.9061 57.0463 55.9803 57.0375 56.0534 57.0196C56.3763 56.9401 56.6315 56.6934 56.7221 56.3735C58.3803 50.5159 56.778 45.8512 55.1418 42.9695ZM26.4823 52.7621C25.5272 53.3121 24.7263 53.9014 24.1269 54.3908C23.4264 50.7387 24.0049 47.2312 25.8532 43.9439C26.5783 42.6543 27.385 41.6215 28.0491 40.8779C28.4535 44.6 29.9332 48.1006 32.3347 50.991C30.4287 51.0362 28.4451 51.6318 26.4823 52.7621ZM55.2945 54.3908C54.6952 53.9014 53.8943 53.3121 52.9392 52.7621C50.9766 51.6318 48.9929 51.0362 47.0869 50.9911C49.4884 48.1007 50.9681 44.6001 51.3725 40.878C52.0366 41.6215 52.8432 42.6544 53.5684 43.944C55.4166 47.2312 55.9951 50.7387 55.2945 54.3908Z" fill="white"/>
<path d="M42.8643 36.5714H37.486V34.5986H42.8642C43.3749 34.5986 43.7889 34.1846 43.7889 33.674C43.7889 33.1633 43.3748 32.7493 42.8642 32.7493H40.6374V31.49C40.6374 30.9793 40.2233 30.5654 39.7127 30.5654C39.202 30.5654 38.7881 30.9794 38.7881 31.49V32.7493H36.5614C36.0507 32.7493 35.6367 33.1634 35.6367 33.674V37.4961C35.6367 38.0068 36.0508 38.4207 36.5614 38.4207H41.9397V40.3935H36.5614C36.0507 40.3935 35.6367 40.8075 35.6367 41.3181C35.6367 41.8287 36.0508 42.2428 36.5614 42.2428H38.7882V43.5021C38.7882 44.0128 39.2023 44.4267 39.7129 44.4267C40.2236 44.4267 40.6375 44.0127 40.6375 43.5021V42.2428H42.8643C43.375 42.2428 43.789 41.8287 43.789 41.3181V37.4961C43.789 36.9854 43.3749 36.5714 42.8643 36.5714Z" fill="white"/>
</svg>
