<svg width="89" height="90" viewBox="0 0 89 90" fill="none" xmlns="http://www.w3.org/2000/svg">
<circle cx="20" cy="70" r="19.5" stroke="#FF2D20"/>
<circle cx="65" cy="20" r="19.5" stroke="#0000FF"/>
<circle cx="40" cy="45" r="35" fill="#FD5901"/>
<circle cx="5" cy="10" r="5" fill="#FD5901" fill-opacity="0.4"/>
<circle cx="84" cy="70" r="5" fill="#FD5901" fill-opacity="0.4"/>
<path d="M40.4613 27.8408C35.1358 27.8408 30.7963 29.9604 30.7963 32.5588C30.7963 35.1574 35.1358 37.2736 40.4613 37.2736C45.7865 37.2736 50.1261 35.1574 50.1261 32.5588C50.1261 29.9602 45.7865 27.8408 40.4613 27.8408ZM40.4613 29.1348C44.3744 29.1348 47.474 30.6492 47.474 32.5588C47.474 34.4684 44.3744 36.0227 40.4613 36.0227C36.548 36.0227 33.3627 34.4684 33.3627 32.5588C33.3627 30.6494 36.548 29.1346 40.4613 29.1348ZM23.4506 30.5843C22.1574 30.5751 20.3027 32.0091 19.3188 34.2647C15.0902 43.9565 18.3829 69.3912 27.9002 68.6368C25.7516 63.706 23.6229 58.0916 22.3611 52.1573C24.9331 59.2368 29.4246 65.3976 33.8694 63.8942C30.7428 59.9699 27.4194 55.3723 25.0773 50.189C28.4968 55.9678 33.4142 60.5262 37.0919 58.5386C34.1874 55.9426 31.0794 52.921 28.4189 49.4321C32.2906 53.0825 36.9239 55.4224 39.3808 53.1187C34.7235 51.061 30.1649 47.8774 27.1677 44.354C25.5747 42.4813 24.4143 40.5073 23.9724 38.4946C23.7517 37.4882 23.7274 36.4638 23.9267 35.4733C23.9286 35.4641 23.9309 35.4552 23.9328 35.446C23.9335 35.4417 23.935 35.4379 23.9357 35.4337C24.3313 33.357 25.4048 31.9754 24.3752 30.9444C24.1326 30.7016 23.8127 30.587 23.4504 30.5844L23.4506 30.5843ZM57.4016 30.5843C57.0393 30.5869 56.7225 30.7015 56.4799 30.9444C55.6815 31.7438 56.1463 32.7573 56.5805 34.1397C57.1814 35.5252 57.2781 37.0271 56.956 38.4945C56.5142 40.5072 55.3505 42.4813 53.7577 44.3539C50.7501 47.8896 46.1728 51.0831 41.4989 53.1398C43.9618 55.4063 48.5773 53.0705 52.4364 49.4318C49.7758 52.9209 46.6679 55.9426 43.7632 58.5383C47.4411 60.5261 52.3585 55.9677 55.7781 50.1889C53.4358 55.3722 50.1125 59.9698 46.9859 63.8942C51.4308 65.3977 55.9193 59.237 58.4912 52.1573C57.2297 58.0917 55.1039 63.7062 52.9553 68.6368C62.4726 69.3913 65.7621 43.9566 61.5338 34.2647C60.5497 32.0092 58.6949 30.5753 57.4017 30.5845L57.4016 30.5843ZM55.2316 37.8079C45.4273 44.4708 35.6288 45.8608 25.8127 38.3419C26.2053 39.8707 27.1691 41.5385 28.5594 43.1729C31.3838 46.4933 35.9305 49.6552 40.4643 51.6017C44.9981 49.6552 49.5447 46.4933 52.3691 43.1729C53.832 41.4529 54.824 39.697 55.1738 38.1039C55.1956 38.0043 55.2145 37.906 55.2317 37.8078L55.2316 37.8079Z" fill="white"/>
</svg>
