<svg width="638" height="508" viewBox="0 0 638 508" fill="none" xmlns="http://www.w3.org/2000/svg">
<path d="M609.064 74.6564C609.427 74.24 609.383 73.6083 608.967 73.2455L602.181 67.3338C601.764 66.971 601.133 67.0145 600.77 67.431C600.407 67.8474 600.451 68.4791 600.867 68.8418L606.899 74.0967L601.644 80.1288C601.282 80.5452 601.325 81.1769 601.741 81.5397C602.158 81.9025 602.79 81.859 603.152 81.4425L609.064 74.6564ZM31.0625 399.565C31.1576 400.56 31.1591 400.56 31.1619 400.56C31.1645 400.56 31.1685 400.559 31.1738 400.559C31.1842 400.558 31.1998 400.556 31.2203 400.554C31.2615 400.55 31.3228 400.544 31.4039 400.536C31.5661 400.52 31.8075 400.496 32.1254 400.464C32.7612 400.399 33.7029 400.3 34.9288 400.166C37.3806 399.897 40.9691 399.486 45.5201 398.915C54.6219 397.772 67.5748 395.988 82.9845 393.424C113.799 388.296 154.459 380.045 193.803 367.548C233.123 355.058 271.233 338.297 296.866 316.102C309.691 304.996 319.432 292.496 324.613 278.449C329.8 264.386 330.392 248.837 325.017 231.7L323.108 232.299C328.358 249.037 327.762 264.131 322.737 277.757C317.705 291.399 308.208 303.635 295.556 314.59C270.236 336.516 232.439 353.177 193.197 365.642C153.978 378.099 113.42 386.332 82.6562 391.451C67.2768 394.01 54.3507 395.79 45.2709 396.93C40.7311 397.5 37.1531 397.91 34.7111 398.178C33.4901 398.311 32.5531 398.409 31.9219 398.474C31.6063 398.506 31.3671 398.53 31.2071 398.546C31.1271 398.554 31.0669 398.56 31.0268 398.564C31.0068 398.566 30.9918 398.567 30.9819 398.568C30.9769 398.569 30.9733 398.569 30.9708 398.569C30.9684 398.569 30.9674 398.57 31.0625 399.565ZM325.017 231.7C319.764 214.954 320.228 200.006 325.015 186.645C329.809 173.268 338.961 161.41 351.198 150.907C375.691 129.883 412.386 114.415 450.532 103.146C488.655 91.8839 528.117 84.8454 558.059 80.6226C573.028 78.5115 585.612 77.1049 594.452 76.2261C598.872 75.7867 602.356 75.4793 604.734 75.2819C605.923 75.1832 606.835 75.1119 607.45 75.0654C607.757 75.0421 607.99 75.025 608.145 75.0138C608.223 75.0082 608.282 75.004 608.321 75.0012C608.34 74.9999 608.355 74.9988 608.365 74.9982C608.37 74.9978 608.373 74.9976 608.375 74.9974C608.378 74.9973 608.379 74.9972 608.31 73.9996C608.241 73.0019 608.24 73.002 608.237 73.0022C608.235 73.0024 608.231 73.0027 608.226 73.003C608.215 73.0037 608.2 73.0048 608.18 73.0062C608.14 73.009 608.08 73.0133 608.001 73.019C607.843 73.0304 607.608 73.0476 607.299 73.0711C606.679 73.118 605.762 73.1896 604.568 73.2887C602.18 73.487 598.686 73.7954 594.254 74.2359C585.391 75.1169 572.78 76.5267 557.78 78.6422C527.785 82.8725 488.217 89.9277 449.965 101.228C411.738 112.521 374.714 128.085 349.895 149.389C337.476 160.05 328.074 172.18 323.133 185.97C318.186 199.774 317.736 215.17 323.108 232.299L325.017 231.7Z" fill="#949393"/>
<circle cx="348.062" cy="252" r="251" stroke="#FD5901" stroke-width="2"/>
<circle cx="348.062" cy="252" r="201" stroke="#5228B6" stroke-width="2"/>
<circle cx="120.062" cy="243" r="15" fill="#FD5901" fill-opacity="0.35"/>
<circle cx="237.062" cy="59" r="15" fill="#FDE401" fill-opacity="0.35"/>
<circle cx="513.062" cy="203" r="15" fill="#5228B6" fill-opacity="0.35"/>
<ellipse cx="356.562" cy="484" rx="186.5" ry="6" fill="#151515" fill-opacity="0.13"/>
<path d="M519.473 188C521.743 164.54 527.173 142.33 517.573 119.77C499.953 78.37 446.803 56.39 405.503 76C384.383 86 366.323 100.63 343.062 106C280.283 120.49 183.382 43.29 149.213 133.17C137.483 164.01 142.213 204.65 163.423 230.43C170.233 238.7 178.552 245.9 183.592 255.36C197.382 281.25 177.863 309.7 169.062 333.85C148.163 390.92 226.962 422.5 269.732 428.32C340.432 438 398.753 357 469.063 390C518.063 413 561.063 357 552.063 301C546.173 264.34 516.353 229.25 519.143 191.89C519.243 190.6 519.353 189.31 519.473 188Z" fill="#A782EC"/>
<path opacity="0.7" d="M519.473 188C521.743 164.54 527.173 142.33 517.573 119.77C499.953 78.37 446.803 56.39 405.503 76C384.383 86 366.323 100.63 343.062 106C280.283 120.49 183.382 43.29 149.213 133.17C137.483 164.01 142.213 204.65 163.423 230.43C170.233 238.7 178.552 245.9 183.592 255.36C197.382 281.25 177.863 309.7 169.062 333.85C148.163 390.92 226.962 422.5 269.732 428.32C340.432 438 398.753 357 469.063 390C518.063 413 561.063 357 552.063 301C546.173 264.34 516.353 229.25 519.143 191.89C519.243 190.6 519.353 189.31 519.473 188Z" fill="white"/>
<path d="M182.832 203.26C201.903 203.26 217.362 187.8 217.362 168.73C217.362 149.66 201.903 134.2 182.832 134.2C163.762 134.2 148.303 149.66 148.303 168.73C148.303 187.8 163.762 203.26 182.832 203.26Z" fill="white" stroke="#2E353A" stroke-linecap="round" stroke-linejoin="round"/>
<path d="M180.262 199.83C199.333 199.83 214.793 184.37 214.793 165.3C214.793 146.23 199.333 130.77 180.262 130.77C161.192 130.77 145.732 146.23 145.732 165.3C145.732 184.37 161.192 199.83 180.262 199.83Z" fill="white" stroke="#2E353A" stroke-linecap="round" stroke-linejoin="round"/>
<path d="M180.262 196.4C197.439 196.4 211.363 182.476 211.363 165.3C211.363 148.124 197.439 134.2 180.262 134.2C163.086 134.2 149.162 148.124 149.162 165.3C149.162 182.476 163.086 196.4 180.262 196.4Z" fill="#2E353A" stroke="#2E353A" stroke-linecap="round" stroke-linejoin="round"/>
<path d="M176.613 141.92C176.613 141.92 173.183 133.34 167.183 127.34C161.183 121.34 136.722 117.47 136.722 117.47C140.672 121.28 144.264 125.444 147.452 129.91C153.022 137.63 171.452 155.22 171.452 155.22C171.452 155.22 162.452 147.5 154.292 146.64C146.132 145.78 125.552 150.07 124.292 150.07C123.032 150.07 132.012 153.5 138.452 156.5C144.892 159.5 169.762 162.08 169.762 162.08C169.762 162.08 159.043 165.08 151.763 167.66C144.483 170.24 137.582 189.1 137.582 189.1C137.582 189.1 147.023 180.52 155.173 178.38C163.323 176.24 174.902 172.38 174.902 172.38C174.902 172.38 167.612 180.53 165.902 186.11C164.192 191.69 165.473 204.55 165.473 204.55C165.473 204.55 169.332 192.55 174.052 187.82C178.772 183.09 183.902 175 183.902 175C186.278 178.873 188.429 182.879 190.342 187C193.772 194.29 195.912 205 195.912 205C195.912 205 201.493 193 201.062 187C200.632 181 194.202 170.27 194.202 170.27C194.202 170.27 198.493 167.27 204.923 169.84C211.353 172.41 222.512 183.14 222.512 183.14C222.512 183.14 219.933 168.98 215.643 163.41C211.353 157.84 192.912 156.11 192.912 156.11C192.912 156.11 203.213 150.11 209.643 148.82C216.073 147.53 224.643 150.54 224.643 150.54C224.643 150.54 214.782 136.81 207.062 135.95C199.343 135.09 187.762 147.07 187.762 147.07L191.202 129.91C192.052 125.62 190.342 114.91 190.342 114.91C190.342 114.91 185.623 117.48 180.043 125.63C178.409 127.977 177.264 130.629 176.675 133.427C176.086 136.225 176.065 139.113 176.613 141.92Z" fill="#A782EC"/>
<path opacity="0.5" d="M176.613 141.92C176.613 141.92 173.183 133.34 167.183 127.34C161.183 121.34 136.722 117.47 136.722 117.47C140.672 121.28 144.264 125.444 147.452 129.91C153.022 137.63 171.452 155.22 171.452 155.22C171.452 155.22 162.452 147.5 154.292 146.64C146.132 145.78 125.552 150.07 124.292 150.07C123.032 150.07 132.012 153.5 138.452 156.5C144.892 159.5 169.762 162.08 169.762 162.08C169.762 162.08 159.043 165.08 151.763 167.66C144.483 170.24 137.582 189.1 137.582 189.1C137.582 189.1 147.023 180.52 155.173 178.38C163.323 176.24 174.902 172.38 174.902 172.38C174.902 172.38 167.612 180.53 165.902 186.11C164.192 191.69 165.473 204.55 165.473 204.55C165.473 204.55 169.332 192.55 174.052 187.82C178.772 183.09 183.902 175 183.902 175C186.278 178.873 188.429 182.879 190.342 187C193.772 194.29 195.912 205 195.912 205C195.912 205 201.493 193 201.062 187C200.632 181 194.202 170.27 194.202 170.27C194.202 170.27 198.493 167.27 204.923 169.84C211.353 172.41 222.512 183.14 222.512 183.14C222.512 183.14 219.933 168.98 215.643 163.41C211.353 157.84 192.912 156.11 192.912 156.11C192.912 156.11 203.213 150.11 209.643 148.82C216.073 147.53 224.643 150.54 224.643 150.54C224.643 150.54 214.782 136.81 207.062 135.95C199.343 135.09 187.762 147.07 187.762 147.07L191.202 129.91C192.052 125.62 190.342 114.91 190.342 114.91C190.342 114.91 185.623 117.48 180.043 125.63C178.409 127.977 177.264 130.629 176.675 133.427C176.086 136.225 176.065 139.113 176.613 141.92Z" fill="black"/>
<path d="M185.062 128.86C185.363 127.63 185.692 126.4 186.062 125.19" stroke="#2E353A" stroke-width="0.5" stroke-linecap="round" stroke-linejoin="round"/>
<path d="M156.412 128.86C160.412 131.79 165.413 135.86 168.033 139.35C172.753 145.78 182.192 159.51 182.192 159.51C181.922 150.288 182.653 141.064 184.372 132" stroke="#2E353A" stroke-width="0.5" stroke-linecap="round" stroke-linejoin="round"/>
<path d="M150.452 124.76C150.452 124.76 151.702 125.56 153.572 126.85" stroke="#2E353A" stroke-width="0.5" stroke-linecap="round" stroke-linejoin="round"/>
<path d="M182.192 159.51C182.192 159.51 198.493 143.21 205.353 141.92C212.213 140.63 218.223 145.78 218.223 145.78" stroke="#2E353A" stroke-width="0.5" stroke-linecap="round" stroke-linejoin="round"/>
<path d="M153.062 173.14C149.062 175.66 148.732 177.14 148.732 177.14" stroke="#2E353A" stroke-width="0.5" stroke-linecap="round" stroke-linejoin="round"/>
<path d="M217.793 174.52C217.793 174.52 215.223 168.08 206.213 165.08C197.203 162.08 183.062 161.65 183.062 161.65C183.062 161.65 163.212 168.15 155.952 171.54" stroke="#2E353A" stroke-width="0.5" stroke-linecap="round" stroke-linejoin="round"/>
<path d="M174.382 159.2C179.182 160.6 183.052 161.65 183.052 161.65" stroke="#2E353A" stroke-width="0.5" stroke-linecap="round" stroke-linejoin="round"/>
<path d="M144.173 151.58C148.833 151.86 154.833 152.5 158.173 153.93C160.893 155.1 166.253 156.79 171.312 158.3" stroke="#2E353A" stroke-width="0.5" stroke-linecap="round" stroke-linejoin="round"/>
<path d="M137.583 151.36C137.583 151.36 139.153 151.36 141.463 151.45" stroke="#2E353A" stroke-width="0.5" stroke-linecap="round" stroke-linejoin="round"/>
<path d="M182.192 164.22C182.192 164.22 170.193 182.22 169.323 186.53C168.807 189.073 168.519 191.656 168.463 194.25" stroke="#2E353A" stroke-width="0.5" stroke-linecap="round" stroke-linejoin="round"/>
<path d="M187.533 169.89C189.843 172.89 192.612 176.89 193.772 180.09C195.123 183.994 196.127 188.01 196.772 192.09" stroke="#2E353A" stroke-width="0.5" stroke-linecap="round" stroke-linejoin="round"/>
<path d="M183.902 165.51C183.902 165.51 184.902 166.57 186.192 168.2" stroke="#2E353A" stroke-width="0.5" stroke-linecap="round" stroke-linejoin="round"/>
<path d="M171.162 145.62C171.162 145.62 168.952 136.62 170.322 128.27C171.692 119.92 189.322 102.49 189.322 102.49C188.343 107.888 187.857 113.364 187.872 118.85C187.872 128.37 183.122 153.41 183.122 153.41C183.122 153.41 185.932 141.89 192.052 136.41C198.172 130.93 217.402 122.41 218.442 121.68C219.482 120.95 214.172 128.97 210.702 135.17C207.232 141.37 188.502 158 188.502 158C188.502 158 198.962 154.18 206.382 152C213.802 149.82 230.383 161.16 230.383 161.16C230.383 161.16 217.712 159.7 209.842 162.71C201.972 165.72 190.312 169.34 190.312 169.34C190.312 169.34 200.992 171.71 205.632 175.24C210.272 178.77 216.753 190 216.753 190C216.753 190 206.612 182.49 200.022 181.41C193.432 180.33 184.502 176.72 184.502 176.72C184.841 181.25 185.435 185.757 186.282 190.22C187.752 198.15 192.282 208.11 192.282 208.11C192.282 208.11 180.752 201.61 177.592 196.48C174.432 191.35 173.412 178.89 173.412 178.89C173.412 178.89 168.172 178.95 164.412 184.79C160.652 190.63 157.882 205.85 157.882 205.85C157.882 205.85 151.722 192.85 151.952 185.85C152.182 178.85 166.162 166.67 166.162 166.67C166.162 166.67 154.302 167.8 148.322 170.5C142.342 173.2 137.122 180.65 137.122 180.65C137.122 180.65 137.122 163.75 142.902 158.55C148.682 153.35 165.092 156.35 165.092 156.35L152.292 144.42C149.092 141.42 144.232 131.72 144.232 131.72C144.232 131.72 149.572 131.06 158.852 134.43C161.55 135.374 164.03 136.852 166.145 138.774C168.259 140.697 169.966 143.025 171.162 145.62Z" fill="#A782EC"/>
<path d="M156.682 139.94C155.682 139.11 154.743 138.31 153.743 137.53" stroke="#2E353A" stroke-width="0.5" stroke-linecap="round" stroke-linejoin="round"/>
<path d="M179.952 123.23C178.402 127.95 176.672 134.16 176.632 138.52C176.552 146.52 176.893 163.15 176.893 163.15C171.731 155.504 165.752 148.442 159.062 142.09" stroke="#2E353A" stroke-width="0.5" stroke-linecap="round" stroke-linejoin="round"/>
<path d="M182.412 116.42C182.412 116.42 181.852 117.8 181.092 119.93" stroke="#2E353A" stroke-width="0.5" stroke-linecap="round" stroke-linejoin="round"/>
<path d="M176.892 163.15C176.892 163.15 154.142 159.42 147.822 162.38C141.502 165.34 139.622 173 139.622 173" stroke="#2E353A" stroke-width="0.5" stroke-linecap="round" stroke-linejoin="round"/>
<path d="M208.512 157.23C213.202 156.97 214.323 157.92 214.323 157.92" stroke="#2E353A" stroke-width="0.5" stroke-linecap="round" stroke-linejoin="round"/>
<path d="M156.732 196.11C156.732 196.11 155.073 189.38 160.633 181.69C166.193 174 177.452 165.4 177.452 165.4C177.452 165.4 197.362 159.09 205.232 157.62" stroke="#2E353A" stroke-width="0.5" stroke-linecap="round" stroke-linejoin="round"/>
<path d="M183.062 158.35C179.983 162.28 177.463 165.4 177.463 165.4" stroke="#2E353A" stroke-width="0.5" stroke-linecap="round" stroke-linejoin="round"/>
<path d="M203.152 134.54C199.532 137.54 195.032 141.54 193.152 144.61C191.622 147.15 188.252 151.61 185.022 155.82" stroke="#2E353A" stroke-width="0.5" stroke-linecap="round" stroke-linejoin="round"/>
<path d="M208.372 130.51C208.372 130.51 207.102 131.43 205.272 132.85" stroke="#2E353A" stroke-width="0.5" stroke-linecap="round" stroke-linejoin="round"/>
<path d="M179.643 167C179.643 167 199.913 174.62 203.103 177.61C205.005 179.374 206.745 181.305 208.302 183.38" stroke="#2E353A" stroke-width="0.5" stroke-linecap="round" stroke-linejoin="round"/>
<path d="M178.613 174.7C178.473 178.48 178.542 183.33 179.492 186.63C180.671 190.595 182.201 194.446 184.062 198.14" stroke="#2E353A" stroke-width="0.5" stroke-linecap="round" stroke-linejoin="round"/>
<path d="M179.003 169C179.003 169 178.843 170.42 178.723 172.52" stroke="#2E353A" stroke-width="0.5" stroke-linecap="round" stroke-linejoin="round"/>
<path d="M237.893 191.43H464.562C467.392 191.43 470.106 192.554 472.107 194.555C474.108 196.556 475.233 199.27 475.233 202.1V349.1C475.233 350.633 474.931 352.15 474.344 353.566C473.758 354.982 472.898 356.268 471.814 357.352C470.731 358.436 469.444 359.295 468.028 359.882C466.613 360.468 465.095 360.77 463.562 360.77H238.893C237.36 360.77 235.842 360.468 234.427 359.882C233.011 359.295 231.724 358.436 230.641 357.352C229.557 356.268 228.697 354.982 228.111 353.566C227.524 352.15 227.223 350.633 227.223 349.1V202.1C227.223 199.27 228.347 196.556 230.348 194.555C232.349 192.554 235.063 191.43 237.893 191.43Z" fill="white" stroke="#2E353A" stroke-linecap="round" stroke-linejoin="round"/>
<path d="M320.852 208.1H306.893V217.27H320.852V208.1Z" fill="#2E353A"/>
<path d="M275.622 264.67H262.663V277.53H275.622V264.67Z" fill="#2E353A"/>
<path d="M332.883 219.47H319.822V232.33H332.883V219.47Z" fill="#2E353A"/>
<path d="M304.682 208.1H290.723V217.27H304.682V208.1Z" fill="#2E353A"/>
<path d="M348.143 219.47H335.083V232.33H348.143V219.47Z" fill="#2E353A"/>
<path d="M337.012 208.1H323.053V217.27H337.012V208.1Z" fill="#2E353A"/>
<path d="M267.792 249.6H243.232V262.46H267.792V249.6Z" fill="#2E353A"/>
<path d="M302.352 219.47H289.292V232.33H302.352V219.47Z" fill="#2E353A"/>
<path d="M260.462 264.67H243.232V277.53H260.462V264.67Z" fill="#2E353A"/>
<path d="M353.182 208.1H339.223V217.27H353.182V208.1Z" fill="#2E353A"/>
<path d="M271.822 219.47H258.762V232.33H271.822V219.47Z" fill="#2E353A"/>
<path d="M272.352 208.1H258.393V217.27H272.352V208.1Z" fill="#2E353A"/>
<path d="M288.523 208.1H274.562V217.27H288.523V208.1Z" fill="#2E353A"/>
<path d="M287.083 219.47H274.023V232.33H287.083V219.47Z" fill="#2E353A"/>
<path d="M317.613 219.47H304.553V232.33H317.613V219.47Z" fill="#2E353A"/>
<path d="M417.853 208.1H403.892V217.27H417.853V208.1Z" fill="#2E353A"/>
<path d="M434.013 208.1H420.052V217.27H434.013V208.1Z" fill="#2E353A"/>
<path d="M424.473 219.47H411.413V232.33H424.473V219.47Z" fill="#2E353A"/>
<path d="M439.742 219.47H426.682V232.33H439.742V219.47Z" fill="#2E353A"/>
<path d="M463.892 264.67H444.663V277.53H463.892V264.67Z" fill="#2E353A"/>
<path d="M450.182 208.1H436.223V217.27H450.182V208.1Z" fill="#2E353A"/>
<path d="M256.562 219.47H243.232V232.33H256.562V219.47Z" fill="#2E353A"/>
<path d="M369.353 208.1H355.392V217.27H369.353V208.1Z" fill="#2E353A"/>
<path d="M385.513 208.1H371.552V217.27H385.513V208.1Z" fill="#2E353A"/>
<path d="M378.682 219.47H365.622V232.33H378.682V219.47Z" fill="#2E353A"/>
<path d="M409.212 219.47H396.152V232.33H409.212V219.47Z" fill="#2E353A"/>
<path d="M363.413 219.47H350.352V232.33H363.413V219.47Z" fill="#2E353A"/>
<path d="M393.943 219.47H380.883V232.33H393.943V219.47Z" fill="#2E353A"/>
<path d="M401.682 208.1H387.723V217.27H401.682V208.1Z" fill="#2E353A"/>
<path d="M381.793 264.67H368.832V277.53H381.793V264.67Z" fill="#2E353A"/>
<path d="M449.793 249.6H436.832V262.46H449.793V249.6Z" fill="#2E353A"/>
<path d="M434.622 249.6H421.663V262.46H434.622V249.6Z" fill="#2E353A"/>
<path d="M442.453 264.67H429.492V277.53H442.453V264.67Z" fill="#2E353A"/>
<path d="M427.293 264.67H414.332V277.53H427.293V264.67Z" fill="#2E353A"/>
<path d="M396.953 264.67H383.992V277.53H396.953V264.67Z" fill="#2E353A"/>
<path d="M412.122 264.67H399.163V277.53H412.122V264.67Z" fill="#2E353A"/>
<path d="M419.453 249.6H406.492V262.46H419.453V249.6Z" fill="#2E353A"/>
<path d="M404.293 249.6H391.332V262.46H404.293V249.6Z" fill="#2E353A"/>
<path d="M463.902 208.1H452.392V217.27H463.902V208.1Z" fill="#2E353A"/>
<path d="M256.193 208.1H243.232V217.27H256.193V208.1Z" fill="#2E353A"/>
<path d="M463.902 279.73H243.232V293.1H463.902V279.73Z" fill="#2E353A"/>
<path d="M463.892 219.47H441.943V232.33H463.892V219.47Z" fill="#2E353A"/>
<path d="M463.892 249.6H451.992V262.46H463.892V249.6Z" fill="#2E353A"/>
<path d="M448.332 247.3H446.122V234.54H433.163V247.3H430.962V234.54H418.003V247.3H415.793V234.54H402.832V247.3H400.622V234.54H387.663V247.3H385.462V234.54H372.503V247.3H370.293V234.54H357.332V247.3H355.122V234.54H342.163V247.3H339.962V234.54H327.003V247.3H324.792V234.54H311.833V247.3H309.622V234.54H296.663V247.3H294.462V234.54H281.503V247.3H279.292V234.54H266.333V247.3H264.122V234.54H243.232V247.4H463.892V234.54H448.332V247.3Z" fill="#2E353A"/>
<path d="M343.622 249.6H330.663V262.46H343.622V249.6Z" fill="#2E353A"/>
<path d="M389.122 249.6H376.163V262.46H389.122V249.6Z" fill="#2E353A"/>
<path d="M313.292 249.6H300.333V262.46H313.292V249.6Z" fill="#2E353A"/>
<path d="M321.122 264.67H308.163V277.53H321.122V264.67Z" fill="#2E353A"/>
<path d="M328.452 249.6H315.492V262.46H328.452V249.6Z" fill="#2E353A"/>
<path d="M298.122 249.6H285.163V262.46H298.122V249.6Z" fill="#2E353A"/>
<path d="M290.792 264.67H277.833V277.53H290.792V264.67Z" fill="#2E353A"/>
<path d="M305.952 264.67H292.992V277.53H305.952V264.67Z" fill="#2E353A"/>
<path d="M358.793 249.6H345.833V262.46H358.793V249.6Z" fill="#2E353A"/>
<path d="M366.622 264.67H353.663V277.53H366.622V264.67Z" fill="#2E353A"/>
<path d="M373.953 249.6H360.992V262.46H373.953V249.6Z" fill="#2E353A"/>
<path d="M336.292 264.67H323.333V277.53H336.292V264.67Z" fill="#2E353A"/>
<path d="M351.452 264.67H338.492V277.53H351.452V264.67Z" fill="#2E353A"/>
<path d="M282.952 249.6H269.992V262.46H282.952V249.6Z" fill="#2E353A"/>
<path d="M489.392 99.4301H211.732C210.371 99.4311 209.028 99.7453 207.807 100.348C206.586 100.951 205.52 101.827 204.692 102.908C203.863 103.988 203.295 105.245 203.029 106.581C202.764 107.916 202.81 109.295 203.162 110.61L223.462 186.19C223.968 188.077 225.082 189.744 226.632 190.933C228.181 192.123 230.079 192.769 232.032 192.77H260.372V198H442.062V192.8H469.062C471.016 192.799 472.914 192.153 474.463 190.963C476.013 189.774 477.127 188.107 477.633 186.22L497.932 110.64C498.29 109.325 498.34 107.946 498.079 106.609C497.818 105.272 497.253 104.012 496.427 102.929C495.602 101.845 494.538 100.966 493.318 100.359C492.098 99.7523 490.755 99.4345 489.392 99.4301Z" fill="#2E353A" stroke="#2E353A" stroke-linecap="round" stroke-linejoin="round"/>
<path d="M457.992 186.1H243.133L221.643 108.77H479.473L457.992 186.1Z" fill="#A782EC" stroke="#2E353A" stroke-linecap="round" stroke-linejoin="round"/>
<path d="M257.393 152.16V153.16H253.602V152.16H257.393Z" fill="#2E353A"/>
<path d="M262.113 152.16V153.16H258.312V152.16H262.113Z" fill="#2E353A"/>
<path d="M266.833 152.16V153.16H263.062V152.16H266.833Z" fill="#2E353A"/>
<path d="M271.542 152.16V153.16H267.753V152.16H271.542Z" fill="#2E353A"/>
<path d="M276.262 152.16V153.16H272.462V152.16H276.262Z" fill="#2E353A"/>
<path d="M280.982 152.16V153.16H277.182V152.16H280.982Z" fill="#2E353A"/>
<path d="M285.693 152.16V153.16H281.902V152.16H285.693Z" fill="#2E353A"/>
<path d="M290.363 157.43L286.182 146.29H287.182L291.363 157.43H290.363Z" fill="#2E353A"/>
<path d="M253.572 135.94V136.94H249.783V135.94H253.572Z" fill="#2E353A"/>
<path d="M258.292 135.94V136.94H254.503V135.94H258.292Z" fill="#2E353A"/>
<path d="M263.062 135.94V136.94H259.262V135.94H263.062Z" fill="#2E353A"/>
<path d="M267.732 135.94V136.94H263.932V135.94H267.732Z" fill="#2E353A"/>
<path d="M272.443 135.94V136.94H268.652V135.94H272.443Z" fill="#2E353A"/>
<path d="M280.423 135.94V136.94H276.622V135.94H280.423Z" fill="#2E353A"/>
<path d="M285.133 135.94V136.94H281.342V135.94H285.133Z" fill="#2E353A"/>
<path d="M289.852 135.94V136.94H286.062V135.94H289.852Z" fill="#2E353A"/>
<path d="M294.572 135.94V136.94H290.773V135.94H294.572Z" fill="#2E353A"/>
<path d="M299.283 135.94V136.94H295.492V135.94H299.283Z" fill="#2E353A"/>
<path d="M304.003 135.94V136.94H300.212V135.94H304.003Z" fill="#2E353A"/>
<path d="M308.723 135.94V136.94H304.923V135.94H308.723Z" fill="#2E353A"/>
<path d="M316.693 135.94V136.94H312.902V135.94H316.693Z" fill="#2E353A"/>
<path d="M321.413 135.94V136.94H317.613V135.94H321.413Z" fill="#2E353A"/>
<path d="M326.133 135.94V136.94H322.333V135.94H326.133Z" fill="#2E353A"/>
<path d="M334.062 135.94V136.94H330.273V135.94H334.062Z" fill="#2E353A"/>
<path d="M338.822 135.94V136.94H335.062V135.94H338.822Z" fill="#2E353A"/>
<path d="M343.542 135.94V136.94H339.742V135.94H343.542Z" fill="#2E353A"/>
<path d="M361.283 135.94V136.94H357.492V135.94H361.283Z" fill="#2E353A"/>
<path d="M366.003 135.94V136.94H362.203V135.94H366.003Z" fill="#2E353A"/>
<path d="M370.723 135.94V136.94H366.922V135.94H370.723Z" fill="#2E353A"/>
<path d="M375.432 135.94V136.94H371.642V135.94H375.432Z" fill="#2E353A"/>
<path d="M380.152 135.94V136.94H376.353V135.94H380.152Z" fill="#2E353A"/>
<path d="M388.122 135.94V136.94H384.332V135.94H388.122Z" fill="#2E353A"/>
<path d="M392.842 135.94V136.94H389.062V135.94H392.842Z" fill="#2E353A"/>
<path d="M397.562 135.94V136.94H393.763V135.94H397.562Z" fill="#2E353A"/>
<path d="M405.533 135.94V136.94H401.742V135.94H405.533Z" fill="#2E353A"/>
<path d="M413.513 135.94V136.94H409.712V135.94H413.513Z" fill="#2E353A"/>
<path d="M476.753 300.29L466.052 341.57L476.172 344.54L476.753 300.29Z" fill="white" stroke="#2E353A" stroke-linecap="round" stroke-linejoin="round"/>
<path d="M481.552 256.66C480.345 254.805 479.904 252.554 480.323 250.38C480.873 246.31 485.783 245.38 485.783 245.38C485.783 245.38 486.853 244.57 490.783 246.06C494.713 247.55 525.102 251.67 544.522 254.3C563.942 256.93 570.232 255.23 569.962 261.9C569.692 268.57 552.652 328.43 552.392 330.31C552.132 332.19 481.552 256.66 481.552 256.66Z" fill="white" stroke="#2E353A" stroke-miterlimit="10"/>
<path d="M563.237 267.736L481.544 256.662L468.343 354.041L550.036 365.115L563.237 267.736Z" fill="white" stroke="#2E353A" stroke-linecap="round" stroke-linejoin="round"/>
<path d="M548.052 287.16L552.802 287.81" stroke="#2E353A" stroke-width="0.5" stroke-linecap="round" stroke-linejoin="round"/>
<path d="M518.302 283.13L544.293 286.66" stroke="#2E353A" stroke-width="0.5" stroke-linecap="round" stroke-linejoin="round"/>
<path d="M486.802 278.86L514.543 282.62" stroke="#2E353A" stroke-width="0.5" stroke-linecap="round" stroke-linejoin="round"/>
<path d="M540.612 294.97L551.633 296.47" stroke="#2E353A" stroke-width="0.5" stroke-linecap="round" stroke-linejoin="round"/>
<path d="M485.633 287.52L529.342 293.44" stroke="#2E353A" stroke-width="0.5" stroke-linecap="round" stroke-linejoin="round"/>
<path d="M507.812 299.34L550.462 305.12" stroke="#2E353A" stroke-width="0.5" stroke-linecap="round" stroke-linejoin="round"/>
<path d="M484.453 296.17L503.422 298.75" stroke="#2E353A" stroke-width="0.5" stroke-linecap="round" stroke-linejoin="round"/>
<path d="M521.983 310.08L549.283 313.78" stroke="#2E353A" stroke-width="0.5" stroke-linecap="round" stroke-linejoin="round"/>
<path d="M498.812 306.93L518.853 309.65" stroke="#2E353A" stroke-width="0.5" stroke-linecap="round" stroke-linejoin="round"/>
<path d="M483.283 304.83L495.362 306.47" stroke="#2E353A" stroke-width="0.5" stroke-linecap="round" stroke-linejoin="round"/>
<path d="M538.342 321.11L548.112 322.43" stroke="#2E353A" stroke-width="0.5" stroke-linecap="round" stroke-linejoin="round"/>
<path d="M482.112 313.49L531.772 320.22" stroke="#2E353A" stroke-width="0.5" stroke-linecap="round" stroke-linejoin="round"/>
<path d="M519.323 327.34L546.943 331.09" stroke="#2E353A" stroke-width="0.5" stroke-linecap="round" stroke-linejoin="round"/>
<path d="M480.932 322.14L514.622 326.71" stroke="#2E353A" stroke-width="0.5" stroke-linecap="round" stroke-linejoin="round"/>
<path d="M527.853 337.32L545.763 339.74" stroke="#2E353A" stroke-width="0.5" stroke-linecap="round" stroke-linejoin="round"/>
<path d="M491.533 332.39L523.473 336.72" stroke="#2E353A" stroke-width="0.5" stroke-linecap="round" stroke-linejoin="round"/>
<path d="M479.763 330.8L487.772 331.88" stroke="#2E353A" stroke-width="0.5" stroke-linecap="round" stroke-linejoin="round"/>
<path d="M563.242 267.74C563.242 267.74 564.642 254.16 569.642 259.62" stroke="#2E353A" stroke-linecap="round" stroke-linejoin="round"/>
<path d="M535.543 372.35L535.453 380.98L530.422 373.88L510.233 305.97L515.353 304.44L535.543 372.35Z" fill="white" stroke="#2E353A" stroke-linecap="round" stroke-linejoin="round"/>
<path d="M513.349 307.342L510.555 308.157L530.393 376.173L533.187 375.358L513.349 307.342Z" fill="#A782EC" stroke="#2E353A" stroke-width="0.5" stroke-linecap="round" stroke-linejoin="round"/>
<path d="M535.543 372.37L530.432 373.89L535.453 380.98L535.543 372.37Z" stroke="#2E353A" stroke-linecap="round" stroke-linejoin="round"/>
<path d="M532.943 377.43L535.453 380.98L535.503 376.67L532.943 377.43Z" fill="#2E353A" stroke="#2E353A" stroke-linecap="round" stroke-linejoin="round"/>
<path d="M510.533 297.6C509.855 297.804 509.286 298.267 508.948 298.889C508.611 299.511 508.534 300.241 508.733 300.92L510.233 305.97L515.353 304.45L513.853 299.4C513.649 298.722 513.185 298.153 512.563 297.816C511.941 297.479 511.211 297.401 510.533 297.6Z" fill="white" stroke="#2E353A" stroke-linecap="round" stroke-linejoin="round"/>
<path d="M510.533 297.6C509.855 297.804 509.286 298.267 508.948 298.889C508.611 299.511 508.534 300.241 508.733 300.92L509.453 303.33L514.563 301.81L513.853 299.4C513.649 298.722 513.185 298.153 512.563 297.816C511.941 297.479 511.211 297.401 510.533 297.6Z" fill="#2E353A" stroke="#2E353A" stroke-linecap="round" stroke-linejoin="round"/>
<path d="M258.712 257.49C258.072 258.39 257.442 259.33 256.812 260.32" stroke="white" stroke-linecap="round" stroke-linejoin="round"/>
<path d="M269.173 245.45C266.386 248.033 263.808 250.831 261.462 253.82" stroke="white" stroke-linecap="round" stroke-linejoin="round"/>
<path d="M257.822 250.76C255.09 254.592 252.615 258.601 250.413 262.76" stroke="white" stroke-linecap="round" stroke-linejoin="round"/>
<path d="M328.352 272.75C327.722 273.65 327.082 274.59 326.452 275.57" stroke="white" stroke-linecap="round" stroke-linejoin="round"/>
<path d="M338.812 260.71C336.031 263.295 333.457 266.093 331.113 269.08" stroke="white" stroke-linecap="round" stroke-linejoin="round"/>
<path d="M327.473 266C324.742 269.854 322.267 273.883 320.062 278.06" stroke="white" stroke-linecap="round" stroke-linejoin="round"/>
<path d="M428.172 248C427.262 247.38 426.303 246.76 425.312 246.14" stroke="white" stroke-linecap="round" stroke-linejoin="round"/>
<path d="M440.372 258.28C437.743 255.541 434.904 253.01 431.883 250.71" stroke="white" stroke-linecap="round" stroke-linejoin="round"/>
<path d="M434.892 247C431.001 244.328 426.939 241.913 422.733 239.77" stroke="white" stroke-linecap="round" stroke-linejoin="round"/>
<path d="M325.312 310C324.793 313.76 324.012 319 323.232 322.11" stroke="#2E353A" stroke-linecap="round" stroke-linejoin="round"/>
<path d="M325.893 305.43C325.893 305.43 325.813 306.14 325.663 307.29" stroke="#2E353A" stroke-linecap="round" stroke-linejoin="round"/>
<path d="M328.562 316.1C327.471 319.743 326.134 323.307 324.562 326.77" stroke="#2E353A" stroke-linecap="round" stroke-linejoin="round"/>
<path d="M378.562 321.43C378.562 321.43 379.232 330.1 383.892 334.77" stroke="#2E353A" stroke-linecap="round" stroke-linejoin="round"/>
<path d="M377.892 330.1C377.892 330.1 379.892 336.1 383.892 338.77" stroke="#2E353A" stroke-linecap="round" stroke-linejoin="round"/>
<g style="mix-blend-mode:multiply">
<path d="M242.062 376.44C242.062 376.44 246.503 372.87 246.503 342.18C246.503 311.49 251.613 289.07 257.913 279.24C264.213 269.41 270.103 265.47 272.863 265.47C275.623 265.47 273.642 269.01 269.712 274.12C265.782 279.23 262.243 281.99 260.663 288.29C259.083 294.59 259.092 302.45 261.062 301.66C263.033 300.87 266.173 285.14 268.923 279.24C271.673 273.34 278.373 265.86 282.303 262.32C286.233 258.78 294.892 248.16 298.822 250.91C302.752 253.66 300.402 257.6 298.042 259.17C295.682 260.74 286.233 270.17 281.913 276.09C277.593 282.01 274.833 296.94 277.193 297.33C279.553 297.72 286.632 275.7 290.562 270.98C294.493 266.26 310.233 253.27 313.773 252.88C317.313 252.49 317.713 257.99 314.562 260.75C311.412 263.51 300.793 275.3 297.253 282.38C293.713 289.46 292.133 302.45 295.253 299.3C298.373 296.15 303.512 283.17 307.842 278.84C312.172 274.51 325.153 260.75 328.303 262.32C331.453 263.89 330.663 267.83 327.913 270.58C325.163 273.33 314.533 288.29 311.783 296.15C309.033 304.01 305.872 326.05 307.452 322.91C309.032 319.77 314.143 303.63 316.893 296.91C319.643 290.19 325.153 287.08 325.943 290.22C326.733 293.36 325.152 294.94 323.182 302.03C321.212 309.12 321.182 328.03 315.322 338.61C309.462 349.19 285.943 371.83 282.803 379.69C280.528 385.104 277.812 390.321 274.682 395.29" fill="#A782EC"/>
</g>
<g style="mix-blend-mode:multiply">
<path d="M460.612 379.1C460.612 379.1 456.062 372.87 456.062 342.18C456.062 311.49 450.942 289.07 444.652 279.24C438.362 269.41 432.453 265.47 429.703 265.47C426.953 265.47 428.913 269.01 432.853 274.12C436.793 279.23 440.323 281.99 441.853 288.29C443.383 294.59 443.432 302.45 441.462 301.66C439.492 300.87 436.352 285.14 433.592 279.24C430.832 273.34 424.152 265.86 420.222 262.32C416.292 258.78 407.632 248.16 403.692 250.91C399.752 253.66 402.123 257.6 404.483 259.17C406.843 260.74 416.282 270.17 420.612 276.09C424.942 282.01 427.692 296.94 425.332 297.33C422.972 297.72 415.922 275.7 411.992 271C408.062 266.3 392.312 253.29 388.772 252.9C385.232 252.51 384.842 258.01 387.992 260.77C391.142 263.53 401.762 275.32 405.302 282.4C408.842 289.48 410.412 302.47 407.302 299.32C404.192 296.17 399.042 283.19 394.722 278.86C390.402 274.53 377.413 260.77 374.263 262.34C371.113 263.91 371.902 267.85 374.652 270.6C377.402 273.35 388.032 288.31 390.782 296.17C393.532 304.03 396.682 326.07 395.112 322.93C393.542 319.79 388.422 303.65 385.672 296.93C382.922 290.21 377.412 287.1 376.622 290.24C375.832 293.38 377.412 294.96 379.372 302.05C381.332 309.14 381.372 328.05 387.242 338.63C393.112 349.21 415.962 369.86 419.112 377.73C422.262 385.6 427.962 398 427.962 398" fill="#A782EC"/>
</g>
<path d="M240.562 384C240.562 384 246.462 364.73 246.462 334C246.462 303.27 251.572 280.89 257.872 271.06C264.172 261.23 270.062 257.29 272.822 257.29C275.582 257.29 273.603 260.83 269.673 265.94C265.743 271.05 262.202 273.81 260.622 280.1C259.042 286.39 259.053 294.27 261.023 293.48C262.993 292.69 266.133 276.96 268.883 271.06C271.633 265.16 278.332 257.68 282.262 254.14C286.192 250.6 294.853 239.98 298.783 242.73C302.713 245.48 300.363 249.42 298.003 250.99C295.643 252.56 286.192 261.99 281.872 267.91C277.552 273.83 274.792 288.76 277.152 289.15C279.512 289.54 286.593 267.52 290.523 262.79C294.453 258.06 310.192 245.09 313.732 244.7C317.272 244.31 317.673 249.81 314.523 252.57C311.373 255.33 300.752 267.12 297.212 274.2C293.672 281.28 292.092 294.27 295.212 291.12C298.332 287.97 303.473 274.99 307.803 270.66C312.133 266.33 325.112 252.57 328.262 254.14C331.412 255.71 330.622 259.65 327.872 262.4C325.122 265.15 314.492 280.1 311.742 287.97C308.992 295.84 305.833 317.87 307.413 314.72C308.993 311.57 314.102 295.45 316.852 288.72C319.602 281.99 325.112 278.88 325.902 282.03C326.692 285.18 325.113 286.75 323.143 293.83C321.173 300.91 321.143 319.83 315.283 330.42C309.423 341.01 286.563 369.76 283.413 377.63C280.263 385.5 273.182 402.81 273.182 402.81" fill="white"/>
<path d="M240.562 384C240.562 384 246.462 364.73 246.462 334C246.462 303.27 251.572 280.89 257.872 271.06C264.172 261.23 270.062 257.29 272.822 257.29C275.582 257.29 273.603 260.83 269.673 265.94C265.743 271.05 262.202 273.81 260.622 280.1C259.042 286.39 259.053 294.27 261.023 293.48C262.993 292.69 266.133 276.96 268.883 271.06C271.633 265.16 278.332 257.68 282.262 254.14C286.192 250.6 294.853 239.98 298.783 242.73C302.713 245.48 300.363 249.42 298.003 250.99C295.643 252.56 286.192 261.99 281.872 267.91C277.552 273.83 274.792 288.76 277.152 289.15C279.512 289.54 286.593 267.52 290.523 262.79C294.453 258.06 310.192 245.09 313.732 244.7C317.272 244.31 317.673 249.81 314.523 252.57C311.373 255.33 300.752 267.12 297.212 274.2C293.672 281.28 292.092 294.27 295.212 291.12C298.332 287.97 303.473 274.99 307.803 270.66C312.133 266.33 325.112 252.57 328.262 254.14C331.412 255.71 330.622 259.65 327.872 262.4C325.122 265.15 314.492 280.1 311.742 287.97C308.992 295.84 305.833 317.87 307.413 314.72C308.993 311.57 314.102 295.45 316.852 288.72C319.602 281.99 325.112 278.88 325.902 282.03C326.692 285.18 325.113 286.75 323.143 293.83C321.173 300.91 321.143 319.83 315.283 330.42C309.423 341.01 286.563 369.76 283.413 377.63C280.263 385.5 273.182 402.81 273.182 402.81" stroke="#2E353A" stroke-linecap="round" stroke-linejoin="round"/>
<path d="M461.953 384C461.953 384 456.052 364.73 456.052 334C456.052 303.27 450.932 280.89 444.642 271.06C438.352 261.23 432.442 257.29 429.692 257.29C426.942 257.29 428.902 260.83 432.842 265.94C436.782 271.05 440.312 273.81 441.842 280.1C443.372 286.39 443.423 294.27 441.453 293.48C439.483 292.69 436.342 276.96 433.582 271.06C430.822 265.16 424.142 257.68 420.212 254.14C416.282 250.6 407.622 239.98 403.682 242.73C399.742 245.48 402.112 249.42 404.472 250.99C406.832 252.56 416.273 261.99 420.603 267.91C424.933 273.83 427.683 288.76 425.323 289.15C422.963 289.54 415.883 267.52 411.953 262.79C408.023 258.06 392.273 245.09 388.733 244.7C385.193 244.31 384.803 249.81 387.953 252.57C391.103 255.33 401.723 267.12 405.263 274.2C408.803 281.28 410.373 294.27 407.263 291.12C404.153 287.97 399.002 274.99 394.682 270.66C390.362 266.33 377.372 252.57 374.222 254.14C371.072 255.71 371.862 259.65 374.612 262.4C377.362 265.15 387.992 280.1 390.742 287.97C393.492 295.84 396.643 317.87 395.073 314.72C393.503 311.57 388.382 295.45 385.632 288.72C382.882 281.99 377.372 278.88 376.582 282.03C375.792 285.18 377.372 286.75 379.332 293.83C381.292 300.91 381.333 319.83 387.203 330.42C393.073 341.01 415.923 369.76 419.073 377.63C422.223 385.5 429.302 402.81 429.302 402.81" fill="white"/>
<path d="M461.953 384C461.953 384 456.052 364.73 456.052 334C456.052 303.27 450.932 280.89 444.642 271.06C438.352 261.23 432.442 257.29 429.692 257.29C426.942 257.29 428.902 260.83 432.842 265.94C436.782 271.05 440.312 273.81 441.842 280.1C443.372 286.39 443.423 294.27 441.453 293.48C439.483 292.69 436.342 276.96 433.582 271.06C430.822 265.16 424.142 257.68 420.212 254.14C416.282 250.6 407.622 239.98 403.682 242.73C399.742 245.48 402.112 249.42 404.472 250.99C406.832 252.56 416.273 261.99 420.603 267.91C424.933 273.83 427.683 288.76 425.323 289.15C422.963 289.54 415.883 267.52 411.953 262.79C408.023 258.06 392.273 245.09 388.733 244.7C385.193 244.31 384.803 249.81 387.953 252.57C391.103 255.33 401.723 267.12 405.263 274.2C408.803 281.28 410.373 294.27 407.263 291.12C404.153 287.97 399.002 274.99 394.682 270.66C390.362 266.33 377.372 252.57 374.222 254.14C371.072 255.71 371.862 259.65 374.612 262.4C377.362 265.15 387.992 280.1 390.742 287.97C393.492 295.84 396.643 317.87 395.073 314.72C393.503 311.57 388.382 295.45 385.632 288.72C382.882 281.99 377.372 278.88 376.582 282.03C375.792 285.18 377.372 286.75 379.332 293.83C381.292 300.91 381.333 319.83 387.203 330.42C393.073 341.01 415.923 369.76 419.073 377.63C422.223 385.5 429.302 402.81 429.302 402.81" stroke="#2E353A" stroke-linecap="round" stroke-linejoin="round"/>
<path d="M215.662 444H275.663C276.443 441 277.423 437.64 278.663 434C283.383 419.86 298.663 402.18 298.663 402.18C287.711 392.535 274.843 385.317 260.902 381C237.902 373.92 221.062 376 221.062 376C224.163 388.781 224.503 402.077 222.062 415C219.062 429.56 217.062 438.77 215.662 444Z" fill="#2E353A" stroke="#2E353A" stroke-linecap="round" stroke-linejoin="round"/>
<path d="M426.462 444H488.802C486.802 438.82 482.483 427.57 478.163 416.32C472.263 401 474.623 380.38 472.263 380.38C469.903 380.38 443.392 378.61 430.432 382.73C417.472 386.85 402.733 398.64 402.733 398.64C409.405 406.393 415.141 414.905 419.823 424C422.832 430.376 425.061 437.091 426.462 444Z" fill="#2E353A" stroke="#2E353A" stroke-linecap="round" stroke-linejoin="round"/>
<path d="M253.143 388.2C252.713 386.5 246.312 389.06 246.312 389.06C246.312 389.06 248.452 380.96 245.042 380.96C241.632 380.96 241.202 386.96 241.202 386.96C241.202 386.96 234.803 384.41 234.803 388.24C234.803 392.07 239.062 392 239.062 392C239.062 392 233.943 398.4 237.783 399.67C241.623 400.94 244.173 396.26 244.173 396.26C244.173 396.26 246.733 400.53 250.173 398.82C253.613 397.11 251.023 393.28 251.023 393.28C251.023 393.28 253.563 389.91 253.143 388.2ZM244.613 394.6C244.291 394.528 243.996 394.367 243.761 394.135C243.527 393.903 243.363 393.61 243.288 393.289C243.213 392.967 243.231 392.632 243.339 392.32C243.446 392.008 243.64 391.734 243.897 391.527C244.154 391.321 244.464 391.191 244.792 391.153C245.119 391.115 245.451 391.171 245.748 391.313C246.046 391.456 246.297 391.679 246.473 391.958C246.649 392.237 246.742 392.56 246.742 392.89C246.67 393.392 246.41 393.848 246.015 394.165C245.619 394.483 245.118 394.638 244.613 394.6ZM262.523 436C262.093 434.3 255.693 436.86 255.693 436.86C255.693 436.86 257.833 428.76 254.413 428.76C250.993 428.76 250.583 434.76 250.583 434.76C250.583 434.76 244.182 432.2 244.182 436.03C244.182 439.86 248.452 439.87 248.452 439.87C248.452 439.87 243.333 446.27 247.173 447.55C251.013 448.83 253.562 444.13 253.562 444.13C253.562 444.13 256.122 448.4 259.562 446.69C263.003 444.98 260.413 441.15 260.413 441.15C260.413 441.15 262.943 437.66 262.523 436ZM253.992 442.4C253.671 442.328 253.376 442.167 253.141 441.935C252.907 441.703 252.743 441.41 252.668 441.089C252.593 440.767 252.611 440.432 252.719 440.12C252.826 439.808 253.02 439.534 253.277 439.327C253.534 439.121 253.844 438.991 254.172 438.953C254.499 438.915 254.831 438.971 255.128 439.113C255.426 439.256 255.677 439.479 255.853 439.758C256.029 440.037 256.122 440.36 256.122 440.69C256.05 441.188 255.788 441.639 255.391 441.948C254.994 442.258 254.493 442.402 253.992 442.35V442.4ZM224.993 442.4C224.563 440.69 218.173 443.25 218.173 443.25C218.173 443.25 220.303 435.15 216.893 435.15C213.483 435.15 213.052 441.15 213.052 441.15C213.052 441.15 206.652 438.59 206.652 442.43C206.652 446.27 210.923 446.27 210.923 446.27C210.923 446.27 205.803 452.66 209.643 453.94C213.483 455.22 216.033 450.53 216.033 450.53C216.033 450.53 218.593 454.79 222.033 453.09C225.473 451.39 222.893 447.55 222.893 447.55C222.893 447.55 225.423 444.05 225.003 442.35L224.993 442.4ZM216.463 448.79C216.14 448.718 215.845 448.557 215.61 448.324C215.376 448.092 215.212 447.798 215.138 447.476C215.063 447.154 215.081 446.818 215.19 446.507C215.298 446.195 215.493 445.92 215.751 445.714C216.009 445.508 216.32 445.379 216.648 445.343C216.976 445.306 217.308 445.363 217.605 445.507C217.902 445.651 218.153 445.876 218.327 446.156C218.502 446.436 218.594 446.76 218.592 447.09C218.518 447.584 218.256 448.031 217.862 448.338C217.467 448.645 216.97 448.789 216.473 448.74L216.463 448.79ZM271.462 409.14H276.152C279.562 409.14 281.693 412.98 281.693 412.98C274.453 415.06 271.473 409.09 271.473 409.09L271.462 409.14ZM266.773 442.4H271.462C274.872 442.4 277.003 446.24 277.003 446.24C269.763 448.32 266.783 442.35 266.783 442.35L266.773 442.4ZM225.852 436H230.542C233.952 436 236.083 439.84 236.083 439.84C228.833 441.92 225.852 436 225.852 436ZM248.523 405.91L251.262 409.72C253.262 412.5 251.372 416.46 251.372 416.46C245.412 411.77 248.523 405.86 248.523 405.86V405.91ZM225.062 418.65L227.202 414.48C228.772 411.48 233.152 411.3 233.152 411.3C231.682 418.72 225.062 418.65 225.062 418.65Z" fill="white"/>
<path d="M453.953 396.3C453.523 394.6 447.122 397.16 447.122 397.16C447.122 397.16 449.263 389.06 445.853 389.06C442.443 389.06 442.013 395.06 442.013 395.06C442.013 395.06 435.612 392.51 435.612 396.34C435.612 400.17 439.883 400.18 439.883 400.18C439.883 400.18 434.763 406.58 438.603 407.86C442.443 409.14 444.992 404.44 444.992 404.44C444.992 404.44 447.552 408.71 450.992 407C454.432 405.29 451.842 401.46 451.842 401.46C451.842 401.46 454.373 398 453.953 396.3ZM445.422 402.7C445.101 402.628 444.806 402.467 444.571 402.235C444.337 402.003 444.173 401.71 444.098 401.389C444.023 401.068 444.041 400.732 444.148 400.42C444.256 400.108 444.45 399.834 444.707 399.627C444.964 399.421 445.274 399.291 445.602 399.253C445.929 399.216 446.261 399.271 446.558 399.414C446.856 399.556 447.107 399.78 447.283 400.058C447.459 400.337 447.552 400.66 447.552 400.99C447.492 401.497 447.235 401.961 446.837 402.28C446.439 402.6 445.931 402.751 445.422 402.7ZM473.983 429.56C473.563 427.85 467.163 430.41 467.163 430.41C467.163 430.41 469.293 422.31 465.883 422.31C462.473 422.31 462.052 428.31 462.052 428.31C462.052 428.31 455.652 425.75 455.652 429.59C455.652 433.43 459.913 433.43 459.913 433.43C459.913 433.43 454.802 439.82 458.642 441.1C462.482 442.38 465.033 437.69 465.033 437.69C465.033 437.69 467.593 441.95 471.033 440.25C474.473 438.55 471.883 434.71 471.883 434.71C471.883 434.71 474.413 431.26 473.983 429.56ZM465.462 436C465.14 435.928 464.845 435.767 464.61 435.534C464.376 435.302 464.212 435.008 464.138 434.686C464.063 434.365 464.081 434.028 464.19 433.717C464.298 433.405 464.493 433.13 464.751 432.924C465.009 432.718 465.32 432.589 465.648 432.553C465.976 432.516 466.308 432.573 466.605 432.717C466.902 432.861 467.153 433.086 467.327 433.366C467.502 433.646 467.594 433.97 467.592 434.3C467.53 434.805 467.272 435.266 466.874 435.584C466.476 435.902 465.969 436.051 465.462 436ZM452.672 442.4C452.242 440.69 445.853 443.25 445.853 443.25C445.853 443.25 447.983 435.15 444.573 435.15C441.163 435.15 440.733 441.15 440.733 441.15C440.733 441.15 434.332 438.59 434.332 442.43C434.332 446.27 438.603 446.27 438.603 446.27C438.603 446.27 433.483 452.66 437.323 453.94C441.163 455.22 443.712 450.53 443.712 450.53C443.712 450.53 446.272 454.79 449.712 453.09C453.152 451.39 450.573 447.55 450.573 447.55C450.573 447.55 453.062 444.05 452.672 442.35V442.4ZM444.142 448.79C443.82 448.718 443.525 448.557 443.29 448.324C443.056 448.092 442.892 447.798 442.818 447.476C442.743 447.155 442.761 446.818 442.87 446.507C442.978 446.195 443.173 445.92 443.431 445.714C443.689 445.508 444 445.379 444.328 445.343C444.656 445.306 444.988 445.363 445.285 445.507C445.582 445.651 445.833 445.876 446.007 446.156C446.182 446.436 446.274 446.76 446.272 447.09C446.198 447.586 445.935 448.035 445.538 448.342C445.142 448.649 444.642 448.792 444.142 448.74V448.79ZM472.283 417.24H476.973C480.383 417.24 482.513 421.08 482.513 421.08C475.263 423.16 472.283 417.19 472.283 417.19V417.24ZM421.973 441.5H426.663C430.073 441.5 432.203 445.33 432.203 445.33C424.953 447.47 421.973 441.5 421.973 441.5ZM449.332 414L452.073 417.81C454.073 420.59 452.182 424.55 452.182 424.55C446.222 419.87 449.332 414 449.332 414ZM477.062 437.84L479.793 441.65C481.793 444.42 479.902 448.39 479.902 448.39C473.942 443.74 477.062 437.84 477.062 437.84ZM425.832 426.75L427.973 422.58C429.543 419.58 433.973 419.4 433.973 419.4C432.493 426.82 425.823 426.75 425.823 426.75H425.832Z" fill="white"/>
</svg>
