<svg width="89" height="90" viewBox="0 0 89 90" fill="none" xmlns="http://www.w3.org/2000/svg">
<circle cx="20" cy="70" r="19.5" stroke="#FF2D20"/>
<circle cx="65" cy="20" r="19.5" stroke="#0000FF"/>
<circle cx="40" cy="45" r="35" fill="#463F55"/>
<circle cx="5" cy="10" r="5" fill="#FD5901" fill-opacity="0.4"/>
<circle cx="84" cy="70" r="5" fill="#FD5901" fill-opacity="0.4"/>
<path d="M33.7562 32.4996C33.7562 30.8437 34.4141 29.2555 35.585 28.0846C36.7559 26.9137 38.3441 26.2559 40 26.2559C41.6559 26.2559 43.2441 26.9137 44.415 28.0846C45.5859 29.2555 46.2438 30.8437 46.2438 32.4996C46.2438 34.1556 45.5859 35.7437 44.415 36.9146C43.2441 38.0855 41.6559 38.7434 40 38.7434C38.3441 38.7434 36.7559 38.0855 35.585 36.9146C34.4141 35.7437 33.7562 34.1556 33.7562 32.4996ZM40 29.3809C39.5904 29.3809 39.1849 29.4615 38.8065 29.6183C38.4281 29.775 38.0843 30.0047 37.7947 30.2943C37.5051 30.5839 37.2754 30.9277 37.1187 31.3061C36.9619 31.6845 36.8812 32.09 36.8812 32.4996C36.8812 32.9092 36.9619 33.3147 37.1187 33.6931C37.2754 34.0715 37.5051 34.4153 37.7947 34.7049C38.0843 34.9945 38.4281 35.2242 38.8065 35.381C39.1849 35.5377 39.5904 35.6184 40 35.6184C40.8271 35.6184 41.6204 35.2898 42.2053 34.7049C42.7902 34.12 43.1188 33.3268 43.1188 32.4996C43.1188 31.6725 42.7902 30.8792 42.2053 30.2943C41.6204 29.7094 40.8271 29.3809 40 29.3809ZM49.375 34.0621C49.375 33.4465 49.4962 32.837 49.7318 32.2683C49.9674 31.6996 50.3127 31.1828 50.7479 30.7475C51.1832 30.3123 51.7 29.967 52.2687 29.7314C52.8374 29.4959 53.4469 29.3746 54.0625 29.3746C54.6781 29.3746 55.2876 29.4959 55.8563 29.7314C56.425 29.967 56.9418 30.3123 57.3771 30.7475C57.8123 31.1828 58.1576 31.6996 58.3932 32.2683C58.6288 32.837 58.75 33.4465 58.75 34.0621C58.75 35.3053 58.2561 36.4976 57.3771 37.3767C56.498 38.2557 55.3057 38.7496 54.0625 38.7496C52.8193 38.7496 51.627 38.2557 50.7479 37.3767C49.8689 36.4976 49.375 35.3053 49.375 34.0621ZM54.0625 32.4996C53.6481 32.4996 53.2507 32.6642 52.9576 32.9573C52.6646 33.2503 52.5 33.6477 52.5 34.0621C52.5 34.4765 52.6646 34.8739 52.9576 35.167C53.2507 35.46 53.6481 35.6246 54.0625 35.6246C54.4769 35.6246 54.8743 35.46 55.1674 35.167C55.4604 34.8739 55.625 34.4765 55.625 34.0621C55.625 33.6477 55.4604 33.2503 55.1674 32.9573C54.8743 32.6642 54.4769 32.4996 54.0625 32.4996ZM25.9375 29.3746C24.6943 29.3746 23.502 29.8685 22.6229 30.7475C21.7439 31.6266 21.25 32.8189 21.25 34.0621C21.25 35.3053 21.7439 36.4976 22.6229 37.3767C23.502 38.2557 24.6943 38.7496 25.9375 38.7496C27.1807 38.7496 28.373 38.2557 29.2521 37.3767C30.1311 36.4976 30.625 35.3053 30.625 34.0621C30.625 32.8189 30.1311 31.6266 29.2521 30.7475C28.373 29.8685 27.1807 29.3746 25.9375 29.3746ZM24.375 34.0621C24.375 33.6477 24.5396 33.2503 24.8326 32.9573C25.1257 32.6642 25.5231 32.4996 25.9375 32.4996C26.3519 32.4996 26.7493 32.6642 27.0424 32.9573C27.3354 33.2503 27.5 33.6477 27.5 34.0621C27.5 34.4765 27.3354 34.8739 27.0424 35.167C26.7493 35.46 26.3519 35.6246 25.9375 35.6246C25.5231 35.6246 25.1257 35.46 24.8326 35.167C24.5396 34.8739 24.375 34.4765 24.375 34.0621ZM28.3375 41.8746C27.7875 42.8241 27.4986 43.9023 27.5 44.9996H21.25V52.8121C21.2497 53.5894 21.4428 54.3546 21.8118 55.0387C22.1807 55.7229 22.7141 56.3045 23.3637 56.7313C24.0134 57.1581 24.759 57.4167 25.5334 57.4837C26.3078 57.5507 27.0867 57.4241 27.8 57.1152C28.0313 58.1496 28.3938 59.1371 28.8625 60.059C27.6765 60.5379 26.391 60.7182 25.1189 60.5842C23.8469 60.4502 22.6272 60.0059 21.567 59.2904C20.5068 58.5748 19.6385 57.6099 19.0384 56.4803C18.4382 55.3508 18.1246 54.0912 18.125 52.8121V44.9996C18.125 44.1708 18.4542 43.376 19.0403 42.7899C19.6263 42.2039 20.4212 41.8746 21.25 41.8746H28.3375ZM51.1375 60.059C52.3235 60.5379 53.609 60.7182 54.8811 60.5842C56.1531 60.4502 57.3728 60.0059 58.433 59.2904C59.4932 58.5748 60.3615 57.6099 60.9616 56.4803C61.5618 55.3508 61.8754 54.0912 61.875 52.8121V44.9996C61.875 44.1708 61.5458 43.376 60.9597 42.7899C60.3737 42.2039 59.5788 41.8746 58.75 41.8746H51.6625C52.1938 42.7934 52.5 43.859 52.5 44.9996H58.75V52.8121C58.7503 53.5894 58.5572 54.3546 58.1882 55.0387C57.8193 55.7229 57.2859 56.3045 56.6363 56.7313C55.9866 57.1581 55.241 57.4167 54.4666 57.4837C53.6922 57.5507 52.9133 57.4241 52.2 57.1152C51.9656 58.1496 51.6063 59.1371 51.1375 60.059ZM33.75 41.8715C32.9212 41.8715 32.1263 42.2007 31.5403 42.7868C30.9542 43.3728 30.625 44.1677 30.625 44.9965V54.3746C30.625 56.861 31.6127 59.2456 33.3709 61.0037C35.129 62.7619 37.5136 63.7496 40 63.7496C42.4864 63.7496 44.871 62.7619 46.6291 61.0037C48.3873 59.2456 49.375 56.861 49.375 54.3746V44.9996C49.375 44.1708 49.0458 43.376 48.4597 42.7899C47.8737 42.2039 47.0788 41.8746 46.25 41.8746H33.75V41.8715ZM33.75 44.9965H46.25V54.3746C46.25 56.0322 45.5915 57.6219 44.4194 58.794C43.2473 59.9661 41.6576 60.6246 40 60.6246C38.3424 60.6246 36.7527 59.9661 35.5806 58.794C34.4085 57.6219 33.75 56.0322 33.75 54.3746V44.9996V44.9965Z" fill="white"/>
</svg>
