<svg width="30" height="31" viewBox="0 0 30 31" fill="none" xmlns="http://www.w3.org/2000/svg">
<path id="Vector" d="M15 30.5C6.7155 30.5 0 23.7845 0 15.5C0 7.2155 6.7155 0.5 15 0.5C23.2845 0.5 30 7.2155 30 15.5C30 23.7845 23.2845 30.5 15 30.5ZM15 27.5C18.1826 27.5 21.2348 26.2357 23.4853 23.9853C25.7357 21.7348 27 18.6826 27 15.5C27 12.3174 25.7357 9.26515 23.4853 7.01472C21.2348 4.76428 18.1826 3.5 15 3.5C11.8174 3.5 8.76515 4.76428 6.51472 7.01472C4.26428 9.26515 3 12.3174 3 15.5C3 18.6826 4.26428 21.7348 6.51472 23.9853C8.76515 26.2357 11.8174 27.5 15 27.5ZM15 23C14.6022 23 14.2206 22.842 13.9393 22.5607C13.658 22.2794 13.5 21.8978 13.5 21.5C13.5 21.1022 13.658 20.7206 13.9393 20.4393C14.2206 20.158 14.6022 20 15 20C15.3978 20 15.7794 20.158 16.0607 20.4393C16.342 20.7206 16.5 21.1022 16.5 21.5C16.5 21.8978 16.342 22.2794 16.0607 22.5607C15.7794 22.842 15.3978 23 15 23ZM16.914 18.173C16.6005 18.4181 16.2025 18.5286 15.8076 18.4802C15.4126 18.4318 15.0531 18.2285 14.808 17.915C14.5629 17.6015 14.4524 17.2035 14.5008 16.8086C14.5492 16.4136 14.7525 16.0541 15.066 15.809L15.657 15.347C15.8909 15.1655 16.0867 14.9395 16.2331 14.6822C16.3795 14.4249 16.4737 14.1411 16.5103 13.8473C16.5469 13.5535 16.5251 13.2553 16.4462 12.97C16.3673 12.6846 16.2328 12.4176 16.0505 12.1842C15.8682 11.9509 15.6417 11.7559 15.3839 11.6103C15.126 11.4647 14.842 11.3714 14.5481 11.3358C14.2541 11.3002 13.956 11.323 13.6709 11.4028C13.3858 11.4826 13.1192 11.6179 12.8865 11.801L12.2955 12.263C12.141 12.3909 11.9623 12.4866 11.7702 12.5443C11.578 12.6019 11.3763 12.6205 11.1768 12.5988C10.9774 12.5771 10.7843 12.5157 10.609 12.4181C10.4338 12.3204 10.2799 12.1886 10.1564 12.0305C10.033 11.8723 9.94253 11.691 9.89041 11.4973C9.83829 11.3036 9.82557 11.1013 9.85299 10.9026C9.88041 10.7039 9.94742 10.5126 10.05 10.3403C10.1527 10.1679 10.2889 10.0178 10.4505 9.899L11.04 9.437C12.1372 8.57969 13.53 8.19335 14.9121 8.36298C16.2941 8.5326 17.5522 9.2443 18.4095 10.3415C19.2668 11.4387 19.6532 12.8315 19.4835 14.2136C19.3139 15.5956 18.6022 16.8537 17.505 17.711L16.914 18.173Z" fill="#FD5901"/>
</svg>
