<svg width="25" height="27" viewBox="0 0 25 27" fill="none" xmlns="http://www.w3.org/2000/svg">
<path id="Vector" d="M2.65501 6.67341C3.07396 6.5443 3.53683 6.69241 3.80095 7.05558C4.09443 7.45911 4.05971 8.01425 3.71824 8.37807L2.7829 9.07091C2.33972 9.43911 2.0819 9.98434 2.07852 10.5605V21.1263C2.09116 22.8475 3.48667 24.2378 5.20784 24.2441H10.5196V24.2672C11.0936 24.2672 11.5589 24.7325 11.5589 25.3064C11.5589 25.8804 11.0936 26.3457 10.5196 26.3457H5.20784C2.33427 26.3394 0.00635047 24.0114 0 21.1379V10.5605C0.0183724 9.33825 0.592097 8.1908 1.55889 7.44274L2.51732 6.7268L2.65501 6.67341ZM9.45726 1.05707C11.2107 -0.352356 13.7084 -0.352356 15.4619 1.05707L23.4411 7.41964C24.3866 8.18009 24.9416 9.32413 24.9538 10.5374L24.9422 21.1263C24.9422 24.0025 22.6106 26.3342 19.7344 26.3342H17.4249C16.0328 26.3342 14.9024 25.209 14.896 23.8168V19.0362L14.8853 18.9159C14.8285 18.6034 14.5551 18.3665 14.2263 18.3665H10.7621C10.5825 18.3665 10.4103 18.4386 10.2844 18.5667C10.1585 18.6948 10.0893 18.8682 10.0924 19.0478V20.8723C10.0924 21.4462 9.62707 21.9115 9.0531 21.9115C8.47914 21.9115 8.01384 21.4462 8.01384 20.8723V19.0478C8.01384 18.3158 8.30461 17.6139 8.82217 17.0963C9.33974 16.5788 10.0417 16.288 10.7737 16.288H14.2378C15.7575 16.2943 16.9861 17.5281 16.9861 19.0478V23.8168C16.9861 24.0592 17.1826 24.2556 17.4249 24.2556H19.7921C21.514 24.2556 22.9099 22.8598 22.9099 21.1379V10.5605C22.9014 9.97455 22.6301 9.4234 22.1709 9.05936L14.1917 2.69679C13.1855 1.86842 11.7336 1.86842 10.7275 2.69679L8.16396 4.61364C7.68884 4.95483 7.02709 4.84627 6.6859 4.37115C6.34471 3.89603 6.45328 3.23428 6.92839 2.89309L9.45726 1.05707Z" fill="#171717"/>
</svg>
