<svg width="26" height="27" viewBox="0 0 26 27" fill="none" xmlns="http://www.w3.org/2000/svg">
<path fill-rule="evenodd" clip-rule="evenodd" d="M14.6463 17.8641C16.1513 17.8641 17.3763 19.0803 17.3763 20.5753V24.4203C17.3763 24.7416 17.6338 24.9991 17.9638 25.0066H20.3463C22.2238 25.0066 23.75 23.4991 23.75 21.6466V10.7416C23.7412 10.1041 23.4375 9.50406 22.9163 9.10531L14.675 2.53281C13.5688 1.65656 12.0213 1.65656 10.9113 2.53531L2.72625 9.10281C2.185 9.51406 1.88125 10.1141 1.875 10.7628V21.6466C1.875 23.4991 3.40125 25.0066 5.27875 25.0066H7.68375C8.0225 25.0066 8.2975 24.7378 8.2975 24.4078C8.2975 24.3353 8.30625 24.2628 8.32125 24.1941V20.5753C8.32125 19.0891 9.53875 17.8741 11.0325 17.8641H14.6463ZM20.3463 26.8816H17.9413C16.5638 26.8491 15.5013 25.7678 15.5013 24.4203V20.5753C15.5013 20.1141 15.1175 19.7391 14.6463 19.7391H11.0388C10.5775 19.7416 10.1963 20.1178 10.1963 20.5753V24.4078C10.1963 24.5016 10.1838 24.5916 10.1575 24.6766C10.0225 25.9141 8.965 26.8816 7.68375 26.8816H5.27875C2.3675 26.8816 0 24.5328 0 21.6466V10.7541C0.0125 9.51156 0.585 8.37406 1.57375 7.62531L9.7425 1.06906C11.5412 -0.355937 14.0475 -0.355937 15.8425 1.06656L24.07 7.62906C25.0363 8.36531 25.6087 9.50031 25.625 10.7278V21.6466C25.625 24.5328 23.2575 26.8816 20.3463 26.8816Z" fill="black" fill-opacity="0.62"/>
</svg>
