<svg width="24" height="24" viewBox="0 0 24 24" fill="none" xmlns="http://www.w3.org/2000/svg">
<path id="Vector" d="M8.00064 12C8.00064 9.79097 9.79094 7.9997 12 7.9997C14.2091 7.9997 16.0003 9.79097 16.0003 12C16.0003 14.2091 14.2091 16.0004 12 16.0004C9.79094 16.0004 8.00064 14.2091 8.00064 12ZM5.83814 12C5.83814 15.4032 8.5968 18.1619 12 18.1619C15.4032 18.1619 18.1619 15.4032 18.1619 12C18.1619 8.59682 15.4032 5.83816 12 5.83816C8.5968 5.83816 5.83814 8.59682 5.83814 12ZM16.9658 5.59384C16.9657 5.87864 17.05 6.15709 17.2082 6.39396C17.3663 6.63083 17.5911 6.81549 17.8542 6.92458C18.1173 7.03368 18.4068 7.06231 18.6862 7.00686C18.9655 6.95141 19.2222 6.81436 19.4236 6.61306C19.6251 6.41175 19.7623 6.15522 19.818 5.87591C19.8737 5.5966 19.8453 5.30705 19.7364 5.04388C19.6275 4.78071 19.443 4.55574 19.2063 4.39741C18.9695 4.23909 18.6912 4.15452 18.4064 4.15441C18.0246 4.15459 17.658 4.30628 17.388 4.57617C17.118 4.84606 16.9661 5.21208 16.9658 5.59384ZM7.152 21.7678C5.98205 21.7145 5.34614 21.5196 4.92355 21.355C4.3633 21.1368 3.96355 20.8771 3.54326 20.4574C3.12298 20.0376 2.86282 19.6383 2.64566 19.078C2.48093 18.6556 2.28605 18.0195 2.23286 16.8496C2.17469 15.5847 2.16307 15.2047 2.16307 12.0001C2.16307 8.79554 2.17565 8.41663 2.23286 7.15067C2.28614 5.98072 2.48246 5.34587 2.64566 4.92222C2.86378 4.36196 3.12355 3.96222 3.54326 3.54193C3.96298 3.12164 4.36234 2.86148 4.92355 2.64433C5.34595 2.47959 5.98205 2.28471 7.152 2.23152C8.4169 2.17335 8.79686 2.16173 12 2.16173C15.2031 2.16173 15.5835 2.17431 16.8494 2.23152C18.0194 2.28481 18.6542 2.48113 19.0779 2.64433C19.6381 2.86148 20.0379 3.12222 20.4582 3.54193C20.8785 3.96164 21.1377 4.36196 21.3558 4.92222C21.5205 5.34462 21.7154 5.98072 21.7686 7.15067C21.8268 8.41663 21.8384 8.79554 21.8384 12.0001C21.8384 15.2047 21.8268 15.5836 21.7686 16.8496C21.7153 18.0195 21.5195 18.6554 21.3558 19.078C21.1377 19.6383 20.8779 20.038 20.4582 20.4574C20.0385 20.8767 19.6381 21.1368 19.0779 21.355C18.6555 21.5197 18.0194 21.7146 16.8494 21.7678C15.5845 21.8259 15.2046 21.8376 12 21.8376C8.79542 21.8376 8.41651 21.8259 7.152 21.7678ZM7.05264 0.0726722C5.77517 0.130848 4.90224 0.333409 4.1399 0.630049C3.3504 0.936386 2.68205 1.34736 2.01418 2.01418C1.3463 2.681 0.936384 3.35041 0.630048 4.13991C0.333408 4.90273 0.130848 5.77518 0.072672 7.05266C0.013536 8.33215 0 8.7412 0 12C0 15.2589 0.013536 15.6679 0.072672 16.9474C0.130848 18.225 0.333408 19.0973 0.630048 19.8601C0.936384 20.6492 1.3464 21.3193 2.01418 21.9859C2.68195 22.6524 3.3504 23.0628 4.1399 23.37C4.90368 23.6666 5.77517 23.8692 7.05264 23.9274C8.3328 23.9856 8.74118 24.0001 12 24.0001C15.2588 24.0001 15.6679 23.9865 16.9474 23.9274C18.2249 23.8692 19.0973 23.6666 19.8601 23.37C20.6491 23.0628 21.318 22.6527 21.9858 21.9859C22.6537 21.3191 23.0628 20.6492 23.37 19.8601C23.6666 19.0973 23.8701 18.2249 23.9273 16.9474C23.9855 15.6669 23.999 15.2589 23.999 12C23.999 8.7412 23.9855 8.33215 23.9273 7.05266C23.8692 5.77509 23.6666 4.90225 23.37 4.13991C23.0628 3.35089 22.6526 2.68205 21.9858 2.01418C21.319 1.34631 20.6491 0.936386 19.8611 0.630049C19.0973 0.333409 18.2248 0.129888 16.9483 0.0726722C15.6688 0.014496 15.2598 0 12.001 0C8.74214 0 8.3328 0.013536 7.05264 0.0726722Z" fill="url(#paint0_radial_56_2153)"/>
<defs>
<radialGradient id="paint0_radial_56_2153" cx="0" cy="0" r="1" gradientUnits="userSpaceOnUse" gradientTransform="translate(3.18854 24.1134) scale(31.33 31.3301)">
<stop offset="0.09" stop-color="#FA8F21"/>
<stop offset="0.78" stop-color="#D82D7E"/>
</radialGradient>
</defs>
</svg>
