<svg width="149" height="149" viewBox="0 0 149 149" fill="none" xmlns="http://www.w3.org/2000/svg">
<g id="Group 14739">
<rect id="Rectangle 1919" x="0.80014" y="0.371429" width="147.829" height="147.829" rx="14.4857" fill="#F9F9F9" stroke="#C6C6C6" stroke-width="0.742857"/>
<path id="Vector" d="M101.953 33.4285H47.4765C39.759 33.4285 33.8574 39.3301 33.8574 47.0475V101.524C33.8574 109.241 39.759 115.143 47.4765 115.143H101.953C109.67 115.143 115.572 109.241 115.572 101.524V47.0475C115.572 39.3301 109.67 33.4285 101.953 33.4285ZM74.7146 60.6666C82.432 60.6666 88.3336 66.5681 88.3336 74.2856C88.3336 82.0031 82.432 87.9047 74.7146 87.9047C66.9971 87.9047 61.0955 82.0031 61.0955 74.2856C61.0955 66.5681 66.9971 60.6666 74.7146 60.6666ZM91.9654 51.5872C91.9654 48.4094 94.6892 46.1396 97.413 46.1396C100.137 46.1396 102.861 48.8634 102.861 51.5872C102.861 54.311 100.591 57.0348 97.413 57.0348C94.2352 57.0348 91.9654 54.765 91.9654 51.5872V51.5872ZM101.953 106.063H47.4765C44.7527 106.063 42.9368 104.248 42.9368 101.524V74.2856H52.0162C52.0162 86.9967 62.0035 96.984 74.7146 96.984C87.4257 96.984 97.413 86.9967 97.413 74.2856H106.492V101.524C106.492 104.248 104.676 106.063 101.953 106.063Z" fill="#1B1B1B"/>
</g>
</svg>
