<svg width="13" height="16" viewBox="0 0 13 16" fill="none" xmlns="http://www.w3.org/2000/svg">
<path d="M6.36602 8.379C7.47749 8.379 8.37852 7.47798 8.37852 6.3665C8.37852 5.25503 7.47749 4.354 6.36602 4.354C5.25454 4.354 4.35352 5.25503 4.35352 6.3665C4.35352 7.47798 5.25454 8.379 6.36602 8.379Z" stroke="#898989" stroke-width="1.34167" stroke-linecap="round" stroke-linejoin="round"/>
<path d="M6.36667 1C4.94334 1 3.57831 1.56542 2.57186 2.57186C1.56542 3.57831 1 4.94334 1 6.36667C1 7.63588 1.26967 8.46637 2.00625 9.38542L6.36667 14.4167L10.7271 9.38542C11.4637 8.46637 11.7333 7.63588 11.7333 6.36667C11.7333 4.94334 11.1679 3.57831 10.1615 2.57186C9.15503 1.56542 7.78999 1 6.36667 1Z" stroke="#898989" stroke-width="1.34167" stroke-linecap="round" stroke-linejoin="round"/>
</svg>
