<svg width="26" height="13" viewBox="0 0 26 13" fill="none" xmlns="http://www.w3.org/2000/svg">
<path id="Vector" d="M19.8521 12.1086C19.0799 12.1166 18.3142 11.9657 17.6027 11.6653C16.8912 11.3649 16.2491 10.9214 15.7163 10.3624L12.8672 7.42132L10.018 10.3624C8.90619 11.4662 7.40299 12.0857 5.83625 12.0857C4.2695 12.0857 2.76631 11.4662 1.65446 10.3624C0.588687 9.17606 -0.000572392 7.63744 0.00013254 6.04271C-0.010485 4.42884 0.617188 2.87617 1.74637 1.72307C2.28789 1.17709 2.93215 0.743729 3.642 0.447994C4.35184 0.152259 5.11322 0 5.8822 0C6.65119 0 7.41256 0.152259 8.1224 0.447994C8.83225 0.743729 9.47651 1.17709 10.018 1.72307L12.8672 4.6641L15.7163 1.72307C16.2578 1.17709 16.9021 0.743729 17.6119 0.447994C18.3218 0.152259 19.0831 0 19.8521 0C20.6211 0 21.3825 0.152259 22.0923 0.447994C22.8022 0.743729 23.4464 1.17709 23.9879 1.72307C25.0944 2.88909 25.7113 4.43526 25.7113 6.04271C25.7113 7.65017 25.0944 9.19633 23.9879 10.3624C22.8865 11.4566 21.4045 12.0823 19.8521 12.1086ZM14.1539 6.04271L17.003 9.07565C17.7612 9.82639 18.7851 10.2475 19.8521 10.2475C20.9191 10.2475 21.943 9.82639 22.7012 9.07565C23.4553 8.2455 23.8731 7.16422 23.8731 6.04271C23.8731 4.92121 23.4553 3.83992 22.7012 3.00977C21.943 2.25904 20.9191 1.83791 19.8521 1.83791C18.7851 1.83791 17.7612 2.25904 17.003 3.00977L14.1539 6.04271ZM5.8822 1.81498C5.35029 1.80484 4.82213 1.90588 4.33151 2.11162C3.8409 2.31736 3.39865 2.62327 3.03307 3.00977C2.26517 3.83302 1.83812 4.91691 1.83812 6.04271C1.83812 7.16851 2.26517 8.2524 3.03307 9.07565C3.7913 9.82639 4.81519 10.2475 5.8822 10.2475C6.94921 10.2475 7.9731 9.82639 8.73133 9.07565L11.5805 6.04271L8.73133 3.00977C7.95807 2.27897 6.94543 1.85432 5.8822 1.81498Z" fill="white"/>
</svg>
