<svg width="80" height="80" viewBox="0 0 80 80" fill="none" xmlns="http://www.w3.org/2000/svg">
<circle cx="40" cy="40" r="40" fill="white"/>
<path fill-rule="evenodd" clip-rule="evenodd" d="M50.318 21C56.978 21 62 26.434 62 33.64V47.376C62 51.064 60.696 54.396 58.326 56.76C56.2 58.878 53.442 60 50.35 60H30.644C27.558 60 24.802 58.88 22.674 56.76C20.304 54.396 19 51.064 19 47.376V33.64C19 26.434 24.022 21 30.682 21H50.318ZM50.318 24H30.682C25.652 24 22 28.054 22 33.64V47.376C22 50.262 22.992 52.84 24.792 54.634C26.344 56.184 28.37 57 30.65 57H50.318C50.322 56.996 50.338 57 50.35 57C52.632 57 54.656 56.184 56.208 54.634C58.01 52.84 59 50.262 59 47.376V33.64C59 28.054 55.348 24 50.318 24ZM53.47 33.2576C53.992 33.8996 53.894 34.8436 53.252 35.3676L44.364 42.5916C43.24 43.4836 41.896 43.9296 40.554 43.9296C39.216 43.9296 37.882 43.4876 36.766 42.6036L27.796 35.3716C27.15 34.8516 27.05 33.9056 27.568 33.2616C28.09 32.6196 29.034 32.5176 29.678 33.0356L38.64 40.2596C39.766 41.1516 41.352 41.1516 42.486 40.2516L51.358 33.0396C52.002 32.5136 52.946 32.6136 53.47 33.2576Z" fill="black"/>
</svg>
