<svg width="29" height="29" viewBox="0 0 29 29" fill="none" xmlns="http://www.w3.org/2000/svg">
<path fill-rule="evenodd" clip-rule="evenodd" d="M12.1825 23.725C12.7937 24.4059 13.5784 24.7799 14.3926 24.7799H14.3938C15.2116 24.7799 15.9998 24.4059 16.6122 23.7238C16.9403 23.3616 17.4996 23.3321 17.8618 23.6589C18.2253 23.9858 18.2548 24.5463 17.9279 24.9086C16.9745 25.967 15.7201 26.5499 14.3938 26.5499H14.3915C13.0687 26.5488 11.8167 25.9658 10.8668 24.9074C10.5399 24.5451 10.5694 23.9846 10.9329 23.6589C11.2963 23.3309 11.8556 23.3604 12.1825 23.725ZM14.4514 1.17993C19.6965 1.17993 23.22 5.26509 23.22 9.08003C23.22 11.0424 23.7191 11.8743 24.249 12.7569C24.7729 13.6278 25.3664 14.6166 25.3664 16.4857C24.9546 21.2612 19.9691 21.6506 14.4514 21.6506C8.93373 21.6506 3.94705 21.2612 3.53993 16.5612C3.53641 14.6166 4.12995 13.6278 4.65387 12.7569L4.83883 12.4456C5.29422 11.6629 5.68283 10.8115 5.68283 9.08003C5.68283 5.26509 9.20631 1.17993 14.4514 1.17993ZM14.4514 2.94993C10.3273 2.94993 7.45283 6.18077 7.45283 9.08003C7.45283 11.5333 6.77197 12.6672 6.17017 13.6679C5.68755 14.4715 5.30641 15.1063 5.30641 16.4857C5.50347 18.7112 6.97257 19.8806 14.4514 19.8806C21.8889 19.8806 23.4041 18.6593 23.5999 16.409C23.5964 15.1063 23.2153 14.4715 22.7327 13.6679C22.1309 12.6672 21.45 11.5333 21.45 9.08003C21.45 6.18077 18.5755 2.94993 14.4514 2.94993Z" fill="black"/>
</svg>
