<svg width="22" height="23" viewBox="0 0 22 23" fill="none" xmlns="http://www.w3.org/2000/svg">
<g id="octicon:location-16">
<path id="Vector" d="M17.3196 16.4443L12.459 21.3063C12.2674 21.498 12.04 21.65 11.7897 21.7538C11.5394 21.8575 11.2711 21.9109 11.0001 21.9109C10.7291 21.9109 10.4608 21.8575 10.2105 21.7538C9.9602 21.65 9.73277 21.498 9.54123 21.3063L4.68061 16.4443C3.85063 15.6144 3.19224 14.6292 2.74302 13.5449C2.29381 12.4605 2.06256 11.2983 2.0625 10.1246C2.06244 8.95092 2.29355 7.78869 2.74265 6.70431C3.19175 5.61992 3.85003 4.63461 4.67992 3.80463C5.50981 2.97465 6.49505 2.31626 7.57938 1.86704C8.66372 1.41783 9.82592 1.18659 10.9996 1.18652C12.1733 1.18646 13.3355 1.41757 14.4199 1.86667C15.5043 2.31577 16.4896 2.97406 17.3196 3.80395C18.1497 4.63388 18.8081 5.6192 19.2573 6.70363C19.7065 7.78805 19.9378 8.95034 19.9378 10.1241C19.9378 11.2979 19.7065 12.4602 19.2573 13.5446C18.8081 14.6291 18.1497 15.6144 17.3196 16.4443ZM15.8621 5.26282C14.5726 3.97334 12.8237 3.24754 11.0001 3.24754C9.1765 3.24754 7.42759 3.97196 6.13811 5.26145C4.84863 6.55093 4.1242 8.29984 4.1242 10.1234C4.1242 11.9471 4.84863 13.696 6.13811 14.9854L11.0001 19.8461L15.8621 14.9868C16.5007 14.3484 17.0073 13.5904 17.3529 12.7562C17.6985 11.922 17.8764 11.0278 17.8764 10.1248C17.8764 9.22183 17.6985 8.32769 17.3529 7.49345C17.0073 6.65922 16.5007 5.90125 15.8621 5.26282ZM11.0001 12.8748C10.6339 12.8831 10.2697 12.8181 9.92895 12.6837C9.58819 12.5493 9.27771 12.3482 9.01575 12.0922C8.75378 11.8361 8.54561 11.5303 8.40346 11.1927C8.2613 10.8551 8.18803 10.4925 8.18794 10.1262C8.18785 9.7599 8.26094 9.39726 8.40292 9.05959C8.54491 8.72192 8.75293 8.41602 9.01476 8.15984C9.2766 7.90367 9.58697 7.70239 9.92767 7.56782C10.2684 7.43325 10.6325 7.3681 10.9987 7.3762C11.7173 7.39208 12.401 7.68863 12.9036 8.20235C13.4062 8.71607 13.6878 9.40614 13.6879 10.1248C13.6881 10.8435 13.4069 11.5337 12.9046 12.0477C12.4022 12.5617 11.7186 12.8586 11.0001 12.8748Z" fill="#545454"/>
</g>
</svg>
