<svg width="59" height="59" viewBox="0 0 59 59" fill="none" xmlns="http://www.w3.org/2000/svg">
<circle cx="29.5" cy="29.5" r="29.5" fill="#FD5901"/>
<path fill-rule="evenodd" clip-rule="evenodd" d="M27.1817 40.7248C27.7929 41.4056 28.5776 41.7797 29.3918 41.7797H29.393C30.2107 41.7797 30.999 41.4056 31.6114 40.7236C31.9394 40.3613 32.4987 40.3318 32.861 40.6587C33.2244 40.9855 33.2539 41.546 32.9271 41.9083C31.9736 42.9668 30.7193 43.5497 29.393 43.5497H29.3906C28.0678 43.5485 26.8159 42.9656 25.866 41.9071C25.5391 41.5449 25.5686 40.9844 25.932 40.6587C26.2955 40.3306 26.8548 40.3601 27.1817 40.7248ZM29.4506 18.1797C34.6957 18.1797 38.2191 22.2648 38.2191 26.0798C38.2191 28.0421 38.7183 28.874 39.2481 29.7567C39.772 30.6275 40.3656 31.6163 40.3656 33.4855C39.9537 38.2609 34.9682 38.6503 29.4506 38.6503C23.9329 38.6503 18.9462 38.2609 18.5391 33.561C18.5356 31.6163 19.1291 30.6275 19.653 29.7567L19.838 29.4453C20.2934 28.6626 20.682 27.8113 20.682 26.0798C20.682 22.2648 24.2055 18.1797 29.4506 18.1797ZM29.4506 19.9497C25.3265 19.9497 22.452 23.1805 22.452 26.0798C22.452 28.533 21.7711 29.667 21.1693 30.6676C20.6867 31.4712 20.3056 32.106 20.3056 33.4855C20.5026 35.7109 21.9717 36.8803 29.4506 36.8803C36.8881 36.8803 38.4032 35.659 38.5991 33.4088C38.5956 32.106 38.2144 31.4712 37.7318 30.6676C37.13 29.667 36.4491 28.533 36.4491 26.0798C36.4491 23.1805 33.5747 19.9497 29.4506 19.9497Z" fill="white"/>
</svg>
