<svg width="13" height="12" viewBox="0 0 13 12" fill="none" xmlns="http://www.w3.org/2000/svg">
<path d="M7.9113 1.34652L8.85017 3.14738C8.92001 3.27994 9.02025 3.39408 9.1427 3.48043C9.26515 3.56678 9.40632 3.6229 9.55463 3.64418L11.5377 3.91577C12.5981 4.06201 13.0093 5.3694 12.225 6.09643L10.867 7.3495C10.7513 7.45586 10.6644 7.58984 10.6145 7.73891C10.5646 7.88797 10.5533 8.04726 10.5817 8.20188L10.913 10.0395C11.0973 11.0632 10.0322 11.8612 9.09753 11.3933L7.20225 10.4531C7.07177 10.3893 6.92842 10.3561 6.78316 10.3561C6.6379 10.3561 6.49456 10.3893 6.36408 10.4531L4.4688 11.3933C3.53369 11.8571 2.46906 11.0632 2.65332 10.0395L2.98466 8.20146C3.04316 7.88809 2.93452 7.56636 2.6997 7.34908L1.34133 6.09643C0.557061 5.37358 0.968207 4.06159 2.02866 3.91535L4.01169 3.64376C4.16044 3.62381 4.30217 3.56822 4.42483 3.48172C4.54748 3.39523 4.64742 3.28038 4.71615 3.14696L5.65543 1.34652C6.13343 0.439831 7.43707 0.439831 7.91089 1.34652H7.9113Z" fill="#FCD53F"/>
</svg>
