<svg width="30" height="31" viewBox="0 0 30 31" fill="none" xmlns="http://www.w3.org/2000/svg">
<path id="Vector" d="M7.89474 0.25H24.6158L30 5.63421V22.3553C30 23.6116 29.5009 24.8164 28.6126 25.7047C27.7243 26.593 26.5194 27.0921 25.2632 27.0921H7.89474C6.63845 27.0921 5.43361 26.593 4.54528 25.7047C3.65695 24.8164 3.15789 23.6116 3.15789 22.3553V4.98684C3.15789 3.73055 3.65695 2.52572 4.54528 1.63739C5.43361 0.749059 6.63845 0.25 7.89474 0.25ZM7.89474 1.82895C7.05721 1.82895 6.25399 2.16165 5.66177 2.75387C5.06955 3.34609 4.73684 4.14932 4.73684 4.98684V22.3553C4.73684 23.1928 5.06955 23.996 5.66177 24.5882C6.25399 25.1805 7.05721 25.5132 7.89474 25.5132H25.2632C26.1007 25.5132 26.9039 25.1805 27.4961 24.5882C28.0883 23.996 28.4211 23.1928 28.4211 22.3553V6.42368L23.8263 1.82895H22.1053V9.72368H7.89474V1.82895ZM9.47368 1.82895V8.14474H20.5263V1.82895H9.47368ZM17.3684 12.8816C18.6247 12.8816 19.8295 13.3806 20.7179 14.269C21.6062 15.1573 22.1053 16.3621 22.1053 17.6184C22.1053 18.8747 21.6062 20.0795 20.7179 20.9679C19.8295 21.8562 18.6247 22.3553 17.3684 22.3553C16.1121 22.3553 14.9073 21.8562 14.019 20.9679C13.1306 20.0795 12.6316 18.8747 12.6316 17.6184C12.6316 16.3621 13.1306 15.1573 14.019 14.269C14.9073 13.3806 16.1121 12.8816 17.3684 12.8816ZM17.3684 14.4605C16.5309 14.4605 15.7277 14.7932 15.1355 15.3855C14.5432 15.9777 14.2105 16.7809 14.2105 17.6184C14.2105 18.4559 14.5432 19.2592 15.1355 19.8514C15.7277 20.4436 16.5309 20.7763 17.3684 20.7763C18.2059 20.7763 19.0092 20.4436 19.6014 19.8514C20.1936 19.2592 20.5263 18.4559 20.5263 17.6184C20.5263 16.7809 20.1936 15.9777 19.6014 15.3855C19.0092 14.7932 18.2059 14.4605 17.3684 14.4605ZM7.89474 30.25C6.85799 30.25 5.83139 30.0458 4.87355 29.649C3.91572 29.2523 3.04541 28.6708 2.31231 27.9377C0.831765 26.4571 0 24.4491 0 22.3553V6.56579H1.57895V22.3553C1.57895 24.0303 2.24436 25.6368 3.4288 26.8212C4.61324 28.0056 6.21969 28.6711 7.89474 28.6711H23.6842V30.25H7.89474Z" fill="#545454"/>
</svg>
