<svg width="30" height="30" viewBox="0 0 30 30" fill="none" xmlns="http://www.w3.org/2000/svg">
<g id="Group 15061">
<circle id="Ellipse 221" cx="15" cy="15" r="15" fill="#F5F5F5"/>
<g id="Iconly/Light-Outline/Bookmark">
<g id="Bookmark">
<path id="Combined-Shape" fill-rule="evenodd" clip-rule="evenodd" d="M17.6676 6C20.4702 6 22.078 7.38723 22.078 9.80393V21.8139C22.078 22.3179 21.8186 22.7715 21.3823 23.0251C20.9477 23.2796 20.4239 23.2846 19.9844 23.0367L15.0601 20.2548L10.0903 23.0425C9.87552 23.1631 9.64005 23.2243 9.40375 23.2243C9.16002 23.2243 8.91628 23.159 8.69485 23.0284C8.25943 22.7748 8 22.3212 8 21.818V9.65273C8 7.33104 9.60865 6 12.4137 6H17.6676ZM17.6676 7.23933H12.4137C10.3076 7.23933 9.23933 8.05068 9.23933 9.65273V21.818C9.23933 21.8957 9.28395 21.9378 9.32113 21.9593C9.35831 21.9824 9.41697 21.999 9.48472 21.961L14.7577 19.0031C14.946 18.8982 15.1766 18.8973 15.3658 19.0039L20.5933 21.9568C20.6619 21.9965 20.7205 21.9783 20.7577 21.956C20.7949 21.9337 20.8387 21.8916 20.8387 21.8139L20.8384 9.70977C20.8321 8.99867 20.6945 7.23933 17.6676 7.23933ZM18.0302 11.5592C18.3722 11.5592 18.6498 11.8368 18.6498 12.1789C18.6498 12.521 18.3722 12.7986 18.0302 12.7986H11.9839C11.6418 12.7986 11.3642 12.521 11.3642 12.1789C11.3642 11.8368 11.6418 11.5592 11.9839 11.5592H18.0302Z" fill="#666666"/>
</g>
</g>
</g>
</svg>
