<svg width="25" height="25" viewBox="0 0 25 25" fill="none" xmlns="http://www.w3.org/2000/svg">
<path id="Combined-Shape" fill-rule="evenodd" clip-rule="evenodd" d="M11.619 0C18.0256 0 23.2367 5.21117 23.2367 11.6178C23.2367 14.6404 22.0768 17.3972 20.1786 19.4661L23.9137 23.1934C24.2632 23.543 24.2644 24.1085 23.9149 24.458C23.7407 24.6346 23.5104 24.7217 23.2814 24.7217C23.0535 24.7217 22.8244 24.6346 22.649 24.4604L18.8689 20.6908C16.8803 22.2833 14.359 23.2367 11.619 23.2367C5.21237 23.2367 0 18.0244 0 11.6178C0 5.21117 5.21237 0 11.619 0ZM11.619 1.78955C6.19901 1.78955 1.78955 6.19781 1.78955 11.6178C1.78955 17.0377 6.19901 21.4472 11.619 21.4472C17.0377 21.4472 21.4472 17.0377 21.4472 11.6178C21.4472 6.19781 17.0377 1.78955 11.619 1.78955Z" fill="#A7A7A7"/>
</svg>
