<svg width="34" height="34" viewBox="0 0 34 34" fill="none" xmlns="http://www.w3.org/2000/svg">
<g id="Iconly/Light-Outline/Send">
<g id="Send">
<path id="Fill-1" fill-rule="evenodd" clip-rule="evenodd" d="M14.3495 17.9495L12.3736 26.2969C12.2868 26.6625 12.5071 26.8774 12.6072 26.953C12.7073 27.0287 12.9729 27.1861 13.3061 27.0057L30.7225 17.5338C31.0296 17.3656 31.0634 17.0758 31.0633 16.9609C31.065 16.8478 31.0283 16.5658 30.7323 16.4006L13.3361 6.89796C13.0062 6.718 12.7365 6.87655 12.6364 6.95232C12.5346 7.02984 12.3094 7.24841 12.3931 7.61564L14.3545 16.1036L23.6321 16.0496C24.1412 16.0467 24.5574 16.4572 24.5612 16.9672C24.565 17.4772 24.1527 17.8935 23.6436 17.8964L14.3495 17.9495ZM11.2293 28.1966C10.6233 27.5912 10.3756 26.728 10.577 25.8715L12.6728 17.021L10.5953 8.03093C10.3719 7.06152 10.7247 6.08483 11.5198 5.48212C12.3141 4.87855 13.3488 4.80224 14.2203 5.27781L31.6164 14.7805C32.4165 15.2178 32.9087 16.0521 32.911 16.9625C32.9089 17.8772 32.409 18.7173 31.6033 19.1547L14.1878 28.6257C13.3125 29.1032 12.2777 29.0246 11.4871 28.421C11.3948 28.3497 11.3095 28.2766 11.2293 28.1966Z" fill="#403F3F"/>
</g>
</g>
</svg>
