<svg width="50" height="50" viewBox="0 0 50 50" fill="none" xmlns="http://www.w3.org/2000/svg">
<g id="Group 15457">
<circle id="Ellipse 60" cx="11.1111" cy="38.8885" r="10.8333" stroke="#FF2D20" stroke-width="0.555556"/>
<circle id="Ellipse 61" cx="36.1111" cy="11.1111" r="10.8333" stroke="#0000FF" stroke-width="0.555556"/>
<circle id="Ellipse 62" cx="22.2223" cy="25.0001" r="19.4444" fill="#1400FF"/>
<circle id="Ellipse 63" cx="2.77778" cy="5.55512" r="2.77778" fill="#FD5901" fill-opacity="0.4"/>
<circle id="Ellipse 64" cx="46.6667" cy="38.8891" r="2.77778" fill="#FD5901" fill-opacity="0.4"/>
<path id="Vector" d="M15.462 30.44V27.52C15.462 26.55 16.222 25.68 17.302 25.68C18.272 25.68 19.142 26.44 19.142 27.52V30.33C19.142 32.28 17.522 33.9 15.572 33.9C13.622 33.9 12.002 32.27 12.002 30.33V24.17C11.892 18.55 16.332 14 21.952 14C27.572 14 32.002 18.55 32.002 24.06V30.22C32.002 32.17 30.382 33.79 28.432 33.79C26.482 33.79 24.862 32.17 24.862 30.22V27.41C24.862 26.44 25.622 25.57 26.702 25.57C27.672 25.57 28.542 26.33 28.542 27.41V30.44" stroke="white" stroke-width="1.5" stroke-linecap="round" stroke-linejoin="round"/>
</g>
</svg>
