<svg width="69" height="69" viewBox="0 0 69 69" fill="none" xmlns="http://www.w3.org/2000/svg">
<g id="Group 15139">
<circle id="Ellipse 297" cx="34.4074" cy="34.0568" r="34.0568" fill="white"/>
<path id="Vector" d="M37.3113 33.8003C37.3113 34.337 37.1521 34.8615 36.854 35.3077C36.5559 35.7539 36.1321 36.1017 35.6363 36.307C35.1405 36.5124 34.595 36.5661 34.0687 36.4614C33.5424 36.3567 33.0589 36.0983 32.6795 35.7189C32.3 35.3394 32.0416 34.856 31.9369 34.3296C31.8322 33.8033 31.8859 33.2578 32.0913 32.762C32.2967 32.2662 32.6444 31.8425 33.0906 31.5443C33.5368 31.2462 34.0614 31.0871 34.598 31.0871C35.3176 31.0871 36.0077 31.3729 36.5166 31.8818C37.0254 32.3906 37.3113 33.0807 37.3113 33.8003ZM34.598 28.7614C35.1346 28.7614 35.6592 28.6023 36.1054 28.3042C36.5516 28.006 36.8994 27.5823 37.1047 27.0865C37.3101 26.5907 37.3638 26.0452 37.2591 25.5189C37.1544 24.9926 36.896 24.5091 36.5166 24.1297C36.1371 23.7502 35.6537 23.4918 35.1273 23.3871C34.601 23.2824 34.0555 23.3361 33.5597 23.5415C33.0639 23.7469 32.6402 24.0946 32.342 24.5408C32.0439 24.987 31.8848 25.5116 31.8848 26.0482C31.8848 26.7678 32.1706 27.4579 32.6795 27.9668C33.1883 28.4756 33.8784 28.7614 34.598 28.7614ZM34.598 38.8392C34.0614 38.8392 33.5368 38.9983 33.0906 39.2965C32.6444 39.5946 32.2967 40.0184 32.0913 40.5141C31.8859 41.0099 31.8322 41.5555 31.9369 42.0818C32.0416 42.6081 32.3 43.0915 32.6795 43.471C33.0589 43.8504 33.5424 44.1089 34.0687 44.2136C34.595 44.3182 35.1405 44.2645 35.6363 44.0592C36.1321 43.8538 36.5559 43.506 36.854 43.0598C37.1521 42.6136 37.3113 42.0891 37.3113 41.5524C37.3113 40.8328 37.0254 40.1427 36.5166 39.6339C36.0077 39.1251 35.3176 38.8392 34.598 38.8392Z" fill="#262626"/>
</g>
</svg>
