<svg width="15" height="11" viewBox="0 0 15 11" fill="none" xmlns="http://www.w3.org/2000/svg">
<path fill-rule="evenodd" clip-rule="evenodd" d="M7.37134 6.99817L7.44078 6.9982L7.59611 6.99872C8.78339 7.00654 11.4966 7.12648 11.4966 8.9655C11.4966 10.7925 8.87797 10.9116 7.61462 10.9194L7.14655 10.9194C5.9592 10.9116 3.24542 10.7918 3.24542 8.95505C3.24542 7.1258 5.9592 7.0065 7.14655 6.99872L7.30189 6.9982C7.32599 6.99818 7.34916 6.99817 7.37134 6.99817ZM7.37134 7.92065C5.91014 7.92065 4.16789 8.10022 4.16789 8.95505C4.16789 9.79053 5.80615 9.98586 7.23778 9.99693L7.37134 9.99744C8.83253 9.99744 10.5742 9.81848 10.5742 8.9655C10.5742 8.10207 8.83253 7.92065 7.37134 7.92065ZM12.2627 6.74862C13.7528 6.97185 14.0658 7.6717 14.0658 8.21965C14.0658 8.5542 13.9342 9.16488 13.0548 9.50005C13.0006 9.52034 12.9453 9.53018 12.8906 9.53018C12.7048 9.53018 12.5296 9.41702 12.4595 9.23314C12.3684 8.99514 12.4884 8.72824 12.7264 8.63784C13.1433 8.47918 13.1433 8.30391 13.1433 8.21965C13.1433 7.95029 12.8008 7.76211 12.1255 7.66125C11.874 7.62312 11.6999 7.38881 11.7375 7.13605C11.775 6.88391 12.0087 6.71602 12.2627 6.74862ZM3.00459 7.13605C3.04211 7.38881 2.86807 7.62312 2.61654 7.66125C1.94129 7.76211 1.59874 7.95029 1.59874 8.21965C1.59874 8.30391 1.59874 8.47856 2.01632 8.63784C2.25431 8.72824 2.37424 8.99514 2.28322 9.23314C2.21311 9.41702 2.03784 9.53018 1.85212 9.53018C1.79738 9.53018 1.74203 9.52034 1.68792 9.50005C0.807876 9.16427 0.67627 8.55359 0.67627 8.21965C0.67627 7.67232 0.989296 6.97185 2.48001 6.74862C2.734 6.71664 2.96646 6.88391 3.00459 7.13605ZM7.37134 0.59375C8.92109 0.59375 10.1812 1.85446 10.1812 3.4036C10.1812 4.95274 8.92109 6.21346 7.37134 6.21346H7.35473C6.60445 6.211 5.90153 5.91704 5.3751 5.38569C4.84745 4.85496 4.55902 4.15019 4.56207 3.40176C4.56207 1.85446 5.82219 0.59375 7.37134 0.59375ZM7.37134 1.51622C6.33078 1.51622 5.48456 2.36305 5.48456 3.4036C5.48272 3.90789 5.67583 4.37958 6.02944 4.73566C6.38306 5.09173 6.85414 5.28914 7.35596 5.29098L7.37134 5.75222V5.29098C8.41188 5.29098 9.25872 4.44477 9.25872 3.4036C9.25872 2.36305 8.41188 1.51622 7.37134 1.51622ZM11.1775 1.19613C12.2586 1.37385 13.0439 2.29879 13.0439 3.3953C13.0415 4.49919 12.2168 5.44627 11.1252 5.5994C11.1037 5.60247 11.0821 5.6037 11.0612 5.6037C10.8349 5.6037 10.6375 5.43704 10.6049 5.20642C10.5699 4.95367 10.7451 4.72059 10.9979 4.68553C11.6375 4.59575 12.1202 4.04103 12.1215 3.39407C12.1215 2.75265 11.6615 2.21023 11.0274 2.1063C10.7765 2.0651 10.6061 1.82771 10.6473 1.57618C10.6892 1.32466 10.9247 1.15615 11.1775 1.19613ZM4.09532 1.57618C4.13653 1.82771 3.96618 2.0651 3.71527 2.1063C3.08122 2.21023 2.62121 2.75265 2.62121 3.3953C2.62244 4.04103 3.1052 4.59636 3.74417 4.68553C3.99693 4.72059 4.1722 4.95367 4.13714 5.20642C4.10455 5.43704 3.90714 5.6037 3.68083 5.6037C3.65992 5.6037 3.63839 5.60247 3.61687 5.5994C2.52528 5.44627 1.7012 4.49919 1.69874 3.39653C1.69874 2.29879 2.48407 1.37385 3.56521 1.19613C3.82412 1.15554 4.05351 1.32589 4.09532 1.57618Z" fill="black"/>
</svg>
