<svg width="25" height="6" viewBox="0 0 25 6" fill="none" xmlns="http://www.w3.org/2000/svg">
<path id="Vector" d="M22.0003 0.230093C22.7347 0.230093 23.4391 0.52185 23.9584 1.04118C24.4778 1.56051 24.7695 2.26488 24.7695 2.99932C24.7695 3.73377 24.4778 4.43813 23.9584 4.95747C23.4391 5.4768 22.7347 5.76855 22.0003 5.76855C21.2659 5.76855 20.5615 5.4768 20.0422 4.95747C19.5228 4.43813 19.2311 3.73377 19.2311 2.99932C19.2311 2.26488 19.5228 1.56051 20.0422 1.04118C20.5615 0.52185 21.2659 0.230093 22.0003 0.230093ZM12.7695 0.230093C13.504 0.230093 14.2083 0.52185 14.7277 1.04118C15.247 1.56051 15.5388 2.26488 15.5388 2.99932C15.5388 3.73377 15.247 4.43813 14.7277 4.95747C14.2083 5.4768 13.504 5.76855 12.7695 5.76855C12.0351 5.76855 11.3307 5.4768 10.8114 4.95747C10.2921 4.43813 10.0003 3.73377 10.0003 2.99932C10.0003 2.26488 10.2921 1.56051 10.8114 1.04118C11.3307 0.52185 12.0351 0.230093 12.7695 0.230093ZM3.53876 0.230093C4.27321 0.230093 4.97757 0.52185 5.4969 1.04118C6.01624 1.56051 6.30799 2.26488 6.30799 2.99932C6.30799 3.73377 6.01624 4.43813 5.4969 4.95747C4.97757 5.4768 4.27321 5.76855 3.53876 5.76855C2.80432 5.76855 2.09995 5.4768 1.58062 4.95747C1.06129 4.43813 0.769531 3.73377 0.769531 2.99932C0.769531 2.26488 1.06129 1.56051 1.58062 1.04118C2.09995 0.52185 2.80432 0.230093 3.53876 0.230093Z" fill="#0A0A0A"/>
</svg>
