<svg width="150" height="149" viewBox="0 0 150 149" fill="none" xmlns="http://www.w3.org/2000/svg">
<g id="Group 14740">
<rect id="Rectangle 1918" x="1.0853" y="0.371429" width="147.829" height="147.829" rx="14.4857" fill="#F9F9F9" stroke="#C6C6C6" stroke-width="0.742857"/>
<path id="Vector" d="M107.978 49.8082C111.883 47.4109 114.469 44.1387 115.735 39.9772C112.168 41.9062 108.341 43.3079 104.372 44.1387C100.974 40.4847 96.6724 38.6287 91.5152 38.6287C86.4741 38.6287 82.2159 40.3977 78.7407 43.839C77.0624 45.4732 75.7355 47.4328 74.8413 49.5979C73.947 51.7629 73.5042 54.0877 73.54 56.4299C73.54 57.9234 73.7285 59.2574 74.1055 60.3884C59.2381 59.8809 46.9324 53.7135 37.2367 41.8428C35.5934 44.7477 34.7717 47.7057 34.7717 50.7652C34.7717 57.0534 37.4252 62.0366 42.7226 65.6954C39.7018 65.4392 37.0386 64.6756 34.7717 63.4237C34.7717 67.9139 36.0912 71.6646 38.7351 74.9658C41.3033 78.1825 44.9226 80.3918 48.9576 81.2056C47.4496 81.5923 45.8594 81.776 44.2258 81.776C42.7178 81.776 41.6496 81.6503 41.0164 81.3748C42.1281 85.0336 44.2258 88.0013 47.2563 90.273C50.2522 92.5478 53.8964 93.806 57.6576 93.8642C51.2196 98.915 43.8584 101.414 35.5306 101.414C33.4909 101.414 32.0457 101.385 31.1709 101.23C39.3731 106.557 48.5033 109.2 58.605 109.2C68.9435 109.2 78.0785 106.581 86.0294 101.341C93.9802 96.131 99.8479 89.7026 103.618 82.1336C107.346 74.8097 109.287 66.7071 109.283 58.4889V56.2269C112.758 53.6648 115.766 50.5241 118.176 46.942C114.921 48.3527 111.491 49.3168 107.978 49.8082V49.8082Z" fill="#1B1B1B"/>
<path id="Vector_2" d="M107.978 49.8082C111.883 47.4109 114.469 44.1387 115.735 39.9772C112.168 41.9062 108.341 43.3079 104.372 44.1387C100.974 40.4847 96.6724 38.6287 91.5152 38.6287C86.4741 38.6287 82.2159 40.3977 78.7407 43.839C77.0624 45.4732 75.7355 47.4328 74.8413 49.5979C73.947 51.7629 73.5042 54.0877 73.54 56.4299C73.54 57.9234 73.7285 59.2574 74.1055 60.3884C59.2381 59.8809 46.9324 53.7135 37.2367 41.8428C35.5934 44.7477 34.7717 47.7057 34.7717 50.7652C34.7717 57.0534 37.4252 62.0366 42.7226 65.6954C39.7018 65.4392 37.0386 64.6756 34.7717 63.4237C34.7717 67.9139 36.0912 71.6646 38.7351 74.9658C41.3033 78.1825 44.9226 80.3918 48.9576 81.2056C47.4496 81.5923 45.8594 81.776 44.2258 81.776C42.7178 81.776 41.6496 81.6503 41.0164 81.3748C42.1281 85.0336 44.2258 88.0013 47.2563 90.273C50.2522 92.5478 53.8964 93.806 57.6576 93.8642C51.2196 98.915 43.8584 101.414 35.5306 101.414C33.4909 101.414 32.0457 101.385 31.1709 101.23C39.3731 106.557 48.5033 109.2 58.605 109.2C68.9435 109.2 78.0785 106.581 86.0294 101.341C93.9802 96.131 99.8479 89.7026 103.618 82.1336C107.346 74.8097 109.287 66.7071 109.283 58.4889V56.2269C112.758 53.6648 115.766 50.5241 118.176 46.942C114.921 48.3527 111.491 49.3168 107.978 49.8082V49.8082Z" fill="#1B1B1B"/>
</g>
</svg>
