<svg width="31" height="24" viewBox="0 0 31 24" fill="none" xmlns="http://www.w3.org/2000/svg">
<g id="Frame 2470">
<path id="Vector" d="M10.1694 24.0001C6.79374 24.0001 3.64706 23.0182 0.998535 21.3242C3.24722 21.4697 7.21565 21.1212 9.68403 18.7668C5.97079 18.5964 4.2962 15.7485 4.07778 14.5315C4.39327 14.6532 5.89798 14.7993 6.74741 14.4585C2.476 13.3874 1.82072 9.63894 1.96634 8.49498C2.76723 9.0548 4.12631 9.24952 4.66024 9.20079C0.680055 6.35292 2.11196 2.06897 2.81576 1.14402C5.67209 5.10123 9.95283 7.32377 15.2487 7.44732C15.1488 7.00948 15.0961 6.55348 15.0961 6.08516C15.0961 2.72444 17.8125 0 21.1634 0C22.9142 0 24.4918 0.743741 25.5993 1.9334C26.7692 1.65925 28.53 1.01747 29.3907 0.462471C28.9569 2.02029 27.6061 3.31982 26.789 3.80148C26.7958 3.81787 26.7824 3.78503 26.789 3.80148C27.5067 3.69292 29.4488 3.3197 30.2159 2.7992C29.8365 3.67436 28.4044 5.12947 27.2292 5.94408C27.4479 15.5876 20.0697 24.0001 10.1694 24.0001Z" fill="#47ACDF"/>
</g>
</svg>
