<svg width="24" height="24" viewBox="0 0 24 24" fill="none" xmlns="http://www.w3.org/2000/svg">
<g id="typcn:social-instagram">
<path id="Vector" d="M18 3H6C4.3 3 3 4.3 3 6V18C3 19.7 4.3 21 6 21H18C19.7 21 21 19.7 21 18V6C21 4.3 19.7 3 18 3ZM12 9C13.7 9 15 10.3 15 12C15 13.7 13.7 15 12 15C10.3 15 9 13.7 9 12C9 10.3 10.3 9 12 9ZM15.8 7C15.8 6.3 16.4 5.8 17 5.8C17.6 5.8 18.2 6.4 18.2 7C18.2 7.6 17.7 8.2 17 8.2C16.3 8.2 15.8 7.7 15.8 7ZM18 19H6C5.4 19 5 18.6 5 18V12H7C7 14.8 9.2 17 12 17C14.8 17 17 14.8 17 12H19V18C19 18.6 18.6 19 18 19Z" fill="#1B1B1B"/>
</g>
</svg>
