<svg width="24" height="24" viewBox="0 0 24 24" fill="none" xmlns="http://www.w3.org/2000/svg">
<g id="typcn:social-twitter">
<path id="Vector" d="M18.89 7.01222C19.698 6.51622 20.233 5.83922 20.495 4.97822C19.7571 5.37733 18.9652 5.66734 18.144 5.83922C17.441 5.08322 16.551 4.69922 15.484 4.69922C14.441 4.69922 13.56 5.06522 12.841 5.77722C12.4938 6.11532 12.2193 6.52076 12.0342 6.9687C11.8492 7.41664 11.7576 7.89763 11.765 8.38222C11.765 8.69122 11.804 8.96722 11.882 9.20122C8.80602 9.09622 6.26002 7.82022 4.25402 5.36422C3.91402 5.96522 3.74402 6.57722 3.74402 7.21022C3.74402 8.51122 4.29302 9.54222 5.38902 10.2992C4.76402 10.2462 4.21302 10.0882 3.74402 9.82922C3.74402 10.7582 4.01702 11.5342 4.56402 12.2172C5.09538 12.8828 5.8442 13.3398 6.67902 13.5082C6.36702 13.5882 6.03802 13.6262 5.70002 13.6262C5.38802 13.6262 5.16702 13.6002 5.03602 13.5432C5.26602 14.3002 5.70002 14.9142 6.32702 15.3842C6.94686 15.8549 7.70085 16.1152 8.47902 16.1272C7.14702 17.1722 5.62402 17.6892 3.90102 17.6892C3.47902 17.6892 3.18002 17.6832 2.99902 17.6512C4.69602 18.7532 6.58502 19.3002 8.67502 19.3002C10.814 19.3002 12.704 18.7582 14.349 17.6742C15.994 16.5962 17.208 15.2662 17.988 13.7002C18.7594 12.1849 19.161 10.5085 19.16 8.80822V8.34022C19.879 7.81014 20.5014 7.16033 21 6.41922C20.3266 6.71108 19.6169 6.91055 18.89 7.01222Z" fill="#1B1B1B"/>
</g>
</svg>
