<svg width="60" height="60" viewBox="0 0 60 60" fill="none" xmlns="http://www.w3.org/2000/svg">
<circle cx="30" cy="30" r="30" fill="#FE5F05"/>
<path d="M38.8735 11C38.6277 10.9975 38.4023 11.133 38.2933 11.3496L35.5104 16.8977L29.2783 17.7844C28.7552 17.8604 28.5462 18.4938 28.9262 18.856L33.7459 23.1716L32.5388 29.2644C32.4501 29.7787 32.9986 30.1701 33.4672 29.9269L38.8671 27.049L44.2962 29.9282C44.7648 30.1688 45.3095 29.7787 45.2234 29.2669L44.0302 23.1742L48.8056 18.8573C49.1856 18.495 48.9778 17.8604 48.4534 17.7857L42.2264 16.899L39.4397 11.3509C39.3333 11.1394 39.1141 11.0026 38.8735 11ZM38.8671 13.0457L41.227 17.7451C41.3194 17.9326 41.5006 18.0618 41.7083 18.091L46.9879 18.8446L42.9003 22.5054C42.7483 22.6472 42.6811 22.855 42.7166 23.0576L43.7464 28.2257L39.1661 25.7848C38.9799 25.6885 38.7582 25.6885 38.5707 25.7848L34.0233 28.2245L35.0658 23.0564C35.1013 22.8537 35.0316 22.6447 34.8821 22.5016L30.7502 18.8408L36.0272 18.0884C36.2362 18.0593 36.4161 17.9301 36.5086 17.7439L38.8671 13.0457ZM31.9004 33.8004C30.8591 33.8004 30.0003 34.6592 30.0003 35.7004V47.1006C30.0003 48.1419 30.8591 49.0007 31.9004 49.0007H43.3005C44.3418 49.0007 45.2006 48.1419 45.2006 47.1006V35.7004C45.2006 34.6592 44.3418 33.8004 43.3005 33.8004H31.9004ZM31.9004 35.0671H43.3005C43.6628 35.0671 43.9339 35.3382 43.9339 35.7004V47.1006C43.9339 47.4629 43.6628 47.734 43.3005 47.734H31.9004C31.5381 47.734 31.267 47.4629 31.267 47.1006V35.7004C31.267 35.3382 31.5381 35.0671 31.9004 35.0671ZM12.9 14.8001C11.8588 14.8001 11 15.6589 11 16.7001V28.1003C11 29.1415 11.8588 30.0004 12.9 30.0004H24.3002C25.3414 30.0004 26.2003 29.1415 26.2003 28.1003V16.7001C26.2003 15.6589 25.3414 14.8001 24.3002 14.8001H12.9ZM12.9 16.0668H24.3002C24.6625 16.0668 24.9336 16.3379 24.9336 16.7001V28.1003C24.9336 28.4626 24.6625 28.7337 24.3002 28.7337H12.9C12.5378 28.7337 12.2667 28.4626 12.2667 28.1003V16.7001C12.2667 16.3379 12.5378 16.0668 12.9 16.0668ZM12.9 33.8004C11.8588 33.8004 11 34.6592 11 35.7004V47.1006C11 48.1419 11.8588 49.0007 12.9 49.0007H24.3002C25.3414 49.0007 26.2003 48.1419 26.2003 47.1006V35.7004C26.2003 34.6592 25.3414 33.8004 24.3002 33.8004H12.9ZM12.9 35.0671H24.3002C24.6625 35.0671 24.9336 35.3382 24.9336 35.7004V47.1006C24.9336 47.4629 24.6625 47.734 24.3002 47.734H12.9C12.5378 47.734 12.2667 47.4629 12.2667 47.1006V35.7004C12.2667 35.3382 12.5378 35.0671 12.9 35.0671Z" fill="white"/>
</svg>
