<svg width="42" height="44" viewBox="0 0 42 44" fill="none" xmlns="http://www.w3.org/2000/svg">
<g id="Group 14771">
<g id="Group">
<path id="Vector" fill-rule="evenodd" clip-rule="evenodd" d="M20.8328 30.2095C21.2472 30.2095 21.6446 30.0449 21.9376 29.7518C22.2307 29.4588 22.3953 29.0614 22.3953 28.647V5.78658L25.8953 9.87199C26.1649 10.1869 26.5486 10.3819 26.962 10.4139C27.3754 10.4459 27.7845 10.3125 28.0995 10.0428C28.4144 9.77319 28.6093 9.38949 28.6414 8.97613C28.6734 8.56276 28.5399 8.15361 28.2703 7.83866L22.0203 0.546995C21.8736 0.375465 21.6915 0.237748 21.4865 0.143322C21.2815 0.0488953 21.0585 0 20.8328 0C20.6071 0 20.3841 0.0488953 20.1791 0.143322C19.9741 0.237748 19.792 0.375465 19.6453 0.546995L13.3953 7.83866C13.2618 7.99461 13.1603 8.17532 13.0966 8.37049C13.0329 8.56565 13.0083 8.77145 13.0242 8.97613C13.0401 9.1808 13.0961 9.38035 13.1891 9.56337C13.2821 9.7464 13.4102 9.90932 13.5661 10.0428C13.7221 10.1763 13.9028 10.2778 14.0979 10.3415C14.2931 10.4052 14.4989 10.4298 14.7036 10.4139C14.9083 10.398 15.1078 10.342 15.2908 10.249C15.4739 10.1561 15.6368 10.0279 15.7703 9.87199L19.2703 5.78866V28.647C19.2703 29.5095 19.9703 30.2095 20.8328 30.2095Z" fill="#FD5901"/>
<path id="Vector_2" d="M29.1667 16.1475C27.7042 16.1475 26.9729 16.1475 26.4458 16.4995C26.2192 16.6512 26.0246 16.8458 25.8729 17.0725C25.5208 17.5995 25.5208 18.3308 25.5208 19.7933V28.6475C25.5208 29.8907 25.027 31.0829 24.1479 31.962C23.2688 32.8411 22.0765 33.335 20.8333 33.335C19.5901 33.335 18.3978 32.8411 17.5188 31.962C16.6397 31.0829 16.1458 29.8907 16.1458 28.6475V19.7933C16.1458 18.3308 16.1458 17.5995 15.7937 17.0725C15.6421 16.8458 15.4475 16.6512 15.2208 16.4995C14.6937 16.1475 13.9625 16.1475 12.5 16.1475C6.60833 16.1475 3.66042 16.1475 1.83125 17.9787C-1.24176e-07 19.8079 0 22.7516 0 28.6454V30.7287C0 36.6245 -1.24176e-07 39.5683 1.83125 41.3995C3.66042 43.2308 6.60833 43.2308 12.5 43.2308H29.1667C35.0583 43.2308 38.0062 43.2308 39.8354 41.3995C41.6667 39.5683 41.6667 36.6225 41.6667 30.7308V28.6475C41.6667 22.7537 41.6667 19.8079 39.8354 17.9787C38.0062 16.1475 35.0583 16.1475 29.1667 16.1475Z" fill="#FD5901"/>
</g>
</g>
</svg>
