<svg width="26" height="20" viewBox="0 0 26 20" fill="none" xmlns="http://www.w3.org/2000/svg">
<g id="Iconly/Light-Outline/Video">
<g id="Video">
<path id="Combined-Shape" fill-rule="evenodd" clip-rule="evenodd" d="M7.46325 0.50139L8.03974 0.50213C8.13828 0.502269 8.23793 0.502416 8.33849 0.502569L8.95117 0.503562C10.2955 0.505857 11.7274 0.509004 12.8187 0.511273L13.2967 0.512251C13.3718 0.512401 13.4445 0.512545 13.5146 0.512681C16.2724 0.319021 18.7617 2.36594 18.9836 5.11273C18.9857 5.14091 18.9875 5.30079 18.989 5.59161L21.5333 3.50792C22.2736 2.9012 23.2701 2.78231 24.1342 3.19047C24.9983 3.60108 25.5351 4.44926 25.5339 5.40531L25.5192 14.413C25.518 15.369 24.9799 16.2172 24.117 16.6241C23.7787 16.7847 23.4208 16.8619 23.0654 16.8619C22.5126 16.8619 21.9672 16.6719 21.5173 16.303L18.9947 14.2098C18.9947 14.2453 18.9946 14.2808 18.9946 14.3165C19.0461 15.6109 18.5852 16.8574 17.6954 17.8257C16.7602 18.8443 15.4708 19.4363 14.0661 19.4939C14.0423 19.4956 13.9081 19.4967 13.6877 19.4975L13.2035 19.4983C13.0146 19.4984 12.8 19.4984 12.565 19.4983L11.5281 19.4973C11.4347 19.4972 11.3398 19.4971 11.2436 19.497L10.6523 19.496C9.24353 19.4936 7.65663 19.49 6.42634 19.4873L5.92246 19.4862C5.76282 19.4859 5.61201 19.4856 5.4716 19.4853C5.34168 19.4951 5.21176 19.5 5.08184 19.5C2.49073 19.5012 0.230561 17.5156 0.0172908 14.911L0.0170999 14.9083L0.0159548 14.884C0.015869 14.8814 0.0157815 14.8785 0.0156924 14.8752L0.0148508 14.8366C0.0147532 14.8312 0.0146543 14.8253 0.0145543 14.8189L0.0136269 14.7475C0.0135211 14.7379 0.0134146 14.7277 0.0133073 14.7169L0.0123268 14.601C0.0122164 14.586 0.0121058 14.5702 0.0119949 14.5536L0.0113278 14.4441C0.0112165 14.4241 0.0111052 14.4033 0.0109939 14.3815L0.00999909 14.1597C0.00988957 14.132 0.00978051 14.1033 0.00967201 14.0735L0.00871393 13.775C0.00860986 13.7384 0.0085067 13.7005 0.00840456 13.6614L0.00751593 13.2745C0.00742094 13.2275 0.00732731 13.1792 0.00723516 13.1295L0.0062074 12.4622C0.00612886 12.4005 0.00605226 12.3372 0.00597769 12.2724L0.00502665 11.1733C0.00497535 11.0913 0.00492667 11.0075 0.0048807 10.9218L0.00486323 6.11958C0.00491577 5.97394 0.00497263 5.82587 0.00503391 5.67533C-0.0537991 4.41163 0.404608 3.15652 1.29936 2.17963C2.23334 1.15985 3.52153 0.565386 4.9274 0.505327C4.94633 0.503965 5.03591 0.502936 5.18367 0.50219L5.44739 0.501275C5.49809 0.501156 5.55204 0.501053 5.60905 0.500965L7.18785 0.501099C7.27803 0.501187 7.36989 0.501284 7.46325 0.50139ZM13.5808 2.34878C12.0333 2.34653 10.1411 2.34383 8.52634 2.34206L7.67683 2.3412C7.54108 2.34108 7.40855 2.34096 7.27972 2.34086L5.14816 2.34093C5.06795 2.34129 5.01606 2.34183 4.99604 2.34265C4.09148 2.38065 3.25679 2.76429 2.65497 3.42127C2.09361 4.03534 1.80434 4.81979 1.84234 5.63366L1.84335 10.3685C1.84341 10.473 1.84346 10.5768 1.84352 10.6798L1.84465 12.1433C1.84474 12.2344 1.84483 12.3239 1.84493 12.4118L1.84556 12.9181C1.84567 12.9988 1.84579 13.0776 1.84591 13.1543L1.8471 13.7855C1.84841 14.3538 1.85006 14.7224 1.85215 14.7933C1.99188 16.4909 3.58282 17.7889 5.40419 17.6492C5.5968 17.6495 5.79471 17.6498 5.99672 17.6501L6.6139 17.6511C7.1365 17.6519 7.67734 17.6528 8.2178 17.6538L8.86498 17.6548C9.18729 17.6554 9.50679 17.6559 9.81946 17.6564L10.4345 17.6573C10.5351 17.6574 10.6346 17.6576 10.7329 17.6577L11.3072 17.6585C11.4001 17.6586 11.4915 17.6587 11.5813 17.6588L13.7452 17.6588C13.8867 17.6583 13.9756 17.6575 14.0024 17.6565C14.9033 17.6198 15.7392 17.2374 16.341 16.5816C16.9036 15.97 17.1929 15.1855 17.1573 14.3753L17.1562 14.3551L17.156 8.4274C17.156 8.33113 17.1559 8.2361 17.1558 8.14245L17.1549 7.09344C17.1548 7.01298 17.1547 6.93444 17.1546 6.85796L17.1536 6.2287C17.1532 6.03987 17.1528 5.87318 17.1523 5.73227L17.1512 5.48593C17.1505 5.34607 17.1497 5.25637 17.1487 5.2255C17.0102 3.51932 15.4119 2.20537 13.5808 2.34878ZM22.6977 4.93096L18.9942 7.95267C18.9943 8.10327 18.9944 8.25981 18.9946 8.4223L18.9953 11.4959L22.683 14.8824C22.9538 15.103 23.2259 15.0123 23.3314 14.9609C23.4368 14.9118 23.6807 14.7586 23.6807 14.4105L23.6954 5.40286C23.6966 5.05476 23.4515 4.90155 23.3461 4.85129C23.2419 4.80226 22.9661 4.71034 22.6977 4.93096Z" fill="white"/>
</g>
</g>
</svg>
