<svg width="50" height="50" viewBox="0 0 50 50" fill="none" xmlns="http://www.w3.org/2000/svg">
<circle cx="25" cy="25" r="25" fill="#ffffff"/>
<path fill-rule="evenodd" clip-rule="evenodd" d="M20.0149 13.0018L20.5568 13.0027C20.6494 13.0029 20.743 13.0031 20.8376 13.0032L21.4134 13.0045C22.677 13.0074 24.0229 13.0114 25.0486 13.0142L25.4979 13.0155C25.5685 13.0157 25.6368 13.0158 25.7027 13.016C28.2948 12.7714 30.6347 15.357 30.8432 18.8266C30.8451 18.8622 30.8468 19.0642 30.8482 19.4315L33.2397 16.7995C33.9355 16.0331 34.8721 15.8829 35.6843 16.3985C36.4965 16.9172 37.0011 17.9885 37 19.1962L36.9862 30.5743C36.985 31.7819 36.4793 32.8533 35.6682 33.3673C35.3503 33.5702 35.0138 33.6677 34.6798 33.6677C34.1602 33.6677 33.6475 33.4277 33.2247 32.9617L30.8536 30.3176C30.8536 30.3624 30.8536 30.4074 30.8535 30.4524C30.9019 32.0874 30.4688 33.662 29.6324 34.8851C28.7533 36.1717 27.5414 36.9195 26.2211 36.9923C26.1987 36.9944 26.0725 36.9959 25.8655 36.9968L25.4103 36.9978C25.2328 36.998 25.0311 36.998 24.8101 36.9979L23.8356 36.9966C23.7478 36.9965 23.6586 36.9963 23.5681 36.9961L23.0124 36.995C21.6882 36.992 20.1967 36.9873 19.0403 36.9839L18.5667 36.9826C18.4166 36.9822 18.2749 36.9818 18.1429 36.9814C18.0208 36.9938 17.8987 37 17.7765 37C15.3411 37.0015 13.2167 34.4934 13.0163 31.2033L13.0161 31.2L13.015 31.1693C13.0149 31.166 13.0148 31.1623 13.0147 31.1582L13.014 31.1094C13.0139 31.1025 13.0138 31.0951 13.0137 31.087L13.0128 30.9968C13.0127 30.9847 13.0126 30.9718 13.0125 30.9581L13.0116 30.8118C13.0115 30.7928 13.0114 30.7729 13.0113 30.7519L13.0106 30.6136C13.0105 30.5884 13.0104 30.5621 13.0103 30.5346L13.0094 30.2544C13.0093 30.2194 13.0092 30.1832 13.0091 30.1455L13.0082 29.7685C13.0081 29.7222 13.008 29.6743 13.0079 29.6249L13.0071 29.1362C13.007 29.0769 13.0069 29.0158 13.0068 28.953L13.0058 28.1101C13.0058 28.0322 13.0057 27.9523 13.0056 27.8704L13.0047 26.4821C13.0047 26.3785 13.0046 26.2726 13.0046 26.1644L13.0046 20.0984C13.0046 19.9144 13.0047 19.7274 13.0047 19.5373C12.9494 17.941 13.3803 16.3556 14.2213 15.1216C15.0992 13.8335 16.31 13.0826 17.6314 13.0067C17.6492 13.005 17.7334 13.0037 17.8723 13.0028L18.1201 13.0016C18.1678 13.0015 18.2185 13.0013 18.2721 13.0012L19.756 13.0014C19.8408 13.0015 19.9272 13.0016 20.0149 13.0018ZM25.7649 15.3353C24.3104 15.3325 22.5319 15.329 21.0141 15.3268L20.2157 15.3257C20.0881 15.3256 19.9635 15.3254 19.8424 15.3253L17.8389 15.3254C17.7635 15.3258 17.7147 15.3265 17.6959 15.3276C16.8457 15.3756 16.0611 15.8602 15.4955 16.69C14.9678 17.4657 14.696 18.4566 14.7317 19.4846L14.7326 25.4655C14.7327 25.5975 14.7327 25.7286 14.7328 25.8587L14.7338 27.7073C14.7339 27.8224 14.734 27.9355 14.7341 28.0465L14.7347 28.686C14.7348 28.788 14.7349 28.8875 14.735 28.9844L14.7361 29.7817C14.7374 30.4995 14.7389 30.9651 14.7409 31.0547C14.8722 33.199 16.3676 34.8386 18.0795 34.6621C18.2606 34.6625 18.4466 34.6629 18.6365 34.6633L19.2166 34.6645C19.7078 34.6656 20.2161 34.6668 20.7241 34.6679L21.3324 34.6693C21.6354 34.6699 21.9357 34.6706 22.2296 34.6712L22.8076 34.6724C22.9022 34.6726 22.9957 34.6727 23.0882 34.6729L23.628 34.6739C23.7153 34.674 23.8012 34.6741 23.8856 34.6743L25.9194 34.6742C26.0525 34.6736 26.1361 34.6727 26.1612 34.6714C27.008 34.625 27.7937 34.1419 28.3593 33.3136C28.8881 32.541 29.16 31.5501 29.1266 30.5268L29.1256 30.5012L29.1254 23.0136C29.1253 22.892 29.1253 22.7719 29.1252 22.6536L29.1244 21.3286C29.1243 21.2269 29.1242 21.1277 29.1241 21.0311L29.1231 20.2362C29.1227 19.9977 29.1223 19.7872 29.1219 19.6092L29.1209 19.298C29.1202 19.1213 29.1194 19.008 29.1185 18.969C28.9884 16.8139 27.4861 15.1542 25.7649 15.3353ZM34.3341 18.597L30.8531 22.4139C30.8532 22.6041 30.8534 22.8019 30.8535 23.0071L30.8542 26.8896L34.3203 31.1673C34.5749 31.446 34.8307 31.3314 34.9297 31.2664C35.0288 31.2044 35.2581 31.0109 35.2581 30.5712L35.2719 19.1931C35.2731 18.7534 35.0427 18.5598 34.9436 18.4964C34.8456 18.4344 34.5864 18.3183 34.3341 18.597Z" fill="black"/>
</svg>
