<svg width="24" height="24" viewBox="0 0 24 24" fill="none" xmlns="http://www.w3.org/2000/svg">
<g id="web-svgrepo-com 1">
<g id="style=bulk">
<g id="web">
<g id="vector">
<path id="Vector" d="M22.7447 6.6512C21.5654 7.0086 19.5187 7.58938 17.3255 8.04154C16.8203 4.97095 15.9347 1.90838 15.5088 0.521484C18.6768 1.48867 21.2883 3.73142 22.7447 6.6512Z" fill="black"/>
<path id="Vector_2" d="M15.5561 8.36833C14.3146 8.56893 13.0872 8.7 12 8.7C10.9128 8.7 9.68538 8.56893 8.44385 8.36834C8.9196 5.46291 9.76888 2.49493 10.203 1.07809C10.3142 0.715497 10.3584 0.573074 10.4349 0.38192C10.4731 0.286423 10.512 0.198834 10.5665 0.0847314C11.0365 0.0287771 11.5148 0 12 0C12.5066 0 13.006 0.0314057 13.4962 0.0923771C13.5067 0.13216 13.5163 0.16776 13.5258 0.20144C13.5538 0.300949 13.5978 0.4408 13.6716 0.675474L13.6794 0.700126C14.0497 1.87683 15.0306 5.15887 15.5561 8.36833Z" fill="black"/>
<path id="Vector_3" d="M6.67446 8.04152C7.17738 4.98446 8.05711 1.93839 8.48231 0.551016L8.49136 0.521484C5.32328 1.48866 2.71178 3.7314 1.25537 6.65119C2.43462 7.00859 4.48121 7.58936 6.67446 8.04152Z" fill="black"/>
<path id="Vector_4" d="M12.0002 17.6996C13.0023 17.6996 14.1018 17.5992 15.2176 17.4395C14.7448 19.7053 14.1408 21.7996 13.797 22.9214C13.6859 23.284 13.6416 23.4264 13.5652 23.6176C13.527 23.7132 13.488 23.8007 13.4335 23.9149C12.9636 23.9708 12.4852 23.9996 12.0002 23.9996C11.515 23.9996 11.0367 23.9708 10.5667 23.9149C10.5122 23.8007 10.4733 23.7132 10.4351 23.6176C10.3587 23.4265 10.3144 23.284 10.2032 22.9215C9.85947 21.7997 9.25549 19.7055 8.78271 17.4399C9.8949 17.5991 10.9944 17.6996 12.0002 17.6996Z" fill="black"/>
<path id="Vector_5" d="M4.0439 16.4867C2.55822 16.117 1.29287 15.7457 0.520996 15.5088C1.68285 19.3145 4.68541 22.317 8.49113 23.4788L8.48209 23.4494C8.11081 22.2379 7.393 19.7619 6.88207 17.1182C5.88847 16.926 4.92244 16.7052 4.0439 16.4867Z" fill="black"/>
<path id="Vector_6" d="M23.4495 15.5178C22.2379 15.8891 19.7618 16.607 17.1179 17.1178C16.6071 19.7617 15.8891 22.2378 15.5179 23.4494L15.5088 23.4788C19.3145 22.317 22.3171 19.3145 23.479 15.5088L23.4495 15.5178Z" fill="black"/>
</g>
<g id="vector_2">
<path id="Vector_7" d="M0.573532 8.32422C0.20112 9.48271 0 10.7181 0 12.0002C0 12.5019 0.0307771 12.9963 0.0905485 13.4817L0.279669 13.5448L0.281177 13.5454L0.283029 13.5459L0.284332 13.5464C0.3452 13.5665 2.1292 14.1557 4.47861 14.7402C5.14155 14.9051 5.84351 15.0682 6.56007 15.2176C6.40029 14.1018 6.3 13.0024 6.3 12.0002C6.3 11.3133 6.34713 10.5806 6.42825 9.82812C4.03918 9.3424 1.84249 8.71126 0.66968 8.35442L0.66152 8.35194L0.573532 8.32422Z" fill="#BFBFBF"/>
<path id="Vector_8" d="M0.125977 13.5127C0.167519 13.5181 0.201382 13.5238 0.212617 13.5263C0.222457 13.5288 0.237874 13.5328 0.243462 13.5344L0.255817 13.538L0.262468 13.5399L0.269462 13.5421L0.275325 13.5439C0.272034 13.5429 0.205359 13.5262 0.125977 13.5127Z" fill="#BFBFBF"/>
<path id="Vector_9" d="M17.5717 9.82812C17.653 10.5807 17.7001 11.3135 17.7001 12.0002C17.7001 13.0025 17.5998 14.1019 17.4399 15.2177C19.7058 14.7449 21.8002 14.1409 22.922 13.7971C23.2845 13.6859 23.427 13.6417 23.6181 13.5653C23.7137 13.5271 23.8012 13.4882 23.9154 13.4337C23.9713 12.9637 24.0001 12.4854 24.0001 12.0002C24.0001 10.7181 23.7989 9.48271 23.4266 8.32422L23.3295 8.35474C22.1565 8.71164 19.9603 9.34255 17.5717 9.82812Z" fill="#BFBFBF"/>
<path id="Vector_10" d="M15.7969 10.1523C15.8625 10.7954 15.9001 11.4178 15.9001 12.0003C15.9001 13.0907 15.7683 14.3221 15.5667 15.567C14.3218 15.7685 13.0905 15.9003 12.0001 15.9003C10.9146 15.9003 9.68368 15.7689 8.43337 15.5665C8.23188 14.3217 8.1001 13.0906 8.1001 12.0003C8.1001 11.4181 8.13769 10.7955 8.2034 10.1523C9.51562 10.3624 10.8247 10.5003 12.0001 10.5003C13.1756 10.5003 14.4847 10.3624 15.7969 10.1523Z" fill="#BFBFBF"/>
</g>
</g>
</g>
</g>
</svg>
