<svg width="16" height="16" viewBox="0 0 16 16" fill="none" xmlns="http://www.w3.org/2000/svg">
<path d="M14.3541 4.62011C13.6126 4.84481 12.3259 5.20996 10.9469 5.49424C10.6293 3.5637 10.0725 1.6382 9.80475 0.766235C11.7965 1.37433 13.4385 2.78438 14.3541 4.62011Z" fill="black"/>
<path d="M9.83448 5.6996C9.05393 5.82571 8.28223 5.90812 7.59868 5.90812C6.91514 5.90812 6.14346 5.82571 5.36288 5.6996C5.662 3.8729 6.19596 2.00687 6.46893 1.11608C6.53884 0.88811 6.56658 0.798566 6.61472 0.678383C6.63872 0.618343 6.66315 0.563274 6.69742 0.491535C6.99296 0.456356 7.29366 0.438263 7.59868 0.438263C7.91721 0.438263 8.23121 0.458008 8.53939 0.496342C8.546 0.521354 8.55204 0.543737 8.558 0.564912C8.5756 0.627475 8.60327 0.715402 8.64969 0.862947L8.65457 0.878446C8.88738 1.61827 9.5041 3.68174 9.83448 5.6996Z" fill="black"/>
<path d="M4.25059 5.49423C4.56679 3.57219 5.11989 1.65707 5.38722 0.784802L5.39291 0.766235C3.40108 1.37432 1.75918 2.78437 0.843506 4.6201C1.58492 4.84481 2.87165 5.20995 4.25059 5.49423Z" fill="black"/>
<path d="M7.59873 11.5661C8.22882 11.5661 8.92005 11.503 9.62163 11.4026C9.32437 12.8271 8.94462 14.1438 8.72842 14.8492C8.65857 15.0772 8.63077 15.1667 8.5827 15.2869C8.5587 15.347 8.5342 15.402 8.49992 15.4738C8.20446 15.5089 7.90368 15.527 7.59873 15.527C7.29371 15.527 6.99301 15.5089 6.69747 15.4738C6.6632 15.402 6.63877 15.347 6.61477 15.2869C6.5667 15.1668 6.53889 15.0772 6.46898 14.8492C6.25284 14.1439 5.87311 12.8273 5.57587 11.4028C6.27512 11.5029 6.96642 11.5661 7.59873 11.5661Z" fill="black"/>
<path d="M2.59645 10.8035C1.66237 10.5711 0.866823 10.3376 0.381531 10.1887C1.11201 12.5814 2.99978 14.4692 5.39251 15.1996L5.38683 15.1811C5.1534 14.4194 4.70209 12.8627 4.38086 11.2005C3.75617 11.0797 3.1488 10.9409 2.59645 10.8035Z" fill="black"/>
<path d="M14.7972 10.1944C14.0355 10.4278 12.4787 10.8791 10.8164 11.2003C10.4953 12.8626 10.0439 14.4194 9.8105 15.1811L9.80475 15.1996C12.1975 14.4692 14.0853 12.5814 14.8157 10.1887L14.7972 10.1944Z" fill="black"/>
<path d="M0.414668 5.67194C0.180525 6.4003 0.0540771 7.17699 0.0540771 7.98312C0.0540771 8.29855 0.0734273 8.60939 0.111007 8.91455L0.22991 8.95422L0.230859 8.95458L0.232023 8.95494L0.232842 8.95522C0.271111 8.96787 1.39275 9.33827 2.86986 9.70581C3.28667 9.80949 3.728 9.91203 4.17852 10.0059C4.07806 9.30443 4.01501 8.6132 4.01501 7.98312C4.01501 7.5512 4.04464 7.09055 4.09564 6.61746C2.59359 6.31209 1.21249 5.91527 0.475118 5.69093L0.469988 5.68937L0.414668 5.67194Z" fill="#BFBFBF"/>
<path d="M0.133392 8.93356C0.159567 8.93695 0.180902 8.94055 0.18798 8.94213C0.19418 8.94372 0.203894 8.94624 0.207415 8.94724L0.215199 8.94948L0.21939 8.9507L0.223796 8.95207L0.22749 8.95322C0.225417 8.95257 0.183408 8.94206 0.133392 8.93356Z" fill="#BFBFBF"/>
<path d="M11.1017 6.61743C11.1528 7.09059 11.1824 7.55132 11.1824 7.98308C11.1824 8.61324 11.1194 9.30447 11.0189 10.006C12.4434 9.70872 13.7602 9.32897 14.4655 9.11284C14.6935 9.04293 14.7831 9.01512 14.9032 8.96705C14.9633 8.94305 15.0183 8.91862 15.0901 8.88434C15.1252 8.58881 15.1433 8.2881 15.1433 7.98308C15.1433 7.17696 15.0169 6.40027 14.7828 5.67191L14.7218 5.6911C13.9843 5.91548 12.6034 6.31215 11.1017 6.61743Z" fill="#BFBFBF"/>
<path d="M9.9858 6.82117C10.027 7.22549 10.0507 7.6168 10.0507 7.98304C10.0507 8.6686 9.96783 9.44275 9.84108 10.2254C9.05838 10.3521 8.28423 10.435 7.59867 10.435C6.91621 10.435 6.14229 10.3524 5.3562 10.2252C5.22952 9.44253 5.14667 8.66852 5.14667 7.98304C5.14667 7.61695 5.1703 7.22556 5.21162 6.82117C6.03663 6.95323 6.85966 7.03996 7.59867 7.03996C8.33776 7.03996 9.16077 6.95323 9.9858 6.82117Z" fill="#BFBFBF"/>
</svg>
