<svg width="15" height="15" viewBox="0 0 15 15" fill="none" xmlns="http://www.w3.org/2000/svg">
<path id="Combined-Shape" fill-rule="evenodd" clip-rule="evenodd" d="M6.86467 0.0263247C7.16408 0.0263247 7.40707 0.269322 7.40707 0.568729C7.40707 0.868136 7.16408 1.11113 6.86467 1.11113H4.1606C2.29184 1.11113 1.08481 2.39121 1.08481 4.37207V10.3848C1.08481 12.3657 2.29184 13.6457 4.1606 13.6457H10.5422C12.4109 13.6457 13.6187 12.3657 13.6187 10.3848V7.47173C13.6187 7.17232 13.8617 6.92932 14.1611 6.92932C14.4605 6.92932 14.7035 7.17232 14.7035 7.47173V10.3848C14.7035 12.984 13.0307 14.7305 10.5422 14.7305H4.1606C1.67205 14.7305 0 12.984 0 10.3848V4.37207C0 1.77287 1.67205 0.0263247 4.1606 0.0263247H6.86467ZM13.1635 0.661733L14.0436 1.54187C14.4725 1.97001 14.7083 2.53918 14.7076 3.14522C14.7076 3.75127 14.4718 4.31971 14.0436 4.74712L8.61309 10.1777C8.21461 10.5762 7.68377 10.796 7.11967 10.796H4.41054C4.26446 10.796 4.12415 10.7367 4.02218 10.6318C3.92021 10.5277 3.86452 10.3867 3.86814 10.2399L3.93612 7.50688C3.94986 6.96303 4.16899 6.45172 4.55374 6.06625L9.95898 0.661733C10.8427 -0.220578 12.2797 -0.220578 13.1635 0.661733ZM9.51377 2.64042L5.32106 6.83357C5.13375 7.02088 5.02744 7.26967 5.02093 7.53364L4.96669 9.71121H7.11967C7.39449 9.71121 7.65195 9.6049 7.84649 9.41035L12.0645 5.19117L9.51377 2.64042ZM10.7256 1.42905L10.2804 1.8731L12.8311 4.42457L13.277 3.9798C13.4998 3.75705 13.6227 3.46054 13.6227 3.14522C13.6227 2.82918 13.4998 2.53194 13.277 2.3092L12.3969 1.42905C11.9362 0.969819 11.187 0.969819 10.7256 1.42905Z" fill="white"/>
</svg>
