<svg width="22" height="23" viewBox="0 0 22 23" fill="none" xmlns="http://www.w3.org/2000/svg">
<g id="game-icons:angel-outfit" clip-path="url(#clip0_1664_1185)">
<path id="Vector" d="M11.2756 1.88672C9.00178 1.88672 7.14893 2.79169 7.14893 3.90113C7.14893 5.01066 9.00178 5.91421 11.2756 5.91421C13.5493 5.91421 15.4021 5.01066 15.4021 3.90113C15.4021 2.7916 13.5493 1.88672 11.2756 1.88672ZM11.2756 2.43919C12.9463 2.43919 14.2698 3.08581 14.2698 3.90113C14.2698 4.71645 12.9463 5.38009 11.2756 5.38009C9.6047 5.38009 8.2447 4.71645 8.2447 3.90113C8.2447 3.08589 9.6047 2.43911 11.2756 2.43919ZM4.01257 3.05808C3.46043 3.05416 2.66854 3.66643 2.24841 4.62952C0.442978 8.76759 1.84884 19.6273 5.9124 19.3052C4.99501 17.1999 4.08612 14.8028 3.54741 12.269C4.64555 15.2918 6.56327 17.9222 8.46106 17.2803C7.12608 15.6048 5.70713 13.6417 4.7071 11.4286C6.16712 13.896 8.26668 15.8423 9.83695 14.9936C8.59683 13.8852 7.26981 12.5951 6.13385 11.1055C7.78696 12.6641 9.76523 13.6631 10.8142 12.6795C8.82574 11.801 6.87937 10.4417 5.59964 8.93729C4.91949 8.13773 4.42402 7.29489 4.23535 6.43554C4.14111 6.00582 4.13077 5.56843 4.21583 5.14555C4.21667 5.14159 4.21763 5.13779 4.21846 5.13387C4.21875 5.13204 4.21938 5.13041 4.21971 5.12862C4.38858 4.24196 4.84694 3.65204 4.40734 3.21186C4.30377 3.10816 4.16718 3.05925 4.01248 3.05812L4.01257 3.05808ZM18.5085 3.05808C18.3538 3.05921 18.2185 3.10812 18.115 3.21186C17.7741 3.55318 17.9725 3.9859 18.1579 4.57615C18.4145 5.16769 18.4558 5.80893 18.3182 6.43549C18.1296 7.29485 17.6327 8.13769 16.9527 8.93725C15.6685 10.4469 13.7142 11.8104 11.7186 12.6885C12.7702 13.6562 14.7408 12.6589 16.3885 11.1054C15.2525 12.5951 13.9256 13.8852 12.6854 14.9935C14.2557 15.8422 16.3553 13.8959 17.8153 11.4286C16.8153 13.6417 15.3963 15.6047 14.0614 17.2803C15.9592 17.9222 17.8756 15.2918 18.9737 12.269C18.4351 14.8028 17.5275 17.2 16.6101 19.3052C20.6736 19.6274 22.0782 8.76763 20.2728 4.62952C19.8526 3.66647 19.0607 3.05425 18.5085 3.05817L18.5085 3.05808ZM17.582 6.14233C13.3959 8.98716 9.21226 9.58066 5.02111 6.37032C5.18872 7.02307 5.60026 7.73516 6.19385 8.43302C7.39978 9.85068 9.34106 11.2007 11.2768 12.0318C13.2126 11.2007 15.1539 9.85068 16.3598 8.43302C16.9844 7.69863 17.408 6.9489 17.5573 6.26871C17.5666 6.22618 17.5747 6.18419 17.582 6.14229L17.582 6.14233Z" fill="white"/>
</g>
<defs>
<clipPath id="clip0_1664_1185">
<rect width="21.3483" height="21.3483" fill="white" transform="translate(0.404541 0.673828)"/>
</clipPath>
</defs>
</svg>
