<svg width="30" height="30" viewBox="0 0 30 30" fill="none" xmlns="http://www.w3.org/2000/svg">
<path id="Vector" d="M13.3929 15C13.3929 15.4262 13.5622 15.835 13.8636 16.1364C14.165 16.4378 14.5738 16.6071 15 16.6071C15.4262 16.6071 15.835 16.4378 16.1364 16.1364C16.4378 15.835 16.6071 15.4262 16.6071 15C16.6071 14.5738 16.4378 14.165 16.1364 13.8636C15.835 13.5622 15.4262 13.3929 15 13.3929C14.5738 13.3929 14.165 13.5622 13.8636 13.8636C13.5622 14.165 13.3929 14.5738 13.3929 15ZM20.0892 15C20.0892 15.4262 20.2585 15.835 20.5599 16.1364C20.8613 16.4378 21.2701 16.6071 21.6963 16.6071C22.1226 16.6071 22.5314 16.4378 22.8328 16.1364C23.1341 15.835 23.3035 15.4262 23.3035 15C23.3035 14.5738 23.1341 14.165 22.8328 13.8636C22.5314 13.5622 22.1226 13.3929 21.6963 13.3929C21.2701 13.3929 20.8613 13.5622 20.5599 13.8636C20.2585 14.165 20.0892 14.5738 20.0892 15ZM6.69654 15C6.69654 15.4262 6.86586 15.835 7.16725 16.1364C7.46864 16.4378 7.87742 16.6071 8.30366 16.6071C8.72989 16.6071 9.13867 16.4378 9.44007 16.1364C9.74146 15.835 9.91078 15.4262 9.91078 15C9.91078 14.5738 9.74146 14.165 9.44007 13.8636C9.13867 13.5622 8.72989 13.3929 8.30366 13.3929C7.87742 13.3929 7.46864 13.5622 7.16725 13.8636C6.86586 14.165 6.69654 14.5738 6.69654 15ZM28.8347 9.1875C28.078 7.38951 26.9932 5.77567 25.6104 4.38951C24.2372 3.01137 22.6072 1.91592 20.8124 1.16518C18.9709 0.391741 17.0156 0 15 0H14.933C12.904 0.0100446 10.9387 0.41183 9.09048 1.20201C7.31112 1.96045 5.69631 3.05785 4.33607 4.43304C2.96667 5.81585 1.89191 7.42299 1.14861 9.21429C0.378534 11.0692 -0.00985457 13.0413 0.000189951 15.0703C0.0115511 17.3955 0.561651 19.6865 1.60731 21.7634V26.8527C1.60731 27.2612 1.76958 27.6529 2.05841 27.9417C2.34725 28.2306 2.739 28.3929 3.14747 28.3929H8.24004C10.3169 29.4385 12.6078 29.9886 14.933 30H15.0034C17.0089 30 18.9542 29.6116 20.7856 28.8516C22.5713 28.1098 24.1953 27.0271 25.5668 25.6641C26.9496 24.2946 28.0378 22.6942 28.7978 20.9096C29.588 19.0614 29.9898 17.096 29.9998 15.067C30.0099 13.0279 29.6148 11.0491 28.8347 9.1875ZM23.7756 23.8527C21.4285 26.1763 18.3147 27.4554 15 27.4554H14.9431C12.9241 27.4453 10.9186 26.9431 9.1474 25.9989L8.86615 25.8482H4.15192V21.1339L4.00126 20.8527C3.05707 19.0815 2.55485 17.0759 2.5448 15.0569C2.53141 11.7188 3.80706 8.58482 6.14743 6.22433C8.48446 3.86384 11.6083 2.55804 14.9464 2.54464H15.0034C16.6774 2.54464 18.3013 2.86942 19.8314 3.51228C21.3247 4.13839 22.664 5.03906 23.8157 6.19085C24.9642 7.33929 25.8682 8.68192 26.4943 10.1752C27.1438 11.7221 27.4686 13.3627 27.4619 15.0569C27.4418 18.3917 26.1327 21.5156 23.7756 23.8527Z" fill="#272727"/>
</svg>
