<svg width="16" height="29" viewBox="0 0 16 29" fill="none" xmlns="http://www.w3.org/2000/svg">
<path id="Vector" d="M9.89539 28.7285L8.10783 26.9091L10.438 24.5789H2.55365C1.8514 24.5789 1.25001 24.3286 0.749497 23.8281C0.248983 23.3276 -0.000849048 22.7266 2.16778e-06 22.0252V9.03353L2.55365 11.5872V22.0252H10.438L8.10783 19.695L9.89539 17.8755L15.3219 23.302L9.89539 28.7285ZM15.3219 19.695L12.7682 17.1414V6.70332H4.88385L7.21406 9.03353L5.4265 10.853L2.16778e-06 5.4265L5.4265 0L7.21406 1.81947L4.88385 4.14968H12.7682C13.4705 4.14968 14.0719 4.39993 14.5724 4.90045C15.0729 5.40096 15.3227 6.00192 15.3219 6.70332V19.695Z" fill="#999999"/>
</svg>
