<svg width="16" height="30" viewBox="0 0 16 30" fill="none" xmlns="http://www.w3.org/2000/svg">
<path d="M10.3954 29.205L8.60783 27.3855L10.938 25.0553H3.05365C2.3514 25.0553 1.75001 24.805 1.2495 24.3045C0.748983 23.804 0.499151 23.203 0.500002 22.5016V9.50995L3.05365 12.0636V22.5016H10.938L8.60783 20.1714L10.3954 18.352L15.8219 23.7785L10.3954 29.205ZM15.8219 20.1714L13.2682 17.6178V7.17975H5.38385L7.71406 9.50995L5.9265 11.3294L0.500002 5.90293L5.9265 0.476425L7.71406 2.2959L5.38385 4.6261H13.2682C13.9705 4.6261 14.5719 4.87636 15.0724 5.37687C15.5729 5.87739 15.8227 6.47835 15.8219 7.17975V20.1714Z" fill="#FD5901"/>
</svg>
