<svg width="30" height="30" viewBox="0 0 30 30" fill="none" xmlns="http://www.w3.org/2000/svg">
<path d="M28.0046 11.332V15.1126C28.0025 17.2113 27.2661 19.2234 25.9568 20.7074C24.6476 22.1914 22.8725 23.0262 21.021 23.0286H3.97507L6.76142 19.8701L5.3506 18.271L2.56419 21.4293L2.2889 21.7413L0.195923 24.1138L4.81149 29.9996L6.30287 28.497L3.7882 25.2903H21.021C25.9719 25.2903 29.9999 20.7244 29.9999 15.1126V9.07031L28.0046 11.332Z" fill="black" fill-opacity="0.6"/>
<path d="M1.99533 14.8721C1.99742 12.7755 2.73387 10.7654 4.04311 9.28286C5.35234 7.80033 7.12744 6.9664 8.97898 6.96402H26.0249L23.2385 10.1193L24.6493 11.7168L27.4358 8.56166L27.6925 8.27104L29.804 5.87992L25.1885 0L23.6971 1.50112L26.2117 4.70458H8.97898C4.02807 4.70458 0 9.26583 0 14.8721V20.9293L1.99533 18.6698V14.8721Z" fill="black" fill-opacity="0.6"/>
</svg>
