<svg width="30" height="30" viewBox="0 0 30 30" fill="none" xmlns="http://www.w3.org/2000/svg">
<path fill-rule="evenodd" clip-rule="evenodd" d="M15.0007 18.6074L15.1563 18.6074L15.5043 18.609C18.1645 18.6317 24.2437 18.9801 24.2437 24.3232C24.2437 29.6312 18.3764 29.9774 15.5458 30L14.497 30C11.8367 29.9773 5.75633 29.6293 5.75633 24.2929C5.75633 18.9782 11.8367 18.6316 14.497 18.609L14.8451 18.6074C14.8991 18.6074 14.951 18.6074 15.0007 18.6074ZM15.0007 21.2875C11.7268 21.2875 7.82319 21.8093 7.82319 24.2929C7.82319 26.7203 11.4938 27.2878 14.7015 27.3199L15.0007 27.3214C18.2746 27.3214 22.1768 26.8015 22.1768 24.3232C22.1768 21.8146 18.2746 21.2875 15.0007 21.2875ZM25.96 17.8823C29.2986 18.5309 30 20.5642 30 22.1562C30 23.1282 29.7051 24.9025 27.7347 25.8763C27.6135 25.9353 27.4895 25.9638 27.3668 25.9638C26.9507 25.9638 26.558 25.6351 26.4009 25.1008C26.197 24.4094 26.4657 23.6339 26.9989 23.3712C27.9331 22.9103 27.9331 22.401 27.9331 22.1562C27.9331 21.3736 27.1657 20.8269 25.6527 20.5339C25.0891 20.4231 24.6992 19.7423 24.7833 19.008C24.8673 18.2754 25.3909 17.7876 25.96 17.8823ZM5.21674 19.008C5.3008 19.7423 4.91085 20.4231 4.34729 20.5339C2.83435 20.8269 2.06686 21.3736 2.06686 22.1562C2.06686 22.401 2.06686 22.9085 3.00245 23.3712C3.5357 23.6339 3.80439 24.4094 3.60046 25.1008C3.44338 25.6351 3.05068 25.9638 2.63455 25.9638C2.51192 25.9638 2.38791 25.9353 2.26665 25.8763C0.294871 24.9007 0 23.1265 0 22.1562C0 20.566 0.701353 18.5309 4.04139 17.8823C4.61047 17.7894 5.13131 18.2754 5.21674 19.008ZM15.0007 0C18.473 0 21.2963 3.66287 21.2963 8.16373C21.2963 12.6646 18.473 16.3275 15.0007 16.3275H14.9635C13.2824 16.3203 11.7075 15.4662 10.528 13.9225C9.34577 12.3805 8.69953 10.3329 8.70637 8.15837C8.70637 3.66287 11.5297 0 15.0007 0ZM15.0007 2.68015C12.6693 2.68015 10.7732 5.14052 10.7732 8.16373C10.7691 9.62888 11.2018 10.9993 11.9941 12.0339C12.7864 13.0684 13.8419 13.642 14.9662 13.6473L15.0007 14.9874V13.6473C17.3321 13.6473 19.2295 11.1887 19.2295 8.16373C19.2295 5.14052 17.3321 2.68015 15.0007 2.68015ZM23.5285 1.75014C25.9509 2.26651 27.7105 4.95381 27.7105 8.13961C27.705 11.3469 25.8572 14.0985 23.4114 14.5434C23.3632 14.5523 23.315 14.5559 23.2681 14.5559C22.761 14.5559 22.3187 14.0717 22.2457 13.4016C22.1672 12.6673 22.5599 11.9901 23.1262 11.8882C24.5592 11.6274 25.6409 10.0157 25.6436 8.13604C25.6436 6.27244 24.6129 4.69651 23.1923 4.39455C22.6301 4.27484 22.2485 3.58514 22.3408 2.85436C22.4345 2.12357 22.9622 1.634 23.5285 1.75014ZM7.66059 2.85436C7.75291 3.58514 7.37123 4.27484 6.80905 4.39455C5.38843 4.69651 4.35776 6.27244 4.35776 8.13961C4.36051 10.0157 5.44217 11.6292 6.87381 11.8882C7.44013 11.9901 7.83283 12.6673 7.75429 13.4016C7.68126 14.0717 7.23896 14.5559 6.73189 14.5559C6.68504 14.5559 6.63681 14.5523 6.58858 14.5434C4.14281 14.0985 2.29641 11.3469 2.2909 8.14318C2.2909 4.95381 4.05049 2.26651 6.47284 1.75014C7.05294 1.63221 7.5669 2.12714 7.66059 2.85436Z" fill="black" fill-opacity="0.62"/>
</svg>
