<svg width="34" height="34" viewBox="0 0 34 34" fill="none" xmlns="http://www.w3.org/2000/svg">
<path d="M6.61538 18.1538H8.92308C9.53511 18.1538 10.1221 18.397 10.5549 18.8298C10.9876 19.2625 11.2308 19.8495 11.2308 20.4615V29.6923C11.2308 30.3043 10.9876 30.8913 10.5549 31.3241C10.1221 31.7569 9.53511 32 8.92308 32H4.30769C3.69565 32 3.10868 31.7569 2.67591 31.3241C2.24313 30.8913 2 30.3043 2 29.6923V17C2 13.0218 3.58035 9.20644 6.3934 6.3934C9.20644 3.58035 13.0218 2 17 2C20.9782 2 24.7936 3.58035 27.6066 6.3934C30.4196 9.20644 32 13.0218 32 17V29.6923C32 30.3043 31.7569 30.8913 31.3241 31.3241C30.8913 31.7569 30.3043 32 29.6923 32H25.0769C24.4649 32 23.8779 31.7569 23.4451 31.3241C23.0124 30.8913 22.7692 30.3043 22.7692 29.6923V20.4615C22.7692 19.8495 23.0124 19.2625 23.4451 18.8298C23.8779 18.397 24.4649 18.1538 25.0769 18.1538H27.3846" stroke="black" stroke-opacity="0.6" stroke-width="2.57" stroke-linecap="round" stroke-linejoin="round"/>
</svg>
