<svg width="24" height="24" viewBox="0 0 24 24" fill="none" xmlns="http://www.w3.org/2000/svg">
<path id="Vector" d="M20.4499 20.45H16.8939V14.88C16.8939 13.552 16.8699 11.842 15.0439 11.842C13.192 11.842 12.908 13.29 12.908 14.782V20.45H9.35197V8.99602H12.766V10.562H12.814C13.51 9.37402 14.8059 8.66202 16.1819 8.71202C19.7859 8.71202 20.4519 11.082 20.4519 14.168L20.4499 20.448V20.45ZM5.33998 7.43002C4.79373 7.42739 4.27057 7.20937 3.88412 6.82329C3.49767 6.43722 3.27914 5.91427 3.27599 5.36802C3.27599 4.23602 4.20798 3.30403 5.33998 3.30403C6.47198 3.30403 7.40197 4.23602 7.40397 5.36802C7.40397 6.50002 6.47198 7.43002 5.33998 7.43002ZM7.11797 20.45H3.55799V8.99602H7.11797V20.45ZM22.2199 2.97264e-05H1.76999C1.3063 -0.00266353 0.860272 0.177749 0.528844 0.502061C0.197417 0.826374 0.0073693 1.26838 0 1.73203V22.268C0.0073693 22.7316 0.197417 23.1737 0.528844 23.498C0.860272 23.8223 1.3063 24.0027 1.76999 24H22.2219C22.6867 24.0038 23.1342 23.8239 23.4671 23.4996C23.8 23.1753 23.9915 22.7327 23.9999 22.268V1.73003C23.9915 1.26568 23.7999 0.823486 23.4668 0.499806C23.1338 0.176127 22.6863 -0.0027965 22.2219 0.00202958L22.2199 2.97264e-05Z" fill="#0A66C2"/>
</svg>
