<svg xmlns="http://www.w3.org/2000/svg" xmlns:xlink="http://www.w3.org/1999/xlink" version="1.1" width="256" height="256" viewBox="0 0 256 256" xml:space="preserve">

<defs>
</defs>
<g style="stroke: none; stroke-width: 0; stroke-dasharray: none; stroke-linecap: butt; stroke-linejoin: miter; stroke-miterlimit: 10; fill: none; fill-rule: nonzero; opacity: 1;" transform="translate(1.4065934065934016 1.4065934065934016) scale(2.81 2.81)" >
	<linearGradient id="SVGID_3" gradientUnits="userSpaceOnUse" x1="45" y1="84.7883" x2="45" y2="4.2607">
<stop offset="0%" style="stop-color:rgb(33,97,172);stop-opacity: 1"/>
<stop offset="100%" style="stop-color:rgb(43,127,226);stop-opacity: 1"/>
</linearGradient>
<circle cx="45" cy="45" r="45" style="stroke: none; stroke-width: 1; stroke-dasharray: none; stroke-linecap: butt; stroke-linejoin: miter; stroke-miterlimit: 10; fill: url(#SVGID_3); fill-rule: nonzero; opacity: 1;" transform="  matrix(1 0 0 1 0 0) "/>
	<path d="M 65.505 30.939 c -1.649 -3.515 -4.152 -6.248 -7.437 -8.125 C 54.798 20.947 50.866 20 46.378 20 c -4.49 0 -8.58 1.081 -12.158 3.213 c -3.579 2.134 -6.438 5.19 -8.497 9.086 c -2.051 3.879 -3.198 8.327 -3.411 13.222 c -0.177 5.175 0.563 9.647 2.2 13.295 c 1.65 3.678 4.204 6.496 7.591 8.373 C 35.468 69.054 39.634 70 44.484 70 c 1.853 0 3.728 -0.222 5.573 -0.658 c 1.861 -0.44 3.37 -1.033 4.485 -1.764 l 0.289 -0.189 l -1.181 -5.294 l -0.555 0.244 c -0.998 0.44 -2.319 0.833 -3.924 1.166 c -1.608 0.333 -3.149 0.503 -4.581 0.503 c -5.292 0 -9.306 -1.582 -11.93 -4.703 c -2.64 -3.138 -3.84 -7.761 -3.567 -13.741 c 0.189 -3.912 1.035 -7.445 2.516 -10.5 c 1.469 -3.033 3.49 -5.408 6.006 -7.061 c 2.51 -1.648 5.423 -2.483 8.657 -2.483 c 5.083 0 8.988 1.552 11.604 4.614 c 2.627 3.076 3.813 7.525 3.523 13.232 c -0.101 2.872 -0.643 5.256 -1.612 7.084 c -0.924 1.743 -2.006 2.589 -3.309 2.589 c -0.744 0 -1.267 -0.184 -1.602 -0.562 c -0.432 -0.488 -0.576 -1.341 -0.429 -2.553 l 1.368 -15.735 l -1.91 -1.273 c -1.931 -1.239 -4.26 -1.867 -6.923 -1.867 c -3.469 0 -6.436 1.403 -8.821 4.17 c -2.352 2.73 -3.817 6.377 -4.354 10.852 c -0.234 2.372 -0.045 4.528 0.561 6.408 c 0.616 1.912 1.606 3.414 2.942 4.461 c 1.346 1.057 2.936 1.592 4.726 1.592 c 2.797 0 5.102 -1.042 6.862 -3.101 c 0.618 0.92 1.42 1.662 2.391 2.208 c 1.174 0.662 2.54 0.997 4.058 0.997 c 3.652 0 6.616 -1.437 8.811 -4.27 c 2.16 -2.791 3.345 -6.568 3.523 -11.226 C 67.877 38.537 67.146 34.432 65.505 30.939 z M 44.089 52.538 c -1.041 0 -1.747 -0.466 -2.221 -1.465 c -0.511 -1.08 -0.677 -2.732 -0.493 -4.91 c 0.323 -3.195 0.997 -5.553 2.005 -7.01 c 0.971 -1.404 2.321 -2.087 4.128 -2.087 c 0.373 0 0.741 0.034 1.097 0.101 l -1.009 11.504 c -0.428 1.266 -0.964 2.247 -1.594 2.918 C 45.402 52.228 44.776 52.538 44.089 52.538 z" style="stroke: none; stroke-width: 1; stroke-dasharray: none; stroke-linecap: butt; stroke-linejoin: miter; stroke-miterlimit: 10; fill: rgb(255,255,255); fill-rule: nonzero; opacity: 1;" transform=" matrix(1 0 0 1 0 0) " stroke-linecap="round" />
</g>
</svg>