<svg width="16" height="17" viewBox="0 0 16 17" fill="none" xmlns="http://www.w3.org/2000/svg">
<g id="Message">
<g id="Iconly/Light-Outline/Message">
<g id="Message_2">
<path id="Combined-Shape" fill-rule="evenodd" clip-rule="evenodd" d="M4.89367 1.83398C2.67367 1.83398 0.999676 3.64532 0.999676 6.04732V10.626C0.999676 11.8553 1.43434 12.966 2.22434 13.754C2.93301 14.46 3.85234 14.834 4.88301 14.834H11.4517C12.4803 14.834 13.399 14.4607 14.1083 13.754C14.8983 12.966 15.333 11.8553 15.333 10.626V6.04732C15.333 3.64532 13.659 1.83398 11.439 1.83398H4.89367ZM4.89367 2.83398H11.439C13.1157 2.83398 14.333 4.18532 14.333 6.04732V10.626C14.333 11.588 14.0023 12.4473 13.4023 13.0453C12.885 13.562 12.2097 13.834 11.4497 13.834H4.89367C4.89234 13.8327 4.88701 13.834 4.88301 13.834C4.12234 13.834 3.44767 13.562 2.93034 13.0453C2.32967 12.4473 1.99968 11.588 1.99968 10.626V6.04732C1.99968 4.18532 3.21701 2.83398 4.89367 2.83398ZM3.84301 5.91985C3.66901 6.13385 3.70168 6.44852 3.91568 6.62318L6.87834 9.03118C7.25301 9.32852 7.70101 9.47718 8.14834 9.47718C8.59434 9.47718 9.03901 9.32985 9.41101 9.03518L12.401 6.62452C12.6163 6.45118 12.6497 6.13585 12.477 5.92118C12.303 5.70718 11.9883 5.67318 11.7737 5.84585L8.78634 8.25385C8.41101 8.55118 7.88234 8.55118 7.50434 8.25118L4.54701 5.84718C4.33234 5.67185 4.01768 5.70518 3.84301 5.91985Z" fill="black"/>
</g>
</g>
</g>
</svg>
