<svg width="29" height="29" viewBox="0 0 29 29" stroke="var(--d-l-grey)" fill="var(--d-l-grey)" xmlns="http://www.w3.org/2000/svg">
  <path d="M13.172 14.5004C13.172 14.8524 13.3119 15.1901 13.5608 15.439C13.8098 15.688 14.1475 15.8279 14.4995 15.8279C14.8516 15.8279 15.1893 15.688 15.4382 15.439C15.6872 15.1901 15.827 14.8524 15.827 14.5004C15.827 14.1483 15.6872 13.8106 15.4382 13.5617C15.1893 13.3127 14.8516 13.1729 14.4995 13.1729C14.1475 13.1729 13.8098 13.3127 13.5608 13.5617C13.3119 13.8106 13.172 14.1483 13.172 14.5004ZM18.7033 14.5004C18.7033 14.8524 18.8431 15.1901 19.0921 15.439C19.3411 15.688 19.6787 15.8279 20.0308 15.8279C20.3829 15.8279 20.7205 15.688 20.9695 15.439C21.2184 15.1901 21.3583 14.8524 21.3583 14.5004C21.3583 14.1483 21.2184 13.8106 20.9695 13.5617C20.7205 13.3127 20.3829 13.1729 20.0308 13.1729C19.6787 13.1729 19.3411 13.3127 19.0921 13.5617C18.8431 13.8106 18.7033 14.1483 18.7033 14.5004ZM7.64078 14.5004C7.64078 14.8524 7.78064 15.1901 8.0296 15.439C8.27855 15.688 8.61621 15.8279 8.96828 15.8279C9.32036 15.8279 9.65801 15.688 9.90697 15.439C10.1559 15.1901 10.2958 14.8524 10.2958 14.5004C10.2958 14.1483 10.1559 13.8106 9.90697 13.5617C9.65801 13.3127 9.32036 13.1729 8.96828 13.1729C8.61621 13.1729 8.27855 13.3127 8.0296 13.5617C7.78064 13.8106 7.64078 14.1483 7.64078 14.5004ZM25.9271 9.69923C25.3021 8.21409 24.406 6.88106 23.2638 5.73609C22.1296 4.59775 20.7831 3.6929 19.3007 3.07279C17.7796 2.43393 16.1644 2.11035 14.4995 2.11035H14.4442C12.7683 2.11865 11.1448 2.45052 9.6182 3.10321C8.14843 3.72968 6.81459 4.63613 5.69102 5.77204C4.55988 6.91424 3.67211 8.24174 3.05814 9.72135C2.42205 11.2535 2.10124 12.8825 2.10953 14.5584C2.11892 16.4791 2.5733 18.3714 3.43703 20.0869V24.2907C3.43703 24.6281 3.57107 24.9517 3.80965 25.1902C4.04823 25.4288 4.37181 25.5629 4.70922 25.5629H8.91574C10.6312 26.4266 12.5236 26.881 14.4442 26.8904H14.5023C16.1589 26.8904 17.7657 26.5695 19.2785 25.9417C20.7535 25.329 22.095 24.4347 23.2278 23.3089C24.37 22.1777 25.2689 20.8558 25.8967 19.3817C26.5494 17.8551 26.8812 16.2316 26.8895 14.5557C26.8978 12.8714 26.5715 11.2369 25.9271 9.69923ZM21.7482 21.8127C19.8095 23.732 17.2375 24.7885 14.4995 24.7885H14.4525C12.7848 24.7802 11.1282 24.3653 9.66522 23.5854L9.43291 23.461H5.53891V19.567L5.41445 19.3347C4.63455 17.8716 4.2197 16.215 4.21141 14.5474C4.20034 11.79 5.25405 9.20141 7.18722 7.25165C9.11763 5.30188 11.698 4.22329 14.4553 4.21223H14.5023C15.8851 4.21223 17.2264 4.48049 18.4903 5.01149C19.7238 5.52866 20.83 6.27262 21.7814 7.22399C22.73 8.1726 23.4768 9.28162 23.9939 10.5151C24.5305 11.7928 24.7987 13.148 24.7932 14.5474C24.7766 17.3019 23.6952 19.8823 21.7482 21.8127Z" fill="var(--d-l-grey)" />
</svg>
