<svg width="28" height="28" viewBox="0 0 28 28" fill="none" xmlns="http://www.w3.org/2000/svg">
<mask id="path-1-inside-1_41_4" fill="white">
<path d="M17.4753 3.31655C17.9322 2.85963 18.4746 2.49718 19.0716 2.2499C19.6686 2.00262 20.3085 1.87534 20.9546 1.87534C21.6008 1.87534 22.2407 2.00262 22.8377 2.2499C23.4347 2.49718 23.9771 2.85963 24.434 3.31655C24.8909 3.77346 25.2534 4.3159 25.5007 4.9129C25.7479 5.50989 25.8752 6.14974 25.8752 6.79592C25.8752 7.4421 25.7479 8.08195 25.5007 8.67895C25.2534 9.27594 24.8909 9.81838 24.434 10.2753L19.9003 14.809C19.4083 15.3012 18.8174 15.6833 18.1668 15.9303C17.5162 16.1773 16.8207 16.2834 16.126 16.2417C15.4314 16.2 14.7535 16.0114 14.1371 15.6884C13.5207 15.3654 12.9799 14.9153 12.5503 14.3678C12.3964 14.1722 12.1712 14.0457 11.9241 14.0162C11.6771 13.9866 11.4284 14.0565 11.2328 14.2103C11.0372 14.3641 10.9107 14.5893 10.8811 14.8364C10.8516 15.0835 10.9214 15.3322 11.0753 15.5278C11.6687 16.2836 12.4157 16.9049 13.267 17.3508C14.1183 17.7966 15.0544 18.0568 16.0136 18.1142C16.9729 18.1716 17.9334 18.0249 18.8317 17.6838C19.7301 17.3427 20.5459 16.8149 21.2253 16.1353L25.7603 11.6003C26.3913 10.9693 26.8918 10.2202 27.2333 9.39574C27.5748 8.5713 27.7506 7.68767 27.7506 6.7953C27.7506 5.90293 27.5748 5.01929 27.2333 4.19485C26.8918 3.37041 26.3913 2.6213 25.7603 1.9903C25.1293 1.35929 24.3802 0.858757 23.5557 0.517261C22.7313 0.175766 21.8476 -6.64868e-09 20.9553 0C20.0629 6.64868e-09 19.1793 0.175766 18.3548 0.517261C17.5304 0.858757 16.7813 1.35929 16.1503 1.9903L12.4003 5.7403C12.2294 5.91703 12.1348 6.1538 12.1368 6.39961C12.1388 6.64542 12.2373 6.88061 12.4111 7.05451C12.5848 7.22841 12.8199 7.32712 13.0657 7.32937C13.3115 7.33162 13.5484 7.23724 13.7253 7.06655L17.4753 3.31655Z"/>
</mask>
<path d="M17.4753 3.31655C17.9322 2.85963 18.4746 2.49718 19.0716 2.2499C19.6686 2.00262 20.3085 1.87534 20.9546 1.87534C21.6008 1.87534 22.2407 2.00262 22.8377 2.2499C23.4347 2.49718 23.9771 2.85963 24.434 3.31655C24.8909 3.77346 25.2534 4.3159 25.5007 4.9129C25.7479 5.50989 25.8752 6.14974 25.8752 6.79592C25.8752 7.4421 25.7479 8.08195 25.5007 8.67895C25.2534 9.27594 24.8909 9.81838 24.434 10.2753L19.9003 14.809C19.4083 15.3012 18.8174 15.6833 18.1668 15.9303C17.5162 16.1773 16.8207 16.2834 16.126 16.2417C15.4314 16.2 14.7535 16.0114 14.1371 15.6884C13.5207 15.3654 12.9799 14.9153 12.5503 14.3678C12.3964 14.1722 12.1712 14.0457 11.9241 14.0162C11.6771 13.9866 11.4284 14.0565 11.2328 14.2103C11.0372 14.3641 10.9107 14.5893 10.8811 14.8364C10.8516 15.0835 10.9214 15.3322 11.0753 15.5278C11.6687 16.2836 12.4157 16.9049 13.267 17.3508C14.1183 17.7966 15.0544 18.0568 16.0136 18.1142C16.9729 18.1716 17.9334 18.0249 18.8317 17.6838C19.7301 17.3427 20.5459 16.8149 21.2253 16.1353L25.7603 11.6003C26.3913 10.9693 26.8918 10.2202 27.2333 9.39574C27.5748 8.5713 27.7506 7.68767 27.7506 6.7953C27.7506 5.90293 27.5748 5.01929 27.2333 4.19485C26.8918 3.37041 26.3913 2.6213 25.7603 1.9903C25.1293 1.35929 24.3802 0.858757 23.5557 0.517261C22.7313 0.175766 21.8476 -6.64868e-09 20.9553 0C20.0629 6.64868e-09 19.1793 0.175766 18.3548 0.517261C17.5304 0.858757 16.7813 1.35929 16.1503 1.9903L12.4003 5.7403C12.2294 5.91703 12.1348 6.1538 12.1368 6.39961C12.1388 6.64542 12.2373 6.88061 12.4111 7.05451C12.5848 7.22841 12.8199 7.32712 13.0657 7.32937C13.3115 7.33162 13.5484 7.23724 13.7253 7.06655L17.4753 3.31655Z" fill="black" fill-opacity="0.6"/>
<path d="M20.9546 1.87534L20.9546 11.8753L20.9546 1.87534ZM25.8752 6.79592L15.8752 6.79592L25.8752 6.79592ZM24.434 10.2753L31.5051 17.3464L31.5051 17.3464L24.434 10.2753ZM19.9003 14.809L12.8292 7.73798L12.8283 7.73889L19.9003 14.809ZM12.5503 14.3678L20.4173 8.19449L20.4107 8.18605L12.5503 14.3678ZM11.0753 15.5278L18.9404 9.35204L18.9357 9.34605L11.0753 15.5278ZM21.2253 16.1353L14.1542 9.06423L14.1529 9.0655L21.2253 16.1353ZM20.9553 0L20.9553 -10L20.9553 0ZM16.1503 1.9903L9.07919 -5.08077L9.07919 -5.08077L16.1503 1.9903ZM12.4003 5.7403L5.32919 -1.33077L5.26944 -1.27102L5.2107 -1.21026L12.4003 5.7403ZM13.7253 7.06655L20.669 14.2627L20.7332 14.2007L20.7963 14.1376L13.7253 7.06655ZM24.5463 10.3876C24.0747 10.8593 23.5147 11.2334 22.8984 11.4887L15.2448 -6.9889C13.4345 -6.23907 11.7897 -5.14003 10.4042 -3.75452L24.5463 10.3876ZM22.8984 11.4887C22.2822 11.744 21.6217 11.8753 20.9546 11.8753L20.9546 -8.12466C18.9952 -8.12466 17.055 -7.73873 15.2448 -6.9889L22.8984 11.4887ZM20.9546 11.8753C20.2876 11.8753 19.6271 11.744 19.0108 11.4887L26.6645 -6.9889C24.8542 -7.73873 22.914 -8.12466 20.9546 -8.12466L20.9546 11.8753ZM19.0108 11.4887C18.3946 11.2334 17.8346 10.8593 17.3629 10.3876L31.5051 -3.75452C30.1196 -5.14003 28.4747 -6.23907 26.6645 -6.9889L19.0108 11.4887ZM17.3629 10.3876C16.8913 9.91594 16.5171 9.35599 16.2619 8.73973L34.7395 1.08606C33.9896 -0.724179 32.8906 -2.36901 31.5051 -3.75452L17.3629 10.3876ZM16.2619 8.73973C16.0066 8.12348 15.8752 7.46297 15.8752 6.79592L35.8752 6.79592C35.8752 4.83651 35.4893 2.8963 34.7395 1.08606L16.2619 8.73973ZM15.8752 6.79592C15.8752 6.12887 16.0066 5.46836 16.2619 4.85211L34.7395 12.5058C35.4893 10.6955 35.8752 8.75533 35.8752 6.79592L15.8752 6.79592ZM16.2619 4.85211C16.5171 4.23586 16.8913 3.67591 17.3629 3.20423L31.5051 17.3464C32.8906 15.9609 33.9896 14.316 34.7395 12.5058L16.2619 4.85211ZM17.3629 3.20423L12.8292 7.73798L26.9713 21.8801L31.5051 17.3464L17.3629 3.20423ZM12.8283 7.73889C13.3363 7.23076 13.9463 6.83616 14.6181 6.58117L21.7156 25.2794C23.6886 24.5305 25.4802 23.3716 26.9722 21.8792L12.8283 7.73889ZM14.6181 6.58117C15.2898 6.32619 16.008 6.2166 16.7253 6.25966L15.5267 26.2237C17.6333 26.3502 19.7427 26.0283 21.7156 25.2794L14.6181 6.58117ZM16.7253 6.25966C17.4425 6.30272 18.1424 6.49744 18.7789 6.83096L9.4953 24.5458C11.3645 25.5254 13.4202 26.0973 15.5267 26.2237L16.7253 6.25966ZM18.7789 6.83096C19.4153 7.16449 19.9737 7.62923 20.4173 8.19449L4.68322 20.5411C5.98598 22.2013 7.62611 23.5662 9.4953 24.5458L18.7789 6.83096ZM20.4107 8.18605C18.6174 5.90577 15.9917 4.43123 13.1111 4.08688L10.7371 23.9455C8.35077 23.6602 6.17551 22.4386 4.68985 20.5495L20.4107 8.18605ZM13.1111 4.08688C10.2306 3.74253 7.33132 4.55657 5.05102 6.34989L17.4145 22.0707C15.5254 23.5564 13.1235 24.2308 10.7371 23.9455L13.1111 4.08688ZM5.05102 6.34989C2.77073 8.1432 1.2962 10.7689 0.951846 13.6494L20.8105 16.0234C20.5252 18.4098 19.3036 20.585 17.4145 22.0707L5.05102 6.34989ZM0.951846 13.6494C0.6075 16.5299 1.42152 19.4292 3.21485 21.7095L18.9357 9.34605C20.4214 11.2352 21.0957 13.6371 20.8105 16.0234L0.951846 13.6494ZM3.21015 21.7036C4.67698 23.5716 6.52336 25.1074 8.6274 26.2093L17.9066 8.4922C18.3081 8.70249 18.6605 8.99555 18.9404 9.35204L3.21015 21.7036ZM8.6274 26.2093C10.7314 27.3113 13.0453 27.9545 15.4162 28.0964L16.6111 8.13209C17.0635 8.15917 17.5051 8.28191 17.9066 8.4922L8.6274 26.2093ZM15.4162 28.0964C17.7871 28.2383 20.1611 27.8757 22.3816 27.0325L15.2819 8.3351C15.7056 8.17421 16.1587 8.10501 16.6111 8.13209L15.4162 28.0964ZM22.3816 27.0325C24.602 26.1894 26.6184 24.8849 28.2976 23.2051L14.1529 9.0655C14.4734 8.74494 14.8582 8.496 15.2819 8.3351L22.3816 27.0325ZM28.2963 23.2064L32.8313 18.6714L18.6892 4.52923L14.1542 9.06423L28.2963 23.2064ZM32.8313 18.6714C34.3909 17.1118 35.6281 15.2603 36.4721 13.2226L17.9945 5.56891C18.1555 5.18011 18.3916 4.82682 18.6892 4.52923L32.8313 18.6714ZM36.4721 13.2226C37.3161 11.1849 37.7506 9.00089 37.7506 6.7953L17.7506 6.7953C17.7506 6.37445 17.8334 5.95772 17.9945 5.56891L36.4721 13.2226ZM37.7506 6.7953C37.7506 4.58971 37.3161 2.40571 36.4721 0.368015L17.9945 8.02168C17.8334 7.63287 17.7506 7.21614 17.7506 6.7953L37.7506 6.7953ZM36.4721 0.368015C35.6281 -1.66967 34.3909 -3.52118 32.8313 -5.08077L18.6892 9.06136C18.3916 8.76377 18.1555 8.41049 17.9945 8.02168L36.4721 0.368015ZM32.8313 -5.08077C31.2717 -6.64036 29.4202 -7.87749 27.3825 -8.72153L19.7289 9.75606C19.3401 9.59501 18.9868 9.35895 18.6892 9.06136L32.8313 -5.08077ZM27.3825 -8.72153C25.3448 -9.56558 23.1608 -10 20.9553 -10L20.9553 10C20.5344 10 20.1177 9.91711 19.7289 9.75606L27.3825 -8.72153ZM20.9553 -10C18.7497 -10 16.5657 -9.56558 14.528 -8.72153L22.1816 9.75606C21.7928 9.91711 21.3761 10 20.9553 10L20.9553 -10ZM14.528 -8.72153C12.4903 -7.87749 10.6388 -6.64036 9.07919 -5.08077L23.2213 9.06136C22.9237 9.35895 22.5705 9.59501 22.1816 9.75606L14.528 -8.72153ZM9.07919 -5.08077L5.32919 -1.33077L19.4713 12.8114L23.2213 9.06136L9.07919 -5.08077ZM5.2107 -1.21026C3.21737 0.851617 2.11359 3.61393 2.13715 6.48176L22.1365 6.31746C22.156 8.69367 21.2414 10.9824 19.5898 12.6909L5.2107 -1.21026ZM2.13715 6.48176C2.16071 9.34956 3.3097 12.0934 5.33666 14.1222L19.4855 -0.0132227C21.1649 1.66784 22.117 3.94129 22.1365 6.31746L2.13715 6.48176ZM5.33666 14.1222C7.36361 16.1511 10.1063 17.3027 12.9741 17.329L13.1573 -2.67021C15.5334 -2.64845 17.806 -1.69428 19.4855 -0.0132227L5.33666 14.1222ZM12.9741 17.329C15.8419 17.3552 18.6053 16.2541 20.669 14.2627L6.78149 -0.129566C8.49146 -1.77958 10.7811 -2.69197 13.1573 -2.67021L12.9741 17.329ZM20.7963 14.1376L24.5463 10.3876L10.4042 -3.75452L6.65419 -0.00452173L20.7963 14.1376Z" fill="#616161" mask="url(#path-1-inside-1_41_4)"/>
<path d="M15.451 13.132L15.4512 13.1319L15.451 13.132Z" fill="black" fill-opacity="0.6" stroke="#616161" stroke-width="10"/>
</svg>
