<svg width="34" height="34" viewBox="0 0 34 34" fill="none" xmlns="http://www.w3.org/2000/svg">
<path d="M17 24.0046V26.3318M17 12.4608V14.6267M17 32C25.75 32 32 29.1429 32 22.7834C32 15.871 28.25 11.2627 20.75 7.80645L23.7 4.30415C23.8499 4.07436 23.9312 3.81213 23.9356 3.54405C23.9401 3.27597 23.8676 3.01157 23.7255 2.77764C23.5833 2.54372 23.3766 2.34858 23.1263 2.21201C22.8759 2.07545 22.5909 2.0023 22.3 2H11.7C11.4091 2.0023 11.1241 2.07545 10.8737 2.21201C10.6234 2.34858 10.4167 2.54372 10.2745 2.77764C10.1324 3.01157 10.0599 3.27597 10.0644 3.54405C10.0688 3.81213 10.1501 4.07436 10.3 4.30415L13.25 7.82949C5.75 11.3088 2 15.9171 2 22.8295C2 29.1429 8.25 32 17 32Z" stroke="black" stroke-opacity="0.5" stroke-width="2.57" stroke-linecap="round" stroke-linejoin="round"/>
</svg>
