<svg width="30" height="30" viewBox="0 0 30 30" fill="none" xmlns="http://www.w3.org/2000/svg">
<path d="M7.89474 0H24.6158L30 5.38421V22.1053C30 23.3616 29.5009 24.5664 28.6126 25.4547C27.7243 26.343 26.5194 26.8421 25.2632 26.8421H7.89474C6.63845 26.8421 5.43361 26.343 4.54528 25.4547C3.65695 24.5664 3.15789 23.3616 3.15789 22.1053V4.73684C3.15789 3.48055 3.65695 2.27572 4.54528 1.38739C5.43361 0.499059 6.63845 0 7.89474 0ZM7.89474 1.57895C7.05721 1.57895 6.25399 1.91165 5.66177 2.50387C5.06955 3.09609 4.73684 3.89932 4.73684 4.73684V22.1053C4.73684 22.9428 5.06955 23.746 5.66177 24.3382C6.25399 24.9305 7.05721 25.2632 7.89474 25.2632H25.2632C26.1007 25.2632 26.9039 24.9305 27.4961 24.3382C28.0883 23.746 28.4211 22.9428 28.4211 22.1053V6.17368L23.8263 1.57895H22.1053V9.47368H7.89474V1.57895ZM9.47368 1.57895V7.89474H20.5263V1.57895H9.47368ZM17.3684 12.6316C18.6247 12.6316 19.8295 13.1306 20.7179 14.019C21.6062 14.9073 22.1053 16.1121 22.1053 17.3684C22.1053 18.6247 21.6062 19.8295 20.7179 20.7179C19.8295 21.6062 18.6247 22.1053 17.3684 22.1053C16.1121 22.1053 14.9073 21.6062 14.019 20.7179C13.1306 19.8295 12.6316 18.6247 12.6316 17.3684C12.6316 16.1121 13.1306 14.9073 14.019 14.019C14.9073 13.1306 16.1121 12.6316 17.3684 12.6316ZM17.3684 14.2105C16.5309 14.2105 15.7277 14.5432 15.1355 15.1355C14.5432 15.7277 14.2105 16.5309 14.2105 17.3684C14.2105 18.2059 14.5432 19.0092 15.1355 19.6014C15.7277 20.1936 16.5309 20.5263 17.3684 20.5263C18.2059 20.5263 19.0092 20.1936 19.6014 19.6014C20.1936 19.0092 20.5263 18.2059 20.5263 17.3684C20.5263 16.5309 20.1936 15.7277 19.6014 15.1355C19.0092 14.5432 18.2059 14.2105 17.3684 14.2105ZM7.89474 30C6.85799 30 5.83139 29.7958 4.87355 29.3991C3.91572 29.0023 3.04541 28.4208 2.31231 27.6877C0.831765 26.2071 0 24.1991 0 22.1053V6.31579H1.57895V22.1053C1.57895 23.7803 2.24436 25.3868 3.4288 26.5712C4.61324 27.7556 6.21969 28.4211 7.89474 28.4211H23.6842V30H7.89474Z" fill="#545454"/>
</svg>
