<svg width="20" height="16" viewBox="0 0 20 16" fill="none" xmlns="http://www.w3.org/2000/svg">
<path d="M6 7.5H9C9.13333 7.5 9.25 7.45 9.35 7.35C9.45 7.25 9.5 7.13333 9.5 7V4C9.5 3.86667 9.45 3.75 9.35 3.65C9.25 3.55 9.13333 3.5 9 3.5H6C5.86667 3.5 5.75 3.55 5.65 3.65C5.55 3.75 5.5 3.86667 5.5 4V7C5.5 7.13333 5.55 7.25 5.65 7.35C5.75 7.45 5.86667 7.5 6 7.5ZM11 7.5H14C14.1333 7.5 14.25 7.45 14.35 7.35C14.45 7.25 14.5 7.13333 14.5 7V4C14.5 3.86667 14.45 3.75 14.35 3.65C14.25 3.55 14.1333 3.5 14 3.5H11C10.8667 3.5 10.75 3.55 10.65 3.65C10.55 3.75 10.5 3.86667 10.5 4V7C10.5 7.13333 10.55 7.25 10.65 7.35C10.75 7.45 10.8667 7.5 11 7.5ZM6 12.5H9C9.13333 12.5 9.25 12.45 9.35 12.35C9.45 12.25 9.5 12.1333 9.5 12V9C9.5 8.86667 9.45 8.75 9.35 8.65C9.25 8.55 9.13333 8.5 9 8.5H6C5.86667 8.5 5.75 8.55 5.65 8.65C5.55 8.75 5.5 8.86667 5.5 9V12C5.5 12.1333 5.55 12.25 5.65 12.35C5.75 12.45 5.86667 12.5 6 12.5ZM11 12.5H14C14.1333 12.5 14.25 12.45 14.35 12.35C14.45 12.25 14.5 12.1333 14.5 12V9C14.5 8.86667 14.45 8.75 14.35 8.65C14.25 8.55 14.1333 8.5 14 8.5H11C10.8667 8.5 10.75 8.55 10.65 8.65C10.55 8.75 10.5 8.86667 10.5 9V12C10.5 12.1333 10.55 12.25 10.65 12.35C10.75 12.45 10.8667 12.5 11 12.5ZM2 16C1.45 16 0.979333 15.8043 0.588 15.413C0.196 15.021 0 14.55 0 14V2C0 1.45 0.196 0.979333 0.588 0.588C0.979333 0.196 1.45 0 2 0H18C18.55 0 19.021 0.196 19.413 0.588C19.8043 0.979333 20 1.45 20 2V14C20 14.55 19.8043 15.021 19.413 15.413C19.021 15.8043 18.55 16 18 16H2ZM2 14V2V14ZM2 14H18V2H2V14Z" fill="#20315F"/>
</svg>
