<svg width="26" height="25" viewBox="0 0 26 25" fill="none" xmlns="http://www.w3.org/2000/svg">
<path d="M13 0.3125C10.5895 0.3125 8.23322 1.02728 6.22899 2.36646C4.22477 3.70564 2.66267 5.60907 1.74022 7.83605C0.817781 10.063 0.576427 12.5135 1.04668 14.8777C1.51694 17.2418 2.67769 19.4134 4.38214 21.1179C6.08659 22.8223 8.2582 23.9831 10.6223 24.4533C12.9865 24.9236 15.437 24.6822 17.664 23.7598C19.8909 22.8373 21.7944 21.2752 23.1335 19.271C24.4727 17.2668 25.1875 14.9105 25.1875 12.5C25.1813 9.26958 23.8953 6.17324 21.611 3.88898C19.3268 1.60472 16.2304 0.318695 13 0.3125ZM13 22.8125C10.9604 22.8125 8.96657 22.2077 7.27069 21.0745C5.57481 19.9414 4.25303 18.3308 3.4725 16.4464C2.69197 14.5621 2.48775 12.4886 2.88566 10.4881C3.28357 8.4877 4.26574 6.65019 5.70797 5.20796C7.1502 3.76573 8.98771 2.78356 10.9881 2.38565C12.9886 1.98774 15.0621 2.19196 16.9464 2.97249C18.8308 3.75302 20.4414 5.0748 21.5745 6.77068C22.7077 8.46656 23.3125 10.4604 23.3125 12.5C23.3094 15.2341 22.2219 17.8553 20.2886 19.7886C18.3553 21.7219 15.7341 22.8094 13 22.8125ZM18.625 12.5C18.625 12.7486 18.5262 12.9871 18.3504 13.1629C18.1746 13.3387 17.9361 13.4375 17.6875 13.4375H10.5742L12.9531 15.8164C13.1285 15.9922 13.2269 16.2303 13.2269 16.4785C13.2269 16.7268 13.1285 16.9649 12.9531 17.1406C12.8659 17.2285 12.7616 17.2976 12.6468 17.344C12.532 17.3903 12.409 17.4128 12.2852 17.4102C12.1631 17.4126 12.0419 17.3899 11.929 17.3436C11.8162 17.2972 11.714 17.2281 11.6289 17.1406L7.64454 13.168C7.46849 12.9902 7.36973 12.7502 7.36973 12.5C7.36973 12.2498 7.46849 12.0098 7.64454 11.832L11.6289 7.85938C11.8072 7.69779 12.0409 7.61097 12.2815 7.61689C12.5221 7.62282 12.7511 7.72103 12.9213 7.8912C13.0915 8.06136 13.1897 8.29045 13.1956 8.53103C13.2015 8.77161 13.1147 9.00526 12.9531 9.18359L10.5742 11.5625H17.6875C17.9361 11.5625 18.1746 11.6613 18.3504 11.8371C18.5262 12.0129 18.625 12.2514 18.625 12.5Z" fill="#20315F"/>
</svg>
