<svg width="22" height="15" viewBox="0 0 22 15" fill="none" xmlns="http://www.w3.org/2000/svg">
<path d="M3.5 1.25H17.25C17.913 1.25 18.5489 1.51339 19.0178 1.98223C19.4866 2.45107 19.75 3.08696 19.75 3.75V4.375C19.75 4.54076 19.8158 4.69973 19.9331 4.81694C20.0503 4.93415 20.2092 5 20.375 5C20.5408 5 20.6997 5.06585 20.8169 5.18306C20.9342 5.30027 21 5.45924 21 5.625V9.375C21 9.54076 20.9342 9.69973 20.8169 9.81694C20.6997 9.93415 20.5408 10 20.375 10C20.2092 10 20.0503 10.0658 19.9331 10.1831C19.8158 10.3003 19.75 10.4592 19.75 10.625V11.25C19.75 11.913 19.4866 12.5489 19.0178 13.0178C18.5489 13.4866 17.913 13.75 17.25 13.75H3.5C2.83696 13.75 2.20107 13.4866 1.73223 13.0178C1.26339 12.5489 1 11.913 1 11.25V3.75C1 3.08696 1.26339 2.45107 1.73223 1.98223C2.20107 1.51339 2.83696 1.25 3.5 1.25M4.75 5V10M8.5 5V10M12.25 5V10M16 5V10" stroke="#20315F" stroke-width="2" stroke-linecap="round" stroke-linejoin="round"/>
</svg>
