<svg width="18" height="12" viewBox="0 0 18 12" fill="none" xmlns="http://www.w3.org/2000/svg">
<path d="M9.83333 1H3.16667C2.24619 1 1.5 1.74619 1.5 2.66667V9.33333C1.5 10.2538 2.24619 11 3.16667 11H9.83333C10.7538 11 11.5 10.2538 11.5 9.33333V2.66667C11.5 1.74619 10.7538 1 9.83333 1Z" stroke="#686868" stroke-width="1.7" stroke-linecap="round" stroke-linejoin="round"/>
<path d="M11.5 4.33331L15.2942 2.43664C15.4212 2.37317 15.5623 2.34321 15.7042 2.3496C15.846 2.35599 15.9839 2.39852 16.1047 2.47315C16.2255 2.54778 16.3252 2.65204 16.3944 2.77604C16.4636 2.90003 16.4999 3.03965 16.5 3.18164V8.81831C16.4999 8.9603 16.4636 9.09992 16.3944 9.22392C16.3252 9.34791 16.2255 9.45217 16.1047 9.52681C15.9839 9.60144 15.846 9.64397 15.7042 9.65035C15.5623 9.65674 15.4212 9.62678 15.2942 9.56331L11.5 7.66664V4.33331Z" stroke="#686868" stroke-width="1.7" stroke-linecap="round" stroke-linejoin="round"/>
</svg>
