<svg width="22" height="23" viewBox="0 0 22 23" fill="none" xmlns="http://www.w3.org/2000/svg">
<path d="M13.25 13.75L13.5 11.5L13.926 7.666C13.9352 7.58218 13.9267 7.49735 13.901 7.41703C13.8753 7.33672 13.8329 7.26273 13.7767 7.19988C13.7205 7.13704 13.6516 7.08676 13.5746 7.05232C13.4977 7.01788 13.4143 7.00005 13.33 7H8.66995C8.58562 7.00005 8.50225 7.01788 8.42527 7.05232C8.34829 7.08676 8.27944 7.13704 8.2232 7.19988C8.16697 7.26273 8.12461 7.33672 8.09889 7.41703C8.07317 7.49735 8.06468 7.58218 8.07395 7.666L8.94095 15.466C8.95719 15.6127 9.02697 15.7483 9.13693 15.8469C9.24689 15.9454 9.38931 15.9999 9.53695 16H9.99995" stroke="#20315F" stroke-width="1.7" stroke-linecap="round"/>
<path d="M3.5 6C4.16304 6 4.79893 5.73661 5.26777 5.26777C5.73661 4.79893 6 4.16304 6 3.5C6 2.83696 5.73661 2.20107 5.26777 1.73223C4.79893 1.26339 4.16304 1 3.5 1C2.83696 1 2.20107 1.26339 1.73223 1.73223C1.26339 2.20107 1 2.83696 1 3.5C1 4.16304 1.26339 4.79893 1.73223 5.26777C2.20107 5.73661 2.83696 6 3.5 6V6Z" stroke="#20315F" stroke-width="1.7" stroke-miterlimit="1.5" stroke-linecap="round" stroke-linejoin="round"/>
<path d="M3.5 3.5L8 7M3.5 18.5L8.5 14.5M18.5 3.5L14 7" stroke="#20315F" stroke-width="1.7" stroke-linecap="round" stroke-linejoin="round"/>
<path d="M3.5 21C4.16304 21 4.79893 20.7366 5.26777 20.2678C5.73661 19.7989 6 19.163 6 18.5C6 17.837 5.73661 17.2011 5.26777 16.7322C4.79893 16.2634 4.16304 16 3.5 16C2.83696 16 2.20107 16.2634 1.73223 16.7322C1.26339 17.2011 1 17.837 1 18.5C1 19.163 1.26339 19.7989 1.73223 20.2678C2.20107 20.7366 2.83696 21 3.5 21V21ZM18.5 6C19.163 6 19.7989 5.73661 20.2678 5.26777C20.7366 4.79893 21 4.16304 21 3.5C21 2.83696 20.7366 2.20107 20.2678 1.73223C19.7989 1.26339 19.163 1 18.5 1C17.837 1 17.2011 1.26339 16.7322 1.73223C16.2634 2.20107 16 2.83696 16 3.5C16 4.16304 16.2634 4.79893 16.7322 5.26777C17.2011 5.73661 17.837 6 18.5 6V6Z" stroke="#20315F" stroke-width="1.7" stroke-miterlimit="1.5" stroke-linecap="round" stroke-linejoin="round"/>
<path d="M12 21.4V16.6C12 16.5212 12.0155 16.4432 12.0457 16.3704C12.0758 16.2976 12.12 16.2315 12.1757 16.1757C12.2315 16.12 12.2976 16.0758 12.3704 16.0457C12.4432 16.0155 12.5212 16 12.6 16H19.4C19.4788 16 19.5568 16.0155 19.6296 16.0457C19.7024 16.0758 19.7685 16.12 19.8243 16.1757C19.88 16.2315 19.9242 16.2976 19.9543 16.3704C19.9845 16.4432 20 16.5212 20 16.6V21.4C20 21.5591 19.9368 21.7117 19.8243 21.8243C19.7117 21.9368 19.5591 22 19.4 22H12.6C12.4409 22 12.2883 21.9368 12.1757 21.8243C12.0632 21.7117 12 21.5591 12 21.4V21.4Z" stroke="#20315F" stroke-width="1.7"/>
<path fill-rule="evenodd" clip-rule="evenodd" d="M15 20L17 19L15 18V20Z" fill="#20315F" stroke="#20315F" stroke-width="1.7" stroke-linecap="round" stroke-linejoin="round"/>
</svg>
