<svg width="25" height="24" viewBox="0 0 25 24" fill="none" xmlns="http://www.w3.org/2000/svg">
<path d="M1.47222 21.112C0.847203 21.7369 0.81744 22.8526 1.4871 23.5072C2.14189 24.1618 3.25799 24.1469 3.88301 23.5221L12.9904 14.4026L22.1127 23.5221C22.7526 24.1618 23.8539 24.1618 24.5086 23.5072C25.1485 22.8377 25.1634 21.7517 24.5086 21.112L15.4012 11.9926L24.5086 2.88797C25.1634 2.24827 25.1634 1.14739 24.5086 0.492809C23.839 -0.146892 22.7526 -0.161769 22.1127 0.477933L12.9904 9.5974L3.88301 0.477933C3.25799 -0.146892 2.127 -0.176646 1.4871 0.492809C0.832321 1.14739 0.847203 2.26315 1.47222 2.88797L10.5945 11.9926L1.47222 21.112Z" fill="#20315F"/>
</svg>
