<svg width="42" height="42" viewBox="0 0 42 42" fill="none" xmlns="http://www.w3.org/2000/svg">
<path d="M13.2707 19.5209C13.081 19.719 12.9323 19.9527 12.8332 20.2084C12.6248 20.7156 12.6248 21.2845 12.8332 21.7917C12.9323 22.0475 13.081 22.2811 13.2707 22.4792L19.5207 28.7292C19.913 29.1215 20.445 29.3419 20.9998 29.3419C21.5546 29.3419 22.0867 29.1215 22.479 28.7292C22.8713 28.3369 23.0917 27.8049 23.0917 27.2501C23.0917 26.6953 22.8713 26.1632 22.479 25.7709L19.7707 23.0834H27.2498C27.8024 23.0834 28.3323 22.8639 28.723 22.4732C29.1137 22.0825 29.3332 21.5526 29.3332 21.0001C29.3332 20.4475 29.1137 19.9176 28.723 19.5269C28.3323 19.1362 27.8024 18.9167 27.2498 18.9167H19.7707L22.479 16.2292C22.6743 16.0356 22.8293 15.8052 22.935 15.5513C23.0408 15.2974 23.0952 15.0251 23.0952 14.7501C23.0952 14.4751 23.0408 14.2028 22.935 13.9489C22.8293 13.695 22.6743 13.4646 22.479 13.2709C22.2853 13.0756 22.0549 12.9207 21.801 12.8149C21.5472 12.7091 21.2749 12.6547 20.9998 12.6547C20.7248 12.6547 20.4525 12.7091 20.1986 12.8149C19.9448 12.9207 19.7143 13.0756 19.5207 13.2709L13.2707 19.5209ZM0.166504 21.0001C0.166504 25.1205 1.38836 29.1484 3.67755 32.5745C5.96675 36.0005 9.22047 38.6707 13.0273 40.2476C16.8341 41.8244 21.0229 42.237 25.0642 41.4331C29.1055 40.6292 32.8176 38.6451 35.7312 35.7315C38.6448 32.8179 40.629 29.1057 41.4329 25.0645C42.2367 21.0232 41.8242 16.8343 40.2473 13.0275C38.6705 9.22071 36.0002 5.96699 32.5742 3.6778C29.1482 1.3886 25.1203 0.166748 20.9998 0.166748C18.264 0.166748 15.5549 0.705618 13.0273 1.75259C10.4996 2.79956 8.203 4.33414 6.26845 6.26869C2.36144 10.1757 0.166504 15.4747 0.166504 21.0001ZM37.6665 21.0001C37.6665 24.2964 36.689 27.5188 34.8577 30.2596C33.0263 33.0004 30.4233 35.1366 27.3779 36.3981C24.3325 37.6595 20.9813 37.9896 17.7483 37.3465C14.5153 36.7034 11.5456 35.1161 9.21472 32.7852C6.88385 30.4543 5.2965 27.4846 4.65342 24.2516C4.01033 21.0186 4.34038 17.6675 5.60185 14.622C6.86331 11.5766 8.99951 8.97361 11.7403 7.14225C14.4812 5.3109 17.7035 4.33341 20.9998 4.33341C25.4201 4.33341 29.6593 6.08936 32.785 9.21497C35.9106 12.3406 37.6665 16.5798 37.6665 21.0001Z" fill="#20315F"/>
</svg>
