<svg width="20" height="20" viewBox="0 0 20 20" fill="none" xmlns="http://www.w3.org/2000/svg">
<path d="M10.1101 13.39L6.23008 17.27C5.76032 17.7234 5.13294 17.9767 4.48008 17.9767C3.82722 17.9767 3.19984 17.7234 2.73008 17.27C2.49969 17.0405 2.31687 16.7678 2.19213 16.4675C2.06739 16.1672 2.00318 15.8452 2.00318 15.52C2.00318 15.1948 2.06739 14.8728 2.19213 14.5725C2.31687 14.2722 2.49969 13.9995 2.73008 13.77L6.61008 9.89C6.79838 9.7017 6.90417 9.44631 6.90417 9.18C6.90417 8.9137 6.79838 8.65831 6.61008 8.47C6.42178 8.2817 6.16638 8.17591 5.90008 8.17591C5.63378 8.17591 5.37838 8.2817 5.19008 8.47L1.31008 12.36C0.528437 13.2108 0.105701 14.3307 0.130155 15.4858C0.154609 16.6408 0.624362 17.7418 1.44131 18.5588C2.25826 19.3757 3.35924 19.8455 4.51433 19.8699C5.66941 19.8944 6.78929 19.4716 7.64008 18.69L11.5301 14.81C11.6233 14.7168 11.6973 14.6061 11.7477 14.4843C11.7982 14.3624 11.8242 14.2319 11.8242 14.1C11.8242 13.9681 11.7982 13.8376 11.7477 13.7158C11.6973 13.5939 11.6233 13.4832 11.5301 13.39C11.4368 13.2968 11.3262 13.2228 11.2043 13.1723C11.0825 13.1219 10.9519 13.0959 10.8201 13.0959C10.6882 13.0959 10.5577 13.1219 10.4358 13.1723C10.314 13.2228 10.2033 13.2968 10.1101 13.39ZM18.6901 1.31C17.8489 0.47401 16.7111 0.00479126 15.5251 0.00479126C14.3391 0.00479126 13.2013 0.47401 12.3601 1.31L8.47008 5.19C8.37684 5.28324 8.30288 5.39393 8.25242 5.51575C8.20196 5.63758 8.17599 5.76814 8.17599 5.9C8.17599 6.03186 8.20196 6.16243 8.25242 6.28425C8.30288 6.40607 8.37684 6.51676 8.47008 6.61C8.56332 6.70324 8.67401 6.7772 8.79583 6.82766C8.91765 6.87812 9.04822 6.90409 9.18008 6.90409C9.31194 6.90409 9.44251 6.87812 9.56433 6.82766C9.68615 6.7772 9.79684 6.70324 9.89008 6.61L13.7701 2.73C14.2398 2.27663 14.8672 2.02326 15.5201 2.02326C16.1729 2.02326 16.8003 2.27663 17.2701 2.73C17.5005 2.95949 17.6833 3.23221 17.808 3.53252C17.9328 3.83283 17.997 4.15482 17.997 4.48C17.997 4.80519 17.9328 5.12717 17.808 5.42748C17.6833 5.72779 17.5005 6.00052 17.2701 6.23L13.3901 10.11C13.2964 10.203 13.222 10.3136 13.1712 10.4354C13.1204 10.5573 13.0943 10.688 13.0943 10.82C13.0943 10.952 13.1204 11.0827 13.1712 11.2046C13.222 11.3264 13.2964 11.437 13.3901 11.53C13.483 11.6237 13.5936 11.6981 13.7155 11.7489C13.8374 11.7997 13.9681 11.8258 14.1001 11.8258C14.2321 11.8258 14.3628 11.7997 14.4847 11.7489C14.6065 11.6981 14.7171 11.6237 14.8101 11.53L18.6901 7.64C19.5261 6.79878 19.9953 5.66098 19.9953 4.475C19.9953 3.28903 19.5261 2.15122 18.6901 1.31ZM6.83008 13.17C6.92352 13.2627 7.03434 13.336 7.15617 13.3858C7.27801 13.4355 7.40847 13.4608 7.54008 13.46C7.67169 13.4608 7.80215 13.4355 7.92399 13.3858C8.04582 13.336 8.15664 13.2627 8.25008 13.17L13.1701 8.25C13.3584 8.0617 13.4642 7.8063 13.4642 7.54C13.4642 7.2737 13.3584 7.01831 13.1701 6.83C12.9818 6.6417 12.7264 6.53591 12.4601 6.53591C12.1938 6.53591 11.9384 6.6417 11.7501 6.83L6.83008 11.75C6.73635 11.843 6.66196 11.9536 6.61119 12.0754C6.56042 12.1973 6.53428 12.328 6.53428 12.46C6.53428 12.592 6.56042 12.7227 6.61119 12.8446C6.66196 12.9664 6.73635 13.077 6.83008 13.17Z" fill="#20315F"/>
</svg>
