<svg width="59" height="80" viewBox="0 0 59 80" fill="none" xmlns="http://www.w3.org/2000/svg">
<path d="M0 62.1305C0.328739 62.0653 0.662696 62.1044 0.994044 62.1018C2.01418 62.0966 3.03692 62.107 4.05706 62.094C4.29709 62.0914 4.37275 62.1488 4.37275 62.4019C4.36231 64.466 4.37275 66.53 4.3597 68.5941C4.3597 68.8472 4.41449 68.9281 4.68062 68.9255C6.01383 68.9124 7.34705 68.9124 8.68027 68.9255C8.91248 68.9255 8.9777 68.8681 8.9777 68.6306C8.96727 66.5666 8.9777 64.5025 8.96466 62.4384C8.96466 62.1618 9.03249 62.0888 9.30905 62.094C10.5483 62.1096 11.7876 62.1044 13.0269 62.0966C13.2409 62.0966 13.3322 62.1227 13.3322 62.3784C13.3244 68.1113 13.3244 73.8469 13.3322 79.5798C13.3322 79.7755 13.2957 79.8459 13.0817 79.8433C11.8007 79.8329 10.5196 79.8329 9.23861 79.8433C9.00901 79.8433 8.96987 79.7677 8.97248 79.5589C8.98031 77.4322 8.96987 75.3055 8.98553 73.1788C8.98553 72.8657 8.89682 72.8083 8.60461 72.8109C7.29226 72.8266 5.97992 72.8266 4.66757 72.8109C4.41188 72.8083 4.36492 72.8892 4.36492 73.124C4.37275 75.2612 4.36492 77.3983 4.37536 79.5354C4.37536 79.7859 4.30752 79.8433 4.06488 79.8407C2.71079 79.8277 1.3567 79.8355 0.00260904 79.8355V62.1279L0 62.1305Z" fill="#373736"/>
<path d="M9.93779 0.054798C9.9404 0.036532 9.9404 0.018266 9.9404 0H10.8144C10.8144 0.018266 10.8144 0.0339226 10.817 0.0521886C10.5248 0.216583 10.23 0.213973 9.93518 0.0521886L9.93779 0.054798Z" fill="#CBCAE0"/>
<path d="M9.93787 0.0548096C10.2327 0.0548096 10.5249 0.0548096 10.8197 0.0548096C12.7948 0.167015 14.6237 0.798497 16.3848 1.64917C19.3408 3.07653 21.9473 5.01794 24.3919 7.18899C26.8731 9.39135 29.1195 11.8181 31.1989 14.4041C31.1911 14.5554 31.058 14.5711 30.9589 14.6102C30.0327 14.986 29.1326 15.4139 28.2429 15.8653C28.0968 15.9384 27.9481 16.035 27.7733 15.9488C27.2254 15.4844 26.7166 14.9781 26.1661 14.5137C24.1519 12.8097 22.0229 11.2832 19.5574 10.2916C18.3598 9.80886 17.1232 9.48529 15.816 9.54008C14.0184 9.61576 12.6539 10.4038 11.8085 12.0269C11.3363 12.9297 11.1198 13.9004 11.0258 14.9051C10.7832 17.4414 11.2633 19.8865 11.9494 22.3054C12.3617 23.7615 12.8835 25.181 13.4862 26.5692C13.6949 27.1042 13.961 27.613 14.1828 28.1427C14.8037 29.4344 15.4612 30.7052 16.1761 31.9499C16.2361 32.0542 16.3274 32.1534 16.2857 32.2943C16.1604 32.4665 15.9517 32.5031 15.7769 32.584C14.9342 32.9701 14.1045 33.385 13.2879 33.8234C13.2226 33.8574 13.1574 33.8913 13.0818 33.8834C12.9852 33.8574 12.9278 33.7817 12.8756 33.7034C12.3434 32.9153 11.8268 32.1195 11.3363 31.3053C11.1432 30.8722 10.8615 30.4912 10.6319 30.0789C10.5666 29.9641 10.4779 29.8597 10.4518 29.724C9.79959 28.5159 9.11863 27.3233 8.50551 26.0943C6.54873 22.1723 4.9546 18.1173 4.09362 13.8039C3.67618 11.7137 3.4518 9.60532 3.62921 7.47081C3.74401 6.07998 4.01796 4.7283 4.65717 3.47577C5.75558 1.31516 7.53494 0.198328 9.93787 0.0548096Z" fill="#302D82"/>
<path d="M25.3025 48.7963C21.8038 51.2883 18.1198 53.4359 14.0601 54.8972C11.9442 55.6591 9.77608 56.194 7.51405 56.2306C6.10777 56.2541 4.72759 56.0636 3.45699 55.4008C1.61762 54.4431 0.657493 52.8722 0.378326 50.863C0.0782866 48.718 0.485297 46.6514 1.15321 44.6238C2.26466 41.2394 4.02054 38.1838 6.04255 35.2743C7.11225 33.7321 8.27067 32.2578 9.4917 30.833C9.73434 31.0104 9.83609 31.2897 9.98742 31.5297C10.1596 31.8063 10.3814 32.0594 10.4753 32.383C10.4623 32.5265 10.3683 32.6309 10.2875 32.7353C9.03773 34.3662 7.87931 36.0623 6.89049 37.8654C5.65902 40.1069 4.6441 42.4319 4.25536 44.9813C4.04403 46.3643 4.04924 47.7499 4.59453 49.0755C5.13721 50.3933 6.10517 51.2674 7.44099 51.7502C8.69594 52.2042 9.99003 52.2355 11.2945 52.1051C13.6975 51.865 15.9386 51.0665 18.1276 50.088C18.746 49.8114 19.3565 49.5191 19.9513 49.1982C21.0915 48.598 22.2029 47.9483 23.2883 47.2515C23.4214 47.1785 23.5309 47.0558 23.7005 47.0637C24.3528 47.4577 24.9868 47.883 25.626 48.2953C25.6703 48.324 25.699 48.3684 25.7199 48.4153C25.699 48.6685 25.4799 48.7076 25.3077 48.7937L25.3025 48.7963Z" fill="#19A2DC"/>
<path d="M23.1421 78.7813C23.0639 78.8413 23.0195 78.8647 22.9856 78.8987C22.0959 79.8068 20.9793 80.0312 19.7713 79.9451C18.6729 79.8668 17.6867 79.5093 16.8883 78.7004C15.5812 77.3748 15.2107 74.3139 16.9874 72.7952C17.8432 72.0646 18.8607 71.7802 19.9565 71.7436C20.8932 71.7123 21.8298 71.7175 22.7691 71.7227C22.9882 71.7227 23.0456 71.6627 23.0456 71.4435C23.0456 70.3476 22.6151 69.8648 21.5219 69.7552C20.5722 69.6587 19.6904 69.7735 19.0068 70.5328C18.9155 70.6346 18.8581 70.6007 18.7824 70.5224C18.0102 69.7474 17.2405 68.9698 16.4604 68.2026C16.3091 68.0539 16.4317 67.9939 16.5152 67.9104C17.4388 66.9997 18.5476 66.4778 19.8365 66.3473C21.1593 66.2142 22.4768 66.2351 23.7709 66.5796C25.9234 67.151 27.1209 68.6906 27.1288 70.9269C27.1392 73.8051 27.1288 76.6807 27.1366 79.5589C27.1366 79.7728 27.087 79.8407 26.8652 79.8381C25.7094 79.8276 24.5536 79.8276 23.3952 79.8381C23.1865 79.8381 23.1239 79.7781 23.1369 79.5745C23.1526 79.3292 23.1421 79.0813 23.1421 78.7891V78.7813Z" fill="#373736"/>
<path d="M49.0499 73.1292C49.0369 74.0869 49.0369 75.0498 48.7942 75.9839C48.2411 78.1106 46.827 79.3579 44.7189 79.8302C43.5527 80.0912 42.3734 80.0599 41.2332 79.6763C39.2373 79.0056 37.9902 77.6357 37.6588 75.5403C37.3953 73.8755 37.3875 72.1924 37.698 70.5302C38.105 68.3383 39.8139 66.7257 42.0212 66.3812C43.2787 66.1829 44.5206 66.2273 45.7025 66.7205C47.6697 67.5398 48.7186 69.0585 48.9534 71.1643C49.0264 71.8167 49.0421 72.4742 49.0499 73.1292V73.1292Z" fill="#373736"/>
<path d="M42.2821 17.2353C41.6585 16.4785 40.5706 15.6826 39.4904 15.3852C38.1416 15.012 36.7744 15.0486 35.4021 15.2547C34.3898 15.406 33.4035 15.6644 32.4252 15.9566C31.2772 16.2776 30.184 16.7421 29.1091 17.2483C26.5313 18.4173 24.1441 19.9099 21.8429 21.5539C20.2149 22.7177 18.6781 23.9911 17.1831 25.3193C16.8022 25.6585 16.4109 25.9873 16.0639 26.3604C15.5212 26.9475 14.8507 27.412 14.3602 28.0539C14.308 28.1244 14.2349 28.2027 14.1227 28.1609C13.8618 27.6573 13.6192 27.1433 13.434 26.6057C13.6349 26.23 13.9688 25.9716 14.2741 25.695C14.8533 25.1731 15.422 24.6382 16.0091 24.1215C17.611 22.7072 19.2782 21.3712 21.008 20.1187C22.6126 18.9575 24.2693 17.872 25.9939 16.8986C26.5992 16.5568 27.194 16.1863 27.8411 15.9201C27.9193 15.9514 27.982 15.9044 28.0446 15.8705C29.0412 15.3617 30.0561 14.8868 31.0945 14.4666C31.1311 14.451 31.1624 14.4223 31.1989 14.4014C32.1434 14.0805 33.0696 13.7151 34.0271 13.4333C35.6812 12.948 37.3615 12.6166 39.086 12.5957C40.3201 12.58 41.5385 12.7314 42.6865 13.2272C43.6179 13.629 45.2929 14.9442 45.8513 15.6226" fill="#19A2DC"/>
<path d="M29.8552 69.3456C29.8552 67.0415 29.8605 64.74 29.8474 62.4359C29.8474 62.1566 29.9205 62.0888 30.1944 62.094C31.3398 62.1097 32.4851 62.1097 33.6305 62.094C33.8888 62.0914 33.954 62.154 33.954 62.4176C33.9462 66.7336 33.9488 71.047 33.9488 75.363C33.9488 76.1641 34.1732 76.3885 34.9663 76.3885C35.3107 76.3885 35.6551 76.3937 35.9969 76.3885C36.1482 76.3859 36.1926 76.4381 36.1926 76.5868C36.1874 77.6071 36.19 78.63 36.19 79.6503C36.19 79.7442 36.2083 79.846 36.0595 79.8408C34.9403 79.8016 33.8079 79.966 32.7017 79.6711C30.9171 79.1962 29.8605 77.748 29.8552 75.7883C29.85 73.6407 29.8552 71.4932 29.8552 69.3482V69.3456Z" fill="#373736"/>
<path d="M40.9672 28.709C41.7238 28.8786 42.483 29.0456 43.2396 29.2152C43.6962 29.3822 44.158 29.544 44.6094 29.7214C45.6817 30.1442 46.6914 30.6765 47.5471 31.4619C49.2535 33.025 49.6318 35.0603 48.6169 37.1401C47.8498 38.7109 46.6627 39.9295 45.3425 41.0307C44.9355 41.3699 44.4998 41.6752 44.0745 41.9962C44.0015 42.1293 43.8788 42.2076 43.7562 42.2885C43.1066 42.7242 42.4282 43.1078 41.7786 43.5436C40.1166 44.496 38.3816 45.2945 36.597 45.9886C35.9682 46.2339 35.3316 46.4635 34.6898 46.6671C34.562 46.7062 34.4341 46.7662 34.2985 46.6906C34.0689 46.2209 33.9332 45.7225 33.9019 45.198C33.9593 45.0675 34.0819 45.0336 34.1993 44.9918C35.6865 44.4778 37.1449 43.8933 38.559 43.2044C39.6261 42.6851 40.6541 42.0901 41.6455 41.4378C42.376 40.9316 43.104 40.4201 43.7432 39.7938C44.8677 38.7997 45.8278 37.6854 46.2739 36.2189C46.6888 34.849 46.394 33.6304 45.4208 32.5736C44.5937 31.6733 43.5501 31.1279 42.4308 30.7C41.7133 30.4234 40.9802 30.1911 40.2236 30.0424C39.4409 29.8937 38.6582 29.7502 37.8624 29.6849C36.7431 29.591 35.6238 29.5544 34.4993 29.5571C32.2582 29.5623 30.0405 29.8076 27.8359 30.1938C27.6115 30.2329 27.3897 30.2929 27.1575 30.2903C27.0349 30.2799 26.954 30.2016 26.8836 30.1103C26.7166 29.9015 26.56 29.6849 26.3957 29.4762C26.32 29.3796 26.2443 29.27 26.3591 29.1448C26.5783 29.0065 26.834 28.996 27.0766 28.9543C28.8064 28.649 30.5467 28.4246 32.2999 28.2941C33.7845 28.1845 35.2664 28.1819 36.7536 28.1819C36.9101 28.1819 37.064 28.2184 37.2206 28.2106C38.1468 28.2576 39.0704 28.3358 39.9914 28.4559C40.3149 28.5524 40.6775 28.4976 40.9724 28.7038L40.9672 28.709Z" fill="#EEE423"/>
<path d="M27.995 49.4356C27.6428 49.1069 27.2227 48.872 26.8392 48.5876C26.5913 48.478 26.4061 48.2744 26.1687 48.1466C25.5451 47.6482 24.9346 47.1367 24.2823 46.6749C23.5831 46.0825 22.8943 45.4797 22.2316 44.8457C21.5846 44.2246 20.961 43.5801 20.327 42.946C19.0147 41.6334 17.8119 40.2244 16.6379 38.7866C16.0508 38.069 15.4821 37.3357 14.9315 36.5894C14.8507 36.4772 14.7098 36.3859 14.7489 36.2137C15.6751 35.5744 16.5987 34.9324 17.6215 34.4575C17.7832 34.4758 17.8302 34.6167 17.9032 34.7263C18.8529 36.1458 19.8626 37.5236 20.9349 38.8518C22.1325 40.334 23.4109 41.743 24.7859 43.066C25.0938 43.4105 25.4642 43.6845 25.8008 43.995C26.1295 44.2977 26.4478 44.6082 26.7948 44.89C27.3767 45.3858 27.9898 45.8398 28.6003 46.2991C28.6812 46.3591 28.7673 46.4113 28.8534 46.4661C29.4717 46.9202 30.1135 47.3377 30.7867 47.703C31.4311 48.1101 32.1095 48.4467 32.8139 48.7337C32.9391 48.7859 33.067 48.8355 33.1244 48.9738C33.2079 49.6914 33.1452 50.3985 32.9496 51.0926C32.8635 51.4032 32.6991 51.6615 32.3704 51.7711C32.1695 51.8102 32.0103 51.7032 31.8381 51.6276C31.105 51.304 30.4162 50.8891 29.6804 50.5629C29.143 50.1454 28.5351 49.8349 27.9846 49.4383L27.995 49.4356Z" fill="#302D82"/>
<path d="M33.9358 45.1744C34.0323 45.691 34.1836 46.1947 34.3297 46.6983C34.4367 46.7974 34.4471 46.9357 34.481 47.0636C34.6819 47.8777 34.8228 48.7023 34.9663 49.5269C35.0785 50.4089 35.1829 51.2935 35.1698 52.1859C35.1698 52.3399 35.1907 52.499 35.0655 52.6243C35.0055 52.9714 34.9611 53.321 34.8828 53.6628C34.8333 53.8847 34.7576 54.1038 34.6611 54.3074C34.3297 55.0093 33.7479 55.2494 33.0122 55.0015C32.5008 54.8293 32.0651 54.5214 31.6711 54.1691C30.364 53.0027 29.3438 51.6014 28.4307 50.1192C28.5846 50.0097 28.6838 50.1427 28.7881 50.208C29.3204 50.5341 29.7952 50.9464 30.3483 51.2413C30.5179 51.33 30.6379 51.4735 30.7684 51.6066C31.0919 51.9354 31.4598 52.199 31.872 52.3999C32.3677 52.64 32.9391 52.6869 33.3226 52.045C33.6174 51.6144 33.6435 51.1108 33.7035 50.6229C33.7636 50.1401 33.7662 49.6548 33.6853 49.1694C33.6174 48.4727 33.4922 47.7838 33.4166 47.0897C33.32 46.5391 33.2157 45.9885 33.0617 45.4484C32.8478 44.6107 32.6025 43.7836 32.3625 42.9538C32.1538 42.184 31.8563 41.4455 31.5876 40.6966C31.0136 39.1649 30.377 37.6566 29.6465 36.1953C28.6785 34.2539 27.6271 32.3621 26.26 30.6633C26.2208 30.6138 26.1869 30.5616 26.1582 30.5068C25.8477 30.1232 25.5607 29.7135 25.1459 29.4265C24.8146 29.1264 24.4623 28.8524 24.0631 28.6515C23.2961 28.2653 22.7038 28.5158 22.4168 29.3195C22.3125 29.6117 22.3281 29.9379 22.1664 30.2119C22.0307 30.3372 21.8507 30.3633 21.6837 30.4181C21.4437 30.4989 21.3028 30.4181 21.2637 30.1676C21.1776 29.3038 21.2845 28.461 21.5533 27.6416C21.6654 27.3024 21.8429 26.9893 22.1507 26.7831C22.6125 26.47 23.0978 26.5248 23.5831 26.7257C24.0918 26.9371 24.5197 27.2659 24.9294 27.626C25.3833 28.0252 25.7877 28.4766 26.1713 28.9437C26.2365 29.0246 26.3069 29.1055 26.3147 29.2151C26.5704 29.5543 26.8287 29.8936 27.0844 30.2328C27.4288 30.5303 27.6375 30.9295 27.8828 31.3027C28.9995 33.004 29.9257 34.8123 30.8049 36.6442C31.358 37.8001 31.8485 38.9848 32.3234 40.1747C32.5947 40.8688 32.8426 41.5708 33.0956 42.2727C33.3383 43.0738 33.6253 43.8592 33.8575 44.6629C33.9044 44.8299 33.9801 44.9943 33.941 45.177L33.9358 45.1744Z" fill="#E1701C"/>
<path d="M35.0681 52.6296C35.0995 51.578 34.9873 50.5342 34.8777 49.4931C35.0264 49.3783 35.1803 49.4644 35.3291 49.4879C36.2527 49.6392 37.171 49.6653 38.0842 49.4096C39.4722 49.0182 40.4141 48.1153 40.9985 46.8236C41.3585 46.0304 41.5673 45.1927 41.6221 44.3212C41.6273 44.2194 41.6221 44.1098 41.7212 44.0394C41.8412 44.2299 41.9821 44.2064 42.1621 44.1124C42.7439 43.815 43.331 43.5279 43.858 43.1339C43.9389 43.0739 44.0224 42.9982 44.1398 43.0452C44.252 45.1119 44.1137 47.1446 43.2814 49.073C42.1204 51.7633 39.8453 53.0132 37.0145 52.8932C36.357 52.8645 35.71 52.7784 35.0708 52.6296H35.0681Z" fill="#302D82"/>
<path d="M10.4596 32.3621C10.0865 31.8846 9.78644 31.3601 9.48901 30.8356C9.77079 30.4286 10.1439 30.1024 10.4491 29.7162C10.8275 30.1963 11.1458 30.7104 11.378 31.2766C11.1223 31.6837 10.8849 32.1038 10.457 32.3621H10.4596Z" fill="#0A6BA8"/>
<path d="M44.1371 43.0478C43.4979 43.5044 42.817 43.8906 42.1047 44.2246C41.889 44.3255 41.7716 44.2603 41.7525 44.0289C41.6325 43.8489 41.6664 43.6688 41.7577 43.4888C42.0943 43.2096 42.4882 43.0243 42.8509 42.7868C43.2579 42.5207 43.6675 42.2623 44.0771 41.9988C44.1319 42.3458 44.158 42.6955 44.1398 43.0478H44.1371Z" fill="#32276A"/>
<path d="M30.3327 51.3039C29.9805 51.1735 29.7065 50.9177 29.396 50.7194C29.0777 50.5159 28.8012 50.2445 28.4307 50.1245C28.2533 49.9157 28.1124 49.6835 27.995 49.4356C28.2011 49.4278 28.3342 49.5817 28.4829 49.6783C28.8899 49.9418 29.3386 50.1427 29.6804 50.5002C29.9439 50.7299 30.2388 50.936 30.3301 51.3039H30.3327Z" fill="#CD5A18"/>
<path d="M26.2052 48.1022C26.4531 48.2144 26.6696 48.3684 26.8392 48.585C26.3252 48.6398 25.8217 48.7728 25.3025 48.7937C25.4434 48.6737 25.5817 48.5563 25.7225 48.4362C25.84 48.2614 25.9834 48.1231 26.2052 48.0996V48.1022Z" fill="#F0BD15"/>
<path d="M16.2699 32.2656C17.8458 31.6002 19.4477 31.0027 21.0862 30.5069C21.2584 30.4547 21.3549 30.3738 21.3602 30.1937C21.3758 30.3216 21.3836 30.4338 21.5767 30.3581C21.7646 30.2851 21.9733 30.272 22.1455 30.152C22.3098 30.0267 22.5107 29.998 22.6986 29.9511C23.3848 29.7841 24.0553 29.5466 24.7649 29.4788C24.9632 29.544 25.0754 29.7136 25.2111 29.8519C25.4303 30.0789 25.6781 30.2772 25.8921 30.5121C25.8216 30.6243 25.6964 30.6191 25.5894 30.6452C24.4388 30.9296 23.2908 31.2166 22.1663 31.5898C21.9133 31.6289 21.6732 31.7046 21.4489 31.8272C20.1704 32.2317 18.9364 32.7458 17.7179 33.3016C17.5092 33.3955 17.3109 33.5077 17.097 33.586C16.0247 34.0635 15.0071 34.635 14.0627 35.3369C12.6616 36.2398 11.3988 37.3018 10.3787 38.6274C9.71341 39.4911 9.24378 40.4514 9.17334 41.5604C9.13159 42.231 9.29074 42.8625 9.6247 43.447C10.183 44.423 11.0362 45.0753 12.012 45.5815C13.4522 46.3305 15.0045 46.7166 16.5961 46.9619C17.5223 47.1055 18.4563 47.1576 19.3877 47.2307C20.6088 47.3273 21.8193 47.2177 23.0352 47.2177C23.1395 47.2177 23.2674 47.155 23.343 47.2907C22.2603 48.0109 21.1462 48.6789 19.9774 49.2504C19.8104 49.3156 19.633 49.3235 19.4556 49.3261C17.3475 49.3574 15.2524 49.2165 13.1808 48.8225C11.3806 48.478 9.63774 47.964 8.05145 47.0089C7.36788 46.5966 6.74954 46.1034 6.25121 45.4772C5.02496 43.9272 4.93365 42.2519 5.72158 40.4827C6.35036 39.071 7.35744 37.949 8.48455 36.9313C9.78124 35.7597 11.2214 34.7889 12.7503 33.9409C12.8495 33.8861 12.9434 33.8104 13.0686 33.8339C14.1201 33.2781 15.1846 32.751 16.2725 32.2682L16.2699 32.2656Z" fill="#EEE423"/>
<path d="M23.6797 47.1054C23.8962 46.941 24.1102 46.7793 24.3267 46.6149C24.9764 47.082 25.6078 47.5725 26.2052 48.1022C26.0435 48.2144 25.8843 48.3267 25.7226 48.4389C25.0416 47.9953 24.3372 47.5882 23.6797 47.1054V47.1054Z" fill="#0A6BA8"/>
<path d="M21.8011 74.4548C22.2081 74.4548 22.5395 74.4548 22.8735 74.4548C22.9491 74.4548 23.0639 74.4235 23.0587 74.554C23.03 75.162 23.0743 75.7752 22.5291 76.2449C22.0255 76.6781 20.7497 76.7198 20.2957 76.4667C19.8939 76.2423 19.6643 75.8535 19.7087 75.4151C19.7504 74.9872 20.0479 74.6479 20.5071 74.5201C20.9558 74.3922 21.4176 74.4835 21.8011 74.4548V74.4548Z" fill="#FEFEFE"/>
<path d="M41.5854 73.1266C41.5881 72.4612 41.5854 71.7932 41.7603 71.1408C41.9742 70.3449 42.4647 69.964 43.2709 69.9666C44.0693 69.9666 44.5519 70.3319 44.7685 71.1173C44.9955 71.9419 44.9563 72.79 44.9459 73.6328C44.9381 74.1547 44.9094 74.674 44.7606 75.1776C44.5337 75.9474 44.051 76.2944 43.2344 76.2814C42.4412 76.2683 41.9716 75.9082 41.7655 75.1411C41.5881 74.4809 41.5854 73.8024 41.5854 73.1266Z" fill="white"/>
<path d="M32.3938 15.8941C32.5999 16.1863 32.806 16.476 33.0121 16.7682C32.96 16.9065 32.8269 16.9248 32.7095 16.9587C31.8563 17.204 31.0345 17.525 30.2648 17.9686C30.15 18.0364 30.0326 18.1199 29.8917 18.0182C29.6204 17.7416 29.3517 17.465 29.0803 17.1884C29.9204 16.7343 30.8179 16.416 31.7128 16.0846C31.9346 16.0037 32.1512 15.8915 32.3964 15.8915L32.3938 15.8941Z" fill="#32276A"/>
<path d="M29.8892 18.0181C30.1214 18.0364 30.2649 17.8615 30.4449 17.765C31.2615 17.3292 32.1355 17.0422 33.0122 16.7682C34.6141 18.9001 36.0569 21.1364 37.3954 23.4431C38.2981 25.0009 39.1356 26.5901 39.9027 28.2184C39.9548 28.328 40.0435 28.4297 40.0175 28.5654C39.0782 28.4741 38.1389 28.3828 37.1997 28.2914C35.1646 24.5808 32.7304 21.1572 29.8918 18.0181H29.8892Z" fill="#302D82"/>
<path d="M41.9533 33.158C42.7621 35.3394 43.383 37.5705 43.7848 39.8642C43.1534 40.4722 42.4542 40.9967 41.7159 41.469C41.5358 39.4336 41.0375 37.4713 40.4061 35.5378C40.5757 35.1542 40.8418 34.8306 41.0688 34.4809C41.3584 34.0373 41.6454 33.5911 41.9533 33.1606V33.158Z" fill="#302D82"/>
<path d="M42.4439 30.6425C42.2847 30.88 42.1282 31.1201 41.969 31.3575C41.8907 31.4071 41.8099 31.394 41.7316 31.368C41.1576 31.167 40.5654 31.0209 39.9835 30.8408C39.934 30.8252 39.8896 30.7991 39.8505 30.7626C39.8087 30.4103 40.0279 30.1937 40.2575 29.9797C41.0089 30.1259 41.742 30.3242 42.4439 30.6399V30.6425Z" fill="#0A6BA8"/>
<path d="M40.2574 29.9797C40.1139 30.2276 39.9731 30.4755 39.8296 30.7234C39.8165 30.7339 39.8009 30.7443 39.7878 30.7547C39.2895 30.726 38.7964 30.6817 38.3346 30.4677C38.1859 30.1833 38.0371 29.8962 37.8884 29.6118C38.6894 29.6614 39.4773 29.7945 40.2548 29.9771L40.2574 29.9797Z" fill="#32276A"/>
<path d="M26.7505 44.924C28.3342 43.7001 29.8448 42.3928 31.3189 41.0411C31.3894 41.0751 31.4233 41.1403 31.4494 41.2081C31.6764 41.8631 31.8903 42.5207 32.0651 43.1887C32.0155 43.4575 31.7912 43.601 31.6111 43.7602C30.6927 44.5821 29.7718 45.4041 28.8195 46.1869C28.7386 46.2548 28.6551 46.3122 28.5533 46.3435C27.9428 45.8816 27.3114 45.4432 26.7505 44.9214V44.924Z" fill="#19A2DC"/>
<path d="M24.7597 43.1209C24.7362 42.8443 24.5875 42.612 24.4858 42.3641C23.3456 39.5538 22.3985 36.6808 21.7932 33.7034C21.6967 33.2337 21.595 32.7667 21.561 32.2865C21.7098 32.096 21.9133 32.0699 22.135 32.096C22.2863 33.312 22.4899 34.5202 22.7873 35.7101C23.4787 38.4787 24.4597 41.1429 25.639 43.7367C25.6859 43.8411 25.7251 43.9481 25.7668 44.0524C25.4146 43.7576 25.065 43.4627 24.7571 43.1209H24.7597Z" fill="#E1701C"/>
<path d="M28.8038 46.5104C30.0979 46.2678 31.3711 45.9311 32.6365 45.571C32.7539 45.6624 32.767 45.8033 32.7931 45.9338C32.8739 46.3304 32.9496 46.727 33.0331 47.1237C33.0148 47.2045 32.947 47.2385 32.8792 47.2593C32.266 47.4342 31.6529 47.6168 31.0293 47.7577C30.938 47.7786 30.8467 47.7786 30.7554 47.7525C30.0718 47.395 29.417 46.988 28.8064 46.5104H28.8038Z" fill="#EEE423"/>
<path d="M17.0658 33.5364C17.2562 33.847 17.4441 34.1575 17.6345 34.468C17.4023 34.742 17.0475 34.8072 16.7579 34.9873C16.15 35.3656 15.5421 35.744 14.9655 36.1694C14.9003 36.2163 14.835 36.2268 14.7594 36.2242C14.5167 35.9006 14.2767 35.577 14.0341 35.2534C14.1019 35.1256 14.2376 35.0838 14.3498 35.0134C15.1351 34.515 15.936 34.0374 16.7762 33.633C16.8675 33.5886 16.9536 33.5234 17.0658 33.5338V33.5364Z" fill="#32276A"/>
<path d="M33.0748 48.9346C33.3018 49.0102 33.5287 49.0859 33.7531 49.159C33.8836 49.5426 33.821 49.9366 33.8131 50.3254C33.8027 50.8395 33.7244 51.3509 33.5418 51.8363C33.5 51.9485 33.4739 52.0763 33.3539 52.1468C32.96 52.1363 32.6077 52.0163 32.3234 51.7319C32.8687 51.4788 32.9182 50.9517 33.0095 50.4559C33.1009 49.9522 33.0722 49.4434 33.0748 48.9346Z" fill="#32276A"/>
<path d="M39.8322 30.7234C40.5549 30.9008 41.262 31.1253 41.969 31.3549C41.8333 31.5819 41.7003 31.8089 41.5646 32.0359C41.2594 32.6413 40.8237 33.158 40.4558 33.7216C40.3097 33.946 40.1844 34.1887 39.9627 34.3531C37.9433 37.1191 35.6943 39.6842 33.2548 42.0875C33.1818 42.1605 33.1035 42.2284 33.0278 42.2988C32.7643 41.5812 32.5008 40.8636 32.2373 40.1461C34.5724 37.8132 36.7327 35.3343 38.6007 32.6074C38.7469 32.3934 38.8825 32.1716 39.0234 31.9551C39.2191 31.4958 39.4774 31.0809 39.8192 30.7156L39.8296 30.7208L39.8322 30.7234Z" fill="#19A2DC"/>
<path d="M32.4278 42.9173C32.2921 43.0295 32.1564 43.1418 32.0208 43.254C31.7886 42.5155 31.5537 41.7796 31.3215 41.0412C31.4311 40.9237 31.5407 40.8063 31.6503 40.6863C31.9634 41.4117 32.2164 42.158 32.4278 42.9173Z" fill="#0B6BA8"/>
<path d="M33.5 47.0376C33.3278 46.9906 33.1843 47.1263 33.0173 47.1185C32.7982 46.9854 32.8947 46.7453 32.8373 46.56C32.7408 46.2391 32.7017 45.9025 32.639 45.5711C32.8034 45.5189 32.9678 45.4667 33.1295 45.4171C33.3174 45.9416 33.3852 46.4948 33.5 47.0376V47.0376Z" fill="#F2BD11"/>
<path d="M24.8146 29.5205C24.945 29.4814 25.0729 29.4422 25.2033 29.4031C25.6364 29.6562 25.8999 30.0685 26.1948 30.4521C26.0982 30.4625 25.9991 30.4729 25.9025 30.4834C25.7851 30.4782 25.686 30.439 25.6025 30.3477C25.3468 30.0633 25.039 29.831 24.8146 29.5205V29.5205Z" fill="#F2BD12"/>
<path d="M22.1377 32.096C21.9473 32.1587 21.7542 32.2239 21.5637 32.2865C21.462 32.1247 21.5402 31.9264 21.4515 31.762C21.6524 31.6081 21.8846 31.5376 22.1351 31.5298C22.1351 31.7177 22.1377 31.9055 22.1403 32.0934L22.1377 32.096Z" fill="#CE5B18"/>
<path d="M39.8191 30.7182C39.5712 31.1409 39.3208 31.5636 39.0233 31.9577C38.7937 31.4619 38.5668 30.9661 38.3372 30.4729C38.8329 30.5564 39.326 30.6373 39.8217 30.7208L39.8191 30.7182Z" fill="#302D83"/>
<path d="M39.9626 34.3557C40.4662 33.5625 40.9828 32.777 41.5646 32.0386C41.695 32.4117 41.8255 32.7849 41.956 33.158C41.956 33.2415 41.9351 33.3172 41.8855 33.3903C41.4368 34.0609 40.9906 34.7341 40.5419 35.4073C40.5079 35.4569 40.4531 35.4935 40.4088 35.5352C40.2601 35.1412 40.1114 34.7498 39.9653 34.3557H39.9626Z" fill="#32276A"/>
<path d="M51.2641 62.1039C52.7989 62.1105 53.8564 63.1833 53.8543 64.7204C53.8543 66.2377 52.6982 67.3368 51.1634 67.2886C49.6986 67.2427 48.6608 66.172 48.6674 64.6306C48.674 63.1658 49.7731 62.0951 51.2641 62.1017V62.1039Z" fill="#373736"/>
<path d="M51.2575 66.7414C50.0774 66.7392 49.2563 65.8918 49.2651 64.6832C49.2738 63.5053 50.119 62.6426 51.2641 62.647C52.4245 62.6514 53.2521 63.514 53.2499 64.7183C53.2499 65.9159 52.4311 66.7435 51.2575 66.7414Z" fill="white"/>
<path d="M52.3829 66.0801C52.3457 66.0976 52.3369 66.1041 52.3303 66.1041C52.0267 66.126 51.8333 65.9939 51.7501 65.7078C51.7063 65.5568 51.6626 65.4057 51.6166 65.2568C51.5662 65.0882 51.5268 64.9152 51.3035 64.8868C50.8765 64.832 50.8546 64.8496 50.8546 65.2831C50.8546 65.502 50.8437 65.721 50.8568 65.9377C50.8722 66.1676 50.7145 66.1063 50.5963 66.1085C50.4737 66.1107 50.3379 66.1545 50.3401 65.9312C50.3511 65.1101 50.3445 64.289 50.3445 63.468C50.3445 63.3716 50.3248 63.2687 50.4802 63.2753C50.8809 63.2906 51.2838 63.2403 51.6823 63.3016C52.0304 63.3541 52.2493 63.5621 52.3172 63.8752C52.3851 64.1861 52.2669 64.4773 51.991 64.6722C51.945 64.7051 51.8355 64.6985 51.9165 64.8058C52.199 65.1802 52.2034 65.6553 52.3829 66.0801V66.0801Z" fill="#373736"/>
<path d="M50.8547 64.103C50.8547 63.7133 50.8547 63.7111 51.2313 63.7155C51.3364 63.7155 51.4415 63.722 51.5444 63.7374C51.7392 63.7658 51.8312 63.8906 51.8312 64.0811C51.8312 64.2694 51.748 64.4073 51.5466 64.4271C51.3561 64.4446 51.159 64.4665 50.9729 64.4402C50.7364 64.4074 50.9204 64.195 50.8547 64.103Z" fill="white"/>
<path fill-rule="evenodd" clip-rule="evenodd" d="M37.3944 19.0735C37.7064 19.1697 38.1099 19.0852 38.2976 18.8858C38.4899 18.6816 38.3984 18.4306 38.0794 18.3297C37.9621 18.2898 37.8542 18.2569 37.7533 18.2311C37.636 18.1983 37.521 18.1701 37.4084 18.1467C36.1299 17.8815 34.7457 17.9777 33.5798 18.3461C32.4279 18.7121 31.5481 19.3339 31.215 20.0988C30.8959 20.8238 31.1305 21.5231 31.7405 22.0721H31.7428C32.3153 22.5859 33.2255 22.9637 34.3352 23.1021C35.412 23.2359 36.5263 23.1256 37.4741 22.8464C38.4289 22.5625 39.2571 22.0885 39.7357 21.4808C39.7779 21.4269 39.8201 21.3682 39.86 21.3048C39.8975 21.2509 39.9304 21.1875 39.9632 21.1195C40.0571 20.9365 39.8811 20.7628 39.5644 20.7417C39.243 20.7206 38.9122 20.8567 38.8254 21.0444C38.809 21.0819 38.7832 21.1265 38.7527 21.1781C38.7292 21.218 38.6987 21.2626 38.6659 21.3095C38.3304 21.7624 37.7298 22.1143 37.026 22.3232C36.3269 22.5343 35.5058 22.6094 34.7105 22.5038C33.8988 22.3935 33.2443 22.1096 32.8502 21.7319C32.4373 21.3377 32.2965 20.8332 32.5499 20.3194C32.8126 19.7891 33.4367 19.3621 34.2437 19.1087C35.0554 18.8553 36.0149 18.7849 36.9134 18.9585C37.0049 18.9773 37.087 18.996 37.1621 19.0148C37.2536 19.0359 37.331 19.0594 37.3944 19.0782M44.3549 21.9571C44.5473 21.8023 44.5191 21.6216 44.2916 21.5536C44.0617 21.4832 43.7168 21.5559 43.5268 21.7155C43.4564 21.7741 43.3931 21.8281 43.3438 21.875C43.2851 21.9313 43.2288 21.9853 43.1843 22.0346C42.6635 22.5977 42.5696 23.1444 42.823 23.5644C43.074 23.9773 43.6629 24.2659 44.4323 24.3621C45.2229 24.4607 46.1285 24.3574 46.966 24.1205C47.8082 23.8788 48.6129 23.4846 49.1877 22.9872C49.7835 22.4733 50.0322 21.9313 49.9407 21.4738C49.8422 20.974 49.3472 20.5939 48.5378 20.4297C48.4628 20.4156 48.3783 20.4015 48.2915 20.3898C48.2164 20.378 48.1249 20.371 48.0264 20.3616C47.7613 20.3405 47.4258 20.4695 47.2898 20.6526C47.1537 20.8285 47.2593 20.9881 47.5244 21.0092C47.5783 21.0139 47.6393 21.0186 47.7073 21.028C47.766 21.035 47.8246 21.0444 47.888 21.0561C48.4909 21.1688 48.8381 21.4386 48.9226 21.7765C49.0023 22.1026 48.8334 22.4921 48.4135 22.8675C48.0006 23.2335 47.4164 23.5245 46.7971 23.7028C46.1848 23.8811 45.5185 23.9515 44.9438 23.8764C44.3573 23.7967 43.9608 23.5785 43.8013 23.2828C43.6277 22.9637 43.7309 22.5719 44.1062 22.1824C44.1461 22.1401 44.186 22.1026 44.2259 22.0674C44.2752 22.0228 44.3174 21.9876 44.3549 21.9571V21.9571ZM51.4727 17.1424C51.2545 17.0368 50.8697 17.1237 50.6164 17.3278C50.3654 17.5319 50.3419 17.7736 50.5577 17.8698C50.7032 17.9355 50.8533 17.9918 51.0199 18.034C51.8832 18.2569 52.96 18.1631 54.0228 17.8346C55.0925 17.5014 56.1998 16.9172 57.0984 16.1405C58.0438 15.324 58.6021 14.423 58.7312 13.6159C58.8626 12.7548 58.5013 12.0039 57.584 11.605C56.6315 11.1897 55.3013 11.2507 53.9641 11.6989C52.6386 12.1447 51.3648 12.9425 50.4756 13.9467C50.3137 14.1321 50.1753 14.3151 50.0463 14.5004C49.8563 14.775 49.9665 15.0307 50.2856 15.08C50.5976 15.1269 51.0082 14.9509 51.1982 14.6835C51.292 14.5544 51.4046 14.4183 51.5196 14.2916C52.1624 13.5971 53.0562 13.0504 53.9805 12.7454C54.9119 12.4357 55.8339 12.3864 56.5095 12.6586C57.1687 12.9237 57.4526 13.4375 57.3869 14.0382C57.3189 14.6131 56.9341 15.263 56.2632 15.8637C55.6133 16.4432 54.8063 16.8796 54.0157 17.126C53.2322 17.3724 52.4345 17.4404 51.8011 17.2668C51.6838 17.2339 51.5665 17.194 51.4633 17.1424H51.4727ZM44.8828 12.6304C44.6177 12.912 44.6576 13.2663 44.9672 13.4164C45.2722 13.5689 45.7297 13.4704 45.9995 13.1959C46.1801 13.0082 46.3514 12.8181 46.5039 12.614C47.339 11.4901 47.6182 10.216 47.3648 9.03814C47.0833 7.76642 46.1824 6.62375 44.6927 5.97381C43.1209 5.28868 41.2817 5.3098 39.6371 5.91516C38.009 6.51347 36.6788 7.63972 36.0431 9.09211C35.4519 10.4413 35.5997 11.7904 36.2683 12.8627C36.9134 13.8904 38.0278 14.6506 39.3345 14.9932C39.5855 15.0589 39.8412 15.1058 40.104 15.1433C40.4911 15.1973 40.8969 15.0119 41.0189 14.7233C41.1409 14.4347 40.9251 14.1438 40.5263 14.0851C40.3339 14.057 40.1392 14.0124 39.9562 13.9608C38.9568 13.6792 38.199 13.0903 37.7838 12.3512C37.324 11.5393 37.3005 10.5773 37.7439 9.66462C38.2225 8.67211 39.1609 7.90955 40.287 7.50598C41.4224 7.09302 42.6846 7.06721 43.7895 7.51536C44.8499 7.94475 45.5256 8.72139 45.7602 9.60127C45.983 10.4389 45.8235 11.361 45.2417 12.1893C45.1361 12.3395 45.0165 12.492 44.8851 12.6281L44.8828 12.6304Z" fill="#E1701C"/>
<path fill-rule="evenodd" clip-rule="evenodd" d="M44.9156 16.6896C45.6429 16.6896 46.1285 17.2785 45.9971 18.0082C45.8681 18.7356 45.1737 19.3269 44.4464 19.3269C43.7192 19.3269 43.2336 18.7379 43.3626 18.0082C43.4916 17.2809 44.186 16.6896 44.9156 16.6896M37.1504 20.9951C37.2935 20.7839 37.1879 20.9365 37.1997 20.9083C39.3814 20.2419 41.2981 20.1035 42.7667 20.3991C44.1626 20.6807 45.0822 21.3471 45.474 22.2575C45.4482 22.2786 45.5796 22.1472 45.4013 22.3231C45.2253 22.4968 45.223 22.9754 45.7156 23.0482C46.2106 23.1233 46.8652 22.9309 47.21 22.6118C47.5549 22.2926 47.2194 21.9102 46.9496 21.8656C46.6798 21.8187 46.8745 21.8539 46.8347 21.8515C46.4734 20.8403 46.5907 19.8501 47.4446 18.8928C48.3549 17.8698 50.0651 16.9195 52.7888 16.0561C52.8216 16.0701 52.6035 16.0068 52.8897 16.0959C53.1759 16.1828 54.2715 15.9997 54.8157 15.4836C55.36 14.9697 55.3976 14.3737 54.8439 14.1743C54.2902 13.9772 53.1149 14.5286 52.824 14.8266C52.5331 15.1246 52.7489 14.9063 52.7137 14.9486C49.8774 15.8613 47.9021 16.0302 46.4757 15.568C44.9626 15.0776 43.9421 13.8388 43.189 11.8092C43.2265 11.7646 43.0412 12.0579 43.2899 11.6731C43.5362 11.2883 43.4752 10.1057 42.5978 9.78897C41.7204 9.47221 40.599 9.86874 40.1767 10.6313C39.7545 11.3939 40.5451 12.3066 41.0049 12.4497C41.4647 12.5929 41.1292 12.4849 41.1949 12.499C42.2037 14.7585 42.1028 16.3142 41.1949 17.4733C40.3456 18.5573 38.7386 19.3714 36.5099 20.0613C36.4654 20.0495 36.7563 20.0988 36.3715 20.0308C35.9844 19.9627 34.8349 20.1622 34.5933 20.5822C34.3516 21.0022 34.7528 21.4128 35.4425 21.516C36.1322 21.6216 37.0049 21.2063 37.1481 20.9951H37.1504Z" fill="#E1701C"/>
</svg>
