<svg width="31" height="31" viewBox="0 0 31 31" fill="none" xmlns="http://www.w3.org/2000/svg">
<path d="M15.5 0.5C7.21652 0.5 0.5 7.21652 0.5 15.5C0.5 23.7835 7.21652 30.5 15.5 30.5C23.7835 30.5 30.5 23.7835 30.5 15.5C30.5 7.21652 23.7835 0.5 15.5 0.5ZM20.3248 15.731L13.0123 21.0513C12.9722 21.0801 12.9249 21.0973 12.8757 21.101C12.8265 21.1047 12.7772 21.0948 12.7332 21.0723C12.6893 21.0498 12.6524 21.0156 12.6266 20.9736C12.6008 20.9315 12.5871 20.8831 12.5871 20.8337V10.1998C12.5869 10.1503 12.6004 10.1018 12.6262 10.0595C12.6519 10.0173 12.6888 9.98299 12.7329 9.96046C12.7769 9.93792 12.8263 9.92802 12.8756 9.93184C12.925 9.93567 12.9722 9.95308 13.0123 9.98214L20.3248 15.2991C20.3593 15.3235 20.3875 15.3559 20.407 15.3935C20.4264 15.4311 20.4366 15.4728 20.4366 15.5151C20.4366 15.5574 20.4264 15.5991 20.407 15.6367C20.3875 15.6742 20.3593 15.7066 20.3248 15.731Z" fill="white"/>
</svg>
