<svg width="18" height="12" viewBox="0 0 18 12" fill="none" xmlns="http://www.w3.org/2000/svg">
<path d="M6.3175 4.1825C6.25944 4.1243 6.19047 4.07812 6.11454 4.04661C6.03861 4.0151 5.95721 3.99888 5.875 3.99888C5.79279 3.99888 5.71139 4.0151 5.63546 4.04661C5.55953 4.07812 5.49056 4.1243 5.4325 4.1825L4.625 4.99125L3.8175 4.1825C3.75939 4.12439 3.6904 4.07829 3.61448 4.04685C3.53855 4.0154 3.45718 3.99921 3.375 3.99921C3.29282 3.99921 3.21145 4.0154 3.13552 4.04685C3.0596 4.07829 2.99061 4.12439 2.9325 4.1825C2.87439 4.24061 2.82829 4.3096 2.79685 4.38552C2.7654 4.46144 2.74921 4.54282 2.74921 4.625C2.74921 4.70718 2.7654 4.78856 2.79685 4.86448C2.82829 4.9404 2.87439 5.00939 2.9325 5.0675L3.74125 5.875L2.9325 6.6825C2.87439 6.74061 2.82829 6.8096 2.79685 6.88552C2.7654 6.96144 2.74921 7.04282 2.74921 7.125C2.74921 7.20718 2.7654 7.28856 2.79685 7.36448C2.82829 7.4404 2.87439 7.50939 2.9325 7.5675C3.04986 7.68486 3.20903 7.75079 3.375 7.75079C3.45718 7.75079 3.53855 7.7346 3.61448 7.70315C3.6904 7.67171 3.75939 7.62561 3.8175 7.5675L4.625 6.75875L5.4325 7.5675C5.49061 7.62561 5.5596 7.67171 5.63552 7.70315C5.71144 7.7346 5.79282 7.75079 5.875 7.75079C5.95718 7.75079 6.03856 7.7346 6.11448 7.70315C6.1904 7.67171 6.25939 7.62561 6.3175 7.5675C6.37561 7.50939 6.42171 7.4404 6.45315 7.36448C6.4846 7.28856 6.50079 7.20718 6.50079 7.125C6.50079 7.04282 6.4846 6.96144 6.45315 6.88552C6.42171 6.8096 6.37561 6.74061 6.3175 6.6825L5.50875 5.875L6.3175 5.0675C6.3757 5.00944 6.42188 4.94047 6.45339 4.86454C6.4849 4.78861 6.50112 4.70721 6.50112 4.625C6.50112 4.54279 6.4849 4.46139 6.45339 4.38546C6.42188 4.30953 6.3757 4.24056 6.3175 4.1825ZM10.4325 4.1825C10.4906 4.12439 10.5596 4.07829 10.6355 4.04685C10.7114 4.0154 10.7928 3.99921 10.875 3.99921C10.9572 3.99921 11.0386 4.0154 11.1145 4.04685C11.1904 4.07829 11.2594 4.12439 11.3175 4.1825C11.3756 4.24061 11.4217 4.3096 11.4532 4.38552C11.4846 4.46144 11.5008 4.54282 11.5008 4.625C11.5008 4.70718 11.4846 4.78856 11.4532 4.86448C11.4217 4.9404 11.3756 5.00939 11.3175 5.0675L10.5087 5.875L11.3175 6.6825C11.4349 6.79986 11.5008 6.95903 11.5008 7.125C11.5008 7.29097 11.4349 7.45014 11.3175 7.5675C11.2001 7.68486 11.041 7.75079 10.875 7.75079C10.709 7.75079 10.5499 7.68486 10.4325 7.5675L9.625 6.75875L8.8175 7.5675C8.75939 7.62561 8.6904 7.67171 8.61448 7.70315C8.53856 7.7346 8.45718 7.75079 8.375 7.75079C8.29282 7.75079 8.21144 7.7346 8.13552 7.70315C8.0596 7.67171 7.99061 7.62561 7.9325 7.5675C7.87439 7.50939 7.82829 7.4404 7.79685 7.36448C7.7654 7.28856 7.74921 7.20718 7.74921 7.125C7.74921 7.04282 7.7654 6.96144 7.79685 6.88552C7.82829 6.8096 7.87439 6.74061 7.9325 6.6825L8.74125 5.875L7.9325 5.0675C7.87439 5.00939 7.82829 4.9404 7.79685 4.86448C7.7654 4.78856 7.74921 4.70718 7.74921 4.625C7.74921 4.54282 7.7654 4.46144 7.79685 4.38552C7.82829 4.3096 7.87439 4.24061 7.9325 4.1825C7.99061 4.12439 8.0596 4.07829 8.13552 4.04685C8.21144 4.0154 8.29282 3.99921 8.375 3.99921C8.45718 3.99921 8.53856 4.0154 8.61448 4.04685C8.6904 4.07829 8.75939 4.12439 8.8175 4.1825L9.625 4.99125L10.4325 4.1825ZM13.375 6.5C13.2092 6.5 13.0503 6.56585 12.9331 6.68306C12.8158 6.80027 12.75 6.95924 12.75 7.125C12.75 7.29076 12.8158 7.44973 12.9331 7.56694C13.0503 7.68415 13.2092 7.75 13.375 7.75H14.625C14.7908 7.75 14.9497 7.68415 15.0669 7.56694C15.1842 7.44973 15.25 7.29076 15.25 7.125C15.25 6.95924 15.1842 6.80027 15.0669 6.68306C14.9497 6.56585 14.7908 6.5 14.625 6.5H13.375ZM3.375 0.25C2.5462 0.25 1.75134 0.57924 1.16529 1.16529C0.57924 1.75134 0.25 2.5462 0.25 3.375V8.375C0.25 8.78538 0.330831 9.19174 0.487876 9.57089C0.644922 9.95003 0.875108 10.2945 1.16529 10.5847C1.75134 11.1708 2.5462 11.5 3.375 11.5H14.625C15.0354 11.5 15.4417 11.4192 15.8209 11.2621C16.2 11.1051 16.5445 10.8749 16.8347 10.5847C17.1249 10.2945 17.3551 9.95003 17.5121 9.57089C17.6692 9.19174 17.75 8.78538 17.75 8.375V3.375C17.75 2.5462 17.4208 1.75134 16.8347 1.16529C16.2487 0.57924 15.4538 0.25 14.625 0.25H3.375ZM1.5 3.375C1.5 2.87772 1.69754 2.40081 2.04917 2.04917C2.40081 1.69754 2.87772 1.5 3.375 1.5H14.625C15.1223 1.5 15.5992 1.69754 15.9508 2.04917C16.3025 2.40081 16.5 2.87772 16.5 3.375V8.375C16.5 8.87228 16.3025 9.34919 15.9508 9.70083C15.5992 10.0525 15.1223 10.25 14.625 10.25H3.375C2.87772 10.25 2.40081 10.0525 2.04917 9.70083C1.69754 9.34919 1.5 8.87228 1.5 8.375V3.375Z" fill="#686868"/>
</svg>
