<svg width="42" height="42" viewBox="0 0 42 42" fill="none" xmlns="http://www.w3.org/2000/svg">
<path d="M28.7293 19.5209C28.919 19.719 29.0677 19.9527 29.1668 20.2084C29.3752 20.7156 29.3752 21.2845 29.1668 21.7917C29.0677 22.0475 28.919 22.2811 28.7293 22.4792L22.4793 28.7292C22.087 29.1215 21.555 29.3419 21.0002 29.3419C20.4454 29.3419 19.9133 29.1215 19.521 28.7292C19.1287 28.3369 18.9083 27.8049 18.9083 27.2501C18.9083 26.6953 19.1287 26.1632 19.521 25.7709L22.2293 23.0834H14.7502C14.1976 23.0834 13.6677 22.8639 13.277 22.4732C12.8863 22.0825 12.6668 21.5526 12.6668 21.0001C12.6668 20.4475 12.8863 19.9176 13.277 19.5269C13.6677 19.1362 14.1976 18.9167 14.7502 18.9167H22.2293L19.521 16.2292C19.3257 16.0356 19.1707 15.8052 19.065 15.5513C18.9592 15.2974 18.9048 15.0251 18.9048 14.7501C18.9048 14.4751 18.9592 14.2028 19.065 13.9489C19.1707 13.695 19.3257 13.4646 19.521 13.2709C19.7147 13.0756 19.9451 12.9207 20.199 12.8149C20.4528 12.7091 20.7251 12.6547 21.0002 12.6547C21.2752 12.6547 21.5475 12.7091 21.8014 12.8149C22.0552 12.9207 22.2857 13.0756 22.4793 13.2709L28.7293 19.5209ZM41.8335 21.0001C41.8335 25.1205 40.6116 29.1484 38.3224 32.5745C36.0333 36.0005 32.7795 38.6707 28.9727 40.2476C25.1659 41.8244 20.9771 42.237 16.9358 41.4331C12.8945 40.6292 9.18237 38.6451 6.26877 35.7315C3.35518 32.8179 1.37099 29.1057 0.567135 25.0645C-0.236725 21.0232 0.175846 16.8343 1.75267 13.0275C3.3295 9.22071 5.99976 5.96699 9.42579 3.6778C12.8518 1.3886 16.8797 0.166748 21.0002 0.166748C23.736 0.166748 26.4451 0.705618 28.9727 1.75259C31.5004 2.79956 33.797 4.33414 35.7316 6.26869C39.6386 10.1757 41.8335 15.4747 41.8335 21.0001ZM4.3335 21.0001C4.3335 24.2964 5.31098 27.5188 7.14234 30.2596C8.97369 33.0004 11.5767 35.1366 14.6221 36.3981C17.6675 37.6595 21.0187 37.9896 24.2517 37.3465C27.4847 36.7034 30.4544 35.1161 32.7853 32.7852C35.1162 30.4543 36.7035 27.4846 37.3466 24.2516C37.9897 21.0186 37.6596 17.6675 36.3982 14.622C35.1367 11.5766 33.0005 8.97361 30.2597 7.14225C27.5188 5.3109 24.2965 4.33341 21.0002 4.33341C16.5799 4.33341 12.3407 6.08936 9.21505 9.21497C6.08944 12.3406 4.3335 16.5798 4.3335 21.0001Z" fill="#20315F"/>
</svg>
