<svg width="23" height="24" viewBox="0 0 23 24" fill="none" xmlns="http://www.w3.org/2000/svg">
<path d="M22.1009 2.062C22.0559 1.89064 21.9662 1.73433 21.8409 1.60905C21.7156 1.48377 21.5593 1.39403 21.3879 1.349C19.3367 0.81634 17.1768 0.8738 15.1567 1.51476C13.1367 2.15572 11.3388 3.35413 9.96994 4.972L8.85394 6.296L6.24994 5.668C5.6167 5.44705 4.92488 5.46274 4.3023 5.71218C3.67973 5.96161 3.16846 6.42794 2.86294 7.025L0.662944 10.925C0.585916 11.0616 0.542077 11.2143 0.534965 11.3709C0.527853 11.5276 0.557668 11.6837 0.622003 11.8266C0.686337 11.9696 0.783389 12.0955 0.905322 12.194C1.02726 12.2926 1.17066 12.3611 1.32394 12.394L4.39694 13.053C4.13672 13.8453 3.95091 14.6602 3.84194 15.487C3.82214 15.6388 3.83744 15.7931 3.88668 15.938C3.93592 16.083 4.01778 16.2147 4.12594 16.323L7.22594 19.423C7.3189 19.516 7.42928 19.5897 7.55077 19.64C7.67225 19.6903 7.80246 19.7161 7.93394 19.716C7.96266 19.7161 7.99136 19.7148 8.01994 19.712C8.86543 19.636 9.70064 19.4718 10.5119 19.222L11.1559 22.226C11.1889 22.3793 11.2574 22.5227 11.3559 22.6446C11.4545 22.7666 11.5803 22.8636 11.7233 22.9279C11.8663 22.9923 12.0224 23.0221 12.179 23.015C12.3356 23.0079 12.4884 22.964 12.6249 22.887L16.5299 20.685C17.0797 20.351 17.5091 19.8511 17.7562 19.2572C18.0034 18.6634 18.0554 18.0064 17.9049 17.381L17.2369 14.621L18.4739 13.484C20.0977 12.1187 21.3005 10.3205 21.9424 8.29852C22.5843 6.27652 22.6389 4.11383 22.0999 2.062H22.1009ZM3.07194 10.723L4.62794 7.963C4.72477 7.77577 4.88952 7.63264 5.08844 7.56292C5.28737 7.4932 5.50542 7.50217 5.69794 7.588L7.41594 8.004L6.76594 8.776C6.14947 9.5145 5.61625 10.3187 5.17594 11.174L3.07194 10.723ZM15.5419 18.945L12.8269 20.477L12.3969 18.472C13.2678 18.0378 14.0791 17.4933 14.8109 16.852L15.5539 16.169L15.9579 17.833C16.0102 18.0387 15.9984 18.2554 15.924 18.4541C15.8497 18.6529 15.7164 18.8241 15.5419 18.945ZM17.1569 11.98L13.4719 15.366C12.0136 16.6272 10.2148 17.4288 8.30194 17.67L5.89694 15.266C6.2199 13.348 7.04873 11.5508 8.29794 10.06L9.97694 8.067C10.0048 8.03799 10.0309 8.00726 10.0549 7.975L11.4899 6.27C12.551 5.01688 13.9256 4.06779 15.4734 3.51965C17.0212 2.97151 18.6867 2.84395 20.2999 3.15C20.6133 4.76824 20.487 6.44089 19.9342 7.99372C19.3814 9.54656 18.4223 10.9228 17.1569 11.979V11.98ZM16.2339 5.816C15.9373 5.816 15.6473 5.90397 15.4006 6.06879C15.1539 6.23361 14.9617 6.46788 14.8481 6.74197C14.7346 7.01606 14.7049 7.31766 14.7628 7.60863C14.8206 7.8996 14.9635 8.16688 15.1733 8.37666C15.3831 8.58644 15.6503 8.7293 15.9413 8.78718C16.2323 8.84505 16.5339 8.81535 16.808 8.70182C17.0821 8.58828 17.3163 8.39603 17.4811 8.14935C17.646 7.90268 17.7339 7.61267 17.7339 7.316C17.7339 6.91817 17.5759 6.53664 17.2946 6.25534C17.0133 5.97403 16.6318 5.816 16.2339 5.816Z" fill="#20315F"/>
</svg>
