<svg width="21" height="21" viewBox="0 0 21 21" fill="none" xmlns="http://www.w3.org/2000/svg">
<path d="M19.82 8.05L17.93 7.42L18.82 5.64C18.9102 5.45369 18.9404 5.24397 18.9064 5.03978C18.8723 4.83558 18.7758 4.64699 18.63 4.5L16.5 2.37C16.3522 2.22209 16.1618 2.12421 15.9555 2.09013C15.7493 2.05605 15.5375 2.08748 15.35 2.18L13.57 3.07L12.94 1.18C12.8735 0.982996 12.7472 0.811629 12.5787 0.689751C12.4102 0.567874 12.2079 0.501548 12 0.500003H9C8.79036 0.499462 8.58585 0.564822 8.41537 0.686845C8.2449 0.808868 8.11709 0.981382 8.05 1.18L7.42 3.07L5.64 2.18C5.45369 2.08978 5.24397 2.05961 5.03978 2.09364C4.83558 2.12767 4.64699 2.22423 4.5 2.37L2.37 4.5C2.22209 4.64777 2.12421 4.83818 2.09013 5.04446C2.05605 5.25074 2.08748 5.46251 2.18 5.65L3.07 7.43L1.18 8.06C0.982996 8.12654 0.811629 8.25283 0.689751 8.42131C0.567874 8.58979 0.501548 8.79207 0.500003 9V12C0.499462 12.2096 0.564822 12.4142 0.686845 12.5846C0.808868 12.7551 0.981382 12.8829 1.18 12.95L3.07 13.58L2.18 15.36C2.08978 15.5463 2.05961 15.756 2.09364 15.9602C2.12767 16.1644 2.22423 16.353 2.37 16.5L4.5 18.63C4.64777 18.7779 4.83818 18.8758 5.04446 18.9099C5.25074 18.944 5.46251 18.9125 5.65 18.82L7.43 17.93L8.06 19.82C8.12709 20.0186 8.2549 20.1911 8.42537 20.3132C8.59585 20.4352 8.80036 20.5005 9.01 20.5H12.01C12.2196 20.5005 12.4242 20.4352 12.5946 20.3132C12.7651 20.1911 12.8929 20.0186 12.96 19.82L13.59 17.93L15.37 18.82C15.5551 18.9079 15.7628 18.9369 15.9649 18.9029C16.167 18.8689 16.3538 18.7737 16.5 18.63L18.63 16.5C18.7779 16.3522 18.8758 16.1618 18.9099 15.9555C18.944 15.7493 18.9125 15.5375 18.82 15.35L17.93 13.57L19.82 12.94C20.017 12.8735 20.1884 12.7472 20.3103 12.5787C20.4321 12.4102 20.4985 12.2079 20.5 12V9C20.5005 8.79036 20.4352 8.58585 20.3132 8.41537C20.1911 8.2449 20.0186 8.11709 19.82 8.05V8.05ZM18.5 11.28L17.3 11.68C17.0241 11.7695 16.7709 11.918 16.5581 12.1151C16.3452 12.3122 16.1778 12.5533 16.0675 12.8216C15.9571 13.0899 15.9064 13.379 15.919 13.6688C15.9315 13.9586 16.0069 14.2422 16.14 14.5L16.71 15.64L15.61 16.74L14.5 16.14C14.2436 16.0122 13.9627 15.9411 13.6763 15.9313C13.39 15.9215 13.1049 15.9734 12.8403 16.0834C12.5758 16.1934 12.3379 16.3589 12.1429 16.5688C11.9479 16.7787 11.8003 17.0281 11.71 17.3L11.31 18.5H9.72L9.32 17.3C9.23049 17.0241 9.08203 16.7709 8.8849 16.5581C8.68778 16.3452 8.44671 16.1778 8.17842 16.0675C7.91014 15.9571 7.62105 15.9064 7.33123 15.919C7.0414 15.9315 6.75777 16.0069 6.5 16.14L5.36 16.71L4.26 15.61L4.86 14.5C4.9931 14.2422 5.06852 13.9586 5.08105 13.6688C5.09357 13.379 5.0429 13.0899 4.93254 12.8216C4.82218 12.5533 4.65478 12.3122 4.44195 12.1151C4.22912 11.918 3.97595 11.7695 3.7 11.68L2.5 11.28V9.72L3.7 9.32C3.97595 9.23049 4.22912 9.08203 4.44195 8.8849C4.65478 8.68778 4.82218 8.44671 4.93254 8.17842C5.0429 7.91014 5.09357 7.62105 5.08105 7.33123C5.06852 7.0414 4.9931 6.75777 4.86 6.5L4.29 5.39L5.39 4.29L6.5 4.86C6.75777 4.9931 7.0414 5.06852 7.33123 5.08105C7.62105 5.09357 7.91014 5.0429 8.17842 4.93254C8.44671 4.82218 8.68778 4.65478 8.8849 4.44195C9.08203 4.22912 9.23049 3.97595 9.32 3.7L9.72 2.5H11.28L11.68 3.7C11.7695 3.97595 11.918 4.22912 12.1151 4.44195C12.3122 4.65478 12.5533 4.82218 12.8216 4.93254C13.0899 5.0429 13.379 5.09357 13.6688 5.08105C13.9586 5.06852 14.2422 4.9931 14.5 4.86L15.64 4.29L16.74 5.39L16.14 6.5C16.0122 6.75645 15.9411 7.03735 15.9313 7.32369C15.9215 7.61003 15.9734 7.89513 16.0834 8.15969C16.1934 8.42424 16.3589 8.66207 16.5688 8.85708C16.7787 9.0521 17.0281 9.19973 17.3 9.29L18.5 9.69V11.28ZM10.5 6.5C9.70888 6.5 8.93552 6.7346 8.27772 7.17413C7.61993 7.61365 7.10724 8.23836 6.80448 8.96927C6.50173 9.70017 6.42252 10.5044 6.57686 11.2804C6.7312 12.0563 7.11217 12.769 7.67158 13.3284C8.23099 13.8878 8.94372 14.2688 9.71964 14.4231C10.4956 14.5775 11.2998 14.4983 12.0307 14.1955C12.7616 13.8928 13.3864 13.3801 13.8259 12.7223C14.2654 12.0645 14.5 11.2911 14.5 10.5C14.5 9.43914 14.0786 8.42172 13.3284 7.67158C12.5783 6.92143 11.5609 6.5 10.5 6.5V6.5ZM10.5 12.5C10.1044 12.5 9.71776 12.3827 9.38886 12.1629C9.05996 11.9432 8.80362 11.6308 8.65224 11.2654C8.50087 10.8999 8.46126 10.4978 8.53843 10.1098C8.6156 9.72186 8.80608 9.36549 9.08579 9.08579C9.36549 8.80608 9.72186 8.6156 10.1098 8.53843C10.4978 8.46126 10.8999 8.50087 11.2654 8.65224C11.6308 8.80362 11.9432 9.05996 12.1629 9.38886C12.3827 9.71776 12.5 10.1044 12.5 10.5C12.5 11.0304 12.2893 11.5391 11.9142 11.9142C11.5391 12.2893 11.0304 12.5 10.5 12.5Z" fill="white"/>
</svg>
