<svg width="20" height="20" viewBox="0 0 20 20" fill="none" xmlns="http://www.w3.org/2000/svg">
<path d="M10.1101 13.39L6.23008 17.27C5.76032 17.7233 5.13294 17.9767 4.48008 17.9767C3.82722 17.9767 3.19984 17.7233 2.73008 17.27C2.49969 17.0405 2.31687 16.7678 2.19213 16.4675C2.06739 16.1671 2.00318 15.8452 2.00318 15.52C2.00318 15.1948 2.06739 14.8728 2.19213 14.5725C2.31687 14.2722 2.49969 13.9995 2.73008 13.77L6.61008 9.88997C6.79838 9.70167 6.90417 9.44627 6.90417 9.17997C6.90417 8.91367 6.79838 8.65828 6.61008 8.46997C6.42178 8.28167 6.16638 8.17588 5.90008 8.17588C5.63378 8.17588 5.37838 8.28167 5.19008 8.46997L1.31008 12.36C0.528437 13.2108 0.105701 14.3306 0.130155 15.4857C0.154609 16.6408 0.624362 17.7418 1.44131 18.5587C2.25826 19.3757 3.35924 19.8454 4.51433 19.8699C5.66941 19.8944 6.78929 19.4716 7.64008 18.69L11.5301 14.81C11.6233 14.7167 11.6973 14.606 11.7477 14.4842C11.7982 14.3624 11.8242 14.2318 11.8242 14.1C11.8242 13.9681 11.7982 13.8375 11.7477 13.7157C11.6973 13.5939 11.6233 13.4832 11.5301 13.39C11.4368 13.2967 11.3262 13.2228 11.2043 13.1723C11.0825 13.1219 10.9519 13.0959 10.8201 13.0959C10.6882 13.0959 10.5577 13.1219 10.4358 13.1723C10.314 13.2228 10.2033 13.2967 10.1101 13.39V13.39ZM18.6901 1.30997C17.8489 0.47398 16.7111 0.00476074 15.5251 0.00476074C14.3391 0.00476074 13.2013 0.47398 12.3601 1.30997L8.47008 5.18997C8.37684 5.28321 8.30288 5.3939 8.25242 5.51572C8.20196 5.63755 8.17599 5.76811 8.17599 5.89997C8.17599 6.03183 8.20196 6.1624 8.25242 6.28422C8.30288 6.40604 8.37684 6.51673 8.47008 6.60997C8.56332 6.70321 8.67401 6.77717 8.79583 6.82763C8.91765 6.87809 9.04822 6.90406 9.18008 6.90406C9.31194 6.90406 9.44251 6.87809 9.56433 6.82763C9.68615 6.77717 9.79684 6.70321 9.89008 6.60997L13.7701 2.72997C14.2398 2.2766 14.8672 2.02323 15.5201 2.02323C16.1729 2.02323 16.8003 2.2766 17.2701 2.72997C17.5005 2.95946 17.6833 3.23218 17.808 3.53249C17.9328 3.8328 17.997 4.15479 17.997 4.47997C17.997 4.80516 17.9328 5.12714 17.808 5.42745C17.6833 5.72776 17.5005 6.00049 17.2701 6.22997L13.3901 10.11C13.2964 10.2029 13.222 10.3135 13.1712 10.4354C13.1204 10.5573 13.0943 10.688 13.0943 10.82C13.0943 10.952 13.1204 11.0827 13.1712 11.2045C13.222 11.3264 13.2964 11.437 13.3901 11.53C13.483 11.6237 13.5936 11.6981 13.7155 11.7489C13.8374 11.7996 13.9681 11.8258 14.1001 11.8258C14.2321 11.8258 14.3628 11.7996 14.4847 11.7489C14.6065 11.6981 14.7171 11.6237 14.8101 11.53L18.6901 7.63997C19.5261 6.79875 19.9953 5.66095 19.9953 4.47497C19.9953 3.289 19.5261 2.15119 18.6901 1.30997V1.30997ZM6.83008 13.17C6.92352 13.2627 7.03434 13.336 7.15617 13.3857C7.27801 13.4355 7.40847 13.4607 7.54008 13.46C7.67169 13.4607 7.80215 13.4355 7.92399 13.3857C8.04582 13.336 8.15664 13.2627 8.25008 13.17L13.1701 8.24997C13.3584 8.06167 13.4642 7.80627 13.4642 7.53997C13.4642 7.27367 13.3584 7.01828 13.1701 6.82997C12.9818 6.64167 12.7264 6.53588 12.4601 6.53588C12.1938 6.53588 11.9384 6.64167 11.7501 6.82997L6.83008 11.75C6.73635 11.8429 6.66196 11.9535 6.61119 12.0754C6.56042 12.1973 6.53428 12.328 6.53428 12.46C6.53428 12.592 6.56042 12.7227 6.61119 12.8445C6.66196 12.9664 6.73635 13.077 6.83008 13.17Z" fill="white"/>
</svg>
