<svg width="24" height="24" viewBox="0 0 24 24" fill="none" xmlns="http://www.w3.org/2000/svg">
<path d="M11.541 20.4594C16.2354 20.4594 20.041 16.6538 20.041 11.9594C20.041 7.26496 16.2354 3.45938 11.541 3.45938C6.8466 3.45938 3.04102 7.26496 3.04102 11.9594C3.04102 16.6538 6.8466 20.4594 11.541 20.4594Z" stroke="#20315F" stroke-width="2" stroke-linecap="round" stroke-linejoin="round"/>
<path d="M9.06799 9.40918C9.26783 8.84109 9.66227 8.36207 10.1815 8.05694C10.7006 7.75181 11.3111 7.64027 11.9046 7.74208C12.4981 7.84389 13.0365 8.15247 13.4243 8.61318C13.8121 9.07388 14.0244 9.65697 14.0235 10.2592C14.0235 11.9592 11.4735 12.8092 11.4735 12.8092" stroke="#20315F" stroke-width="2" stroke-linecap="round" stroke-linejoin="round"/>
<path d="M11.5413 16.2094H11.5498" stroke="#20315F" stroke-width="2" stroke-linecap="round" stroke-linejoin="round"/>
</svg>
