<svg width="20" height="20" viewBox="0 0 20 20" fill="none" xmlns="http://www.w3.org/2000/svg">
<path d="M19 9H17.93C17.7068 7.23998 16.9049 5.60408 15.6504 4.34959C14.3959 3.0951 12.76 2.29319 11 2.07V1C11 0.734784 10.8946 0.48043 10.7071 0.292893C10.5196 0.105357 10.2652 0 10 0C9.73478 0 9.48043 0.105357 9.29289 0.292893C9.10536 0.48043 9 0.734784 9 1V2.07C7.23998 2.29319 5.60408 3.0951 4.34959 4.34959C3.0951 5.60408 2.29319 7.23998 2.07 9H1C0.734784 9 0.48043 9.10536 0.292893 9.29289C0.105357 9.48043 0 9.73478 0 10C0 10.2652 0.105357 10.5196 0.292893 10.7071C0.48043 10.8946 0.734784 11 1 11H2.07C2.29319 12.76 3.0951 14.3959 4.34959 15.6504C5.60408 16.9049 7.23998 17.7068 9 17.93V19C9 19.2652 9.10536 19.5196 9.29289 19.7071C9.48043 19.8946 9.73478 20 10 20C10.2652 20 10.5196 19.8946 10.7071 19.7071C10.8946 19.5196 11 19.2652 11 19V17.93C12.76 17.7068 14.3959 16.9049 15.6504 15.6504C16.9049 14.3959 17.7068 12.76 17.93 11H19C19.2652 11 19.5196 10.8946 19.7071 10.7071C19.8946 10.5196 20 10.2652 20 10C20 9.73478 19.8946 9.48043 19.7071 9.29289C19.5196 9.10536 19.2652 9 19 9ZM15 11H15.91C15.7016 12.2264 15.1171 13.3578 14.2374 14.2374C13.3578 15.1171 12.2264 15.7016 11 15.91V15C11 14.7348 10.8946 14.4804 10.7071 14.2929C10.5196 14.1054 10.2652 14 10 14C9.73478 14 9.48043 14.1054 9.29289 14.2929C9.10536 14.4804 9 14.7348 9 15V15.91C7.77356 15.7016 6.64222 15.1171 5.76256 14.2374C4.8829 13.3578 4.29842 12.2264 4.09 11H5C5.26522 11 5.51957 10.8946 5.70711 10.7071C5.89464 10.5196 6 10.2652 6 10C6 9.73478 5.89464 9.48043 5.70711 9.29289C5.51957 9.10536 5.26522 9 5 9H4.09C4.29842 7.77356 4.8829 6.64222 5.76256 5.76256C6.64222 4.8829 7.77356 4.29842 9 4.09V5C9 5.26522 9.10536 5.51957 9.29289 5.70711C9.48043 5.89464 9.73478 6 10 6C10.2652 6 10.5196 5.89464 10.7071 5.70711C10.8946 5.51957 11 5.26522 11 5V4.09C12.2264 4.29842 13.3578 4.8829 14.2374 5.76256C15.1171 6.64222 15.7016 7.77356 15.91 9H15C14.7348 9 14.4804 9.10536 14.2929 9.29289C14.1054 9.48043 14 9.73478 14 10C14 10.2652 14.1054 10.5196 14.2929 10.7071C14.4804 10.8946 14.7348 11 15 11ZM10 9C9.80222 9 9.60888 9.05865 9.44443 9.16853C9.27998 9.27841 9.15181 9.43459 9.07612 9.61732C9.00043 9.80004 8.98063 10.0011 9.01921 10.1951C9.0578 10.3891 9.15304 10.5673 9.29289 10.7071C9.43275 10.847 9.61093 10.9422 9.80491 10.9808C9.99889 11.0194 10.2 10.9996 10.3827 10.9239C10.5654 10.8482 10.7216 10.72 10.8315 10.5556C10.9414 10.3911 11 10.1978 11 10C11 9.73478 10.8946 9.48043 10.7071 9.29289C10.5196 9.10536 10.2652 9 10 9Z" fill="#20315F"/>
</svg>
