<svg width="20" height="15" viewBox="0 0 20 15" fill="none" xmlns="http://www.w3.org/2000/svg">
<path d="M11 1.5H3C1.89543 1.5 1 2.39543 1 3.5V11.5C1 12.6046 1.89543 13.5 3 13.5H11C12.1046 13.5 13 12.6046 13 11.5V3.5C13 2.39543 12.1046 1.5 11 1.5Z" stroke="#20315F" stroke-width="1.7" stroke-linecap="round" stroke-linejoin="round"/>
<path d="M13 5.5L17.553 3.224C17.7054 3.14783 17.8748 3.11188 18.045 3.11954C18.2152 3.12721 18.3806 3.17824 18.5256 3.2678C18.6706 3.35736 18.7902 3.48247 18.8733 3.63127C18.9563 3.78006 18.9999 3.94761 19 4.118V10.882C18.9999 11.0524 18.9563 11.2199 18.8733 11.3687C18.7902 11.5175 18.6706 11.6426 18.5256 11.7322C18.3806 11.8218 18.2152 11.8728 18.045 11.8805C17.8748 11.8881 17.7054 11.8522 17.553 11.776L13 9.5V5.5Z" stroke="#20315F" stroke-width="1.7" stroke-linecap="round" stroke-linejoin="round"/>
</svg>
