<svg width="16" height="8" viewBox="0 0 16 8" fill="none" xmlns="http://www.w3.org/2000/svg">
<path d="M8.00003 7.50003C7.76638 7.50049 7.53994 7.41911 7.36003 7.27003L1.36003 2.27003C1.15581 2.10029 1.02739 1.85638 1.00301 1.59196C0.978631 1.32753 1.06029 1.06425 1.23003 0.860031C1.39977 0.655814 1.64368 0.527391 1.90811 0.503011C2.17253 0.478631 2.43581 0.560293 2.64003 0.730031L8.00003 5.21003L13.36 0.890032C13.4623 0.806966 13.58 0.744934 13.7064 0.707502C13.8327 0.670071 13.9652 0.657977 14.0962 0.671916C14.2272 0.685855 14.3542 0.725552 14.4699 0.788726C14.5855 0.8519 14.6875 0.937305 14.77 1.04003C14.8616 1.14285 14.931 1.26348 14.9738 1.39435C15.0166 1.52523 15.0319 1.66353 15.0187 1.80059C15.0056 1.93765 14.9643 2.07053 14.8974 2.19088C14.8305 2.31124 14.7395 2.41649 14.63 2.50003L8.63003 7.33003C8.44495 7.45555 8.22313 7.5154 8.00003 7.50003Z" fill="white"/>
</svg>
