<svg width="30" height="31" viewBox="0 0 30 31" fill="none" xmlns="http://www.w3.org/2000/svg">
<path id="Vector" d="M28.9393 10.5265C30.7337 8.73212 29.9154 6.63632 28.9393 5.61713L24.6326 1.31068C22.8238 -0.48367 20.7422 0.334555 19.723 1.31068L17.2825 3.76536H13.5644C10.8369 3.76536 9.25777 5.20084 8.45386 6.85164L2.07998 13.2252V18.9671L1.06074 19.9719C-0.733708 21.7807 0.0845595 23.8621 1.06074 24.8813L5.36741 29.1877C6.14261 29.9629 6.97523 30.25 7.76479 30.25C8.78404 30.25 9.71715 29.7476 10.277 29.1877L14.153 25.2976H19.3067C21.7471 25.2976 22.9817 23.776 23.4267 22.2831C25.0489 21.8524 25.9389 20.6179 26.2978 19.4121C28.523 18.8379 29.3556 16.7278 29.3556 15.2492V10.9428H28.5086L28.9393 10.5265ZM26.4845 15.2492C26.4845 15.8952 26.2117 16.6847 25.0489 16.6847H23.6133V18.1202C23.6133 18.7661 23.3406 19.5557 22.1778 19.5557H20.7422V20.9911C20.7422 21.6371 20.4695 22.4266 19.3067 22.4266H12.9759L8.26724 27.135C7.82221 27.5513 7.56381 27.3073 7.4059 27.1494L3.11359 22.8716C2.69727 22.4266 2.94132 22.1682 3.09923 22.0103L4.9511 20.1442V14.4023L7.82221 11.5313V13.8137C7.82221 15.5507 8.97066 18.1202 12.1289 18.1202C15.2871 18.1202 16.4356 15.5507 16.4356 13.8137H26.4845V15.2492ZM26.9008 8.48809L24.4603 10.9428H13.5644V13.8137C13.5644 14.4597 13.2917 15.2492 12.1289 15.2492C10.9661 15.2492 10.6933 14.4597 10.6933 13.8137V9.50728C10.6933 8.84696 10.9374 6.63632 13.5644 6.63632H18.4597L21.7328 3.36342C22.1778 2.94713 22.4362 3.19116 22.5941 3.34907L26.8864 7.6268C27.3027 8.0718 27.0587 8.33019 26.9008 8.48809Z" fill="#545454"/>
</svg>
