<svg width="30" height="31" viewBox="0 0 30 31" fill="none" xmlns="http://www.w3.org/2000/svg">
<path id="Vector" d="M5.76923 7.39286C5.76923 6.83005 5.85877 6.27275 6.03272 5.75279C6.20668 5.23282 6.46166 4.76036 6.78309 4.3624C7.10453 3.96443 7.48612 3.64875 7.9061 3.43337C8.32607 3.218 8.77619 3.10714 9.23077 3.10714C9.68534 3.10714 10.1355 3.218 10.5554 3.43337C10.9754 3.64875 11.357 3.96443 11.6784 4.3624C11.9999 4.76036 12.2549 5.23282 12.4288 5.75279C12.6028 6.27275 12.6923 6.83005 12.6923 7.39286C12.6923 8.5295 12.3276 9.61959 11.6784 10.4233C11.0293 11.227 10.1488 11.6786 9.23077 11.6786C8.31271 11.6786 7.43226 11.227 6.78309 10.4233C6.13393 9.61959 5.76923 8.5295 5.76923 7.39286ZM9.23077 0.25C7.70067 0.25 6.23325 1.00255 5.15131 2.34209C4.06937 3.68164 3.46154 5.49845 3.46154 7.39286C3.46154 9.28726 4.06937 11.1041 5.15131 12.4436C6.23325 13.7832 7.70067 14.5357 9.23077 14.5357C10.7609 14.5357 12.2283 13.7832 13.3102 12.4436C14.3922 11.1041 15 9.28726 15 7.39286C15 5.49845 14.3922 3.68164 13.3102 2.34209C12.2283 1.00255 10.7609 0.25 9.23077 0.25ZM20.7692 8.82143C20.7692 8.06367 21.0124 7.33694 21.4451 6.80112C21.8779 6.26531 22.4649 5.96429 23.0769 5.96429C23.689 5.96429 24.2759 6.26531 24.7087 6.80112C25.1415 7.33694 25.3846 8.06367 25.3846 8.82143C25.3846 9.57919 25.1415 10.3059 24.7087 10.8417C24.2759 11.3776 23.689 11.6786 23.0769 11.6786C22.4649 11.6786 21.8779 11.3776 21.4451 10.8417C21.0124 10.3059 20.7692 9.57919 20.7692 8.82143ZM23.0769 3.10714C21.8528 3.10714 20.6789 3.70918 19.8134 4.78082C18.9478 5.85245 18.4615 7.30591 18.4615 8.82143C18.4615 10.337 18.9478 11.7904 19.8134 12.862C20.6789 13.9337 21.8528 14.5357 23.0769 14.5357C24.301 14.5357 25.4749 13.9337 26.3405 12.862C27.206 11.7904 27.6923 10.337 27.6923 8.82143C27.6923 7.30591 27.206 5.85245 26.3405 4.78082C25.4749 3.70918 24.301 3.10714 23.0769 3.10714ZM0 21.6786C0 20.5419 0.364697 19.4518 1.01386 18.6481C1.66303 17.8444 2.54348 17.3929 3.46154 17.3929H15C15.9181 17.3929 16.7985 17.8444 17.4477 18.6481C18.0968 19.4518 18.4615 20.5419 18.4615 21.6786V21.9986C18.4591 22.1294 18.4514 22.2601 18.4385 22.39C18.307 23.7751 17.8906 25.0953 17.2292 26.2243C15.9669 28.3814 13.5669 30.25 9.23077 30.25C4.89692 30.25 2.49692 28.3814 1.23 26.2243C0.569449 25.095 0.1539 23.7749 0.0230769 22.39C0.0115883 22.2599 0.00389107 22.1294 0 21.9986V21.6786ZM2.30769 21.9357V21.9557L2.31692 22.0957C2.40629 22.9802 2.67458 23.8224 3.09692 24.5443C3.84923 25.8243 5.48769 27.3929 9.23077 27.3929C12.9738 27.3929 14.6123 25.8243 15.3646 24.5443C15.787 23.8224 16.0552 22.9802 16.1446 22.0957C16.1488 22.0482 16.1518 22.0006 16.1538 21.9529V21.6786C16.1538 21.2997 16.0323 20.9363 15.8159 20.6684C15.5995 20.4005 15.306 20.25 15 20.25H3.46154C3.15552 20.25 2.86203 20.4005 2.64565 20.6684C2.42926 20.9363 2.30769 21.2997 2.30769 21.6786V21.9357ZM23.0769 27.3929C21.72 27.3929 20.6077 27.1357 19.7077 26.7129C20.0777 25.8738 20.3577 24.9787 20.5408 24.05C21.1592 24.3386 21.9808 24.5357 23.0769 24.5357C25.6592 24.5357 26.7185 23.4443 27.1846 22.6329C27.4571 22.1596 27.63 21.6097 27.6877 21.0329L27.6923 20.9529C27.6899 20.7654 27.628 20.5866 27.5201 20.4552C27.4122 20.3237 27.2668 20.25 27.1154 20.25H20.6538C20.4835 19.2139 20.1287 18.2379 19.6154 17.3929H27.1154C28.7077 17.3929 30 18.9929 30 20.9643V21.0129C29.9972 21.1169 29.9911 21.2208 29.9815 21.3243C29.8838 22.3951 29.5677 23.4176 29.0631 24.2957C28.0892 25.9843 26.2638 27.3929 23.0769 27.3929Z" fill="#545454"/>
</svg>
