<svg width="17" height="16" viewBox="0 0 17 16" fill="none" xmlns="http://www.w3.org/2000/svg">
<path d="M13.6556 13.521H11.2809V9.83876C11.2809 8.9607 11.2651 7.83037 10.0459 7.83037C8.80905 7.83037 8.61982 8.78705 8.61982 9.77483V13.5207H6.24513V5.94861H8.52482V6.98341H8.55674C8.78488 6.59718 9.11455 6.27944 9.51064 6.06405C9.90674 5.84865 10.3544 5.74366 10.806 5.76026C13.2128 5.76026 13.6566 7.32778 13.6566 9.36703L13.6556 13.521ZM3.56572 4.91355C3.29316 4.9136 3.02671 4.83362 2.80006 4.68373C2.57342 4.53384 2.39676 4.32077 2.29242 4.07146C2.18807 3.82215 2.16072 3.54781 2.21385 3.28311C2.26697 3.01842 2.39818 2.77527 2.59087 2.58441C2.78356 2.39355 3.02908 2.26355 3.29639 2.21086C3.56369 2.15816 3.84077 2.18513 4.0926 2.28836C4.34442 2.39159 4.55968 2.56644 4.71114 2.7908C4.8626 3.01516 4.94347 3.27896 4.94352 3.54883C4.94356 3.72801 4.90794 3.90545 4.83872 4.07101C4.76949 4.23657 4.66802 4.387 4.54008 4.51373C4.41214 4.64046 4.26023 4.74099 4.09305 4.80959C3.92587 4.87819 3.74668 4.91352 3.56572 4.91355ZM4.75305 13.521H2.37591V5.94861H4.75305V13.521ZM14.8395 0.00108114H1.18264C0.872667 -0.00238244 0.573972 0.116146 0.352216 0.33062C0.13046 0.545094 0.00378304 0.837967 0 1.14488V14.7233C0.00365356 15.0304 0.130256 15.3234 0.352005 15.5381C0.573753 15.7528 0.872513 15.8716 1.18264 15.8683H14.8395C15.1502 15.8722 15.4498 15.7538 15.6724 15.5391C15.8951 15.3244 16.0225 15.031 16.0268 14.7233V1.1439C16.0224 0.836379 15.8948 0.543173 15.6722 0.328704C15.4496 0.114235 15.1501 -0.00395483 14.8395 0.000101043" fill="#0A66C2"/>
</svg>
