<svg width="24" height="24" viewBox="0 0 24 24" fill="none" xmlns="http://www.w3.org/2000/svg">
<path d="M22.7457 6.6512C21.5663 7.00861 19.5197 7.58938 17.3265 8.04154C16.8213 4.97095 15.9357 1.90838 15.5098 0.521484C18.6778 1.48867 21.2893 3.73142 22.7457 6.6512Z" fill="black"/>
<path d="M15.5556 8.36833C14.3141 8.56893 13.0867 8.7 11.9995 8.7C10.9123 8.7 9.68489 8.56893 8.44336 8.36834C8.91911 5.46291 9.76839 2.49493 10.2026 1.07809C10.3138 0.715497 10.3579 0.573074 10.4344 0.38192C10.4726 0.286423 10.5115 0.198834 10.566 0.0847314C11.036 0.0287771 11.5143 0 11.9995 0C12.5061 0 13.0055 0.0314057 13.4957 0.0923771C13.5062 0.13216 13.5158 0.16776 13.5253 0.20144C13.5533 0.300949 13.5973 0.4408 13.6711 0.675474L13.6789 0.700126C14.0492 1.87683 15.0301 5.15887 15.5556 8.36833Z" fill="black"/>
<path d="M6.67495 8.04152C7.17787 4.98446 8.0576 1.93839 8.4828 0.551016L8.49185 0.521484C5.32377 1.48866 2.71227 3.7314 1.25586 6.65119C2.43511 7.00859 4.4817 7.58936 6.67495 8.04152Z" fill="black"/>
<path d="M12.0006 17.6996C13.0028 17.6996 14.1022 17.5992 15.2181 17.4395C14.7453 19.7053 14.1413 21.7996 13.7974 22.9214C13.6864 23.284 13.6421 23.4264 13.5657 23.6176C13.5275 23.7132 13.4885 23.8007 13.434 23.9149C12.9641 23.9708 12.4857 23.9996 12.0006 23.9996C11.5155 23.9996 11.0372 23.9708 10.5672 23.9149C10.5126 23.8007 10.4738 23.7132 10.4356 23.6176C10.3592 23.4265 10.3149 23.284 10.2037 22.9215C9.85996 21.7997 9.25598 19.7055 8.7832 17.4399C9.89539 17.5991 10.9949 17.6996 12.0006 17.6996Z" fill="black"/>
<path d="M4.04439 16.4867C2.55871 16.117 1.29336 15.7457 0.521484 15.5088C1.68334 19.3145 4.6859 22.317 8.49162 23.4788L8.48258 23.4494C8.1113 22.2379 7.39348 19.7619 6.88256 17.1182C5.88896 16.926 4.92292 16.7052 4.04439 16.4867Z" fill="black"/>
<path d="M23.4505 15.5178C22.2389 15.8891 19.7628 16.607 17.1189 17.1178C16.6081 19.7617 15.8901 22.2378 15.5189 23.4494L15.5098 23.4788C19.3155 22.317 22.3181 19.3145 23.4799 15.5088L23.4505 15.5178Z" fill="black"/>
<path d="M0.573532 8.32422C0.20112 9.48271 0 10.7181 0 12.0002C0 12.5019 0.0307771 12.9963 0.0905485 13.4817L0.279669 13.5448L0.281177 13.5454L0.283029 13.5459L0.284332 13.5464C0.3452 13.5665 2.1292 14.1557 4.47861 14.7402C5.14155 14.9051 5.84351 15.0682 6.56007 15.2176C6.40029 14.1018 6.3 13.0024 6.3 12.0002C6.3 11.3133 6.34713 10.5806 6.42825 9.82812C4.03918 9.3424 1.84249 8.71126 0.66968 8.35442L0.66152 8.35194L0.573532 8.32422Z" fill="#BFBFBF"/>
<path d="M17.5712 9.82812C17.6525 10.5807 17.6996 11.3135 17.6996 12.0002C17.6996 13.0025 17.5993 14.1019 17.4395 15.2177C19.7053 14.7449 21.7997 14.1409 22.9215 13.7971C23.284 13.6859 23.4265 13.6417 23.6176 13.5653C23.7132 13.5271 23.8007 13.4882 23.9149 13.4337C23.9708 12.9637 23.9996 12.4854 23.9996 12.0002C23.9996 10.7181 23.7984 9.48271 23.4261 8.32422L23.3291 8.35474C22.156 8.71164 19.9598 9.34255 17.5712 9.82812Z" fill="#BFBFBF"/>
<path d="M15.7964 10.1523C15.862 10.7954 15.8996 11.4178 15.8996 12.0003C15.8996 13.0907 15.7678 14.3221 15.5662 15.567C14.3213 15.7685 13.09 15.9003 11.9996 15.9003C10.9141 15.9003 9.68319 15.7689 8.43288 15.5665C8.23139 14.3217 8.09961 13.0906 8.09961 12.0003C8.09961 11.4181 8.1372 10.7955 8.20291 10.1523C9.51513 10.3624 10.8242 10.5003 11.9996 10.5003C13.1752 10.5003 14.4842 10.3624 15.7964 10.1523Z" fill="#BFBFBF"/>
</svg>
