<svg width="107" height="33" viewBox="0 0 107 33" fill="none" xmlns="http://www.w3.org/2000/svg">
<path fill-rule="evenodd" clip-rule="evenodd" d="M66.2847 25.5711C60.0757 30.1422 51.0762 32.581 43.3278 32.581C32.4633 32.581 22.6824 28.5674 15.2828 21.8919C14.7015 21.3669 15.2224 20.6515 15.92 21.0603C23.9056 25.7011 33.7795 28.493 43.9789 28.493C50.8576 28.493 58.4246 27.0715 65.3824 24.1217C66.4335 23.6757 67.3125 24.8092 66.2847 25.5711Z" fill="#BFBFBF"/>
<path fill-rule="evenodd" clip-rule="evenodd" d="M68.8655 22.6205C68.0749 21.6077 63.6193 22.142 61.6194 22.3789C61.0102 22.4532 60.9171 21.9236 61.466 21.5427C65.0146 19.0481 70.8375 19.7682 71.5166 20.6043C72.1956 21.4452 71.3398 27.2752 68.0051 30.0578C67.4935 30.4852 67.0052 30.2576 67.2331 29.6908C67.9819 27.8233 69.6608 23.6378 68.8655 22.6205Z" fill="#BFBFBF"/>
<path fill-rule="evenodd" clip-rule="evenodd" d="M61.7593 3.93143V1.50651C61.7593 1.13952 62.0383 0.893311 62.3732 0.893311H73.2423C73.5912 0.893311 73.8702 1.14416 73.8702 1.50651V3.58302C73.8656 3.93143 73.5725 4.38668 73.0516 5.10672L67.4194 13.1387C69.5123 13.0876 71.7215 13.3988 73.6191 14.4673C74.0469 14.7088 74.1632 15.0619 74.1958 15.4103V17.9978C74.1958 18.3509 73.8051 18.7643 73.3958 18.5506C70.0518 16.7993 65.6102 16.6088 61.9127 18.5692C61.536 18.7736 61.1407 18.3648 61.1407 18.0118V15.5543C61.1407 15.1595 61.1453 14.4859 61.5407 13.8866L68.0659 4.53998H62.3871C62.0383 4.53998 61.7593 4.29377 61.7593 3.93143Z" fill="#BFBFBF"/>
<path fill-rule="evenodd" clip-rule="evenodd" d="M22.1103 19.0615H18.8036C18.4873 19.0382 18.2361 18.8013 18.2129 18.4994V1.54816C18.2129 1.20905 18.4966 0.939609 18.8501 0.939609H21.9336C22.2545 0.953536 22.5103 1.19975 22.5336 1.50635V3.72223H22.594C23.3986 1.58068 24.9102 0.581909 26.9473 0.581909C29.0169 0.581909 30.3099 1.58068 31.2401 3.72223C32.04 1.58068 33.8585 0.581909 35.8073 0.581909C37.1932 0.581909 38.7094 1.1533 39.635 2.43544C40.6814 3.86159 40.4675 5.93346 40.4675 7.74983L40.4628 18.4483C40.4628 18.7874 40.1791 19.0615 39.8256 19.0615H36.5235C36.1933 19.0382 35.9282 18.7735 35.9282 18.4483V9.46399C35.9282 8.74859 35.9933 6.96475 35.8352 6.28651C35.5887 5.14838 34.8492 4.82784 33.8911 4.82784C33.0911 4.82784 32.254 5.36207 31.9145 6.21683C31.5749 7.07159 31.6075 8.50238 31.6075 9.46399V18.4483C31.6075 18.7874 31.3238 19.0615 30.9703 19.0615H27.6682C27.3333 19.0382 27.0729 18.7735 27.0729 18.4483L27.0682 9.46399C27.0682 7.5733 27.3798 4.79068 25.0311 4.79068C22.6545 4.79068 22.7475 7.50361 22.7475 9.46399V18.4483C22.7475 18.7874 22.4638 19.0615 22.1103 19.0615Z" fill="#BFBFBF"/>
<path fill-rule="evenodd" clip-rule="evenodd" d="M83.2286 0.581909C88.1353 0.581909 90.7909 4.79068 90.7909 10.1422C90.7909 15.3126 87.8562 19.4145 83.2286 19.4145C78.4102 19.4145 75.7871 15.2058 75.7871 9.96105C75.7871 4.68383 78.4428 0.581909 83.2286 0.581909ZM83.2565 4.04276C80.8194 4.04276 80.6659 7.3596 80.6659 9.42683C80.6659 11.4987 80.6333 15.9212 83.2286 15.9212C85.7912 15.9212 85.9121 12.3535 85.9121 10.1794C85.9121 8.74859 85.8517 7.03907 85.4191 5.6826C85.0471 4.50266 84.3076 4.04276 83.2565 4.04276Z" fill="#BFBFBF"/>
<path fill-rule="evenodd" clip-rule="evenodd" d="M97.1526 19.0615H93.8597C93.5295 19.0382 93.2644 18.7735 93.2644 18.4483L93.2598 1.49242C93.2877 1.18117 93.5621 0.939609 93.8969 0.939609H96.9619C97.2502 0.953536 97.4874 1.14865 97.5526 1.41344V4.0056H97.613C98.5385 1.68752 99.8361 0.581909 102.12 0.581909C103.603 0.581909 105.05 1.11614 105.98 2.57945C106.845 3.93592 106.845 6.21683 106.845 7.85667V18.5272C106.808 18.8246 106.533 19.0615 106.208 19.0615H102.892C102.589 19.0382 102.338 18.8153 102.306 18.5272V9.31998C102.306 7.46645 102.52 4.75351 100.236 4.75351C99.4315 4.75351 98.692 5.29239 98.3246 6.10998C97.8595 7.14592 97.799 8.17721 97.799 9.31998V18.4483C97.7944 18.7874 97.506 19.0615 97.1526 19.0615Z" fill="#BFBFBF"/>
<path fill-rule="evenodd" clip-rule="evenodd" d="M53.0952 10.965C53.0952 12.2517 53.1278 13.3248 52.4766 14.4676C51.9511 15.3967 51.1139 15.9681 50.1884 15.9681C48.9187 15.9681 48.1746 15.0018 48.1746 13.5757C48.1746 10.7606 50.7 10.2496 53.0952 10.2496V10.965ZM56.4299 19.0155C56.2113 19.2106 55.8951 19.2245 55.6486 19.0945C54.5509 18.184 54.351 17.7612 53.751 16.8925C51.9371 18.7414 50.6488 19.2942 48.3001 19.2942C45.5142 19.2942 43.3516 17.5801 43.3516 14.1471C43.3516 11.4667 44.8026 9.641 46.8769 8.74908C48.6722 7.95935 51.179 7.81999 53.0952 7.60165V7.17427C53.0952 6.38919 53.1557 5.4601 52.6906 4.78187C52.2906 4.17332 51.5185 3.92246 50.8349 3.92246C49.5745 3.92246 48.4536 4.56818 48.1792 5.90607C48.1234 6.20338 47.9048 6.49604 47.6025 6.50997L44.398 6.16621C44.1283 6.10582 43.826 5.88748 43.905 5.47404C44.6399 1.59045 48.1559 0.4198 51.3 0.4198C52.9092 0.4198 55.0114 0.847181 56.2811 2.06429C57.8903 3.56476 57.7368 5.56695 57.7368 7.74566V12.8928C57.7368 14.4397 58.3786 15.118 58.9832 15.9542C59.1925 16.2515 59.2391 16.6092 58.9693 16.8321C58.2949 17.3942 57.095 18.4395 56.4345 19.0248L56.4299 19.0155Z" fill="#BFBFBF"/>
<path fill-rule="evenodd" clip-rule="evenodd" d="M9.74346 10.9648C9.74346 12.2516 9.77601 13.3247 9.12489 14.4675C8.59934 15.3966 7.76682 15.968 6.83664 15.968C5.56695 15.968 4.82745 15.0017 4.82745 13.5756C4.82745 10.7604 7.35289 10.2494 9.74346 10.2494V10.9648ZM13.0782 19.0154C12.8596 19.2105 12.5433 19.2244 12.2968 19.0944C11.1992 18.1838 11.0039 17.7611 10.3992 16.8924C8.58538 18.7413 7.30174 19.2941 4.94838 19.2941C2.16713 19.2941 -0.000183105 17.5799 -0.000183105 14.147C-0.000183105 11.4665 1.45555 9.64088 3.5252 8.74895C5.32045 7.95923 7.82729 7.81987 9.74346 7.60153V7.17415C9.74346 6.38907 9.80392 5.45998 9.34348 4.78175C8.93885 4.17319 8.1668 3.92234 7.48777 3.92234C6.22738 3.92234 5.10186 4.56806 4.82745 5.90594C4.77164 6.20325 4.55305 6.49592 4.25539 6.50985L1.04627 6.16609C0.776517 6.1057 0.478859 5.88736 0.553274 5.47392C1.29277 1.59033 4.8042 0.419678 7.94821 0.419678C9.55742 0.419678 11.6596 0.847059 12.9293 2.06416C14.5385 3.56464 14.3851 5.56683 14.3851 7.74554V12.8927C14.3851 14.4396 15.0269 15.1179 15.6315 15.954C15.8454 16.2513 15.892 16.609 15.6222 16.832C14.9478 17.3941 13.7479 18.4393 13.0875 19.0247L13.0782 19.0154Z" fill="#BFBFBF"/>
</svg>
