<svg width="149" height="149" viewBox="0 0 149 149" fill="none" xmlns="http://www.w3.org/2000/svg">
<g id="Group 14741">
<rect id="Rectangle 1917" x="0.371429" y="0.371429" width="147.829" height="147.829" rx="14.4857" fill="#F9F9F9" stroke="#C6C6C6" stroke-width="0.742857"/>
<g id="g10">
<g id="g12">
<path id="path14" d="M113.657 74.6571C113.657 53.118 96.1963 35.6571 74.6572 35.6571C53.1181 35.6571 35.6572 53.118 35.6572 74.6571C35.6572 94.1232 49.919 110.258 68.5635 113.183V85.9306H58.6611V74.6571H68.5635V66.0649C68.5635 56.2906 74.3859 50.8915 83.2944 50.8915C87.5613 50.8915 92.0244 51.6532 92.0244 51.6532V61.2509H87.1066C82.2618 61.2509 80.751 64.2572 80.751 67.3414V74.6571H91.5674L89.8383 85.9306H80.751V113.183C99.3955 110.258 113.657 94.1232 113.657 74.6571Z" fill="#100F0D"/>
<path id="path16" d="M89.8383 85.9307L91.5674 74.6572H80.751V67.3414C80.751 64.2572 82.2618 61.251 87.1066 61.251H92.0244V51.6533C92.0244 51.6533 87.5613 50.8916 83.2944 50.8916C74.3859 50.8916 68.5635 56.2907 68.5635 66.065V74.6572H58.6611V85.9307H68.5635V113.183C70.549 113.495 72.5841 113.657 74.6572 113.657C76.7303 113.657 78.7654 113.495 80.751 113.183V85.9307H89.8383Z" fill="white"/>
</g>
</g>
</g>
</svg>
