<svg width="107" height="33" viewBox="0 0 107 33" fill="none" xmlns="http://www.w3.org/2000/svg">
<g clip-path="url(#clip0_23_485)">
<path d="M14.1047 11.9192V15.3373H22.6665C22.4392 17.2282 21.7573 18.6828 20.6965 19.6282C19.4842 20.7919 17.5143 22.101 14.1047 22.101C8.87667 22.101 4.78517 18.0283 4.78517 13.0101C4.78517 7.99189 8.8009 3.91916 14.1047 3.91916C16.9081 3.91916 19.0296 5.01007 20.545 6.39189L23.0454 3.99189C20.9238 2.02825 18.0446 0.500977 14.1047 0.500977C6.90669 0.500977 0.845215 6.10098 0.845215 13.0101C0.845215 19.9192 6.90669 25.5192 14.1047 25.5192C17.9689 25.5192 20.9238 24.2828 23.1969 22.0283C25.5457 19.7737 26.3034 16.5737 26.3034 14.0282C26.3034 13.2282 26.2276 12.501 26.1519 11.9192H14.1047Z" fill="#4285F4"/>
<path d="M36.9104 9.08301C32.2885 9.08301 28.4243 12.5012 28.4243 17.1557C28.4243 21.8103 32.2127 25.2285 36.9104 25.2285C41.608 25.2285 45.3964 21.883 45.3964 17.2285C45.3964 12.5012 41.608 9.08301 36.9104 9.08301ZM36.9104 22.1012C34.3342 22.1012 32.137 20.0648 32.137 17.2285C32.137 14.3194 34.3342 12.3557 36.9104 12.3557C39.4865 12.3557 41.6838 14.3194 41.6838 17.2285C41.6838 20.0648 39.4865 22.1012 36.9104 22.1012Z" fill="#EA4335"/>
<path d="M78.3558 10.9012H78.2043C77.3708 9.95574 75.7797 9.08301 73.7339 9.08301C69.4909 9.08301 65.854 12.5739 65.854 17.1557C65.854 21.6648 69.4909 25.2285 73.7339 25.2285C75.7797 25.2285 77.3708 24.3557 78.2043 23.4103H78.3558V24.5739C78.3558 27.6285 76.6131 29.3012 73.8855 29.3012C71.6124 29.3012 70.2486 27.7739 69.6424 26.3921L66.4601 27.7012C67.3694 29.8103 69.8697 32.5012 73.9612 32.5012C78.28 32.5012 81.9927 30.0285 81.9927 24.0648V9.51937H78.5073V10.9012H78.3558ZM74.1128 22.1012C71.5366 22.1012 69.6424 19.9921 69.6424 17.2285C69.6424 14.3921 71.6124 12.3557 74.1128 12.3557C76.6131 12.3557 78.5831 14.4648 78.5831 17.3012C78.6589 20.0648 76.6889 22.1012 74.1128 22.1012Z" fill="#4285F4"/>
<path d="M55.7774 9.08276C51.1555 9.08276 47.2913 12.5009 47.2913 17.1555C47.2913 21.81 51.0797 25.2282 55.7774 25.2282C60.475 25.2282 64.2634 21.8828 64.2634 17.2282C64.2634 12.5009 60.475 9.08276 55.7774 9.08276ZM55.7774 22.1009C53.2013 22.1009 51.004 20.0646 51.004 17.2282C51.004 14.3191 53.2013 12.3555 55.7774 12.3555C58.3535 12.3555 60.5508 14.3191 60.5508 17.2282C60.5508 20.0646 58.3535 22.1009 55.7774 22.1009Z" fill="#FBBC05"/>
<path d="M84.7964 0.864258H88.4333V25.3006H84.7964V0.864258Z" fill="#34A853"/>
<path d="M99.6475 22.1012C97.7533 22.1012 96.4652 21.3012 95.556 19.6285L106.846 15.1921L106.467 14.2466C105.785 12.4285 103.587 9.08301 99.2687 9.08301C94.9499 9.08301 91.313 12.3557 91.313 17.1557C91.313 21.6648 94.8741 25.2285 99.6475 25.2285C103.512 25.2285 105.709 22.9739 106.694 21.6648L103.815 19.8466C102.83 21.2285 101.542 22.1012 99.6475 22.1012ZM99.4202 12.1376C100.936 12.1376 102.224 12.8648 102.602 13.883L95.0256 16.9376C94.9499 13.5921 97.526 12.1376 99.4202 12.1376Z" fill="#EA4335"/>
</g>
<defs>
<clipPath id="clip0_23_485">
<rect width="106" height="32" fill="white" transform="translate(0.845215 0.5)"/>
</clipPath>
</defs>
</svg>
