<svg width="37" height="43" viewBox="0 0 37 43" fill="none" xmlns="http://www.w3.org/2000/svg">
<path id="Vector" d="M5.41876 5.41848C8.88816 1.94909 13.5937 0 18.5001 0C23.4066 0 28.1121 1.94909 31.5815 5.41848C35.0509 8.88788 37 13.5934 37 18.4999C37 23.4063 35.0509 28.1118 31.5815 31.5812L29.0596 34.0756C27.2005 35.8985 24.7891 38.2441 21.8231 41.1123C20.9316 41.9743 19.7401 42.4561 18.5001 42.4561C17.2601 42.4561 16.0686 41.9743 15.1772 41.1123L7.76011 33.8971C6.82527 32.9814 6.04765 32.2101 5.41876 31.5812C3.70081 29.8634 2.33805 27.824 1.40829 25.5795C0.47854 23.335 0 20.9293 0 18.4999C0 16.0704 0.47854 13.6647 1.40829 11.4202C2.33805 9.17571 3.70081 7.13631 5.41876 5.41848ZM29.3273 7.6706C27.9052 6.24862 26.2169 5.12067 24.3588 4.35115C22.5008 3.58164 20.5094 3.18562 18.4983 3.18572C16.4872 3.18582 14.4959 3.58203 12.6379 4.35173C10.78 5.12142 9.09179 6.24954 7.66981 7.67166C6.24783 9.09378 5.11988 10.7821 4.35037 12.6401C3.58085 14.4981 3.18483 16.4895 3.18493 18.5006C3.18503 20.5117 3.58124 22.5031 4.35094 24.361C5.12064 26.219 6.24875 27.9071 7.67087 29.3291L10.8323 32.4481C12.5703 34.1499 14.7587 36.2746 17.3932 38.822C17.6903 39.1089 18.0871 39.2692 18.5001 39.2692C18.9131 39.2692 19.31 39.1089 19.6071 38.822L26.8202 31.8107C27.8188 30.8312 28.6538 30.0048 29.3273 29.3291C32.1987 26.4575 33.8119 22.5629 33.8119 18.502C33.8119 14.441 32.1987 10.5464 29.3273 7.67485V7.6706ZM18.5001 12.7081C19.3377 12.7081 20.1671 12.8731 20.941 13.1936C21.7148 13.5141 22.4179 13.984 23.0102 14.5762C23.6024 15.1685 24.0722 15.8716 24.3928 16.6454C24.7133 17.4193 24.8783 18.2487 24.8783 19.0863C24.8783 19.9239 24.7133 20.7532 24.3928 21.5271C24.0722 22.3009 23.6024 23.004 23.0102 23.5963C22.4179 24.1886 21.7148 24.6584 20.941 24.9789C20.1671 25.2994 19.3377 25.4644 18.5001 25.4644C16.829 25.4339 15.2366 24.7486 14.0655 23.556C12.8945 22.3634 12.2384 20.7588 12.2384 19.0873C12.2384 17.4159 12.8945 15.8112 14.0655 14.6186C15.2366 13.426 16.829 12.7407 18.5001 12.7102V12.7081ZM18.5001 15.8951C17.6538 15.8951 16.8421 16.2313 16.2436 16.8297C15.6451 17.4282 15.3089 18.2399 15.3089 19.0863C15.3089 19.9326 15.6451 20.7443 16.2436 21.3428C16.8421 21.9412 17.6538 22.2775 18.5001 22.2775C19.332 22.256 20.1225 21.9105 20.7032 21.3145C21.284 20.7186 21.609 19.9194 21.609 19.0873C21.609 18.2552 21.284 17.456 20.7032 16.8601C20.1225 16.2642 19.332 15.9187 18.5001 15.8972V15.8951Z" fill="#222222"/>
</svg>
