<svg width="107" height="33" viewBox="0 0 107 33" fill="none" xmlns="http://www.w3.org/2000/svg">
<g clip-path="url(#clip0_23_493)">
<path d="M38.2619 18.9313L37.6301 21.4615H37.5775C37.4722 20.891 37.2791 20.0228 36.9633 18.9809L33.5762 6.94989H30.2593V26.1251H32.453V14.2925C32.453 13.5483 32.453 12.7049 32.4354 11.6631C32.4179 11.1421 32.3828 10.7452 32.3652 10.4476H32.4179C32.5232 11.1918 32.646 11.7375 32.7338 12.0848L36.8053 26.0755H38.3497L42.3861 11.9607C42.4738 11.6383 42.5616 10.9933 42.6493 10.4476H42.702C42.6493 11.8615 42.6142 13.1266 42.5967 13.8956V26.0507H44.9308V6.90028H41.7368L38.2619 18.9313ZM47.1421 12.308H49.4235V26.0507H47.1421V12.308ZM48.3003 6.50338C47.9142 6.50338 47.5983 6.70183 47.3351 7.04912C47.0719 7.39641 46.9315 7.84292 46.9315 8.38865C46.9315 8.90958 47.0719 9.35609 47.3351 9.70338C47.5983 10.0507 47.9142 10.2243 48.3003 10.2243C48.6864 10.2243 49.0199 10.0259 49.2656 9.70338C49.5288 9.35609 49.6692 8.90958 49.6692 8.38865C49.6692 7.86772 49.5288 7.42121 49.2656 7.04912C49.0374 6.70183 48.704 6.50338 48.3003 6.50338ZM57.5139 12.184C57.0927 12.06 56.654 11.9856 56.2328 11.9856C55.1974 11.9856 54.2497 12.308 53.4599 12.953C52.6702 13.598 52.0384 14.491 51.6348 15.6073C51.2136 16.7483 51.003 18.0631 51.003 19.5763C51.003 20.891 51.2136 22.0569 51.6172 23.1235C52.0209 24.1654 52.5825 25.0088 53.3371 25.5794C54.0566 26.1499 54.899 26.4476 55.8467 26.4476C56.9348 26.4476 57.8649 26.1251 58.602 25.5297L58.6195 25.5049V22.5282L58.5318 22.6274C58.1984 22.9747 57.8123 23.2724 57.4262 23.446C57.0225 23.6445 56.654 23.7437 56.3381 23.7437C55.4255 23.7437 54.706 23.3716 54.197 22.553C53.6705 21.7592 53.4073 20.6677 53.4073 19.3034C53.4073 17.8894 53.6705 16.7731 54.2146 15.9545C54.7586 15.1359 55.4781 14.7142 56.3556 14.7142C57.0927 14.7142 57.8474 15.0615 58.5318 15.7561L58.6195 15.8553V12.7049L58.602 12.6801C58.3036 12.5065 57.9702 12.308 57.5139 12.184ZM65.0427 12.0848C64.4811 12.0848 63.9546 12.3328 63.4983 12.8538C63.1123 13.3003 62.849 13.9452 62.6209 14.7142H62.6033V12.308H60.3219V26.0507H62.6033V19.0305C62.6033 17.8398 62.7788 16.8476 63.1649 16.1282C63.551 15.384 64.0424 15.0119 64.6391 15.0119C64.8497 15.0119 65.0603 15.0863 65.3235 15.1359C65.5692 15.2352 65.7447 15.3344 65.8676 15.4584L65.9553 15.5576V12.3328L65.9027 12.308C65.7447 12.1592 65.4288 12.0848 65.0427 12.0848ZM71.2553 12.0104C69.6583 12.0104 68.3772 12.6801 67.4821 13.9949C66.5695 15.3096 66.1308 17.1204 66.1308 19.4026C66.1308 21.5359 66.5871 23.2724 67.4646 24.5375C68.3421 25.7778 69.5354 26.4228 71.0272 26.4228C72.5891 26.4228 73.8351 25.753 74.7301 24.4135C75.6427 23.0739 76.0815 21.2879 76.0815 19.0801C76.0815 16.8972 75.6603 15.1607 74.8003 13.8956C73.9755 12.6305 72.7646 12.0104 71.2553 12.0104ZM73.0805 22.5778C72.6593 23.3468 71.9924 23.7189 71.1676 23.7189C70.3427 23.7189 69.6758 23.3468 69.202 22.5282C68.7281 21.7592 68.5 20.6429 68.5 19.229C68.5 17.7654 68.7457 16.6491 69.202 15.8553C69.6758 15.0615 70.3252 14.6646 71.15 14.6646C71.9573 14.6646 72.5891 15.0367 73.0454 15.8057C73.5017 16.5747 73.7474 17.691 73.7474 19.1545C73.7123 20.6429 73.5192 21.8088 73.0805 22.5778ZM81.1709 18.0135C80.4513 17.5918 79.995 17.2693 79.7844 16.9964C79.6089 16.7483 79.5212 16.4011 79.5212 15.9545C79.5212 15.5825 79.6265 15.2104 79.8897 14.9623C80.153 14.7142 80.4513 14.5902 80.8901 14.5902C81.2762 14.5902 81.6798 14.6894 82.0659 14.8383C82.452 14.9871 82.803 15.2104 83.0838 15.508L83.1715 15.6073V12.5809L83.1189 12.5561C82.8556 12.4073 82.5046 12.2584 82.0834 12.1344C81.6623 12.0352 81.2762 11.9856 80.9603 11.9856C79.8722 11.9856 78.9772 12.3576 78.2752 13.1762C77.5732 13.9452 77.2397 14.9871 77.2397 16.2026C77.2397 16.8476 77.3099 17.4181 77.4679 17.8894C77.6258 18.3607 77.854 18.8073 78.1699 19.1794C78.4858 19.5266 78.9421 19.9235 79.5738 20.2956C80.1003 20.6181 80.504 20.8662 80.7497 21.0646C80.9954 21.2631 81.1533 21.4863 81.2762 21.66C81.3639 21.8584 81.4166 22.1065 81.4166 22.429C81.4166 23.3468 80.9252 23.7933 79.9248 23.7933C79.5387 23.7933 79.1351 23.6941 78.6613 23.4708C78.1874 23.2476 77.7487 22.9251 77.3801 22.553L77.2924 22.4538V25.6042L77.345 25.629C77.6785 25.8522 78.0821 26.0011 78.5735 26.1747C79.0649 26.2987 79.5036 26.398 79.8897 26.398C81.0656 26.398 82.0308 26.0259 82.7152 25.2073C83.4172 24.4135 83.7858 23.3964 83.7858 22.0817C83.7858 21.1638 83.6103 20.3452 83.2242 19.7251C82.7152 19.1297 82.0834 18.5096 81.1709 18.0135ZM89.8053 12.0104C88.2083 12.0104 86.9272 12.6801 86.0321 13.9949C85.1371 15.3096 84.6808 17.1204 84.6808 19.4026C84.6808 21.5359 85.1371 23.2724 86.0146 24.5375C86.8921 25.7778 88.0854 26.4228 89.5772 26.4228C91.1391 26.4228 92.3851 25.753 93.2801 24.4135C94.1927 23.0739 94.6315 21.2879 94.6315 19.0801C94.6315 16.8972 94.2103 15.1607 93.3503 13.8956C92.5255 12.6305 91.3146 12.0104 89.8053 12.0104ZM91.6129 22.5778C91.1917 23.3468 90.5248 23.7189 89.7 23.7189C88.8576 23.7189 88.2083 23.3468 87.7344 22.5282C87.2606 21.7592 87.0325 20.6429 87.0325 19.229C87.0325 17.7654 87.2781 16.6491 87.7344 15.8553C88.2083 15.0615 88.8576 14.6646 89.6825 14.6646C90.4722 14.6646 91.1215 15.0367 91.5778 15.8057C92.0341 16.5747 92.2798 17.691 92.2798 19.1545C92.2798 20.6429 92.0517 21.8088 91.6129 22.5778ZM106.828 14.9623V12.308H104.529V8.23982L104.459 8.26462L102.283 9.18245L102.23 9.20726V12.308H98.7907V10.5716C98.7907 9.7778 98.9311 9.15765 99.1768 8.76075C99.4225 8.36385 99.7911 8.1654 100.247 8.1654C100.563 8.1654 100.897 8.26462 101.265 8.48788L101.353 8.5623V5.7592L101.3 5.73439C100.984 5.58555 100.563 5.48633 100.019 5.48633C99.3348 5.48633 98.7381 5.70958 98.194 6.08168C97.65 6.50338 97.2464 7.07392 96.948 7.84292C96.6497 8.5871 96.4917 9.43051 96.4917 10.398V12.308H94.8947V14.9375H96.4917V26.0507H98.7907V14.9623H102.23V22.0321C102.23 24.9344 103.196 26.398 105.126 26.398C105.442 26.398 105.776 26.3235 106.091 26.2491C106.425 26.1499 106.671 26.0259 106.811 25.9266L106.828 25.9018V23.2476L106.741 23.3468C106.6 23.4708 106.477 23.57 106.267 23.6445C106.091 23.7189 105.933 23.7437 105.811 23.7437C105.354 23.7437 105.038 23.5949 104.81 23.2228C104.6 22.8755 104.494 22.3049 104.494 21.4615V14.9623H106.828Z" fill="#737373"/>
<path d="M0.845215 0.5H11.6032V15.7062H0.845215V0.5Z" fill="#737373"/>
<path d="M12.7261 0.5H23.484V15.7062H12.7261V0.5Z" fill="#737373"/>
<path d="M0.845215 17.2939H11.6032V32.5001H0.845215V17.2939Z" fill="#737373"/>
<path d="M12.7261 17.2939H23.484V32.5001H12.7261V17.2939Z" fill="#737373"/>
</g>
<defs>
<clipPath id="clip0_23_493">
<rect width="106" height="32" fill="white" transform="translate(0.845215 0.5)"/>
</clipPath>
</defs>
</svg>
