<svg width="70" height="69" viewBox="0 0 70 69" fill="none" xmlns="http://www.w3.org/2000/svg">
<g id="Group 15138">
<circle id="Ellipse 298" cx="34.9572" cy="34.0568" r="34.0568" fill="white"/>
<path id="Vector" d="M31.3508 34.0376C31.7429 34.0376 32.1188 33.8819 32.3961 33.6047C32.6733 33.3275 32.829 32.9515 32.829 32.5595C32.829 32.1674 32.6733 31.7915 32.3961 31.5143C32.1188 31.237 31.7429 31.0813 31.3508 31.0813C30.9588 31.0813 30.5828 31.237 30.3056 31.5143C30.0284 31.7915 29.8727 32.1674 29.8727 32.5595C29.8727 32.9515 30.0284 33.3275 30.3056 33.6047C30.5828 33.8819 30.9588 34.0376 31.3508 34.0376ZM31.1262 37.8158C31.0402 37.718 30.9358 37.6382 30.8188 37.581C30.7019 37.5238 30.5748 37.4904 30.4448 37.4826C30.3149 37.4748 30.1847 37.4929 30.0617 37.5357C29.9388 37.5785 29.8256 37.6453 29.7286 37.7321C29.6316 37.8189 29.5528 37.9241 29.4967 38.0416C29.4406 38.1591 29.4083 38.2865 29.4017 38.4165C29.3952 38.5465 29.4144 38.6765 29.4584 38.7991C29.5023 38.9216 29.5701 39.0342 29.6579 39.1304C30.3045 39.8543 31.0969 40.4332 31.9831 40.8293C32.8693 41.2253 33.8292 41.4295 34.7999 41.4284C35.7705 41.4295 36.7305 41.2253 37.6166 40.8293C38.5028 40.4332 39.2953 39.8543 39.9419 39.1304C40.1134 38.9352 40.2009 38.6803 40.1853 38.421C40.1698 38.1617 40.0525 37.919 39.859 37.7457C39.6654 37.5724 39.4113 37.4826 39.1519 37.4957C38.8924 37.5088 38.6487 37.6239 38.4736 37.8158C38.0119 38.3333 37.4458 38.7472 36.8126 39.0302C36.1794 39.3131 35.4934 39.4588 34.7999 39.4575C33.3414 39.4575 32.0308 38.8249 31.1262 37.8158ZM39.7271 32.5595C39.7271 32.9515 39.5713 33.3275 39.2941 33.6047C39.0169 33.8819 38.6409 34.0376 38.2489 34.0376C37.8569 34.0376 37.4809 33.8819 37.2037 33.6047C36.9265 33.3275 36.7708 32.9515 36.7708 32.5595C36.7708 32.1674 36.9265 31.7915 37.2037 31.5143C37.4809 31.237 37.8569 31.0813 38.2489 31.0813C38.6409 31.0813 39.0169 31.237 39.2941 31.5143C39.5713 31.7915 39.7271 32.1674 39.7271 32.5595ZM46.6251 34.5303C46.6251 32.9774 46.3193 31.4397 45.725 30.005C45.1307 28.5703 44.2597 27.2667 43.1616 26.1686C42.0635 25.0705 40.7599 24.1995 39.3252 23.6052C37.8905 23.0109 36.3528 22.7051 34.7999 22.7051C33.247 22.7051 31.7092 23.0109 30.2745 23.6052C28.8398 24.1995 27.5362 25.0705 26.4381 26.1686C25.3401 27.2667 24.469 28.5703 23.8748 30.005C23.2805 31.4397 22.9746 32.9774 22.9746 34.5303C22.9746 37.6666 24.2205 40.6744 26.4381 42.8921C28.6558 45.1097 31.6636 46.3556 34.7999 46.3556C37.9361 46.3556 40.9439 45.1097 43.1616 42.8921C45.3793 40.6744 46.6251 37.6666 46.6251 34.5303ZM24.9455 34.5303C24.9455 31.9168 25.9837 29.4103 27.8318 27.5622C29.6798 25.7142 32.1863 24.676 34.7999 24.676C37.4134 24.676 39.9199 25.7142 41.768 27.5622C43.616 29.4103 44.6543 31.9168 44.6543 34.5303C44.6543 37.1439 43.616 39.6504 41.768 41.4984C39.9199 43.3465 37.4134 44.3847 34.7999 44.3847C32.1863 44.3847 29.6798 43.3465 27.8318 41.4984C25.9837 39.6504 24.9455 37.1439 24.9455 34.5303Z" fill="black"/>
</g>
</svg>
