<svg width="107" height="33" viewBox="0 0 107 33" fill="none" xmlns="http://www.w3.org/2000/svg">
<g clip-path="url(#clip0_23_482)">
<path d="M32.2573 7.44845C30.9646 6.53416 29.6073 6.16845 28.1207 6.16845C26.6988 6.16845 25.4061 6.53416 24.178 7.26559C22.95 7.99702 21.9158 8.91131 20.9463 10.1913C20.0414 11.4713 19.3305 12.9342 18.8134 14.5799C18.2963 16.2256 18.0378 17.9627 18.0378 19.6999C18.0378 22.077 18.4256 24.0884 19.2012 25.917C19.9768 27.7456 21.0756 29.117 22.4329 30.1227C23.7902 31.1284 25.2122 31.5856 26.828 31.5856C28.1853 31.5856 29.4134 31.2199 30.5768 30.5799C31.7402 29.9399 32.7744 28.9342 33.6792 27.7456C34.5841 26.557 35.2305 25.0942 35.7475 23.357C36.2646 21.6199 36.5231 19.8827 36.5231 17.8713C36.5231 15.3113 36.1353 13.117 35.3597 11.3799C34.5841 9.64273 33.55 8.36273 32.2573 7.44845ZM30.3183 20.9799C29.9951 22.077 29.5427 22.8999 28.9609 23.6313C28.3792 24.2713 27.7329 24.637 26.9573 24.637C26.0524 24.637 25.2768 24.1799 24.7597 23.2656C24.178 22.3513 23.9195 21.2542 23.9195 19.8827C23.9195 18.9684 24.0488 17.9627 24.3073 16.8656C24.5658 15.7684 25.0183 14.8542 25.6 14.1227C26.1817 13.3913 26.8927 13.0256 27.7975 13.0256C28.7024 13.0256 29.4134 13.4827 29.9305 14.3056C30.5122 15.1284 30.7707 16.317 30.7707 17.7799C30.7707 18.877 30.6414 19.9742 30.3183 20.9799ZM105.746 6.71702C105.294 6.62559 104.906 6.53416 104.454 6.44273C104.001 6.3513 103.549 6.3513 103.161 6.25988C102.709 6.16845 102.321 6.16845 101.998 6.16845C100.252 6.16845 99.3475 6.3513 97.8609 6.71702C96.3744 7.08273 95.0817 7.53988 93.9829 7.90559L91.3975 31.037H97.2792L99.3475 12.3856C99.6061 12.2942 100.769 12.0199 101.157 12.0199C101.998 12.0199 102.709 12.1113 103.419 12.2942C104.13 12.477 104.712 12.6599 105.229 12.7513L106.845 7.08273C106.522 6.89988 106.199 6.80845 105.746 6.71702ZM71.5549 0.408447L61.9244 31.037H67.289L77.4366 0.408447H71.5549ZM19.1366 6.53416H3.49509L2.91339 12.2027H10.217L0.909729 31.037H16.6158L17.1975 25.1856H9.95851L19.1366 6.53416ZM63.1524 9.64273H57.2707L61.0195 31.037L64.3805 20.0656L63.1524 9.64273ZM87.067 7.35702C85.9683 6.53416 84.7402 6.16845 83.3829 6.16845C81.5731 6.16845 79.9573 6.80845 78.5353 8.08845C77.1134 9.36845 75.95 11.0142 75.1744 13.2084C74.3341 15.3113 73.9463 17.6884 73.9463 20.157C73.9463 21.8027 74.2048 23.5399 74.6573 25.277C75.1744 27.0142 76.0792 28.477 77.4366 29.6656C78.7939 30.9456 80.6683 31.4942 82.9951 31.4942C84.0939 31.4942 84.9987 31.4027 85.7744 31.1284C86.4853 30.8542 87.4548 30.397 88.6829 29.757L89.5231 23.7227C88.2305 24.4542 87.1317 25.0027 86.2268 25.3684C85.3219 25.7342 84.2878 25.917 83.0597 25.917C80.7329 25.917 79.5048 24.1799 79.5048 20.797H90.4926C90.6219 19.517 90.7512 18.3284 90.7512 17.2313C90.7512 14.7627 90.428 12.7513 89.717 11.0142C89.1353 9.45988 88.2305 8.17988 87.067 7.35702ZM85.3219 16.2256V16.5913H80.0219C80.4097 15.1284 80.8622 13.9399 81.3146 13.0256C81.767 12.1113 82.4134 11.6542 83.2536 11.6542C84.6109 11.6542 85.2573 13.0256 85.2573 15.7684C85.3219 16.0427 85.3219 16.1342 85.3219 16.2256ZM52.3585 7.44845C51.0658 6.53416 49.7085 6.16845 48.2219 6.16845C46.8 6.16845 45.5073 6.53416 44.2792 7.26559C43.0512 7.99702 42.017 8.91131 41.0475 10.1913C40.1427 11.4713 39.4317 12.9342 38.9146 14.5799C38.3975 16.2256 38.139 17.9627 38.139 19.6999C38.139 22.077 38.5268 24.0884 39.3024 25.917C40.078 27.7456 41.1768 29.117 42.5341 30.1227C43.8914 31.1284 45.3134 31.5856 46.9292 31.5856C48.2866 31.5856 49.5146 31.2199 50.678 30.5799C51.8414 29.9399 52.8756 28.9342 53.7805 27.7456C54.6853 26.557 55.3317 25.0942 55.8488 23.357C56.3658 21.6199 56.6244 19.8827 56.6244 17.8713C56.6244 15.3113 56.2366 13.117 55.4609 11.3799C54.6853 9.64273 53.6512 8.36273 52.3585 7.44845ZM50.4195 20.9799C50.0963 22.077 49.6439 22.8999 49.0622 23.6313C48.4805 24.2713 47.8341 24.637 47.0585 24.637C46.1536 24.637 45.378 24.1799 44.8609 23.2656C44.2792 22.3513 44.0207 21.2542 44.0207 19.8827C44.0207 18.9684 44.15 17.9627 44.4085 16.8656C44.667 15.7684 45.1195 14.8542 45.7012 14.1227C46.2829 13.3913 46.9939 13.0256 47.9634 13.0256C48.8683 13.0256 49.5792 13.4827 50.0963 14.3056C50.678 15.1284 50.9366 16.317 50.9366 17.7799C50.8719 18.877 50.7427 19.9742 50.4195 20.9799Z" fill="#BFBFBF"/>
</g>
<defs>
<clipPath id="clip0_23_482">
<rect width="106" height="32" fill="white" transform="translate(0.845215 0.5)"/>
</clipPath>
</defs>
</svg>
