<svg width="28" height="22" viewBox="0 0 28 22" fill="none" xmlns="http://www.w3.org/2000/svg">
<g id="Iconly/Light-Outline/Video">
<g id="Video">
<path id="Combined-Shape" fill-rule="evenodd" clip-rule="evenodd" d="M8.08602 0.708538L8.71062 0.709339C8.81739 0.70949 8.92535 0.709649 9.0343 0.709815L9.69811 0.71089C11.1546 0.713377 12.706 0.716787 13.8884 0.719244L14.4062 0.720304C14.4876 0.720467 14.5664 0.720623 14.6423 0.720771C17.6302 0.510952 20.3273 2.72866 20.5677 5.70463C20.5699 5.73516 20.5719 5.90837 20.5735 6.22346L23.3301 3.96592C24.1322 3.30858 25.2119 3.17977 26.1481 3.62198C27.0843 4.06685 27.6659 4.9858 27.6646 6.02162L27.6487 15.7808C27.6474 16.8167 27.0644 17.7356 26.1295 18.1765C25.763 18.3505 25.3752 18.4341 24.9901 18.4341C24.3912 18.4341 23.8002 18.2283 23.3129 17.8286L20.5797 15.5607C20.5797 15.5991 20.5797 15.6377 20.5796 15.6763C20.6354 17.0787 20.1361 18.4292 19.172 19.4783C18.1588 20.5818 16.7617 21.2233 15.2399 21.2857C15.2141 21.2875 15.0686 21.2888 14.8299 21.2895L14.3053 21.2905C14.1007 21.2906 13.8681 21.2906 13.6135 21.2905L12.4901 21.2894C12.3889 21.2893 12.286 21.2892 12.1818 21.289L11.5412 21.288C10.0149 21.2854 8.29554 21.2814 6.96259 21.2785L6.41667 21.2774C6.2437 21.277 6.08031 21.2767 5.92819 21.2764C5.78742 21.287 5.64666 21.2923 5.50589 21.2923C2.69857 21.2936 0.2498 19.1423 0.0187336 16.3204L0.0185268 16.3175L0.0172862 16.2912C0.0171932 16.2883 0.0170984 16.2852 0.0170019 16.2817L0.01609 16.2399C0.0159843 16.2339 0.0158772 16.2275 0.0157688 16.2206L0.014764 16.1433C0.0146494 16.1329 0.0145339 16.1218 0.0144178 16.1101L0.0133554 15.9846C0.0132359 15.9683 0.013116 15.9512 0.0129958 15.9332L0.0122731 15.8146C0.0121525 15.7929 0.0120318 15.7704 0.0119113 15.7468L0.0108335 15.5064C0.0107148 15.4765 0.0105966 15.4454 0.0104791 15.4131L0.00944107 15.0897C0.00932832 15.05 0.00921655 15.0089 0.00910588 14.9665L0.00814311 14.5474C0.00804019 14.4965 0.00793875 14.4441 0.0078389 14.3902L0.00672538 13.6673C0.00664029 13.6004 0.00655729 13.5319 0.00647651 13.4616L0.0054461 12.2709C0.00539053 12.182 0.00533778 12.0912 0.00528798 11.9984L0.00526904 6.79548C0.00532597 6.63769 0.00538757 6.47726 0.00545397 6.31417C-0.0582884 4.94503 0.438371 3.5852 1.40779 2.52681C2.4197 1.42194 3.81539 0.777873 5.33857 0.712803C5.35908 0.711327 5.45614 0.710212 5.61623 0.709404L5.90195 0.708413C5.95688 0.708284 6.01534 0.708172 6.0771 0.708077L7.78765 0.708222C7.88535 0.708317 7.98488 0.708422 8.08602 0.708538ZM14.714 2.71007C13.0374 2.70763 10.9873 2.7047 9.23783 2.70279L8.31743 2.70186C8.17035 2.70172 8.02677 2.7016 7.88719 2.70148L5.57775 2.70156C5.49084 2.70195 5.43463 2.70254 5.41294 2.70343C4.4329 2.74459 3.52855 3.16025 2.87652 3.87204C2.26831 4.53735 1.95491 5.38725 1.99608 6.26902L1.99717 11.3989C1.99723 11.5121 1.99729 11.6246 1.99736 11.7362L1.99857 13.3218C1.99867 13.4205 1.99877 13.5175 1.99888 13.6127L1.99956 14.1613C1.99969 14.2487 1.99981 14.3341 1.99994 14.4172L2.00124 15.101C2.00265 15.7167 2.00444 16.116 2.0067 16.1929C2.15809 18.0322 3.88179 19.4385 5.85515 19.2871C6.06383 19.2874 6.27825 19.2877 6.49712 19.288L7.1658 19.2891C7.73201 19.29 8.31798 19.291 8.90354 19.292L9.60473 19.2932C9.95393 19.2938 10.3001 19.2943 10.6388 19.2949L11.3052 19.2959C11.4142 19.296 11.522 19.2962 11.6285 19.2963L12.2508 19.2971C12.3514 19.2973 12.4505 19.2974 12.5477 19.2975L14.8921 19.2974C15.0455 19.2969 15.1419 19.2961 15.1708 19.295C16.1469 19.2552 17.0526 18.8409 17.7046 18.1304C18.3141 17.4678 18.6275 16.6179 18.589 15.7401L18.5879 15.7182L18.5876 9.29586C18.5876 9.19156 18.5875 9.0886 18.5874 8.98713L18.5864 7.8506C18.5863 7.76343 18.5862 7.67834 18.5861 7.59547L18.585 6.91371C18.5846 6.70912 18.5841 6.52852 18.5836 6.37586L18.5824 6.10896C18.5816 5.95743 18.5807 5.86025 18.5797 5.8268C18.4297 3.97827 16.698 2.55469 14.714 2.71007ZM24.5917 5.50769L20.5791 8.78152C20.5793 8.94468 20.5794 9.11429 20.5796 9.29033L20.5804 12.6204L24.5758 16.2895C24.8692 16.5285 25.1641 16.4302 25.2783 16.3744C25.3925 16.3213 25.6567 16.1553 25.6567 15.7782L25.6727 6.01896C25.674 5.64182 25.4084 5.47582 25.2942 5.42138C25.1813 5.36826 24.8825 5.26866 24.5917 5.50769Z" fill="white"/>
</g>
</g>
</svg>
