<svg width="82" height="82" viewBox="0 0 82 82" fill="none" xmlns="http://www.w3.org/2000/svg">
<path d="M42.673 51.5608L43.6356 50.4229C46.7877 46.6966 48.3031 41.5289 46.6644 35.9137L46.6643 35.9135C45.1617 30.7609 40.878 26.6911 35.7218 25.5135L35.9642 24.4524L35.7218 25.5135C25.8259 23.2533 17.0405 30.804 17.0405 40.4755C17.0405 44.2819 18.457 47.7233 20.7367 50.4237L21.6978 51.5622L20.321 52.1317C10.2072 56.315 2.70559 66.0518 1.11715 77.4886L42.673 51.5608ZM42.673 51.5608L44.0499 52.1315M42.673 51.5608L44.0499 52.1315M44.0499 52.1315C54.165 56.3232 61.6702 66.0526 63.2545 77.4928L63.2545 77.4929C63.504 79.2933 62.0744 80.9115 60.2783 80.9115C58.8283 80.9115 57.5813 79.8297 57.3709 78.3436M44.0499 52.1315L64.3327 77.3435C64.6736 79.8035 62.7296 82 60.2783 82C58.2734 82 56.577 80.5062 56.2929 78.4946M56.2929 78.4946L57.3709 78.3439C57.3709 78.3438 57.3709 78.3437 57.3709 78.3436M56.2929 78.4946C54.6208 66.5317 44.5356 57.0009 32.3603 56.9145L57.3709 78.3436M56.2929 78.4946L57.3707 78.3424C57.3708 78.3428 57.3708 78.3432 57.3709 78.3436M75.6781 19.3503L75.6769 19.3514C74.701 20.3184 74.26 21.7038 74.4891 23.0583L75.5623 22.8768L74.4891 23.0584L75.5808 29.5127L75.5809 29.513C75.8034 30.8259 74.7777 31.8877 73.6305 31.8877C73.3406 31.8877 73.0292 31.8173 72.714 31.6493L72.202 32.6098L72.714 31.6493L66.9967 28.6018C66.3907 28.278 65.7232 28.115 65.0551 28.115C64.3848 28.115 63.7231 28.279 63.1171 28.5999L63.1145 28.6013L57.3962 31.6493L57.3961 31.6493C57.0809 31.8173 56.7695 31.8877 56.4796 31.8877C55.3351 31.8877 54.3097 30.8282 54.5294 29.5121C54.5295 29.5117 54.5295 29.5113 54.5296 29.5109L55.625 23.059L55.6251 23.0583C55.8547 21.7007 55.4069 20.3162 54.4332 19.3514L54.4321 19.3503L49.8058 14.7802C48.6068 13.5946 49.2922 11.5609 50.8994 11.3244L50.8995 11.3244L57.2924 10.3829C57.2931 10.3828 57.2937 10.3827 57.2944 10.3826C58.6558 10.1857 59.824 9.31776 60.4251 8.08272L60.4252 8.08249L63.2817 2.20906C63.6499 1.45455 64.3479 1.0885 65.0551 1.0885C65.7655 1.0885 66.4599 1.45385 66.8284 2.20906L69.6891 8.08272C70.2896 9.31666 71.4534 10.1858 72.8206 10.3828C72.8212 10.3828 72.8218 10.3829 72.8224 10.383L79.2105 11.3244L79.2107 11.3244C80.8178 11.5609 81.5032 13.5942 80.3047 14.7798C80.3046 14.7799 80.3044 14.78 80.3043 14.7802L75.6781 19.3503ZM32.3603 49.775H32.372L32.3838 49.7747C37.3761 49.6672 41.3912 45.534 41.3912 40.4755C41.3912 35.3508 37.2773 31.1595 32.1858 31.1595C27.0943 31.1595 22.9804 35.3508 22.9804 40.4755C22.9804 45.5344 26.9958 49.6672 31.9919 49.7747L32.0036 49.775H32.0153C32.0837 49.775 32.1464 49.7705 32.1722 49.7686L32.1771 49.7683C32.1808 49.768 32.184 49.7678 32.1868 49.7676C32.1895 49.7678 32.1928 49.768 32.1965 49.7683L32.2012 49.7686C32.2283 49.7706 32.2903 49.775 32.3603 49.775ZM32.1869 55.8362C32.1821 55.8356 32.1773 55.8351 32.1724 55.8346C32.1342 55.8305 32.0796 55.826 32.0153 55.826L32.0076 55.8261C19.2479 55.9166 8.74602 65.8873 7.00072 78.3395L7.00054 78.3408C6.79378 79.8291 5.54823 80.9115 4.0933 80.9115C2.29812 80.9115 0.867662 79.2944 1.11707 77.4892L32.1869 55.8362Z" fill="#5C59C1" stroke="white" stroke-width="2.17699"/>
</svg>
