<svg width="60" height="60" viewBox="0 0 60 60" fill="none" xmlns="http://www.w3.org/2000/svg">
<circle cx="30" cy="30" r="30" fill="#3B9746"/>
<path fill-rule="evenodd" clip-rule="evenodd" d="M29.7732 32.828L29.999 32.8281L30.5042 32.8298C34.3654 32.8552 43.1892 33.2453 43.1892 39.226C43.1892 45.1675 34.673 45.555 30.5644 45.5802L29.0422 45.5802C25.1808 45.5548 16.3552 45.1653 16.3552 39.192C16.3552 33.243 25.1808 32.8551 29.0422 32.8298L29.5474 32.8281C29.6257 32.828 29.7011 32.828 29.7732 32.828ZM29.7732 35.828C25.0212 35.828 19.3552 36.412 19.3552 39.192C19.3552 41.9091 24.683 42.5443 29.3389 42.5803L29.7732 42.582C34.5252 42.582 40.1892 42 40.1892 39.226C40.1892 36.418 34.5252 35.828 29.7732 35.828ZM45.6804 32.0164C50.5264 32.7424 51.5444 35.0184 51.5444 36.8004C51.5444 37.8884 51.1164 39.8744 48.2564 40.9644C48.0804 41.0304 47.9004 41.0624 47.7224 41.0624C47.1184 41.0624 46.5484 40.6944 46.3204 40.0964C46.0244 39.3224 46.4144 38.4544 47.1884 38.1604C48.5444 37.6444 48.5444 37.0744 48.5444 36.8004C48.5444 35.9244 47.4304 35.3124 45.2344 34.9844C44.4164 34.8604 43.8504 34.0984 43.9724 33.2764C44.0944 32.4564 44.8544 31.9104 45.6804 32.0164ZM15.572 33.2764C15.694 34.0984 15.128 34.8604 14.31 34.9844C12.114 35.3124 11 35.9244 11 36.8004C11 37.0744 11 37.6424 12.358 38.1604C13.132 38.4544 13.522 39.3224 13.226 40.0964C12.998 40.6944 12.428 41.0624 11.824 41.0624C11.646 41.0624 11.466 41.0304 11.29 40.9644C8.428 39.8724 8 37.8864 8 36.8004C8 35.0204 9.018 32.7424 13.866 32.0164C14.692 31.9124 15.448 32.4564 15.572 33.2764ZM29.7732 12C34.8132 12 38.9112 16.1 38.9112 21.138C38.9112 26.176 34.8132 30.276 29.7732 30.276H29.7192C27.2792 30.268 24.9932 29.312 23.2812 27.584C21.5652 25.858 20.6272 23.566 20.6371 21.132C20.6371 16.1 24.7352 12 29.7732 12ZM29.7732 15C26.3892 15 23.6372 17.754 23.6372 21.138C23.6312 22.778 24.2592 24.312 25.4092 25.47C26.5592 26.628 28.0912 27.27 29.7232 27.276L29.7732 28.776V27.276C33.1572 27.276 35.9112 24.524 35.9112 21.138C35.9112 17.754 33.1572 15 29.7732 15ZM42.1512 13.959C45.6672 14.537 48.2212 17.545 48.2212 21.111C48.2132 24.701 45.5312 27.781 41.9812 28.279C41.9112 28.289 41.8412 28.293 41.7732 28.293C41.0372 28.293 40.3952 27.751 40.2892 27.001C40.1752 26.179 40.7452 25.421 41.5672 25.307C43.6472 25.015 45.2172 23.211 45.2212 21.107C45.2212 19.021 43.7252 17.257 41.6632 16.919C40.8472 16.785 40.2932 16.013 40.4272 15.195C40.5632 14.377 41.3292 13.829 42.1512 13.959ZM19.1192 15.195C19.2532 16.013 18.6992 16.785 17.8832 16.919C15.8212 17.257 14.3252 19.021 14.3252 21.111C14.3292 23.211 15.8992 25.017 17.9772 25.307C18.7992 25.421 19.3692 26.179 19.2552 27.001C19.1492 27.751 18.5072 28.293 17.7712 28.293C17.7032 28.293 17.6332 28.289 17.5632 28.279C14.0132 27.781 11.3332 24.701 11.3252 21.115C11.3252 17.545 13.8792 14.537 17.3952 13.959C18.2372 13.827 18.9832 14.381 19.1192 15.195Z" fill="white"/>
</svg>
