<svg width="18" height="18" viewBox="0 0 18 18" fill="none" xmlns="http://www.w3.org/2000/svg">
<g id="Iconly/Light-Outline/Search">
<g id="Search">
<path id="Combined-Shape" fill-rule="evenodd" clip-rule="evenodd" d="M8.65063 0C13.4205 0 17.3004 3.79428 17.3004 8.45896C17.3004 10.6597 16.4367 12.667 15.0235 14.1734L17.8044 16.8873C18.0646 17.1418 18.0655 17.5535 17.8053 17.808C17.6756 17.9366 17.5041 18 17.3336 18C17.1639 18 16.9934 17.9366 16.8628 17.8098L14.0484 15.0651C12.5679 16.2246 10.6906 16.9188 8.65063 16.9188C3.88075 16.9188 0 13.1236 0 8.45896C0 3.79428 3.88075 0 8.65063 0ZM8.65063 1.30298C4.61533 1.30298 1.33237 4.51266 1.33237 8.45896C1.33237 12.4053 4.61533 15.6158 8.65063 15.6158C12.685 15.6158 15.968 12.4053 15.968 8.45896C15.968 4.51266 12.685 1.30298 8.65063 1.30298Z" fill="black"/>
</g>
</g>
</svg>
