<svg width="20" height="16" viewBox="0 0 20 16" fill="none" xmlns="http://www.w3.org/2000/svg">
<g id="Logo_1_">
<path id="white_background" d="M17.2959 3.9053C17.3076 4.0755 17.3076 4.2457 17.3076 4.41746C17.3076 9.65119 13.331 15.6873 6.05962 15.6873V15.6841C3.91163 15.6873 1.80826 15.0708 0 13.9084C0.312335 13.9461 0.626236 13.9649 0.94092 13.9657C2.721 13.9673 4.45019 13.3688 5.85061 12.2669C4.15899 12.2347 2.67559 11.1296 2.15738 9.51628C2.74996 9.63079 3.36054 9.60726 3.94216 9.44805C2.09789 9.07472 0.771053 7.45119 0.771053 5.5657C0.771053 5.54844 0.771053 5.53197 0.771053 5.5155C1.32058 5.82217 1.93585 5.99236 2.56522 6.01119C0.828197 4.84805 0.292765 2.53275 1.34171 0.722559C3.3488 3.19707 6.31011 4.70138 9.48904 4.8606C9.17044 3.48491 9.60568 2.04334 10.6327 1.07628C12.2249 -0.423324 14.7291 -0.346461 16.2258 1.24805C17.1111 1.07315 17.9597 0.747657 18.7362 0.28648C18.4411 1.20334 17.8235 1.98217 16.9984 2.47707C17.782 2.38452 18.5475 2.17432 19.2685 1.85354C18.7378 2.6504 18.0693 3.34452 17.2959 3.9053Z" fill="#1D9BF0"/>
</g>
</svg>
