<svg width="12" height="12" viewBox="0 0 12 12" fill="none" xmlns="http://www.w3.org/2000/svg">
<path id="Vector" d="M1.40292 7.30508L3.38742 5.32058L5.03767 6.97083L6.87925 5.12925L5.83334 4.08333H8.75V7L7.70409 5.95408L5.03767 8.6205L3.38742 6.97083L1.94425 8.414C2.59958 9.40033 3.60537 10.1006 4.75781 10.373C5.91024 10.6454 7.12313 10.4695 8.15069 9.88091C9.17825 9.29233 9.94363 8.33511 10.2917 7.20324C10.6398 6.07136 10.5446 4.84949 10.0253 3.78521C9.50606 2.72094 8.60162 1.89387 7.49528 1.4716C6.38893 1.04934 5.16343 1.06346 4.06711 1.51111C2.97079 1.95876 2.08565 2.80645 1.59106 3.88241C1.09647 4.95836 1.02943 6.18211 1.4035 7.30567L1.40292 7.30508ZM0.506338 8.21391L0.500505 8.20808L0.502838 8.20575C0.170296 7.45909 -0.00104282 6.65069 4.77503e-06 5.83333C4.77503e-06 2.61158 2.61159 0 5.83334 0C9.05509 0 11.6667 2.61158 11.6667 5.83333C11.6667 9.05508 9.05509 11.6667 5.83334 11.6667C3.45917 11.6667 1.4175 10.2492 0.506338 8.21391Z" fill="#898989"/>
</svg>
